M48
;Layer_Color=9474304
;FILE_FORMAT=4:3
METRIC,LZ
;TYPE=PLATED
T1F00S00C0.400
T2F00S00C0.500
T3F00S00C0.711
T4F00S00C0.762
T5F00S00C0.900
T6F00S00C1.000
T7F00S00C1.500
T8F00S00C1.800
T9F00S00C2.000
T10F00S00C2.500
%
T01
X002897Y005424
T02
X000385Y000274
X00256
X002541Y001284
X004253Y00055
X004984Y001013
X005759Y000558
X007351Y000542
X008617Y000566
X009657Y000465
X010325Y00093
X01032Y001529
X010138Y001531
X009946Y001526
X009939Y001818
X01014Y001815
X010318
X010322Y002112
X010139
X009945Y002109
X009944Y002349
X010129Y002348
X010322
X010502Y002349
X010703Y002348
Y002601
X01051Y0026
X010327Y002598
X010128Y002603
X009932Y0026
X009933Y002889
X01013Y002887
X01032Y00289
X010521Y002887
X010699
X010703Y003184
X01052
X010326Y003181
X010124Y00318
X009928Y003182
X009678Y003108
X010459Y003912
X010144Y004526
X0111375Y0026195
X011319Y002801
X010996Y002392
X009214Y002406
X00843Y002295
X008427Y002524
X008688Y002853
X008512Y003225
X008525Y0039
X009318
X008798Y004873
X008815Y005392
X008Y004956
X008034Y004472
X007621Y004738
X007617Y003908
X007629Y003213
X007456Y002682
X007198Y002154
X007201Y00162
X007853Y001847
X008419Y001839
X009181Y001441
X00635Y001957
X006409Y002483
X005794Y002495
X00581Y003076
X005942Y003856
X005681Y003943
X006909Y003915
X007051Y003076
X005223Y003054
X004663Y003083
X004664Y002864
X004481
X004287Y002861
X004075Y002864
X003892
X003893Y002567
X004071
X004281Y00257
X004482Y002567
X00466
X004664Y002281
X004471Y00228
X004288Y002278
X004075Y002281
X003882Y00228
X003874Y002029
X004075Y002028
X004283
X004463Y002029
X004664Y002028
X004674Y001784
X004481Y001783
X004298Y001781
X004085Y001784
X003892Y001783
X003884Y001532
X004085Y001531
X004293
X004473Y001532
X004674Y001531
X005291Y001952
X003255Y001876
X003211Y00146
X002896Y002122
X003211Y002463
X002463Y002497
X002701Y002787
X002593Y003285
X002238Y003656
X002242Y004163
X001912Y004031
X001887Y004457
X002524Y004466
X002832Y004791
X003014Y005145
X002925Y0053
X003351Y005364
X00349Y005382
X003434Y005084
X003539Y00494
X003653Y004868
X003941Y004552
X00386Y004276
X003591Y004146
X003487Y004427
X003144Y004314
X003066Y003705
X003607Y003494
X004152Y003504
X004074Y003083
X004722Y003498
X005008Y004248
X005137Y004156
X004346Y004554
X004248Y005221
X004713Y005235
X004857Y005239
X005395Y005385
X002536Y005101
X002066Y005356
X001522Y004792
X001588Y003667
X001584Y003131
X001903Y003141
X001737Y002676
X001571Y002274
X001824Y001952
Y001448
X002476Y001795
X002284Y001997
X001062Y001661
X001067Y002724
X001082Y003659
X000509Y005787
X000569Y007563
X001596Y008372
X002325Y008366
X00273Y008394
X003344Y008353
X003349Y008867
X003356Y007752
X00352Y007539
X003144Y0072
X002673Y007095
X002234Y007082
X00244Y006647
X002612Y00614
X00286Y006385
X00337Y00642
X003383Y006669
X003548Y006675
X003311Y006789
X003528Y006045
X003658Y006046
X003781Y00609
X003906Y006147
X003886Y005871
X003783Y005771
X003683Y00555
X003562Y005549
X003041Y005651
X002989Y005767
X002997Y005892
X003127Y005969
X003192Y005861
X002532Y005493
X002075Y00595
X004161Y006006
X004203Y00614
X004215Y006278
X0043197Y005766
X004262Y005638
X004809Y005594
X004806Y005439
X004757Y005943
X004681Y006045
X004807Y006544
X004868Y006682
X004324Y006836
X004109Y008095
X005176Y007666
X004898Y008844
X002462Y009335
X001596Y00933
X002554Y00776
X002849
X005281Y005586
X005542Y005564
X005752Y005912
X005624Y006287
X005613Y006476
X00551Y006388
X005739Y006646
X005457Y006887
X005733Y007196
X005735Y007464
X006069Y007283
X006399Y007277
X006398Y006922
X006061Y006921
X006447Y00657
X006532Y006186
X006881Y006905
X007662
X007658Y007306
X007899Y006574
X007872Y005801
X008798Y005859
X008893Y007306
X006362Y008831
X005773Y008243
X009776Y008128
X010135Y008848
X011824Y007734
X011816Y005923
X011824Y009621
X00992Y011073
X007151Y011113
X007228Y010361
X006901Y010356
X007572Y01034
X00756Y009371
X006889Y009367
X005474Y009432
X004701Y011105
X002038Y01115
X000603Y009809
T03
X011424Y003161
X011164Y003804
X010941Y003816
X007853Y003031
X007767Y002512
X008012Y002144
X007852Y005133
X004936Y002472
X00335Y00315
X001883Y002926
X002269Y002154
X0028825Y006843
X002522Y007284
X003469Y007185
X005055Y007276
X0052822Y006885
X002134Y009075
X010485Y009077
X010168Y007283
X009526Y00683
X007771Y01017
T04
X003015Y009091
X003196Y009089
T05
X011832Y004285
Y004539
T06
X006033Y004346
X006283
X006533
Y005796
X006033
X006031Y009934
X006281
X006531
X006781
X007031
X007281
X007531
Y010832
X007281
X007031
X006781
X006531
X006281
X006031
X005781
Y009934
T07
X011404Y000663
X0119115
X0119107Y001314
X0114033
T08
X01183Y002615
Y003011
Y003407
Y003803
X003669Y010832
X003273
T09
X002988Y00078
Y00114
X0032995Y0009625
X0033Y0006
X003612Y00078
Y00114
X008988
Y00078
X0093Y0006
X0092995Y0009625
X009612Y00114
Y00078
T10
X0063Y000865
X01183Y005105
X006843Y005096
X005723
X00077Y005105
X01183Y010835
X00077
M30
