G04 Layer_Color=32896*
%FSLAX43Y43*%
%MOMM*%
G71*
G01*
G75*
%ADD78C,0.254*%
%ADD85C,0.250*%
%ADD86C,0.050*%
%ADD87C,0.100*%
%ADD88C,0.200*%
%ADD141C,0.152*%
G36*
X96691Y100582D02*
X96578D01*
X96313Y101278D01*
X96435D01*
X96589Y100852D01*
X96599Y100824D01*
X96609Y100799D01*
X96616Y100776D01*
X96623Y100758D01*
X96627Y100741D01*
X96631Y100730D01*
X96632Y100723D01*
X96634Y100720D01*
X96642Y100747D01*
X96649Y100773D01*
X96657Y100796D01*
X96664Y100817D01*
X96670Y100835D01*
X96674Y100849D01*
X96675Y100853D01*
X96677Y100858D01*
X96678Y100859D01*
Y100860D01*
X96828Y101278D01*
X96953D01*
X96691Y100582D01*
D02*
G37*
G36*
X97086Y101292D02*
X97100Y101289D01*
X97114Y101285D01*
X97125Y101281D01*
X97133Y101276D01*
X97141Y101272D01*
X97146Y101269D01*
X97147Y101268D01*
X97159Y101257D01*
X97172Y101243D01*
X97184Y101226D01*
X97195Y101211D01*
X97207Y101196D01*
X97213Y101183D01*
X97219Y101174D01*
X97220Y101172D01*
Y101278D01*
X97327D01*
Y100582D01*
X97209D01*
Y100945D01*
X97208Y100973D01*
X97207Y100998D01*
X97204Y101021D01*
X97200Y101042D01*
X97195Y101059D01*
X97193Y101071D01*
X97191Y101079D01*
X97190Y101082D01*
X97184Y101097D01*
X97177Y101110D01*
X97170Y101121D01*
X97164Y101131D01*
X97157Y101138D01*
X97152Y101143D01*
X97148Y101146D01*
X97147Y101147D01*
X97136Y101156D01*
X97123Y101161D01*
X97111Y101165D01*
X97101Y101168D01*
X97091Y101170D01*
X97085Y101171D01*
X97078D01*
X97062Y101170D01*
X97047Y101167D01*
X97032Y101163D01*
X97019Y101158D01*
X97008Y101154D01*
X97000Y101150D01*
X96994Y101147D01*
X96993Y101146D01*
X96950Y101254D01*
X96974Y101267D01*
X96996Y101276D01*
X97015Y101283D01*
X97033Y101289D01*
X97048Y101292D01*
X97061Y101293D01*
X97071D01*
X97086Y101292D01*
D02*
G37*
G36*
X94683Y100582D02*
X94548D01*
Y100716D01*
X94683D01*
Y100582D01*
D02*
G37*
G36*
X112850D02*
X112717D01*
X112343Y101541D01*
X112471D01*
X112732Y100844D01*
X112743Y100815D01*
X112753Y100787D01*
X112761Y100760D01*
X112768Y100737D01*
X112775Y100716D01*
X112779Y100701D01*
X112781Y100695D01*
X112782Y100691D01*
X112784Y100688D01*
Y100687D01*
X112800Y100742D01*
X112809Y100769D01*
X112817Y100792D01*
X112824Y100813D01*
X112827Y100821D01*
X112828Y100830D01*
X112831Y100835D01*
X112832Y100839D01*
X112833Y100842D01*
Y100844D01*
X113083Y101541D01*
X113222D01*
X112850Y100582D01*
D02*
G37*
G36*
X117539Y100846D02*
Y100820D01*
X117538Y100796D01*
X117536Y100778D01*
X117535Y100762D01*
Y100751D01*
X117533Y100742D01*
X117532Y100737D01*
Y100735D01*
X117528Y100717D01*
X117522Y100701D01*
X117517Y100686D01*
X117510Y100673D01*
X117504Y100662D01*
X117500Y100655D01*
X117497Y100649D01*
X117496Y100648D01*
X117485Y100636D01*
X117472Y100625D01*
X117460Y100615D01*
X117446Y100606D01*
X117435Y100600D01*
X117425Y100594D01*
X117420Y100591D01*
X117417Y100590D01*
X117396Y100582D01*
X117377Y100576D01*
X117357Y100572D01*
X117339Y100569D01*
X117324Y100568D01*
X117312Y100566D01*
X117302D01*
X117277Y100568D01*
X117252Y100572D01*
X117230Y100577D01*
X117208Y100584D01*
X117188Y100594D01*
X117170Y100604D01*
X117153Y100613D01*
X117138Y100625D01*
X117124Y100636D01*
X117113Y100645D01*
X117104Y100656D01*
X117095Y100665D01*
X117088Y100672D01*
X117084Y100677D01*
X117081Y100681D01*
X117080Y100683D01*
Y100582D01*
X116975D01*
Y101278D01*
X117092D01*
Y100905D01*
X117094Y100873D01*
X117095Y100845D01*
X117098Y100821D01*
X117102Y100802D01*
X117106Y100787D01*
X117109Y100776D01*
X117110Y100770D01*
X117112Y100767D01*
X117120Y100751D01*
X117130Y100737D01*
X117141Y100724D01*
X117152Y100713D01*
X117162Y100705D01*
X117170Y100699D01*
X117176Y100695D01*
X117178Y100694D01*
X117196Y100686D01*
X117214Y100679D01*
X117231Y100674D01*
X117246Y100670D01*
X117259Y100669D01*
X117269Y100668D01*
X117278D01*
X117298Y100669D01*
X117314Y100672D01*
X117330Y100676D01*
X117342Y100681D01*
X117353Y100686D01*
X117360Y100690D01*
X117366Y100692D01*
X117367Y100694D01*
X117380Y100705D01*
X117389Y100716D01*
X117398Y100729D01*
X117404Y100740D01*
X117409Y100751D01*
X117411Y100759D01*
X117414Y100765D01*
Y100766D01*
X117417Y100781D01*
X117418Y100799D01*
X117420Y100820D01*
Y100841D01*
X117421Y100860D01*
Y100876D01*
Y100882D01*
Y100887D01*
Y100889D01*
Y100891D01*
Y101278D01*
X117539D01*
Y100846D01*
D02*
G37*
G36*
X99696Y101292D02*
X99710Y101289D01*
X99724Y101285D01*
X99735Y101281D01*
X99743Y101276D01*
X99751Y101272D01*
X99756Y101269D01*
X99757Y101268D01*
X99769Y101257D01*
X99782Y101243D01*
X99794Y101226D01*
X99805Y101211D01*
X99817Y101196D01*
X99824Y101183D01*
X99829Y101174D01*
X99830Y101172D01*
Y101278D01*
X99937D01*
Y100582D01*
X99819D01*
Y100945D01*
X99818Y100973D01*
X99817Y100998D01*
X99814Y101021D01*
X99810Y101042D01*
X99805Y101059D01*
X99803Y101071D01*
X99801Y101079D01*
X99800Y101082D01*
X99794Y101097D01*
X99787Y101110D01*
X99781Y101121D01*
X99774Y101131D01*
X99767Y101138D01*
X99762Y101143D01*
X99758Y101146D01*
X99757Y101147D01*
X99746Y101156D01*
X99733Y101161D01*
X99721Y101165D01*
X99711Y101168D01*
X99701Y101170D01*
X99695Y101171D01*
X99688D01*
X99672Y101170D01*
X99657Y101167D01*
X99642Y101163D01*
X99629Y101158D01*
X99618Y101154D01*
X99610Y101150D01*
X99604Y101147D01*
X99603Y101146D01*
X99560Y101254D01*
X99584Y101267D01*
X99606Y101276D01*
X99625Y101283D01*
X99643Y101289D01*
X99658Y101292D01*
X99671Y101293D01*
X99681D01*
X99696Y101292D01*
D02*
G37*
G36*
X101334Y101450D02*
Y101278D01*
X101421D01*
Y101186D01*
X101334D01*
Y100784D01*
Y100765D01*
Y100748D01*
X101332Y100733D01*
X101331Y100717D01*
Y100705D01*
X101330Y100694D01*
X101327Y100676D01*
X101324Y100662D01*
X101323Y100652D01*
X101320Y100647D01*
Y100645D01*
X101314Y100633D01*
X101306Y100623D01*
X101298Y100613D01*
X101291Y100606D01*
X101282Y100600D01*
X101277Y100595D01*
X101273Y100593D01*
X101271Y100591D01*
X101256Y100584D01*
X101241Y100580D01*
X101224Y100576D01*
X101208Y100575D01*
X101194Y100573D01*
X101183Y100572D01*
X101172D01*
X101141Y100573D01*
X101126Y100575D01*
X101112Y100577D01*
X101099Y100579D01*
X101090Y100580D01*
X101084Y100582D01*
X101081D01*
X101097Y100686D01*
X101108Y100684D01*
X101119Y100683D01*
X101129D01*
X101135Y100681D01*
X101149D01*
X101167Y100683D01*
X101180Y100686D01*
X101187Y100688D01*
X101190Y100690D01*
X101199Y100697D01*
X101205Y100704D01*
X101209Y100709D01*
X101210Y100712D01*
X101212Y100719D01*
X101213Y100729D01*
X101215Y100751D01*
X101216Y100760D01*
Y100769D01*
Y100774D01*
Y100777D01*
Y101186D01*
X101097D01*
Y101278D01*
X101216D01*
Y101520D01*
X101334Y101450D01*
D02*
G37*
G36*
X100792Y101290D02*
X100808Y101289D01*
X100823Y101286D01*
X100836Y101283D01*
X100846Y101281D01*
X100851Y101279D01*
X100854Y101278D01*
X100871Y101272D01*
X100886Y101267D01*
X100898Y101261D01*
X100909Y101256D01*
X100918Y101251D01*
X100923Y101247D01*
X100927Y101246D01*
X100929Y101244D01*
X100943Y101235D01*
X100954Y101224D01*
X100964Y101211D01*
X100972Y101201D01*
X100979Y101192D01*
X100983Y101185D01*
X100986Y101179D01*
X100987Y101178D01*
X100994Y101163D01*
X101000Y101149D01*
X101002Y101133D01*
X101005Y101121D01*
X101006Y101109D01*
X101008Y101100D01*
Y101095D01*
Y101092D01*
X101006Y101072D01*
X101004Y101056D01*
X101000Y101039D01*
X100995Y101025D01*
X100991Y101014D01*
X100987Y101005D01*
X100984Y100999D01*
X100983Y100998D01*
X100972Y100982D01*
X100959Y100970D01*
X100947Y100959D01*
X100934Y100949D01*
X100923Y100942D01*
X100915Y100937D01*
X100909Y100934D01*
X100907Y100932D01*
X100897Y100928D01*
X100884Y100923D01*
X100857Y100913D01*
X100828Y100905D01*
X100797Y100895D01*
X100771Y100888D01*
X100758Y100884D01*
X100747Y100881D01*
X100739Y100878D01*
X100732Y100877D01*
X100728Y100876D01*
X100726D01*
X100708Y100871D01*
X100693Y100867D01*
X100679Y100863D01*
X100667Y100859D01*
X100656Y100856D01*
X100646Y100852D01*
X100629Y100846D01*
X100618Y100842D01*
X100611Y100838D01*
X100607Y100837D01*
X100606Y100835D01*
X100593Y100827D01*
X100585Y100816D01*
X100578Y100806D01*
X100574Y100796D01*
X100571Y100787D01*
X100570Y100780D01*
Y100774D01*
Y100773D01*
X100571Y100756D01*
X100575Y100742D01*
X100582Y100729D01*
X100589Y100717D01*
X100597Y100708D01*
X100603Y100701D01*
X100608Y100697D01*
X100610Y100695D01*
X100627Y100684D01*
X100645Y100677D01*
X100665Y100672D01*
X100685Y100668D01*
X100703Y100665D01*
X100717Y100663D01*
X100731D01*
X100760Y100665D01*
X100785Y100669D01*
X100805Y100674D01*
X100823Y100681D01*
X100837Y100688D01*
X100848Y100694D01*
X100854Y100698D01*
X100857Y100699D01*
X100872Y100715D01*
X100884Y100733D01*
X100893Y100751D01*
X100900Y100767D01*
X100905Y100783D01*
X100908Y100796D01*
X100911Y100805D01*
Y100806D01*
Y100808D01*
X101027Y100790D01*
X101018Y100751D01*
X101005Y100716D01*
X100990Y100688D01*
X100975Y100665D01*
X100961Y100645D01*
X100948Y100633D01*
X100940Y100625D01*
X100939Y100623D01*
X100937Y100622D01*
X100923Y100612D01*
X100908Y100604D01*
X100875Y100590D01*
X100840Y100580D01*
X100807Y100573D01*
X100792Y100570D01*
X100778Y100569D01*
X100764Y100568D01*
X100753D01*
X100743Y100566D01*
X100731D01*
X100700Y100568D01*
X100674Y100570D01*
X100649Y100575D01*
X100627Y100580D01*
X100608Y100586D01*
X100595Y100590D01*
X100586Y100593D01*
X100585Y100594D01*
X100584D01*
X100560Y100606D01*
X100541Y100619D01*
X100524Y100633D01*
X100509Y100645D01*
X100498Y100656D01*
X100491Y100666D01*
X100485Y100672D01*
X100484Y100674D01*
X100473Y100694D01*
X100464Y100715D01*
X100457Y100733D01*
X100453Y100749D01*
X100450Y100765D01*
X100449Y100776D01*
Y100783D01*
Y100785D01*
X100450Y100808D01*
X100453Y100827D01*
X100459Y100844D01*
X100463Y100859D01*
X100468Y100871D01*
X100474Y100880D01*
X100477Y100885D01*
X100478Y100887D01*
X100489Y100900D01*
X100502Y100913D01*
X100514Y100924D01*
X100527Y100932D01*
X100539Y100939D01*
X100547Y100943D01*
X100553Y100946D01*
X100556Y100948D01*
X100565Y100952D01*
X100577Y100956D01*
X100603Y100966D01*
X100632Y100975D01*
X100661Y100984D01*
X100688Y100992D01*
X100700Y100995D01*
X100710Y100998D01*
X100718Y101000D01*
X100725Y101002D01*
X100729Y101003D01*
X100731D01*
X100746Y101007D01*
X100760Y101011D01*
X100772Y101014D01*
X100783Y101018D01*
X100801Y101023D01*
X100815Y101027D01*
X100825Y101031D01*
X100830Y101032D01*
X100833Y101034D01*
X100835D01*
X100846Y101039D01*
X100855Y101043D01*
X100864Y101049D01*
X100869Y101053D01*
X100875Y101057D01*
X100878Y101061D01*
X100879Y101063D01*
X100880Y101064D01*
X100889Y101078D01*
X100893Y101092D01*
Y101097D01*
X100894Y101102D01*
Y101104D01*
Y101106D01*
X100893Y101118D01*
X100889Y101131D01*
X100883Y101142D01*
X100876Y101150D01*
X100871Y101158D01*
X100865Y101164D01*
X100861Y101167D01*
X100859Y101168D01*
X100844Y101178D01*
X100826Y101185D01*
X100807Y101189D01*
X100789Y101193D01*
X100771Y101195D01*
X100757Y101196D01*
X100743D01*
X100719Y101195D01*
X100697Y101192D01*
X100679Y101186D01*
X100665Y101181D01*
X100653Y101175D01*
X100645Y101170D01*
X100639Y101167D01*
X100638Y101165D01*
X100624Y101153D01*
X100614Y101139D01*
X100606Y101125D01*
X100599Y101113D01*
X100595Y101100D01*
X100592Y101090D01*
X100590Y101085D01*
Y101082D01*
X100475Y101097D01*
X100481Y101121D01*
X100486Y101142D01*
X100493Y101160D01*
X100500Y101176D01*
X100507Y101188D01*
X100513Y101197D01*
X100516Y101203D01*
X100517Y101204D01*
X100529Y101218D01*
X100543Y101231D01*
X100559Y101242D01*
X100574Y101251D01*
X100588Y101258D01*
X100599Y101264D01*
X100606Y101267D01*
X100607Y101268D01*
X100608D01*
X100632Y101276D01*
X100657Y101282D01*
X100681Y101287D01*
X100703Y101290D01*
X100724Y101292D01*
X100739Y101293D01*
X100772D01*
X100792Y101290D01*
D02*
G37*
G36*
X110714Y101292D02*
X110743Y101289D01*
X110771Y101285D01*
X110793Y101281D01*
X110813Y101276D01*
X110827Y101272D01*
X110832Y101271D01*
X110836Y101269D01*
X110838Y101268D01*
X110839D01*
X110863Y101258D01*
X110884Y101246D01*
X110902Y101235D01*
X110917Y101224D01*
X110928Y101213D01*
X110936Y101204D01*
X110942Y101199D01*
X110943Y101197D01*
X110956Y101179D01*
X110967Y101160D01*
X110975Y101140D01*
X110982Y101122D01*
X110988Y101104D01*
X110992Y101092D01*
X110993Y101086D01*
Y101082D01*
X110995Y101081D01*
Y101079D01*
X110879Y101064D01*
X110871Y101089D01*
X110863Y101111D01*
X110853Y101129D01*
X110845Y101143D01*
X110836Y101154D01*
X110829Y101161D01*
X110824Y101165D01*
X110823Y101167D01*
X110806Y101176D01*
X110786Y101183D01*
X110766Y101189D01*
X110746Y101192D01*
X110727Y101195D01*
X110713Y101196D01*
X110699D01*
X110667Y101195D01*
X110639Y101190D01*
X110617Y101183D01*
X110598Y101176D01*
X110584Y101168D01*
X110573Y101163D01*
X110566Y101157D01*
X110565Y101156D01*
X110553Y101143D01*
X110545Y101128D01*
X110538Y101111D01*
X110534Y101095D01*
X110531Y101079D01*
X110530Y101066D01*
Y101057D01*
Y101056D01*
Y101054D01*
Y101052D01*
Y101046D01*
Y101036D01*
X110531Y101028D01*
Y101025D01*
Y101024D01*
X110545Y101020D01*
X110560Y101016D01*
X110592Y101007D01*
X110628Y101000D01*
X110662Y100993D01*
X110678Y100991D01*
X110694Y100989D01*
X110707Y100986D01*
X110719Y100985D01*
X110728Y100984D01*
X110735D01*
X110741Y100982D01*
X110742D01*
X110767Y100980D01*
X110788Y100975D01*
X110806Y100973D01*
X110820Y100970D01*
X110831Y100968D01*
X110839Y100966D01*
X110845Y100964D01*
X110846D01*
X110864Y100959D01*
X110879Y100953D01*
X110895Y100946D01*
X110907Y100941D01*
X110918Y100935D01*
X110925Y100930D01*
X110931Y100927D01*
X110932Y100925D01*
X110946Y100916D01*
X110957Y100905D01*
X110968Y100894D01*
X110976Y100882D01*
X110983Y100873D01*
X110989Y100864D01*
X110992Y100859D01*
X110993Y100858D01*
X111000Y100842D01*
X111006Y100826D01*
X111010Y100810D01*
X111013Y100795D01*
X111014Y100783D01*
X111015Y100773D01*
Y100767D01*
Y100765D01*
X111014Y100748D01*
X111013Y100734D01*
X111006Y100705D01*
X110996Y100681D01*
X110985Y100661D01*
X110974Y100644D01*
X110964Y100631D01*
X110957Y100625D01*
X110954Y100622D01*
X110929Y100604D01*
X110902Y100590D01*
X110871Y100580D01*
X110843Y100573D01*
X110818Y100569D01*
X110807Y100568D01*
X110798D01*
X110789Y100566D01*
X110778D01*
X110753Y100568D01*
X110728Y100570D01*
X110706Y100573D01*
X110687Y100577D01*
X110671Y100582D01*
X110659Y100586D01*
X110651Y100587D01*
X110648Y100588D01*
X110624Y100598D01*
X110602Y100611D01*
X110581Y100625D01*
X110560Y100637D01*
X110544Y100649D01*
X110531Y100659D01*
X110523Y100666D01*
X110522Y100669D01*
X110520D01*
X110517Y100651D01*
X110515Y100634D01*
X110512Y100619D01*
X110508Y100606D01*
X110504Y100595D01*
X110501Y100588D01*
X110499Y100583D01*
X110498Y100582D01*
X110375D01*
X110382Y100597D01*
X110388Y100612D01*
X110394Y100626D01*
X110397Y100638D01*
X110401Y100649D01*
X110402Y100658D01*
X110404Y100663D01*
Y100665D01*
X110405Y100674D01*
X110406Y100687D01*
Y100701D01*
X110408Y100716D01*
X110409Y100751D01*
Y100785D01*
X110411Y100819D01*
Y100834D01*
Y100846D01*
Y100858D01*
Y100866D01*
Y100871D01*
Y100873D01*
Y101031D01*
Y101057D01*
X110412Y101081D01*
X110413Y101099D01*
Y101114D01*
X110415Y101125D01*
X110416Y101133D01*
X110418Y101138D01*
Y101139D01*
X110422Y101157D01*
X110427Y101172D01*
X110433Y101185D01*
X110440Y101197D01*
X110445Y101206D01*
X110449Y101213D01*
X110452Y101217D01*
X110454Y101218D01*
X110465Y101229D01*
X110477Y101240D01*
X110491Y101249D01*
X110505Y101257D01*
X110517Y101262D01*
X110527Y101267D01*
X110534Y101269D01*
X110537Y101271D01*
X110559Y101278D01*
X110583Y101283D01*
X110606Y101287D01*
X110630Y101290D01*
X110651Y101292D01*
X110666Y101293D01*
X110681D01*
X110714Y101292D01*
D02*
G37*
G36*
X114667D02*
X114696Y101289D01*
X114724Y101285D01*
X114746Y101281D01*
X114765Y101276D01*
X114779Y101272D01*
X114785Y101271D01*
X114789Y101269D01*
X114790Y101268D01*
X114792D01*
X114815Y101258D01*
X114836Y101246D01*
X114854Y101235D01*
X114869Y101224D01*
X114880Y101213D01*
X114889Y101204D01*
X114894Y101199D01*
X114896Y101197D01*
X114908Y101179D01*
X114919Y101160D01*
X114928Y101140D01*
X114935Y101122D01*
X114940Y101104D01*
X114944Y101092D01*
X114946Y101086D01*
Y101082D01*
X114947Y101081D01*
Y101079D01*
X114832Y101064D01*
X114824Y101089D01*
X114815Y101111D01*
X114806Y101129D01*
X114797Y101143D01*
X114789Y101154D01*
X114782Y101161D01*
X114776Y101165D01*
X114775Y101167D01*
X114758Y101176D01*
X114739Y101183D01*
X114718Y101189D01*
X114699Y101192D01*
X114679Y101195D01*
X114665Y101196D01*
X114652D01*
X114620Y101195D01*
X114592Y101190D01*
X114570Y101183D01*
X114550Y101176D01*
X114536Y101168D01*
X114525Y101163D01*
X114518Y101157D01*
X114517Y101156D01*
X114506Y101143D01*
X114498Y101128D01*
X114491Y101111D01*
X114487Y101095D01*
X114484Y101079D01*
X114482Y101066D01*
Y101057D01*
Y101056D01*
Y101054D01*
Y101052D01*
Y101046D01*
Y101036D01*
X114484Y101028D01*
Y101025D01*
Y101024D01*
X114498Y101020D01*
X114513Y101016D01*
X114545Y101007D01*
X114581Y101000D01*
X114614Y100993D01*
X114631Y100991D01*
X114646Y100989D01*
X114660Y100986D01*
X114671Y100985D01*
X114681Y100984D01*
X114688D01*
X114693Y100982D01*
X114695D01*
X114720Y100980D01*
X114740Y100975D01*
X114758Y100973D01*
X114772Y100970D01*
X114783Y100968D01*
X114792Y100966D01*
X114797Y100964D01*
X114799D01*
X114817Y100959D01*
X114832Y100953D01*
X114847Y100946D01*
X114860Y100941D01*
X114871Y100935D01*
X114878Y100930D01*
X114883Y100927D01*
X114885Y100925D01*
X114898Y100916D01*
X114910Y100905D01*
X114921Y100894D01*
X114929Y100882D01*
X114936Y100873D01*
X114941Y100864D01*
X114944Y100859D01*
X114946Y100858D01*
X114953Y100842D01*
X114958Y100826D01*
X114962Y100810D01*
X114965Y100795D01*
X114966Y100783D01*
X114968Y100773D01*
Y100767D01*
Y100765D01*
X114966Y100748D01*
X114965Y100734D01*
X114958Y100705D01*
X114948Y100681D01*
X114937Y100661D01*
X114926Y100644D01*
X114916Y100631D01*
X114910Y100625D01*
X114907Y100622D01*
X114882Y100604D01*
X114854Y100590D01*
X114824Y100580D01*
X114796Y100573D01*
X114771Y100569D01*
X114760Y100568D01*
X114750D01*
X114742Y100566D01*
X114731D01*
X114706Y100568D01*
X114681Y100570D01*
X114659Y100573D01*
X114639Y100577D01*
X114624Y100582D01*
X114611Y100586D01*
X114603Y100587D01*
X114600Y100588D01*
X114577Y100598D01*
X114555Y100611D01*
X114534Y100625D01*
X114513Y100637D01*
X114496Y100649D01*
X114484Y100659D01*
X114475Y100666D01*
X114474Y100669D01*
X114473D01*
X114470Y100651D01*
X114467Y100634D01*
X114464Y100619D01*
X114460Y100606D01*
X114456Y100595D01*
X114453Y100588D01*
X114452Y100583D01*
X114451Y100582D01*
X114327D01*
X114334Y100597D01*
X114341Y100612D01*
X114347Y100626D01*
X114349Y100638D01*
X114353Y100649D01*
X114355Y100658D01*
X114356Y100663D01*
Y100665D01*
X114358Y100674D01*
X114359Y100687D01*
Y100701D01*
X114360Y100716D01*
X114362Y100751D01*
Y100785D01*
X114363Y100819D01*
Y100834D01*
Y100846D01*
Y100858D01*
Y100866D01*
Y100871D01*
Y100873D01*
Y101031D01*
Y101057D01*
X114365Y101081D01*
X114366Y101099D01*
Y101114D01*
X114367Y101125D01*
X114369Y101133D01*
X114370Y101138D01*
Y101139D01*
X114374Y101157D01*
X114380Y101172D01*
X114385Y101185D01*
X114392Y101197D01*
X114398Y101206D01*
X114402Y101213D01*
X114405Y101217D01*
X114406Y101218D01*
X114417Y101229D01*
X114430Y101240D01*
X114444Y101249D01*
X114457Y101257D01*
X114470Y101262D01*
X114480Y101267D01*
X114487Y101269D01*
X114489Y101271D01*
X114512Y101278D01*
X114535Y101283D01*
X114559Y101287D01*
X114582Y101290D01*
X114603Y101292D01*
X114618Y101293D01*
X114634D01*
X114667Y101292D01*
D02*
G37*
G36*
X110040Y101290D02*
X110057Y101289D01*
X110072Y101286D01*
X110085Y101283D01*
X110094Y101281D01*
X110100Y101279D01*
X110103Y101278D01*
X110119Y101272D01*
X110135Y101267D01*
X110147Y101261D01*
X110158Y101256D01*
X110167Y101251D01*
X110172Y101247D01*
X110176Y101246D01*
X110178Y101244D01*
X110192Y101235D01*
X110203Y101224D01*
X110212Y101211D01*
X110221Y101201D01*
X110228Y101192D01*
X110232Y101185D01*
X110235Y101179D01*
X110236Y101178D01*
X110243Y101163D01*
X110248Y101149D01*
X110251Y101133D01*
X110254Y101121D01*
X110255Y101109D01*
X110257Y101100D01*
Y101095D01*
Y101092D01*
X110255Y101072D01*
X110253Y101056D01*
X110248Y101039D01*
X110244Y101025D01*
X110240Y101014D01*
X110236Y101005D01*
X110233Y100999D01*
X110232Y100998D01*
X110221Y100982D01*
X110208Y100970D01*
X110196Y100959D01*
X110183Y100949D01*
X110172Y100942D01*
X110164Y100937D01*
X110158Y100934D01*
X110155Y100932D01*
X110146Y100928D01*
X110133Y100923D01*
X110106Y100913D01*
X110076Y100905D01*
X110046Y100895D01*
X110020Y100888D01*
X110007Y100884D01*
X109996Y100881D01*
X109988Y100878D01*
X109981Y100877D01*
X109977Y100876D01*
X109975D01*
X109957Y100871D01*
X109942Y100867D01*
X109928Y100863D01*
X109916Y100859D01*
X109904Y100856D01*
X109895Y100852D01*
X109878Y100846D01*
X109867Y100842D01*
X109860Y100838D01*
X109856Y100837D01*
X109855Y100835D01*
X109842Y100827D01*
X109834Y100816D01*
X109827Y100806D01*
X109823Y100796D01*
X109820Y100787D01*
X109818Y100780D01*
Y100774D01*
Y100773D01*
X109820Y100756D01*
X109824Y100742D01*
X109831Y100729D01*
X109838Y100717D01*
X109846Y100708D01*
X109852Y100701D01*
X109857Y100697D01*
X109859Y100695D01*
X109875Y100684D01*
X109893Y100677D01*
X109914Y100672D01*
X109934Y100668D01*
X109952Y100665D01*
X109965Y100663D01*
X109979D01*
X110008Y100665D01*
X110033Y100669D01*
X110054Y100674D01*
X110072Y100681D01*
X110086Y100688D01*
X110097Y100694D01*
X110103Y100698D01*
X110106Y100699D01*
X110121Y100715D01*
X110133Y100733D01*
X110142Y100751D01*
X110149Y100767D01*
X110154Y100783D01*
X110157Y100796D01*
X110160Y100805D01*
Y100806D01*
Y100808D01*
X110276Y100790D01*
X110266Y100751D01*
X110254Y100716D01*
X110239Y100688D01*
X110223Y100665D01*
X110210Y100645D01*
X110197Y100633D01*
X110189Y100625D01*
X110187Y100623D01*
X110186Y100622D01*
X110172Y100612D01*
X110157Y100604D01*
X110124Y100590D01*
X110089Y100580D01*
X110056Y100573D01*
X110040Y100570D01*
X110026Y100569D01*
X110013Y100568D01*
X110002D01*
X109992Y100566D01*
X109979D01*
X109949Y100568D01*
X109922Y100570D01*
X109898Y100575D01*
X109875Y100580D01*
X109857Y100586D01*
X109843Y100590D01*
X109835Y100593D01*
X109834Y100594D01*
X109832D01*
X109809Y100606D01*
X109789Y100619D01*
X109773Y100633D01*
X109757Y100645D01*
X109746Y100656D01*
X109739Y100666D01*
X109734Y100672D01*
X109732Y100674D01*
X109721Y100694D01*
X109713Y100715D01*
X109706Y100733D01*
X109702Y100749D01*
X109699Y100765D01*
X109698Y100776D01*
Y100783D01*
Y100785D01*
X109699Y100808D01*
X109702Y100827D01*
X109708Y100844D01*
X109712Y100859D01*
X109717Y100871D01*
X109723Y100880D01*
X109726Y100885D01*
X109727Y100887D01*
X109738Y100900D01*
X109751Y100913D01*
X109763Y100924D01*
X109775Y100932D01*
X109788Y100939D01*
X109796Y100943D01*
X109802Y100946D01*
X109805Y100948D01*
X109814Y100952D01*
X109825Y100956D01*
X109852Y100966D01*
X109881Y100975D01*
X109910Y100984D01*
X109936Y100992D01*
X109949Y100995D01*
X109959Y100998D01*
X109967Y101000D01*
X109974Y101002D01*
X109978Y101003D01*
X109979D01*
X109995Y101007D01*
X110008Y101011D01*
X110021Y101014D01*
X110032Y101018D01*
X110050Y101023D01*
X110064Y101027D01*
X110074Y101031D01*
X110079Y101032D01*
X110082Y101034D01*
X110083D01*
X110094Y101039D01*
X110104Y101043D01*
X110112Y101049D01*
X110118Y101053D01*
X110124Y101057D01*
X110126Y101061D01*
X110128Y101063D01*
X110129Y101064D01*
X110137Y101078D01*
X110142Y101092D01*
Y101097D01*
X110143Y101102D01*
Y101104D01*
Y101106D01*
X110142Y101118D01*
X110137Y101131D01*
X110132Y101142D01*
X110125Y101150D01*
X110119Y101158D01*
X110114Y101164D01*
X110110Y101167D01*
X110108Y101168D01*
X110093Y101178D01*
X110075Y101185D01*
X110056Y101189D01*
X110038Y101193D01*
X110020Y101195D01*
X110006Y101196D01*
X109992D01*
X109968Y101195D01*
X109946Y101192D01*
X109928Y101186D01*
X109914Y101181D01*
X109902Y101175D01*
X109893Y101170D01*
X109888Y101167D01*
X109886Y101165D01*
X109873Y101153D01*
X109863Y101139D01*
X109855Y101125D01*
X109848Y101113D01*
X109843Y101100D01*
X109841Y101090D01*
X109839Y101085D01*
Y101082D01*
X109724Y101097D01*
X109730Y101121D01*
X109735Y101142D01*
X109742Y101160D01*
X109749Y101176D01*
X109756Y101188D01*
X109762Y101197D01*
X109764Y101203D01*
X109766Y101204D01*
X109778Y101218D01*
X109792Y101231D01*
X109807Y101242D01*
X109823Y101251D01*
X109837Y101258D01*
X109848Y101264D01*
X109855Y101267D01*
X109856Y101268D01*
X109857D01*
X109881Y101276D01*
X109906Y101282D01*
X109929Y101287D01*
X109952Y101290D01*
X109972Y101292D01*
X109988Y101293D01*
X110021D01*
X110040Y101290D01*
D02*
G37*
G36*
X119432Y101555D02*
X119476Y101548D01*
X119518Y101537D01*
X119537Y101532D01*
X119555Y101526D01*
X119571Y101519D01*
X119586Y101513D01*
X119598Y101508D01*
X119610Y101502D01*
X119618Y101498D01*
X119625Y101495D01*
X119629Y101494D01*
X119630Y101493D01*
X119672Y101466D01*
X119709Y101437D01*
X119740Y101407D01*
X119766Y101378D01*
X119777Y101364D01*
X119787Y101351D01*
X119795Y101339D01*
X119802Y101329D01*
X119808Y101321D01*
X119812Y101315D01*
X119813Y101311D01*
X119815Y101310D01*
X119826Y101287D01*
X119836Y101265D01*
X119852Y101221D01*
X119863Y101179D01*
X119872Y101142D01*
X119874Y101125D01*
X119876Y101110D01*
X119879Y101096D01*
Y101085D01*
X119880Y101075D01*
Y101068D01*
Y101064D01*
Y101063D01*
X119879Y101039D01*
X119877Y101016D01*
X119870Y100971D01*
X119859Y100930D01*
X119854Y100910D01*
X119847Y100892D01*
X119841Y100876D01*
X119836Y100862D01*
X119830Y100849D01*
X119825Y100838D01*
X119820Y100828D01*
X119818Y100823D01*
X119815Y100819D01*
Y100817D01*
X119788Y100776D01*
X119759Y100740D01*
X119729Y100708D01*
X119698Y100681D01*
X119684Y100670D01*
X119672Y100661D01*
X119661Y100654D01*
X119651Y100647D01*
X119643Y100641D01*
X119637Y100637D01*
X119633Y100636D01*
X119632Y100634D01*
X119610Y100623D01*
X119587Y100613D01*
X119543Y100597D01*
X119503Y100586D01*
X119465Y100577D01*
X119449Y100575D01*
X119433Y100573D01*
X119420Y100570D01*
X119408D01*
X119399Y100569D01*
X119386D01*
X119363Y100570D01*
X119339Y100572D01*
X119293Y100579D01*
X119252Y100590D01*
X119232Y100595D01*
X119216Y100602D01*
X119199Y100608D01*
X119184Y100613D01*
X119171Y100619D01*
X119162Y100625D01*
X119152Y100629D01*
X119146Y100631D01*
X119142Y100634D01*
X119141D01*
X119099Y100661D01*
X119062Y100690D01*
X119031Y100720D01*
X119005Y100751D01*
X118994Y100765D01*
X118984Y100777D01*
X118976Y100788D01*
X118970Y100798D01*
X118965Y100806D01*
X118961Y100812D01*
X118959Y100816D01*
X118958Y100817D01*
X118947Y100839D01*
X118936Y100862D01*
X118919Y100906D01*
X118908Y100946D01*
X118899Y100984D01*
X118897Y101000D01*
X118894Y101016D01*
X118893Y101029D01*
Y101041D01*
X118891Y101050D01*
Y101057D01*
Y101061D01*
Y101063D01*
X118893Y101086D01*
X118894Y101110D01*
X118901Y101156D01*
X118912Y101197D01*
X118918Y101217D01*
X118924Y101235D01*
X118930Y101251D01*
X118937Y101265D01*
X118942Y101278D01*
X118947Y101289D01*
X118952Y101299D01*
X118955Y101304D01*
X118956Y101308D01*
X118958Y101310D01*
X118985Y101351D01*
X119015Y101389D01*
X119045Y101421D01*
X119060Y101433D01*
X119076Y101446D01*
X119090Y101457D01*
X119102Y101466D01*
X119114Y101475D01*
X119124Y101482D01*
X119132Y101486D01*
X119138Y101490D01*
X119142Y101491D01*
X119144Y101493D01*
X119166Y101504D01*
X119188Y101515D01*
X119231Y101530D01*
X119273Y101543D01*
X119309Y101550D01*
X119325Y101552D01*
X119341Y101555D01*
X119354Y101556D01*
X119365D01*
X119374Y101558D01*
X119410D01*
X119432Y101555D01*
D02*
G37*
G36*
X111646Y100582D02*
X111528D01*
Y100858D01*
X111447Y100937D01*
X111215Y100582D01*
X111069D01*
X111363Y101018D01*
X111096Y101278D01*
X111250D01*
X111528Y100993D01*
Y101541D01*
X111646D01*
Y100582D01*
D02*
G37*
G36*
X113993Y101290D02*
X114010Y101289D01*
X114025Y101286D01*
X114037Y101283D01*
X114047Y101281D01*
X114052Y101279D01*
X114055Y101278D01*
X114072Y101272D01*
X114087Y101267D01*
X114100Y101261D01*
X114111Y101256D01*
X114119Y101251D01*
X114125Y101247D01*
X114129Y101246D01*
X114130Y101244D01*
X114144Y101235D01*
X114155Y101224D01*
X114165Y101211D01*
X114173Y101201D01*
X114180Y101192D01*
X114184Y101185D01*
X114187Y101179D01*
X114188Y101178D01*
X114195Y101163D01*
X114201Y101149D01*
X114204Y101133D01*
X114206Y101121D01*
X114208Y101109D01*
X114209Y101100D01*
Y101095D01*
Y101092D01*
X114208Y101072D01*
X114205Y101056D01*
X114201Y101039D01*
X114197Y101025D01*
X114193Y101014D01*
X114188Y101005D01*
X114186Y100999D01*
X114184Y100998D01*
X114173Y100982D01*
X114161Y100970D01*
X114148Y100959D01*
X114136Y100949D01*
X114125Y100942D01*
X114116Y100937D01*
X114111Y100934D01*
X114108Y100932D01*
X114098Y100928D01*
X114086Y100923D01*
X114058Y100913D01*
X114029Y100905D01*
X113998Y100895D01*
X113972Y100888D01*
X113960Y100884D01*
X113948Y100881D01*
X113940Y100878D01*
X113933Y100877D01*
X113929Y100876D01*
X113928D01*
X113910Y100871D01*
X113894Y100867D01*
X113881Y100863D01*
X113868Y100859D01*
X113857Y100856D01*
X113847Y100852D01*
X113831Y100846D01*
X113820Y100842D01*
X113813Y100838D01*
X113808Y100837D01*
X113807Y100835D01*
X113795Y100827D01*
X113786Y100816D01*
X113779Y100806D01*
X113775Y100796D01*
X113772Y100787D01*
X113771Y100780D01*
Y100774D01*
Y100773D01*
X113772Y100756D01*
X113777Y100742D01*
X113783Y100729D01*
X113790Y100717D01*
X113799Y100708D01*
X113804Y100701D01*
X113810Y100697D01*
X113811Y100695D01*
X113828Y100684D01*
X113846Y100677D01*
X113867Y100672D01*
X113886Y100668D01*
X113904Y100665D01*
X113918Y100663D01*
X113932D01*
X113961Y100665D01*
X113986Y100669D01*
X114007Y100674D01*
X114025Y100681D01*
X114039Y100688D01*
X114050Y100694D01*
X114055Y100698D01*
X114058Y100699D01*
X114073Y100715D01*
X114086Y100733D01*
X114094Y100751D01*
X114101Y100767D01*
X114107Y100783D01*
X114109Y100796D01*
X114112Y100805D01*
Y100806D01*
Y100808D01*
X114229Y100790D01*
X114219Y100751D01*
X114206Y100716D01*
X114191Y100688D01*
X114176Y100665D01*
X114162Y100645D01*
X114150Y100633D01*
X114141Y100625D01*
X114140Y100623D01*
X114138Y100622D01*
X114125Y100612D01*
X114109Y100604D01*
X114076Y100590D01*
X114041Y100580D01*
X114008Y100573D01*
X113993Y100570D01*
X113979Y100569D01*
X113965Y100568D01*
X113954D01*
X113944Y100566D01*
X113932D01*
X113901Y100568D01*
X113875Y100570D01*
X113850Y100575D01*
X113828Y100580D01*
X113810Y100586D01*
X113796Y100590D01*
X113788Y100593D01*
X113786Y100594D01*
X113785D01*
X113761Y100606D01*
X113742Y100619D01*
X113725Y100633D01*
X113710Y100645D01*
X113699Y100656D01*
X113692Y100666D01*
X113686Y100672D01*
X113685Y100674D01*
X113674Y100694D01*
X113666Y100715D01*
X113659Y100733D01*
X113654Y100749D01*
X113652Y100765D01*
X113650Y100776D01*
Y100783D01*
Y100785D01*
X113652Y100808D01*
X113654Y100827D01*
X113660Y100844D01*
X113664Y100859D01*
X113670Y100871D01*
X113675Y100880D01*
X113678Y100885D01*
X113679Y100887D01*
X113691Y100900D01*
X113703Y100913D01*
X113715Y100924D01*
X113728Y100932D01*
X113740Y100939D01*
X113749Y100943D01*
X113754Y100946D01*
X113757Y100948D01*
X113767Y100952D01*
X113778Y100956D01*
X113804Y100966D01*
X113833Y100975D01*
X113863Y100984D01*
X113889Y100992D01*
X113901Y100995D01*
X113911Y100998D01*
X113919Y101000D01*
X113926Y101002D01*
X113930Y101003D01*
X113932D01*
X113947Y101007D01*
X113961Y101011D01*
X113973Y101014D01*
X113985Y101018D01*
X114003Y101023D01*
X114016Y101027D01*
X114026Y101031D01*
X114032Y101032D01*
X114034Y101034D01*
X114036D01*
X114047Y101039D01*
X114057Y101043D01*
X114065Y101049D01*
X114071Y101053D01*
X114076Y101057D01*
X114079Y101061D01*
X114080Y101063D01*
X114082Y101064D01*
X114090Y101078D01*
X114094Y101092D01*
Y101097D01*
X114095Y101102D01*
Y101104D01*
Y101106D01*
X114094Y101118D01*
X114090Y101131D01*
X114084Y101142D01*
X114077Y101150D01*
X114072Y101158D01*
X114066Y101164D01*
X114062Y101167D01*
X114061Y101168D01*
X114046Y101178D01*
X114028Y101185D01*
X114008Y101189D01*
X113990Y101193D01*
X113972Y101195D01*
X113958Y101196D01*
X113944D01*
X113921Y101195D01*
X113899Y101192D01*
X113881Y101186D01*
X113867Y101181D01*
X113854Y101175D01*
X113846Y101170D01*
X113840Y101167D01*
X113839Y101165D01*
X113825Y101153D01*
X113815Y101139D01*
X113807Y101125D01*
X113800Y101113D01*
X113796Y101100D01*
X113793Y101090D01*
X113792Y101085D01*
Y101082D01*
X113677Y101097D01*
X113682Y101121D01*
X113688Y101142D01*
X113695Y101160D01*
X113702Y101176D01*
X113709Y101188D01*
X113714Y101197D01*
X113717Y101203D01*
X113718Y101204D01*
X113731Y101218D01*
X113745Y101231D01*
X113760Y101242D01*
X113775Y101251D01*
X113789Y101258D01*
X113800Y101264D01*
X113807Y101267D01*
X113808Y101268D01*
X113810D01*
X113833Y101276D01*
X113858Y101282D01*
X113882Y101287D01*
X113904Y101290D01*
X113925Y101292D01*
X113940Y101293D01*
X113973D01*
X113993Y101290D01*
D02*
G37*
G36*
X118521Y100582D02*
X118386D01*
X118282Y100873D01*
X117880D01*
X117768Y100582D01*
X117624D01*
X118016Y101541D01*
X118155D01*
X118521Y100582D01*
D02*
G37*
G36*
X106167D02*
X106032D01*
Y100716D01*
X106167D01*
Y100582D01*
D02*
G37*
G36*
X105544D02*
X105410D01*
X105306Y100873D01*
X104904D01*
X104791Y100582D01*
X104647D01*
X105039Y101541D01*
X105178D01*
X105544Y100582D01*
D02*
G37*
G36*
X116550Y101292D02*
X116564Y101289D01*
X116578Y101285D01*
X116589Y101281D01*
X116597Y101276D01*
X116606Y101272D01*
X116610Y101269D01*
X116611Y101268D01*
X116624Y101257D01*
X116636Y101243D01*
X116649Y101226D01*
X116660Y101211D01*
X116671Y101196D01*
X116678Y101183D01*
X116683Y101174D01*
X116685Y101172D01*
Y101278D01*
X116792D01*
Y100582D01*
X116674D01*
Y100945D01*
X116672Y100973D01*
X116671Y100998D01*
X116668Y101021D01*
X116664Y101042D01*
X116660Y101059D01*
X116657Y101071D01*
X116656Y101079D01*
X116654Y101082D01*
X116649Y101097D01*
X116642Y101110D01*
X116635Y101121D01*
X116628Y101131D01*
X116621Y101138D01*
X116617Y101143D01*
X116613Y101146D01*
X116611Y101147D01*
X116600Y101156D01*
X116588Y101161D01*
X116575Y101165D01*
X116565Y101168D01*
X116556Y101170D01*
X116549Y101171D01*
X116542D01*
X116527Y101170D01*
X116511Y101167D01*
X116496Y101163D01*
X116484Y101158D01*
X116473Y101154D01*
X116464Y101150D01*
X116459Y101147D01*
X116457Y101146D01*
X116414Y101254D01*
X116438Y101267D01*
X116460Y101276D01*
X116479Y101283D01*
X116497Y101289D01*
X116513Y101292D01*
X116525Y101293D01*
X116535D01*
X116550Y101292D01*
D02*
G37*
G36*
X111947Y100582D02*
X111829D01*
Y101541D01*
X111947D01*
Y100582D01*
D02*
G37*
G36*
X112243D02*
X112125D01*
Y101278D01*
X112243D01*
Y100582D01*
D02*
G37*
G36*
X116344D02*
X116226D01*
Y101278D01*
X116344D01*
Y100582D01*
D02*
G37*
G36*
X95950Y101292D02*
X95975Y101289D01*
X95999Y101285D01*
X96021Y101278D01*
X96042Y101271D01*
X96061Y101262D01*
X96079Y101254D01*
X96094Y101244D01*
X96110Y101236D01*
X96122Y101226D01*
X96133Y101218D01*
X96141Y101211D01*
X96148Y101204D01*
X96154Y101200D01*
X96157Y101197D01*
X96158Y101196D01*
X96173Y101176D01*
X96187Y101156D01*
X96200Y101135D01*
X96211Y101113D01*
X96219Y101089D01*
X96226Y101067D01*
X96237Y101023D01*
X96241Y101003D01*
X96244Y100984D01*
X96245Y100967D01*
X96247Y100952D01*
X96248Y100939D01*
Y100931D01*
Y100924D01*
Y100923D01*
X96247Y100892D01*
X96244Y100863D01*
X96240Y100835D01*
X96234Y100810D01*
X96227Y100787D01*
X96221Y100765D01*
X96212Y100745D01*
X96204Y100727D01*
X96196Y100712D01*
X96187Y100698D01*
X96180Y100687D01*
X96173Y100677D01*
X96168Y100669D01*
X96164Y100663D01*
X96161Y100661D01*
X96159Y100659D01*
X96141Y100643D01*
X96123Y100629D01*
X96104Y100616D01*
X96083Y100605D01*
X96064Y100597D01*
X96043Y100588D01*
X96004Y100577D01*
X95986Y100575D01*
X95969Y100572D01*
X95954Y100569D01*
X95942Y100568D01*
X95932Y100566D01*
X95917D01*
X95874Y100569D01*
X95835Y100576D01*
X95800Y100584D01*
X95786Y100590D01*
X95773Y100595D01*
X95760Y100601D01*
X95749Y100606D01*
X95741Y100611D01*
X95732Y100615D01*
X95727Y100619D01*
X95723Y100622D01*
X95720Y100625D01*
X95718D01*
X95691Y100649D01*
X95669Y100676D01*
X95649Y100704D01*
X95635Y100730D01*
X95624Y100754D01*
X95620Y100765D01*
X95616Y100773D01*
X95613Y100781D01*
X95612Y100787D01*
X95610Y100790D01*
Y100791D01*
X95732Y100806D01*
X95743Y100780D01*
X95756Y100758D01*
X95768Y100738D01*
X95779Y100723D01*
X95789Y100712D01*
X95798Y100704D01*
X95804Y100698D01*
X95806Y100697D01*
X95824Y100686D01*
X95842Y100677D01*
X95861Y100672D01*
X95878Y100668D01*
X95893Y100665D01*
X95906Y100663D01*
X95917D01*
X95933Y100665D01*
X95949Y100666D01*
X95976Y100673D01*
X96001Y100683D01*
X96024Y100694D01*
X96040Y100704D01*
X96053Y100713D01*
X96061Y100720D01*
X96062Y100723D01*
X96064D01*
X96083Y100748D01*
X96098Y100776D01*
X96110Y100806D01*
X96118Y100834D01*
X96122Y100859D01*
X96125Y100870D01*
X96126Y100880D01*
Y100888D01*
X96128Y100894D01*
Y100898D01*
Y100899D01*
X95608D01*
X95606Y100913D01*
Y100923D01*
Y100928D01*
Y100930D01*
X95608Y100962D01*
X95610Y100991D01*
X95614Y101018D01*
X95620Y101045D01*
X95627Y101068D01*
X95634Y101090D01*
X95642Y101110D01*
X95651Y101128D01*
X95659Y101145D01*
X95667Y101158D01*
X95674Y101170D01*
X95681Y101179D01*
X95687Y101188D01*
X95691Y101193D01*
X95694Y101196D01*
X95695Y101197D01*
X95712Y101214D01*
X95730Y101229D01*
X95749Y101242D01*
X95768Y101253D01*
X95788Y101262D01*
X95806Y101269D01*
X95825Y101276D01*
X95842Y101281D01*
X95860Y101285D01*
X95875Y101287D01*
X95889Y101290D01*
X95900Y101292D01*
X95910Y101293D01*
X95924D01*
X95950Y101292D01*
D02*
G37*
G36*
X97814D02*
X97839Y101289D01*
X97863Y101285D01*
X97885Y101278D01*
X97906Y101271D01*
X97925Y101262D01*
X97943Y101254D01*
X97958Y101244D01*
X97973Y101236D01*
X97986Y101226D01*
X97997Y101218D01*
X98005Y101211D01*
X98012Y101204D01*
X98018Y101200D01*
X98021Y101197D01*
X98022Y101196D01*
X98037Y101176D01*
X98051Y101156D01*
X98064Y101135D01*
X98075Y101113D01*
X98083Y101089D01*
X98090Y101067D01*
X98101Y101023D01*
X98105Y101003D01*
X98108Y100984D01*
X98109Y100967D01*
X98111Y100952D01*
X98112Y100939D01*
Y100931D01*
Y100924D01*
Y100923D01*
X98111Y100892D01*
X98108Y100863D01*
X98104Y100835D01*
X98098Y100810D01*
X98091Y100787D01*
X98084Y100765D01*
X98076Y100745D01*
X98068Y100727D01*
X98059Y100712D01*
X98051Y100698D01*
X98044Y100687D01*
X98037Y100677D01*
X98032Y100669D01*
X98028Y100663D01*
X98025Y100661D01*
X98023Y100659D01*
X98005Y100643D01*
X97987Y100629D01*
X97968Y100616D01*
X97947Y100605D01*
X97928Y100597D01*
X97907Y100588D01*
X97868Y100577D01*
X97850Y100575D01*
X97833Y100572D01*
X97818Y100569D01*
X97806Y100568D01*
X97796Y100566D01*
X97781D01*
X97738Y100569D01*
X97699Y100576D01*
X97664Y100584D01*
X97650Y100590D01*
X97636Y100595D01*
X97624Y100601D01*
X97613Y100606D01*
X97605Y100611D01*
X97596Y100615D01*
X97591Y100619D01*
X97587Y100622D01*
X97584Y100625D01*
X97582D01*
X97555Y100649D01*
X97532Y100676D01*
X97513Y100704D01*
X97499Y100730D01*
X97488Y100754D01*
X97484Y100765D01*
X97480Y100773D01*
X97477Y100781D01*
X97476Y100787D01*
X97474Y100790D01*
Y100791D01*
X97596Y100806D01*
X97607Y100780D01*
X97620Y100758D01*
X97632Y100738D01*
X97643Y100723D01*
X97653Y100712D01*
X97661Y100704D01*
X97668Y100698D01*
X97670Y100697D01*
X97688Y100686D01*
X97706Y100677D01*
X97725Y100672D01*
X97742Y100668D01*
X97757Y100665D01*
X97770Y100663D01*
X97781D01*
X97797Y100665D01*
X97813Y100666D01*
X97840Y100673D01*
X97865Y100683D01*
X97887Y100694D01*
X97904Y100704D01*
X97917Y100713D01*
X97925Y100720D01*
X97926Y100723D01*
X97928D01*
X97947Y100748D01*
X97962Y100776D01*
X97973Y100806D01*
X97982Y100834D01*
X97986Y100859D01*
X97989Y100870D01*
X97990Y100880D01*
Y100888D01*
X97992Y100894D01*
Y100898D01*
Y100899D01*
X97471D01*
X97470Y100913D01*
Y100923D01*
Y100928D01*
Y100930D01*
X97471Y100962D01*
X97474Y100991D01*
X97478Y101018D01*
X97484Y101045D01*
X97491Y101068D01*
X97498Y101090D01*
X97506Y101110D01*
X97514Y101128D01*
X97523Y101145D01*
X97531Y101158D01*
X97538Y101170D01*
X97545Y101179D01*
X97550Y101188D01*
X97555Y101193D01*
X97557Y101196D01*
X97559Y101197D01*
X97575Y101214D01*
X97593Y101229D01*
X97613Y101242D01*
X97632Y101253D01*
X97652Y101262D01*
X97670Y101269D01*
X97689Y101276D01*
X97706Y101281D01*
X97724Y101285D01*
X97739Y101287D01*
X97753Y101290D01*
X97764Y101292D01*
X97774Y101293D01*
X97788D01*
X97814Y101292D01*
D02*
G37*
G36*
X99231D02*
X99256Y101289D01*
X99280Y101285D01*
X99302Y101278D01*
X99323Y101271D01*
X99342Y101262D01*
X99360Y101254D01*
X99376Y101244D01*
X99391Y101236D01*
X99403Y101226D01*
X99414Y101218D01*
X99423Y101211D01*
X99430Y101204D01*
X99435Y101200D01*
X99438Y101197D01*
X99439Y101196D01*
X99455Y101176D01*
X99468Y101156D01*
X99481Y101135D01*
X99492Y101113D01*
X99500Y101089D01*
X99507Y101067D01*
X99518Y101023D01*
X99523Y101003D01*
X99525Y100984D01*
X99527Y100967D01*
X99528Y100952D01*
X99530Y100939D01*
Y100931D01*
Y100924D01*
Y100923D01*
X99528Y100892D01*
X99525Y100863D01*
X99521Y100835D01*
X99516Y100810D01*
X99509Y100787D01*
X99502Y100765D01*
X99493Y100745D01*
X99485Y100727D01*
X99477Y100712D01*
X99468Y100698D01*
X99462Y100687D01*
X99455Y100677D01*
X99449Y100669D01*
X99445Y100663D01*
X99442Y100661D01*
X99441Y100659D01*
X99423Y100643D01*
X99405Y100629D01*
X99385Y100616D01*
X99364Y100605D01*
X99345Y100597D01*
X99324Y100588D01*
X99285Y100577D01*
X99267Y100575D01*
X99251Y100572D01*
X99235Y100569D01*
X99223Y100568D01*
X99213Y100566D01*
X99198D01*
X99155Y100569D01*
X99116Y100576D01*
X99082Y100584D01*
X99068Y100590D01*
X99054Y100595D01*
X99041Y100601D01*
X99030Y100606D01*
X99022Y100611D01*
X99014Y100615D01*
X99008Y100619D01*
X99004Y100622D01*
X99001Y100625D01*
X99000D01*
X98972Y100649D01*
X98950Y100676D01*
X98930Y100704D01*
X98917Y100730D01*
X98905Y100754D01*
X98901Y100765D01*
X98897Y100773D01*
X98894Y100781D01*
X98893Y100787D01*
X98892Y100790D01*
Y100791D01*
X99014Y100806D01*
X99025Y100780D01*
X99037Y100758D01*
X99050Y100738D01*
X99061Y100723D01*
X99070Y100712D01*
X99079Y100704D01*
X99086Y100698D01*
X99087Y100697D01*
X99105Y100686D01*
X99123Y100677D01*
X99143Y100672D01*
X99159Y100668D01*
X99174Y100665D01*
X99187Y100663D01*
X99198D01*
X99215Y100665D01*
X99230Y100666D01*
X99258Y100673D01*
X99283Y100683D01*
X99305Y100694D01*
X99321Y100704D01*
X99334Y100713D01*
X99342Y100720D01*
X99344Y100723D01*
X99345D01*
X99364Y100748D01*
X99380Y100776D01*
X99391Y100806D01*
X99399Y100834D01*
X99403Y100859D01*
X99406Y100870D01*
X99407Y100880D01*
Y100888D01*
X99409Y100894D01*
Y100898D01*
Y100899D01*
X98889D01*
X98887Y100913D01*
Y100923D01*
Y100928D01*
Y100930D01*
X98889Y100962D01*
X98892Y100991D01*
X98896Y101018D01*
X98901Y101045D01*
X98908Y101068D01*
X98915Y101090D01*
X98923Y101110D01*
X98932Y101128D01*
X98940Y101145D01*
X98948Y101158D01*
X98955Y101170D01*
X98962Y101179D01*
X98968Y101188D01*
X98972Y101193D01*
X98975Y101196D01*
X98976Y101197D01*
X98993Y101214D01*
X99011Y101229D01*
X99030Y101242D01*
X99050Y101253D01*
X99069Y101262D01*
X99087Y101269D01*
X99107Y101276D01*
X99123Y101281D01*
X99141Y101285D01*
X99156Y101287D01*
X99170Y101290D01*
X99181Y101292D01*
X99191Y101293D01*
X99205D01*
X99231Y101292D01*
D02*
G37*
G36*
X103144Y100582D02*
X103026D01*
Y101278D01*
X103144D01*
Y100582D01*
D02*
G37*
G36*
X104562D02*
X104444D01*
Y101541D01*
X104562D01*
Y100582D01*
D02*
G37*
G36*
X104264D02*
X104146D01*
Y101541D01*
X104264D01*
Y100582D01*
D02*
G37*
G36*
X103350Y101292D02*
X103364Y101289D01*
X103378Y101285D01*
X103389Y101281D01*
X103397Y101276D01*
X103406Y101272D01*
X103410Y101269D01*
X103411Y101268D01*
X103424Y101257D01*
X103436Y101243D01*
X103449Y101226D01*
X103460Y101211D01*
X103471Y101196D01*
X103478Y101183D01*
X103483Y101174D01*
X103485Y101172D01*
Y101278D01*
X103592D01*
Y100582D01*
X103474D01*
Y100945D01*
X103472Y100973D01*
X103471Y100998D01*
X103468Y101021D01*
X103464Y101042D01*
X103460Y101059D01*
X103457Y101071D01*
X103456Y101079D01*
X103454Y101082D01*
X103449Y101097D01*
X103442Y101110D01*
X103435Y101121D01*
X103428Y101131D01*
X103421Y101138D01*
X103417Y101143D01*
X103413Y101146D01*
X103411Y101147D01*
X103400Y101156D01*
X103388Y101161D01*
X103375Y101165D01*
X103366Y101168D01*
X103356Y101170D01*
X103349Y101171D01*
X103342D01*
X103327Y101170D01*
X103311Y101167D01*
X103296Y101163D01*
X103284Y101158D01*
X103273Y101154D01*
X103264Y101150D01*
X103259Y101147D01*
X103257Y101146D01*
X103214Y101254D01*
X103238Y101267D01*
X103260Y101276D01*
X103280Y101283D01*
X103298Y101289D01*
X103313Y101292D01*
X103325Y101293D01*
X103335D01*
X103350Y101292D01*
D02*
G37*
G36*
X115756D02*
X115779Y101287D01*
X115800Y101283D01*
X115818Y101278D01*
X115833Y101271D01*
X115844Y101267D01*
X115851Y101262D01*
X115854Y101261D01*
X115873Y101249D01*
X115890Y101235D01*
X115905Y101221D01*
X115918Y101207D01*
X115927Y101196D01*
X115936Y101186D01*
X115940Y101181D01*
X115941Y101178D01*
Y101278D01*
X116047D01*
Y100582D01*
X115929D01*
Y100942D01*
X115927Y100975D01*
X115926Y101005D01*
X115923Y101029D01*
X115919Y101050D01*
X115915Y101066D01*
X115912Y101077D01*
X115911Y101084D01*
X115909Y101086D01*
X115901Y101104D01*
X115891Y101120D01*
X115882Y101133D01*
X115872Y101145D01*
X115862Y101153D01*
X115855Y101158D01*
X115850Y101163D01*
X115848Y101164D01*
X115832Y101172D01*
X115817Y101179D01*
X115800Y101183D01*
X115786Y101188D01*
X115775Y101189D01*
X115765Y101190D01*
X115757D01*
X115733Y101189D01*
X115714Y101185D01*
X115697Y101178D01*
X115685Y101171D01*
X115675Y101163D01*
X115668Y101157D01*
X115664Y101152D01*
X115663Y101150D01*
X115653Y101133D01*
X115646Y101115D01*
X115640Y101096D01*
X115638Y101077D01*
X115635Y101060D01*
X115633Y101045D01*
Y101039D01*
Y101036D01*
Y101034D01*
Y101032D01*
Y100582D01*
X115516D01*
Y100985D01*
X115513Y101023D01*
X115507Y101054D01*
X115500Y101081D01*
X115491Y101103D01*
X115482Y101120D01*
X115474Y101131D01*
X115468Y101138D01*
X115467Y101140D01*
X115448Y101157D01*
X115427Y101170D01*
X115406Y101178D01*
X115387Y101185D01*
X115370Y101188D01*
X115356Y101189D01*
X115351Y101190D01*
X115344D01*
X115328Y101189D01*
X115316Y101188D01*
X115303Y101185D01*
X115294Y101181D01*
X115284Y101176D01*
X115278Y101174D01*
X115274Y101172D01*
X115273Y101171D01*
X115262Y101163D01*
X115254Y101154D01*
X115247Y101146D01*
X115241Y101138D01*
X115237Y101131D01*
X115234Y101125D01*
X115231Y101121D01*
Y101120D01*
X115227Y101107D01*
X115224Y101090D01*
X115223Y101074D01*
X115222Y101057D01*
X115220Y101042D01*
Y101029D01*
Y101021D01*
Y101020D01*
Y101018D01*
Y100582D01*
X115102D01*
Y101059D01*
Y101081D01*
X115105Y101100D01*
X115108Y101120D01*
X115111Y101136D01*
X115115Y101153D01*
X115120Y101167D01*
X115125Y101179D01*
X115130Y101192D01*
X115136Y101201D01*
X115140Y101211D01*
X115149Y101224D01*
X115155Y101232D01*
X115158Y101235D01*
X115180Y101254D01*
X115206Y101268D01*
X115233Y101279D01*
X115258Y101286D01*
X115281Y101290D01*
X115291Y101292D01*
X115301D01*
X115308Y101293D01*
X115317D01*
X115342Y101292D01*
X115364Y101287D01*
X115387Y101282D01*
X115407Y101274D01*
X115427Y101264D01*
X115445Y101254D01*
X115460Y101243D01*
X115475Y101232D01*
X115489Y101219D01*
X115500Y101208D01*
X115510Y101199D01*
X115518Y101189D01*
X115525Y101181D01*
X115529Y101175D01*
X115532Y101171D01*
X115534Y101170D01*
X115542Y101190D01*
X115553Y101208D01*
X115566Y101224D01*
X115577Y101236D01*
X115588Y101247D01*
X115596Y101254D01*
X115602Y101258D01*
X115604Y101260D01*
X115624Y101271D01*
X115645Y101279D01*
X115665Y101285D01*
X115686Y101289D01*
X115703Y101292D01*
X115718Y101293D01*
X115731D01*
X115756Y101292D01*
D02*
G37*
G36*
X108196Y101543D02*
X108231Y101537D01*
X108260Y101527D01*
X108285Y101518D01*
X108305Y101507D01*
X108314Y101502D01*
X108321Y101497D01*
X108326Y101494D01*
X108330Y101491D01*
X108332Y101489D01*
X108333D01*
X108358Y101466D01*
X108379Y101440D01*
X108397Y101414D01*
X108411Y101389D01*
X108422Y101365D01*
X108427Y101355D01*
X108430Y101346D01*
X108433Y101339D01*
X108436Y101333D01*
X108437Y101330D01*
Y101329D01*
X108443Y101308D01*
X108448Y101287D01*
X108457Y101242D01*
X108464Y101196D01*
X108468Y101153D01*
X108469Y101132D01*
X108470Y101114D01*
Y101097D01*
X108472Y101082D01*
Y101071D01*
Y101061D01*
Y101056D01*
Y101054D01*
X108470Y101006D01*
X108468Y100960D01*
X108464Y100919D01*
X108457Y100880D01*
X108450Y100844D01*
X108441Y100812D01*
X108433Y100783D01*
X108425Y100758D01*
X108416Y100735D01*
X108407Y100716D01*
X108400Y100699D01*
X108393Y100687D01*
X108386Y100676D01*
X108382Y100669D01*
X108379Y100665D01*
X108378Y100663D01*
X108362Y100647D01*
X108346Y100631D01*
X108328Y100618D01*
X108310Y100606D01*
X108292Y100597D01*
X108274Y100588D01*
X108256Y100583D01*
X108239Y100577D01*
X108222Y100573D01*
X108207Y100570D01*
X108193Y100568D01*
X108182Y100566D01*
X108172Y100565D01*
X108158D01*
X108121Y100568D01*
X108086Y100573D01*
X108057Y100583D01*
X108032Y100593D01*
X108011Y100602D01*
X108004Y100608D01*
X107998Y100612D01*
X107992Y100615D01*
X107988Y100618D01*
X107986Y100620D01*
X107985D01*
X107960Y100644D01*
X107939Y100669D01*
X107921Y100697D01*
X107907Y100722D01*
X107896Y100745D01*
X107891Y100755D01*
X107888Y100765D01*
X107885Y100772D01*
X107882Y100777D01*
X107881Y100780D01*
Y100781D01*
X107874Y100802D01*
X107869Y100823D01*
X107860Y100867D01*
X107853Y100913D01*
X107849Y100957D01*
X107848Y100977D01*
X107846Y100995D01*
Y101011D01*
X107845Y101027D01*
Y101038D01*
Y101048D01*
Y101053D01*
Y101054D01*
Y101081D01*
X107846Y101106D01*
Y101128D01*
X107848Y101150D01*
X107851Y101170D01*
X107852Y101189D01*
X107853Y101206D01*
X107856Y101221D01*
X107857Y101235D01*
X107860Y101247D01*
X107862Y101257D01*
X107863Y101265D01*
X107864Y101272D01*
X107866Y101276D01*
X107867Y101279D01*
Y101281D01*
X107876Y101311D01*
X107885Y101339D01*
X107896Y101362D01*
X107905Y101383D01*
X107914Y101401D01*
X107920Y101414D01*
X107925Y101421D01*
X107927Y101423D01*
X107942Y101444D01*
X107957Y101462D01*
X107974Y101477D01*
X107989Y101491D01*
X108003Y101501D01*
X108014Y101508D01*
X108021Y101512D01*
X108023Y101513D01*
X108024D01*
X108046Y101525D01*
X108070Y101532D01*
X108092Y101537D01*
X108113Y101541D01*
X108131Y101544D01*
X108146Y101545D01*
X108158D01*
X108196Y101543D01*
D02*
G37*
G36*
X106704D02*
X106738Y101537D01*
X106767Y101527D01*
X106792Y101518D01*
X106813Y101507D01*
X106822Y101502D01*
X106828Y101497D01*
X106834Y101494D01*
X106838Y101491D01*
X106840Y101489D01*
X106841D01*
X106866Y101466D01*
X106887Y101440D01*
X106905Y101414D01*
X106919Y101389D01*
X106930Y101365D01*
X106935Y101355D01*
X106938Y101346D01*
X106941Y101339D01*
X106944Y101333D01*
X106945Y101330D01*
Y101329D01*
X106950Y101308D01*
X106956Y101287D01*
X106964Y101242D01*
X106971Y101196D01*
X106975Y101153D01*
X106977Y101132D01*
X106978Y101114D01*
Y101097D01*
X106980Y101082D01*
Y101071D01*
Y101061D01*
Y101056D01*
Y101054D01*
X106978Y101006D01*
X106975Y100960D01*
X106971Y100919D01*
X106964Y100880D01*
X106957Y100844D01*
X106949Y100812D01*
X106941Y100783D01*
X106932Y100758D01*
X106924Y100735D01*
X106914Y100716D01*
X106908Y100699D01*
X106901Y100687D01*
X106894Y100676D01*
X106889Y100669D01*
X106887Y100665D01*
X106885Y100663D01*
X106870Y100647D01*
X106853Y100631D01*
X106835Y100618D01*
X106817Y100606D01*
X106799Y100597D01*
X106781Y100588D01*
X106763Y100583D01*
X106747Y100577D01*
X106730Y100573D01*
X106715Y100570D01*
X106701Y100568D01*
X106690Y100566D01*
X106680Y100565D01*
X106666D01*
X106629Y100568D01*
X106594Y100573D01*
X106565Y100583D01*
X106540Y100593D01*
X106519Y100602D01*
X106512Y100608D01*
X106505Y100612D01*
X106500Y100615D01*
X106496Y100618D01*
X106494Y100620D01*
X106493D01*
X106468Y100644D01*
X106447Y100669D01*
X106429Y100697D01*
X106415Y100722D01*
X106404Y100745D01*
X106399Y100755D01*
X106396Y100765D01*
X106393Y100772D01*
X106390Y100777D01*
X106389Y100780D01*
Y100781D01*
X106382Y100802D01*
X106376Y100823D01*
X106368Y100867D01*
X106361Y100913D01*
X106357Y100957D01*
X106356Y100977D01*
X106354Y100995D01*
Y101011D01*
X106353Y101027D01*
Y101038D01*
Y101048D01*
Y101053D01*
Y101054D01*
Y101081D01*
X106354Y101106D01*
Y101128D01*
X106356Y101150D01*
X106358Y101170D01*
X106360Y101189D01*
X106361Y101206D01*
X106364Y101221D01*
X106365Y101235D01*
X106368Y101247D01*
X106369Y101257D01*
X106371Y101265D01*
X106372Y101272D01*
X106374Y101276D01*
X106375Y101279D01*
Y101281D01*
X106383Y101311D01*
X106393Y101339D01*
X106404Y101362D01*
X106412Y101383D01*
X106422Y101401D01*
X106428Y101414D01*
X106433Y101421D01*
X106435Y101423D01*
X106450Y101444D01*
X106465Y101462D01*
X106482Y101477D01*
X106497Y101491D01*
X106511Y101501D01*
X106522Y101508D01*
X106529Y101512D01*
X106530Y101513D01*
X106532D01*
X106554Y101525D01*
X106577Y101532D01*
X106600Y101537D01*
X106620Y101541D01*
X106638Y101544D01*
X106654Y101545D01*
X106666D01*
X106704Y101543D01*
D02*
G37*
G36*
X110520Y102470D02*
X110409Y102454D01*
X110400Y102470D01*
X110387Y102482D01*
X110376Y102495D01*
X110365Y102504D01*
X110354Y102511D01*
X110345Y102518D01*
X110340Y102521D01*
X110339Y102522D01*
X110321Y102531D01*
X110302Y102538D01*
X110286Y102542D01*
X110269Y102546D01*
X110255Y102547D01*
X110244Y102549D01*
X110218D01*
X110201Y102546D01*
X110172Y102539D01*
X110147Y102529D01*
X110125Y102520D01*
X110108Y102508D01*
X110096Y102499D01*
X110089Y102492D01*
X110086Y102490D01*
Y102489D01*
X110067Y102465D01*
X110053Y102440D01*
X110043Y102414D01*
X110036Y102388D01*
X110032Y102366D01*
X110031Y102356D01*
Y102348D01*
X110029Y102341D01*
Y102335D01*
Y102332D01*
Y102331D01*
Y102311D01*
X110032Y102293D01*
X110039Y102259D01*
X110049Y102230D01*
X110058Y102206D01*
X110069Y102187D01*
X110079Y102171D01*
X110083Y102167D01*
X110086Y102163D01*
X110088Y102162D01*
X110089Y102160D01*
X110100Y102149D01*
X110111Y102140D01*
X110136Y102123D01*
X110160Y102112D01*
X110183Y102105D01*
X110203Y102099D01*
X110219Y102098D01*
X110225Y102097D01*
X110233D01*
X110259Y102098D01*
X110283Y102103D01*
X110304Y102110D01*
X110321Y102119D01*
X110336Y102127D01*
X110347Y102134D01*
X110352Y102140D01*
X110355Y102141D01*
X110372Y102160D01*
X110386Y102181D01*
X110397Y102205D01*
X110405Y102225D01*
X110411Y102246D01*
X110415Y102262D01*
X110416Y102268D01*
X110418Y102273D01*
Y102275D01*
Y102277D01*
X110541Y102267D01*
X110538Y102245D01*
X110534Y102224D01*
X110522Y102185D01*
X110506Y102152D01*
X110498Y102137D01*
X110490Y102124D01*
X110483Y102112D01*
X110474Y102101D01*
X110468Y102092D01*
X110461Y102085D01*
X110455Y102080D01*
X110452Y102074D01*
X110449Y102073D01*
X110448Y102072D01*
X110431Y102059D01*
X110415Y102048D01*
X110397Y102038D01*
X110379Y102030D01*
X110344Y102017D01*
X110309Y102009D01*
X110294Y102005D01*
X110279Y102004D01*
X110266Y102002D01*
X110255Y102001D01*
X110246Y101999D01*
X110233D01*
X110204Y102001D01*
X110176Y102005D01*
X110150Y102011D01*
X110126Y102017D01*
X110104Y102027D01*
X110083Y102037D01*
X110064Y102047D01*
X110047Y102058D01*
X110032Y102069D01*
X110018Y102078D01*
X110007Y102090D01*
X109997Y102098D01*
X109990Y102105D01*
X109985Y102110D01*
X109982Y102115D01*
X109981Y102116D01*
X109967Y102134D01*
X109956Y102153D01*
X109945Y102171D01*
X109936Y102191D01*
X109922Y102228D01*
X109914Y102264D01*
X109911Y102280D01*
X109909Y102295D01*
X109907Y102307D01*
X109906Y102318D01*
X109904Y102328D01*
Y102335D01*
Y102339D01*
Y102341D01*
X109906Y102366D01*
X109909Y102389D01*
X109913Y102413D01*
X109918Y102434D01*
X109925Y102453D01*
X109932Y102472D01*
X109941Y102489D01*
X109947Y102504D01*
X109956Y102518D01*
X109964Y102531D01*
X109971Y102540D01*
X109978Y102550D01*
X109984Y102557D01*
X109988Y102561D01*
X109990Y102564D01*
X109992Y102565D01*
X110008Y102581D01*
X110025Y102594D01*
X110043Y102605D01*
X110061Y102615D01*
X110079Y102625D01*
X110097Y102632D01*
X110131Y102642D01*
X110146Y102646D01*
X110160Y102648D01*
X110172Y102650D01*
X110183Y102651D01*
X110192Y102653D01*
X110222D01*
X110239Y102650D01*
X110272Y102643D01*
X110302Y102633D01*
X110330Y102622D01*
X110352Y102611D01*
X110362Y102605D01*
X110370Y102601D01*
X110377Y102597D01*
X110382Y102594D01*
X110384Y102593D01*
X110386Y102592D01*
X110334Y102851D01*
X109950D01*
Y102963D01*
X110427D01*
X110520Y102470D01*
D02*
G37*
G36*
X108081Y102016D02*
X107968D01*
X107704Y102712D01*
X107826D01*
X107980Y102287D01*
X107989Y102259D01*
X107999Y102234D01*
X108006Y102210D01*
X108013Y102192D01*
X108017Y102176D01*
X108021Y102164D01*
X108023Y102158D01*
X108024Y102155D01*
X108032Y102181D01*
X108039Y102207D01*
X108047Y102231D01*
X108054Y102252D01*
X108060Y102270D01*
X108064Y102284D01*
X108066Y102288D01*
X108067Y102292D01*
X108068Y102293D01*
Y102295D01*
X108218Y102712D01*
X108343D01*
X108081Y102016D01*
D02*
G37*
G36*
X98555Y101290D02*
X98571Y101289D01*
X98586Y101286D01*
X98599Y101283D01*
X98609Y101281D01*
X98614Y101279D01*
X98617Y101278D01*
X98634Y101272D01*
X98649Y101267D01*
X98661Y101261D01*
X98672Y101256D01*
X98681Y101251D01*
X98686Y101247D01*
X98690Y101246D01*
X98692Y101244D01*
X98706Y101235D01*
X98717Y101224D01*
X98727Y101211D01*
X98735Y101201D01*
X98742Y101192D01*
X98746Y101185D01*
X98749Y101179D01*
X98750Y101178D01*
X98757Y101163D01*
X98763Y101149D01*
X98765Y101133D01*
X98768Y101121D01*
X98770Y101109D01*
X98771Y101100D01*
Y101095D01*
Y101092D01*
X98770Y101072D01*
X98767Y101056D01*
X98763Y101039D01*
X98758Y101025D01*
X98754Y101014D01*
X98750Y101005D01*
X98747Y100999D01*
X98746Y100998D01*
X98735Y100982D01*
X98722Y100970D01*
X98710Y100959D01*
X98697Y100949D01*
X98686Y100942D01*
X98678Y100937D01*
X98672Y100934D01*
X98670Y100932D01*
X98660Y100928D01*
X98647Y100923D01*
X98620Y100913D01*
X98591Y100905D01*
X98560Y100895D01*
X98534Y100888D01*
X98521Y100884D01*
X98510Y100881D01*
X98502Y100878D01*
X98495Y100877D01*
X98491Y100876D01*
X98489D01*
X98471Y100871D01*
X98456Y100867D01*
X98442Y100863D01*
X98430Y100859D01*
X98419Y100856D01*
X98409Y100852D01*
X98392Y100846D01*
X98381Y100842D01*
X98374Y100838D01*
X98370Y100837D01*
X98369Y100835D01*
X98356Y100827D01*
X98348Y100816D01*
X98341Y100806D01*
X98337Y100796D01*
X98334Y100787D01*
X98333Y100780D01*
Y100774D01*
Y100773D01*
X98334Y100756D01*
X98338Y100742D01*
X98345Y100729D01*
X98352Y100717D01*
X98360Y100708D01*
X98366Y100701D01*
X98371Y100697D01*
X98373Y100695D01*
X98390Y100684D01*
X98408Y100677D01*
X98428Y100672D01*
X98448Y100668D01*
X98466Y100665D01*
X98480Y100663D01*
X98494D01*
X98523Y100665D01*
X98548Y100669D01*
X98568Y100674D01*
X98586Y100681D01*
X98600Y100688D01*
X98611Y100694D01*
X98617Y100698D01*
X98620Y100699D01*
X98635Y100715D01*
X98647Y100733D01*
X98656Y100751D01*
X98663Y100767D01*
X98668Y100783D01*
X98671Y100796D01*
X98674Y100805D01*
Y100806D01*
Y100808D01*
X98790Y100790D01*
X98781Y100751D01*
X98768Y100716D01*
X98753Y100688D01*
X98738Y100665D01*
X98724Y100645D01*
X98711Y100633D01*
X98703Y100625D01*
X98702Y100623D01*
X98700Y100622D01*
X98686Y100612D01*
X98671Y100604D01*
X98638Y100590D01*
X98603Y100580D01*
X98570Y100573D01*
X98555Y100570D01*
X98541Y100569D01*
X98527Y100568D01*
X98516D01*
X98506Y100566D01*
X98494D01*
X98463Y100568D01*
X98437Y100570D01*
X98412Y100575D01*
X98390Y100580D01*
X98371Y100586D01*
X98358Y100590D01*
X98349Y100593D01*
X98348Y100594D01*
X98347D01*
X98323Y100606D01*
X98304Y100619D01*
X98287Y100633D01*
X98272Y100645D01*
X98261Y100656D01*
X98254Y100666D01*
X98248Y100672D01*
X98247Y100674D01*
X98236Y100694D01*
X98227Y100715D01*
X98220Y100733D01*
X98216Y100749D01*
X98213Y100765D01*
X98212Y100776D01*
Y100783D01*
Y100785D01*
X98213Y100808D01*
X98216Y100827D01*
X98222Y100844D01*
X98226Y100859D01*
X98231Y100871D01*
X98237Y100880D01*
X98240Y100885D01*
X98241Y100887D01*
X98252Y100900D01*
X98265Y100913D01*
X98277Y100924D01*
X98290Y100932D01*
X98302Y100939D01*
X98310Y100943D01*
X98316Y100946D01*
X98319Y100948D01*
X98329Y100952D01*
X98340Y100956D01*
X98366Y100966D01*
X98395Y100975D01*
X98424Y100984D01*
X98451Y100992D01*
X98463Y100995D01*
X98473Y100998D01*
X98481Y101000D01*
X98488Y101002D01*
X98492Y101003D01*
X98494D01*
X98509Y101007D01*
X98523Y101011D01*
X98535Y101014D01*
X98546Y101018D01*
X98564Y101023D01*
X98578Y101027D01*
X98588Y101031D01*
X98593Y101032D01*
X98596Y101034D01*
X98598D01*
X98609Y101039D01*
X98618Y101043D01*
X98627Y101049D01*
X98632Y101053D01*
X98638Y101057D01*
X98641Y101061D01*
X98642Y101063D01*
X98643Y101064D01*
X98652Y101078D01*
X98656Y101092D01*
Y101097D01*
X98657Y101102D01*
Y101104D01*
Y101106D01*
X98656Y101118D01*
X98652Y101131D01*
X98646Y101142D01*
X98639Y101150D01*
X98634Y101158D01*
X98628Y101164D01*
X98624Y101167D01*
X98623Y101168D01*
X98607Y101178D01*
X98589Y101185D01*
X98570Y101189D01*
X98552Y101193D01*
X98534Y101195D01*
X98520Y101196D01*
X98506D01*
X98482Y101195D01*
X98460Y101192D01*
X98442Y101186D01*
X98428Y101181D01*
X98416Y101175D01*
X98408Y101170D01*
X98402Y101167D01*
X98401Y101165D01*
X98387Y101153D01*
X98377Y101139D01*
X98369Y101125D01*
X98362Y101113D01*
X98358Y101100D01*
X98355Y101090D01*
X98353Y101085D01*
Y101082D01*
X98238Y101097D01*
X98244Y101121D01*
X98249Y101142D01*
X98256Y101160D01*
X98263Y101176D01*
X98270Y101188D01*
X98276Y101197D01*
X98279Y101203D01*
X98280Y101204D01*
X98292Y101218D01*
X98306Y101231D01*
X98322Y101242D01*
X98337Y101251D01*
X98351Y101258D01*
X98362Y101264D01*
X98369Y101267D01*
X98370Y101268D01*
X98371D01*
X98395Y101276D01*
X98420Y101282D01*
X98444Y101287D01*
X98466Y101290D01*
X98487Y101292D01*
X98502Y101293D01*
X98535D01*
X98555Y101290D01*
D02*
G37*
G36*
X117880Y102990D02*
X117925Y102983D01*
X117963Y102974D01*
X117981Y102969D01*
X117998Y102963D01*
X118013Y102958D01*
X118027Y102952D01*
X118038Y102948D01*
X118049Y102944D01*
X118056Y102940D01*
X118062Y102937D01*
X118066Y102936D01*
X118067Y102934D01*
X118105Y102911D01*
X118137Y102883D01*
X118164Y102855D01*
X118188Y102827D01*
X118206Y102802D01*
X118213Y102791D01*
X118219Y102782D01*
X118224Y102775D01*
X118227Y102769D01*
X118228Y102765D01*
X118230Y102764D01*
X118249Y102721D01*
X118263Y102676D01*
X118273Y102632D01*
X118280Y102592D01*
X118282Y102574D01*
X118284Y102556D01*
X118285Y102542D01*
Y102528D01*
X118287Y102518D01*
Y102510D01*
Y102504D01*
Y102503D01*
X118284Y102453D01*
X118278Y102404D01*
X118271Y102361D01*
X118266Y102341D01*
X118262Y102323D01*
X118257Y102306D01*
X118252Y102291D01*
X118248Y102277D01*
X118245Y102266D01*
X118241Y102257D01*
X118239Y102250D01*
X118237Y102246D01*
Y102245D01*
X118216Y102203D01*
X118192Y102166D01*
X118167Y102134D01*
X118155Y102121D01*
X118144Y102109D01*
X118133Y102098D01*
X118121Y102088D01*
X118112Y102080D01*
X118103Y102074D01*
X118098Y102069D01*
X118092Y102065D01*
X118090Y102063D01*
X118088Y102062D01*
X118069Y102051D01*
X118049Y102041D01*
X118008Y102026D01*
X117966Y102015D01*
X117926Y102008D01*
X117907Y102005D01*
X117890Y102002D01*
X117875Y102001D01*
X117862D01*
X117851Y101999D01*
X117836D01*
X117808Y102001D01*
X117782Y102004D01*
X117757Y102006D01*
X117733Y102012D01*
X117711Y102019D01*
X117690Y102026D01*
X117671Y102033D01*
X117653Y102041D01*
X117637Y102048D01*
X117622Y102055D01*
X117611Y102062D01*
X117600Y102069D01*
X117593Y102074D01*
X117586Y102077D01*
X117583Y102080D01*
X117582Y102081D01*
X117563Y102098D01*
X117546Y102115D01*
X117531Y102134D01*
X117515Y102153D01*
X117490Y102192D01*
X117471Y102231D01*
X117463Y102249D01*
X117456Y102266D01*
X117450Y102281D01*
X117446Y102293D01*
X117442Y102305D01*
X117439Y102313D01*
X117438Y102318D01*
Y102320D01*
X117565Y102352D01*
X117571Y102329D01*
X117578Y102309D01*
X117585Y102289D01*
X117592Y102271D01*
X117600Y102255D01*
X117608Y102241D01*
X117618Y102227D01*
X117626Y102214D01*
X117633Y102203D01*
X117642Y102195D01*
X117649Y102187D01*
X117654Y102180D01*
X117660Y102176D01*
X117664Y102171D01*
X117665Y102170D01*
X117667Y102169D01*
X117680Y102158D01*
X117696Y102149D01*
X117726Y102134D01*
X117755Y102123D01*
X117784Y102116D01*
X117809Y102110D01*
X117819Y102109D01*
X117829D01*
X117837Y102108D01*
X117847D01*
X117879Y102109D01*
X117909Y102115D01*
X117937Y102121D01*
X117962Y102130D01*
X117981Y102138D01*
X117990Y102142D01*
X117997Y102145D01*
X118002Y102148D01*
X118006Y102151D01*
X118009Y102152D01*
X118011D01*
X118037Y102171D01*
X118059Y102192D01*
X118078Y102216D01*
X118094Y102238D01*
X118106Y102257D01*
X118115Y102274D01*
X118117Y102281D01*
X118120Y102285D01*
X118121Y102288D01*
Y102289D01*
X118133Y102325D01*
X118141Y102361D01*
X118148Y102397D01*
X118152Y102431D01*
X118153Y102446D01*
X118155Y102460D01*
Y102472D01*
X118156Y102482D01*
Y102490D01*
Y102497D01*
Y102501D01*
Y102503D01*
X118155Y102539D01*
X118152Y102572D01*
X118146Y102603D01*
X118141Y102630D01*
X118137Y102654D01*
X118134Y102664D01*
X118131Y102672D01*
X118130Y102679D01*
X118128Y102683D01*
X118127Y102686D01*
Y102687D01*
X118113Y102719D01*
X118098Y102748D01*
X118081Y102772D01*
X118063Y102793D01*
X118048Y102809D01*
X118035Y102820D01*
X118026Y102827D01*
X118024Y102830D01*
X118023D01*
X117994Y102848D01*
X117962Y102862D01*
X117931Y102872D01*
X117902Y102877D01*
X117876Y102881D01*
X117865Y102883D01*
X117855D01*
X117848Y102884D01*
X117837D01*
X117803Y102883D01*
X117771Y102877D01*
X117744Y102869D01*
X117721Y102861D01*
X117703Y102851D01*
X117689Y102844D01*
X117680Y102838D01*
X117678Y102836D01*
X117656Y102815D01*
X117635Y102791D01*
X117618Y102766D01*
X117604Y102741D01*
X117593Y102719D01*
X117589Y102708D01*
X117586Y102700D01*
X117583Y102693D01*
X117581Y102687D01*
X117579Y102685D01*
Y102683D01*
X117454Y102712D01*
X117463Y102737D01*
X117471Y102759D01*
X117482Y102780D01*
X117492Y102801D01*
X117503Y102819D01*
X117515Y102836D01*
X117527Y102852D01*
X117538Y102866D01*
X117549Y102877D01*
X117558Y102888D01*
X117568Y102898D01*
X117575Y102905D01*
X117582Y102912D01*
X117588Y102916D01*
X117590Y102918D01*
X117592Y102919D01*
X117611Y102931D01*
X117631Y102944D01*
X117650Y102954D01*
X117671Y102962D01*
X117712Y102974D01*
X117750Y102983D01*
X117768Y102987D01*
X117783Y102988D01*
X117798Y102990D01*
X117811Y102991D01*
X117821Y102992D01*
X117834D01*
X117880Y102990D01*
D02*
G37*
G36*
X95021Y101197D02*
X95033Y101213D01*
X95047Y101225D01*
X95060Y101238D01*
X95074Y101247D01*
X95085Y101254D01*
X95093Y101261D01*
X95099Y101264D01*
X95101Y101265D01*
X95119Y101275D01*
X95139Y101282D01*
X95158Y101286D01*
X95176Y101290D01*
X95191Y101292D01*
X95203Y101293D01*
X95214D01*
X95244Y101292D01*
X95273Y101286D01*
X95300Y101279D01*
X95322Y101271D01*
X95341Y101261D01*
X95355Y101254D01*
X95361Y101251D01*
X95365Y101249D01*
X95366Y101247D01*
X95368D01*
X95393Y101229D01*
X95413Y101207D01*
X95431Y101186D01*
X95445Y101165D01*
X95456Y101146D01*
X95465Y101131D01*
X95467Y101125D01*
X95470Y101121D01*
X95472Y101118D01*
Y101117D01*
X95483Y101085D01*
X95491Y101052D01*
X95498Y101020D01*
X95502Y100991D01*
X95505Y100966D01*
Y100955D01*
X95506Y100946D01*
Y100938D01*
Y100932D01*
Y100930D01*
Y100928D01*
X95505Y100889D01*
X95501Y100853D01*
X95494Y100821D01*
X95487Y100794D01*
X95484Y100781D01*
X95481Y100772D01*
X95477Y100762D01*
X95474Y100754D01*
X95472Y100748D01*
X95470Y100744D01*
X95469Y100741D01*
Y100740D01*
X95454Y100711D01*
X95436Y100686D01*
X95418Y100663D01*
X95399Y100645D01*
X95384Y100631D01*
X95372Y100620D01*
X95363Y100615D01*
X95362Y100612D01*
X95361D01*
X95334Y100597D01*
X95308Y100586D01*
X95282Y100577D01*
X95258Y100572D01*
X95239Y100569D01*
X95222Y100568D01*
X95216Y100566D01*
X95208D01*
X95185Y100568D01*
X95162Y100570D01*
X95142Y100576D01*
X95124Y100583D01*
X95105Y100590D01*
X95089Y100598D01*
X95075Y100608D01*
X95062Y100618D01*
X95050Y100627D01*
X95040Y100637D01*
X95032Y100645D01*
X95025Y100652D01*
X95020Y100659D01*
X95015Y100665D01*
X95014Y100668D01*
X95013Y100669D01*
Y100582D01*
X94903D01*
Y101541D01*
X95021D01*
Y101197D01*
D02*
G37*
G36*
X110933Y102956D02*
X110949Y102934D01*
X110967Y102912D01*
X110983Y102893D01*
X111000Y102876D01*
X111013Y102862D01*
X111018Y102858D01*
X111022Y102854D01*
X111024Y102852D01*
X111025Y102851D01*
X111054Y102827D01*
X111083Y102805D01*
X111111Y102786D01*
X111139Y102771D01*
X111162Y102757D01*
X111172Y102751D01*
X111180Y102747D01*
X111187Y102743D01*
X111193Y102741D01*
X111196Y102739D01*
X111197D01*
Y102625D01*
X111176Y102633D01*
X111155Y102643D01*
X111135Y102653D01*
X111115Y102662D01*
X111099Y102671D01*
X111085Y102678D01*
X111076Y102683D01*
X111075Y102685D01*
X111074D01*
X111049Y102700D01*
X111026Y102715D01*
X111007Y102729D01*
X110992Y102741D01*
X110978Y102751D01*
X110970Y102759D01*
X110963Y102765D01*
X110961Y102766D01*
Y102016D01*
X110843D01*
Y102980D01*
X110920D01*
X110933Y102956D01*
D02*
G37*
G36*
X113233Y102979D02*
X113256Y102977D01*
X113279Y102973D01*
X113299Y102969D01*
X113319Y102963D01*
X113337Y102958D01*
X113354Y102951D01*
X113369Y102944D01*
X113383Y102937D01*
X113394Y102930D01*
X113403Y102924D01*
X113412Y102919D01*
X113419Y102915D01*
X113423Y102911D01*
X113426Y102909D01*
X113427Y102908D01*
X113441Y102894D01*
X113453Y102879D01*
X113466Y102862D01*
X113476Y102845D01*
X113492Y102812D01*
X113503Y102779D01*
X113507Y102764D01*
X113512Y102748D01*
X113514Y102736D01*
X113517Y102725D01*
X113519Y102715D01*
Y102708D01*
X113520Y102704D01*
Y102703D01*
X113399Y102690D01*
X113397Y102722D01*
X113391Y102750D01*
X113383Y102775D01*
X113373Y102794D01*
X113365Y102811D01*
X113356Y102822D01*
X113351Y102829D01*
X113348Y102832D01*
X113327Y102848D01*
X113305Y102861D01*
X113281Y102870D01*
X113261Y102876D01*
X113241Y102880D01*
X113225Y102881D01*
X113219Y102883D01*
X113211D01*
X113182Y102881D01*
X113155Y102876D01*
X113133Y102868D01*
X113114Y102859D01*
X113098Y102850D01*
X113089Y102843D01*
X113082Y102837D01*
X113079Y102834D01*
X113062Y102815D01*
X113050Y102795D01*
X113040Y102776D01*
X113035Y102757D01*
X113030Y102741D01*
X113029Y102728D01*
X113028Y102719D01*
Y102718D01*
Y102716D01*
X113030Y102691D01*
X113036Y102665D01*
X113046Y102642D01*
X113055Y102619D01*
X113066Y102601D01*
X113076Y102586D01*
X113079Y102581D01*
X113082Y102576D01*
X113084Y102575D01*
Y102574D01*
X113096Y102558D01*
X113109Y102543D01*
X113125Y102526D01*
X113141Y102510D01*
X113176Y102477D01*
X113211Y102443D01*
X113229Y102428D01*
X113244Y102414D01*
X113259Y102402D01*
X113272Y102391D01*
X113281Y102382D01*
X113290Y102375D01*
X113295Y102371D01*
X113297Y102370D01*
X113331Y102341D01*
X113363Y102313D01*
X113390Y102288D01*
X113410Y102267D01*
X113428Y102249D01*
X113441Y102237D01*
X113448Y102228D01*
X113451Y102227D01*
Y102225D01*
X113470Y102202D01*
X113485Y102180D01*
X113499Y102158D01*
X113510Y102138D01*
X113519Y102121D01*
X113524Y102109D01*
X113527Y102101D01*
X113528Y102099D01*
Y102098D01*
X113534Y102083D01*
X113537Y102069D01*
X113539Y102055D01*
X113541Y102042D01*
X113542Y102031D01*
Y102023D01*
Y102017D01*
Y102016D01*
X112906D01*
Y102130D01*
X113378D01*
X113362Y102153D01*
X113354Y102163D01*
X113347Y102173D01*
X113340Y102181D01*
X113334Y102187D01*
X113330Y102191D01*
X113329Y102192D01*
X113322Y102199D01*
X113313Y102206D01*
X113294Y102224D01*
X113272Y102245D01*
X113248Y102266D01*
X113226Y102284D01*
X113216Y102292D01*
X113208Y102300D01*
X113201Y102306D01*
X113195Y102310D01*
X113193Y102313D01*
X113191Y102314D01*
X113169Y102334D01*
X113147Y102352D01*
X113127Y102370D01*
X113109Y102385D01*
X113093Y102400D01*
X113079Y102414D01*
X113065Y102427D01*
X113054Y102438D01*
X113043Y102449D01*
X113035Y102457D01*
X113028Y102464D01*
X113021Y102471D01*
X113014Y102479D01*
X113011Y102482D01*
X112992Y102506D01*
X112975Y102526D01*
X112961Y102547D01*
X112950Y102564D01*
X112942Y102579D01*
X112936Y102590D01*
X112933Y102597D01*
X112932Y102600D01*
X112924Y102621D01*
X112918Y102642D01*
X112913Y102661D01*
X112910Y102678D01*
X112908Y102693D01*
X112907Y102704D01*
Y102711D01*
Y102714D01*
X112908Y102734D01*
X112911Y102754D01*
X112914Y102773D01*
X112919Y102790D01*
X112933Y102823D01*
X112947Y102850D01*
X112956Y102862D01*
X112962Y102872D01*
X112969Y102881D01*
X112976Y102888D01*
X112982Y102894D01*
X112985Y102899D01*
X112987Y102901D01*
X112989Y102902D01*
X113004Y102916D01*
X113021Y102929D01*
X113039Y102938D01*
X113057Y102947D01*
X113093Y102961D01*
X113129Y102970D01*
X113144Y102973D01*
X113159Y102976D01*
X113173Y102977D01*
X113184Y102979D01*
X113194Y102980D01*
X113208D01*
X113233Y102979D01*
D02*
G37*
G36*
X116217D02*
X116241Y102977D01*
X116263Y102973D01*
X116284Y102969D01*
X116303Y102963D01*
X116321Y102958D01*
X116338Y102951D01*
X116353Y102944D01*
X116367Y102937D01*
X116378Y102930D01*
X116388Y102924D01*
X116396Y102919D01*
X116403Y102915D01*
X116407Y102911D01*
X116410Y102909D01*
X116412Y102908D01*
X116425Y102894D01*
X116438Y102879D01*
X116450Y102862D01*
X116460Y102845D01*
X116477Y102812D01*
X116488Y102779D01*
X116492Y102764D01*
X116496Y102748D01*
X116499Y102736D01*
X116502Y102725D01*
X116503Y102715D01*
Y102708D01*
X116504Y102704D01*
Y102703D01*
X116384Y102690D01*
X116381Y102722D01*
X116375Y102750D01*
X116367Y102775D01*
X116357Y102794D01*
X116349Y102811D01*
X116341Y102822D01*
X116335Y102829D01*
X116332Y102832D01*
X116312Y102848D01*
X116289Y102861D01*
X116266Y102870D01*
X116245Y102876D01*
X116226Y102880D01*
X116209Y102881D01*
X116203Y102883D01*
X116195D01*
X116166Y102881D01*
X116140Y102876D01*
X116118Y102868D01*
X116098Y102859D01*
X116083Y102850D01*
X116073Y102843D01*
X116066Y102837D01*
X116063Y102834D01*
X116047Y102815D01*
X116034Y102795D01*
X116025Y102776D01*
X116019Y102757D01*
X116015Y102741D01*
X116013Y102728D01*
X116012Y102719D01*
Y102718D01*
Y102716D01*
X116015Y102691D01*
X116020Y102665D01*
X116030Y102642D01*
X116040Y102619D01*
X116051Y102601D01*
X116061Y102586D01*
X116063Y102581D01*
X116066Y102576D01*
X116069Y102575D01*
Y102574D01*
X116080Y102558D01*
X116094Y102543D01*
X116109Y102526D01*
X116126Y102510D01*
X116160Y102477D01*
X116195Y102443D01*
X116213Y102428D01*
X116228Y102414D01*
X116244Y102402D01*
X116256Y102391D01*
X116266Y102382D01*
X116274Y102375D01*
X116280Y102371D01*
X116281Y102370D01*
X116316Y102341D01*
X116348Y102313D01*
X116374Y102288D01*
X116395Y102267D01*
X116413Y102249D01*
X116425Y102237D01*
X116432Y102228D01*
X116435Y102227D01*
Y102225D01*
X116454Y102202D01*
X116470Y102180D01*
X116484Y102158D01*
X116495Y102138D01*
X116503Y102121D01*
X116509Y102109D01*
X116511Y102101D01*
X116513Y102099D01*
Y102098D01*
X116518Y102083D01*
X116521Y102069D01*
X116524Y102055D01*
X116525Y102042D01*
X116527Y102031D01*
Y102023D01*
Y102017D01*
Y102016D01*
X115890D01*
Y102130D01*
X116363D01*
X116346Y102153D01*
X116338Y102163D01*
X116331Y102173D01*
X116324Y102181D01*
X116319Y102187D01*
X116314Y102191D01*
X116313Y102192D01*
X116306Y102199D01*
X116298Y102206D01*
X116278Y102224D01*
X116256Y102245D01*
X116233Y102266D01*
X116210Y102284D01*
X116201Y102292D01*
X116192Y102300D01*
X116185Y102306D01*
X116180Y102310D01*
X116177Y102313D01*
X116176Y102314D01*
X116154Y102334D01*
X116131Y102352D01*
X116112Y102370D01*
X116094Y102385D01*
X116077Y102400D01*
X116063Y102414D01*
X116050Y102427D01*
X116038Y102438D01*
X116027Y102449D01*
X116019Y102457D01*
X116012Y102464D01*
X116005Y102471D01*
X115998Y102479D01*
X115995Y102482D01*
X115976Y102506D01*
X115959Y102526D01*
X115946Y102547D01*
X115934Y102564D01*
X115926Y102579D01*
X115921Y102590D01*
X115918Y102597D01*
X115916Y102600D01*
X115908Y102621D01*
X115903Y102642D01*
X115897Y102661D01*
X115894Y102678D01*
X115893Y102693D01*
X115891Y102704D01*
Y102711D01*
Y102714D01*
X115893Y102734D01*
X115896Y102754D01*
X115898Y102773D01*
X115904Y102790D01*
X115918Y102823D01*
X115932Y102850D01*
X115940Y102862D01*
X115947Y102872D01*
X115954Y102881D01*
X115961Y102888D01*
X115966Y102894D01*
X115969Y102899D01*
X115972Y102901D01*
X115973Y102902D01*
X115989Y102916D01*
X116005Y102929D01*
X116023Y102938D01*
X116041Y102947D01*
X116077Y102961D01*
X116113Y102970D01*
X116129Y102973D01*
X116144Y102976D01*
X116158Y102977D01*
X116169Y102979D01*
X116179Y102980D01*
X116192D01*
X116217Y102979D01*
D02*
G37*
G36*
X108695Y102956D02*
X108710Y102934D01*
X108728Y102912D01*
X108745Y102893D01*
X108762Y102876D01*
X108774Y102862D01*
X108780Y102858D01*
X108784Y102854D01*
X108785Y102852D01*
X108787Y102851D01*
X108816Y102827D01*
X108845Y102805D01*
X108873Y102786D01*
X108900Y102771D01*
X108924Y102757D01*
X108934Y102751D01*
X108942Y102747D01*
X108949Y102743D01*
X108954Y102741D01*
X108957Y102739D01*
X108959D01*
Y102625D01*
X108938Y102633D01*
X108917Y102643D01*
X108896Y102653D01*
X108877Y102662D01*
X108860Y102671D01*
X108846Y102678D01*
X108838Y102683D01*
X108837Y102685D01*
X108835D01*
X108810Y102700D01*
X108788Y102715D01*
X108769Y102729D01*
X108753Y102741D01*
X108740Y102751D01*
X108731Y102759D01*
X108724Y102765D01*
X108723Y102766D01*
Y102016D01*
X108605D01*
Y102980D01*
X108681D01*
X108695Y102956D01*
D02*
G37*
G36*
X112012Y102470D02*
X111902Y102454D01*
X111892Y102470D01*
X111879Y102482D01*
X111868Y102495D01*
X111857Y102504D01*
X111846Y102511D01*
X111838Y102518D01*
X111832Y102521D01*
X111831Y102522D01*
X111813Y102531D01*
X111795Y102538D01*
X111778Y102542D01*
X111761Y102546D01*
X111748Y102547D01*
X111736Y102549D01*
X111710D01*
X111693Y102546D01*
X111664Y102539D01*
X111639Y102529D01*
X111617Y102520D01*
X111601Y102508D01*
X111588Y102499D01*
X111581Y102492D01*
X111578Y102490D01*
Y102489D01*
X111559Y102465D01*
X111545Y102440D01*
X111535Y102414D01*
X111528Y102388D01*
X111524Y102366D01*
X111523Y102356D01*
Y102348D01*
X111522Y102341D01*
Y102335D01*
Y102332D01*
Y102331D01*
Y102311D01*
X111524Y102293D01*
X111531Y102259D01*
X111541Y102230D01*
X111551Y102206D01*
X111562Y102187D01*
X111571Y102171D01*
X111576Y102167D01*
X111578Y102163D01*
X111580Y102162D01*
X111581Y102160D01*
X111592Y102149D01*
X111603Y102140D01*
X111628Y102123D01*
X111652Y102112D01*
X111675Y102105D01*
X111695Y102099D01*
X111712Y102098D01*
X111717Y102097D01*
X111725D01*
X111752Y102098D01*
X111775Y102103D01*
X111796Y102110D01*
X111813Y102119D01*
X111828Y102127D01*
X111839Y102134D01*
X111845Y102140D01*
X111847Y102141D01*
X111864Y102160D01*
X111878Y102181D01*
X111889Y102205D01*
X111897Y102225D01*
X111903Y102246D01*
X111907Y102262D01*
X111908Y102268D01*
X111910Y102273D01*
Y102275D01*
Y102277D01*
X112033Y102267D01*
X112030Y102245D01*
X112026Y102224D01*
X112014Y102185D01*
X111999Y102152D01*
X111990Y102137D01*
X111982Y102124D01*
X111975Y102112D01*
X111967Y102101D01*
X111960Y102092D01*
X111953Y102085D01*
X111947Y102080D01*
X111945Y102074D01*
X111942Y102073D01*
X111940Y102072D01*
X111924Y102059D01*
X111907Y102048D01*
X111889Y102038D01*
X111871Y102030D01*
X111836Y102017D01*
X111802Y102009D01*
X111786Y102005D01*
X111771Y102004D01*
X111759Y102002D01*
X111748Y102001D01*
X111738Y101999D01*
X111725D01*
X111696Y102001D01*
X111669Y102005D01*
X111642Y102011D01*
X111619Y102017D01*
X111596Y102027D01*
X111576Y102037D01*
X111556Y102047D01*
X111540Y102058D01*
X111524Y102069D01*
X111510Y102078D01*
X111499Y102090D01*
X111490Y102098D01*
X111483Y102105D01*
X111477Y102110D01*
X111474Y102115D01*
X111473Y102116D01*
X111459Y102134D01*
X111448Y102153D01*
X111437Y102171D01*
X111429Y102191D01*
X111415Y102228D01*
X111406Y102264D01*
X111404Y102280D01*
X111401Y102295D01*
X111399Y102307D01*
X111398Y102318D01*
X111397Y102328D01*
Y102335D01*
Y102339D01*
Y102341D01*
X111398Y102366D01*
X111401Y102389D01*
X111405Y102413D01*
X111411Y102434D01*
X111418Y102453D01*
X111424Y102472D01*
X111433Y102489D01*
X111440Y102504D01*
X111448Y102518D01*
X111456Y102531D01*
X111463Y102540D01*
X111470Y102550D01*
X111476Y102557D01*
X111480Y102561D01*
X111483Y102564D01*
X111484Y102565D01*
X111501Y102581D01*
X111517Y102594D01*
X111535Y102605D01*
X111553Y102615D01*
X111571Y102625D01*
X111589Y102632D01*
X111623Y102642D01*
X111638Y102646D01*
X111652Y102648D01*
X111664Y102650D01*
X111675Y102651D01*
X111684Y102653D01*
X111714D01*
X111731Y102650D01*
X111764Y102643D01*
X111795Y102633D01*
X111822Y102622D01*
X111845Y102611D01*
X111854Y102605D01*
X111863Y102601D01*
X111870Y102597D01*
X111874Y102594D01*
X111877Y102593D01*
X111878Y102592D01*
X111827Y102851D01*
X111442D01*
Y102963D01*
X111920D01*
X112012Y102470D01*
D02*
G37*
G36*
X114997D02*
X114886Y102454D01*
X114876Y102470D01*
X114864Y102482D01*
X114853Y102495D01*
X114842Y102504D01*
X114831Y102511D01*
X114822Y102518D01*
X114817Y102521D01*
X114815Y102522D01*
X114797Y102531D01*
X114779Y102538D01*
X114763Y102542D01*
X114746Y102546D01*
X114732Y102547D01*
X114721Y102549D01*
X114695D01*
X114678Y102546D01*
X114649Y102539D01*
X114624Y102529D01*
X114602Y102520D01*
X114585Y102508D01*
X114573Y102499D01*
X114566Y102492D01*
X114563Y102490D01*
Y102489D01*
X114543Y102465D01*
X114530Y102440D01*
X114520Y102414D01*
X114513Y102388D01*
X114509Y102366D01*
X114507Y102356D01*
Y102348D01*
X114506Y102341D01*
Y102335D01*
Y102332D01*
Y102331D01*
Y102311D01*
X114509Y102293D01*
X114516Y102259D01*
X114525Y102230D01*
X114535Y102206D01*
X114546Y102187D01*
X114556Y102171D01*
X114560Y102167D01*
X114563Y102163D01*
X114564Y102162D01*
X114566Y102160D01*
X114577Y102149D01*
X114588Y102140D01*
X114613Y102123D01*
X114636Y102112D01*
X114660Y102105D01*
X114679Y102099D01*
X114696Y102098D01*
X114702Y102097D01*
X114710D01*
X114736Y102098D01*
X114760Y102103D01*
X114781Y102110D01*
X114797Y102119D01*
X114812Y102127D01*
X114824Y102134D01*
X114829Y102140D01*
X114832Y102141D01*
X114849Y102160D01*
X114862Y102181D01*
X114874Y102205D01*
X114882Y102225D01*
X114887Y102246D01*
X114892Y102262D01*
X114893Y102268D01*
X114894Y102273D01*
Y102275D01*
Y102277D01*
X115018Y102267D01*
X115015Y102245D01*
X115011Y102224D01*
X114998Y102185D01*
X114983Y102152D01*
X114975Y102137D01*
X114966Y102124D01*
X114959Y102112D01*
X114951Y102101D01*
X114944Y102092D01*
X114937Y102085D01*
X114932Y102080D01*
X114929Y102074D01*
X114926Y102073D01*
X114925Y102072D01*
X114908Y102059D01*
X114892Y102048D01*
X114874Y102038D01*
X114855Y102030D01*
X114821Y102017D01*
X114786Y102009D01*
X114771Y102005D01*
X114756Y102004D01*
X114743Y102002D01*
X114732Y102001D01*
X114722Y101999D01*
X114710D01*
X114681Y102001D01*
X114653Y102005D01*
X114627Y102011D01*
X114603Y102017D01*
X114581Y102027D01*
X114560Y102037D01*
X114541Y102047D01*
X114524Y102058D01*
X114509Y102069D01*
X114495Y102078D01*
X114484Y102090D01*
X114474Y102098D01*
X114467Y102105D01*
X114462Y102110D01*
X114459Y102115D01*
X114457Y102116D01*
X114444Y102134D01*
X114432Y102153D01*
X114421Y102171D01*
X114413Y102191D01*
X114399Y102228D01*
X114391Y102264D01*
X114388Y102280D01*
X114385Y102295D01*
X114384Y102307D01*
X114383Y102318D01*
X114381Y102328D01*
Y102335D01*
Y102339D01*
Y102341D01*
X114383Y102366D01*
X114385Y102389D01*
X114390Y102413D01*
X114395Y102434D01*
X114402Y102453D01*
X114409Y102472D01*
X114417Y102489D01*
X114424Y102504D01*
X114432Y102518D01*
X114441Y102531D01*
X114448Y102540D01*
X114455Y102550D01*
X114460Y102557D01*
X114464Y102561D01*
X114467Y102564D01*
X114469Y102565D01*
X114485Y102581D01*
X114502Y102594D01*
X114520Y102605D01*
X114538Y102615D01*
X114556Y102625D01*
X114574Y102632D01*
X114607Y102642D01*
X114622Y102646D01*
X114636Y102648D01*
X114649Y102650D01*
X114660Y102651D01*
X114668Y102653D01*
X114699D01*
X114715Y102650D01*
X114749Y102643D01*
X114779Y102633D01*
X114807Y102622D01*
X114829Y102611D01*
X114839Y102605D01*
X114847Y102601D01*
X114854Y102597D01*
X114858Y102594D01*
X114861Y102593D01*
X114862Y102592D01*
X114811Y102851D01*
X114427D01*
Y102963D01*
X114904D01*
X114997Y102470D01*
D02*
G37*
G36*
X107278Y102956D02*
X107293Y102934D01*
X107311Y102912D01*
X107328Y102893D01*
X107344Y102876D01*
X107357Y102862D01*
X107362Y102858D01*
X107367Y102854D01*
X107368Y102852D01*
X107369Y102851D01*
X107398Y102827D01*
X107428Y102805D01*
X107455Y102786D01*
X107483Y102771D01*
X107507Y102757D01*
X107516Y102751D01*
X107525Y102747D01*
X107532Y102743D01*
X107537Y102741D01*
X107540Y102739D01*
X107541D01*
Y102625D01*
X107520Y102633D01*
X107500Y102643D01*
X107479Y102653D01*
X107459Y102662D01*
X107443Y102671D01*
X107429Y102678D01*
X107421Y102683D01*
X107419Y102685D01*
X107418D01*
X107393Y102700D01*
X107371Y102715D01*
X107351Y102729D01*
X107336Y102741D01*
X107322Y102751D01*
X107314Y102759D01*
X107307Y102765D01*
X107306Y102766D01*
Y102016D01*
X107188D01*
Y102980D01*
X107264D01*
X107278Y102956D01*
D02*
G37*
G36*
X103144Y101407D02*
X103026D01*
Y101541D01*
X103144D01*
Y101407D01*
D02*
G37*
G36*
X112243D02*
X112125D01*
Y101541D01*
X112243D01*
Y101407D01*
D02*
G37*
G36*
X116344D02*
X116226D01*
Y101541D01*
X116344D01*
Y101407D01*
D02*
G37*
G36*
X108925Y101544D02*
X108949Y101543D01*
X108971Y101538D01*
X108992Y101534D01*
X109011Y101529D01*
X109029Y101523D01*
X109046Y101516D01*
X109061Y101509D01*
X109075Y101502D01*
X109086Y101495D01*
X109096Y101490D01*
X109104Y101484D01*
X109111Y101480D01*
X109115Y101476D01*
X109118Y101475D01*
X109120Y101473D01*
X109133Y101459D01*
X109146Y101444D01*
X109158Y101427D01*
X109168Y101411D01*
X109185Y101378D01*
X109196Y101344D01*
X109200Y101329D01*
X109204Y101314D01*
X109207Y101301D01*
X109210Y101290D01*
X109211Y101281D01*
Y101274D01*
X109212Y101269D01*
Y101268D01*
X109092Y101256D01*
X109089Y101287D01*
X109083Y101315D01*
X109075Y101340D01*
X109065Y101360D01*
X109057Y101376D01*
X109049Y101387D01*
X109043Y101394D01*
X109040Y101397D01*
X109020Y101414D01*
X108997Y101426D01*
X108974Y101436D01*
X108953Y101441D01*
X108934Y101446D01*
X108917Y101447D01*
X108911Y101448D01*
X108903D01*
X108874Y101447D01*
X108848Y101441D01*
X108826Y101433D01*
X108806Y101425D01*
X108791Y101415D01*
X108781Y101408D01*
X108774Y101403D01*
X108771Y101400D01*
X108755Y101380D01*
X108742Y101361D01*
X108733Y101342D01*
X108727Y101322D01*
X108723Y101307D01*
X108721Y101293D01*
X108720Y101285D01*
Y101283D01*
Y101282D01*
X108723Y101257D01*
X108728Y101231D01*
X108738Y101207D01*
X108748Y101185D01*
X108759Y101167D01*
X108769Y101152D01*
X108771Y101146D01*
X108774Y101142D01*
X108777Y101140D01*
Y101139D01*
X108788Y101124D01*
X108802Y101109D01*
X108817Y101092D01*
X108834Y101075D01*
X108868Y101042D01*
X108903Y101009D01*
X108921Y100993D01*
X108936Y100980D01*
X108952Y100967D01*
X108964Y100956D01*
X108974Y100948D01*
X108982Y100941D01*
X108988Y100937D01*
X108989Y100935D01*
X109024Y100906D01*
X109056Y100878D01*
X109082Y100853D01*
X109103Y100833D01*
X109121Y100815D01*
X109133Y100802D01*
X109140Y100794D01*
X109143Y100792D01*
Y100791D01*
X109162Y100767D01*
X109178Y100745D01*
X109192Y100723D01*
X109203Y100704D01*
X109211Y100687D01*
X109217Y100674D01*
X109219Y100666D01*
X109221Y100665D01*
Y100663D01*
X109226Y100648D01*
X109229Y100634D01*
X109232Y100620D01*
X109233Y100608D01*
X109235Y100597D01*
Y100588D01*
Y100583D01*
Y100582D01*
X108598D01*
Y100695D01*
X109071D01*
X109054Y100719D01*
X109046Y100729D01*
X109039Y100738D01*
X109032Y100747D01*
X109027Y100752D01*
X109022Y100756D01*
X109021Y100758D01*
X109014Y100765D01*
X109006Y100772D01*
X108986Y100790D01*
X108964Y100810D01*
X108941Y100831D01*
X108918Y100849D01*
X108909Y100858D01*
X108900Y100866D01*
X108893Y100871D01*
X108888Y100876D01*
X108885Y100878D01*
X108884Y100880D01*
X108862Y100899D01*
X108839Y100917D01*
X108820Y100935D01*
X108802Y100950D01*
X108785Y100966D01*
X108771Y100980D01*
X108758Y100992D01*
X108746Y101003D01*
X108735Y101014D01*
X108727Y101023D01*
X108720Y101029D01*
X108713Y101036D01*
X108706Y101045D01*
X108703Y101048D01*
X108684Y101071D01*
X108667Y101092D01*
X108654Y101113D01*
X108642Y101129D01*
X108634Y101145D01*
X108629Y101156D01*
X108626Y101163D01*
X108624Y101165D01*
X108616Y101186D01*
X108611Y101207D01*
X108605Y101226D01*
X108602Y101243D01*
X108601Y101258D01*
X108599Y101269D01*
Y101276D01*
Y101279D01*
X108601Y101300D01*
X108604Y101319D01*
X108606Y101339D01*
X108612Y101355D01*
X108626Y101389D01*
X108640Y101415D01*
X108648Y101427D01*
X108655Y101437D01*
X108662Y101447D01*
X108669Y101454D01*
X108674Y101459D01*
X108677Y101465D01*
X108680Y101466D01*
X108681Y101468D01*
X108697Y101482D01*
X108713Y101494D01*
X108731Y101504D01*
X108749Y101512D01*
X108785Y101526D01*
X108821Y101536D01*
X108837Y101538D01*
X108852Y101541D01*
X108866Y101543D01*
X108877Y101544D01*
X108887Y101545D01*
X108900D01*
X108925Y101544D01*
D02*
G37*
G36*
X102624Y101292D02*
X102654Y101286D01*
X102682Y101278D01*
X102705Y101269D01*
X102725Y101261D01*
X102739Y101253D01*
X102744Y101250D01*
X102748Y101247D01*
X102750Y101246D01*
X102751D01*
X102775Y101228D01*
X102796Y101206D01*
X102814Y101185D01*
X102829Y101164D01*
X102840Y101145D01*
X102848Y101129D01*
X102851Y101124D01*
X102854Y101120D01*
X102855Y101117D01*
Y101115D01*
X102868Y101084D01*
X102876Y101052D01*
X102883Y101021D01*
X102887Y100993D01*
X102890Y100968D01*
Y100959D01*
X102891Y100949D01*
Y100942D01*
Y100937D01*
Y100934D01*
Y100932D01*
X102890Y100906D01*
X102888Y100880D01*
X102879Y100833D01*
X102873Y100810D01*
X102866Y100791D01*
X102859Y100772D01*
X102852Y100755D01*
X102845Y100738D01*
X102839Y100724D01*
X102832Y100713D01*
X102826Y100702D01*
X102820Y100695D01*
X102816Y100688D01*
X102815Y100686D01*
X102814Y100684D01*
X102798Y100666D01*
X102782Y100651D01*
X102764Y100637D01*
X102746Y100625D01*
X102726Y100615D01*
X102708Y100606D01*
X102690Y100600D01*
X102672Y100594D01*
X102655Y100590D01*
X102640Y100587D01*
X102626Y100584D01*
X102614Y100583D01*
X102604D01*
X102597Y100582D01*
X102590D01*
X102569Y100583D01*
X102549Y100586D01*
X102529Y100590D01*
X102511Y100595D01*
X102479Y100611D01*
X102450Y100627D01*
X102439Y100636D01*
X102428Y100644D01*
X102418Y100652D01*
X102411Y100659D01*
X102406Y100665D01*
X102402Y100669D01*
X102399Y100672D01*
X102397Y100673D01*
Y100652D01*
Y100634D01*
X102399Y100616D01*
Y100601D01*
Y100587D01*
X102400Y100575D01*
Y100563D01*
X102402Y100554D01*
X102403Y100540D01*
X102404Y100529D01*
X102406Y100523D01*
Y100522D01*
X102413Y100501D01*
X102422Y100483D01*
X102432Y100468D01*
X102442Y100454D01*
X102452Y100444D01*
X102460Y100436D01*
X102465Y100432D01*
X102467Y100430D01*
X102485Y100419D01*
X102506Y100411D01*
X102526Y100405D01*
X102546Y100401D01*
X102565Y100398D01*
X102579Y100397D01*
X102593D01*
X102619Y100398D01*
X102644Y100403D01*
X102665Y100408D01*
X102682Y100415D01*
X102696Y100421D01*
X102705Y100426D01*
X102711Y100430D01*
X102714Y100432D01*
X102725Y100441D01*
X102733Y100454D01*
X102740Y100466D01*
X102746Y100479D01*
X102748Y100491D01*
X102751Y100501D01*
X102753Y100507D01*
Y100509D01*
X102868Y100525D01*
Y100504D01*
X102865Y100486D01*
X102862Y100468D01*
X102858Y100451D01*
X102845Y100422D01*
X102832Y100398D01*
X102818Y100380D01*
X102807Y100368D01*
X102797Y100360D01*
X102796Y100358D01*
X102794Y100357D01*
X102764Y100337D01*
X102730Y100324D01*
X102697Y100314D01*
X102665Y100307D01*
X102650Y100304D01*
X102636Y100303D01*
X102625Y100301D01*
X102614D01*
X102606Y100300D01*
X102593D01*
X102556Y100301D01*
X102521Y100307D01*
X102490Y100312D01*
X102465Y100321D01*
X102445Y100328D01*
X102436Y100331D01*
X102429Y100335D01*
X102424Y100336D01*
X102420Y100339D01*
X102418Y100340D01*
X102417D01*
X102392Y100355D01*
X102370Y100374D01*
X102352Y100392D01*
X102336Y100408D01*
X102325Y100423D01*
X102318Y100436D01*
X102313Y100444D01*
X102312Y100446D01*
Y100447D01*
X102306Y100461D01*
X102300Y100476D01*
X102296Y100493D01*
X102292Y100511D01*
X102287Y100550D01*
X102282Y100587D01*
X102281Y100605D01*
X102280Y100622D01*
Y100637D01*
X102278Y100649D01*
Y100661D01*
Y100669D01*
Y100674D01*
Y100676D01*
Y101278D01*
X102386D01*
Y101192D01*
X102402Y101210D01*
X102418Y101225D01*
X102435Y101239D01*
X102452Y101250D01*
X102470Y101260D01*
X102486Y101268D01*
X102503Y101275D01*
X102518Y101281D01*
X102533Y101285D01*
X102547Y101287D01*
X102560Y101290D01*
X102569Y101292D01*
X102578Y101293D01*
X102590D01*
X102624Y101292D01*
D02*
G37*
G36*
X102099Y100582D02*
X101981D01*
Y100962D01*
X101980Y100991D01*
X101979Y101016D01*
X101976Y101038D01*
X101972Y101056D01*
X101968Y101070D01*
X101965Y101081D01*
X101963Y101086D01*
X101962Y101089D01*
X101954Y101106D01*
X101944Y101121D01*
X101933Y101133D01*
X101922Y101145D01*
X101912Y101153D01*
X101904Y101158D01*
X101898Y101163D01*
X101897Y101164D01*
X101879Y101174D01*
X101862Y101181D01*
X101846Y101185D01*
X101832Y101189D01*
X101818Y101190D01*
X101808Y101192D01*
X101800D01*
X101775Y101190D01*
X101753Y101185D01*
X101735Y101179D01*
X101719Y101171D01*
X101707Y101164D01*
X101699Y101157D01*
X101693Y101152D01*
X101692Y101150D01*
X101679Y101133D01*
X101669Y101113D01*
X101662Y101092D01*
X101657Y101071D01*
X101654Y101052D01*
X101653Y101036D01*
Y101031D01*
Y101027D01*
Y101024D01*
Y101023D01*
Y100582D01*
X101535D01*
Y101021D01*
X101536Y101057D01*
X101539Y101089D01*
X101543Y101115D01*
X101547Y101138D01*
X101552Y101156D01*
X101556Y101168D01*
X101558Y101175D01*
X101560Y101178D01*
X101571Y101197D01*
X101583Y101214D01*
X101597Y101228D01*
X101610Y101240D01*
X101622Y101250D01*
X101632Y101257D01*
X101639Y101261D01*
X101642Y101262D01*
X101664Y101272D01*
X101686Y101281D01*
X101708Y101286D01*
X101729Y101289D01*
X101747Y101292D01*
X101762Y101293D01*
X101775D01*
X101797Y101292D01*
X101819Y101289D01*
X101840Y101285D01*
X101859Y101278D01*
X101895Y101262D01*
X101911Y101254D01*
X101925Y101246D01*
X101937Y101236D01*
X101950Y101228D01*
X101959Y101219D01*
X101966Y101213D01*
X101973Y101206D01*
X101977Y101201D01*
X101980Y101199D01*
X101981Y101197D01*
Y101541D01*
X102099D01*
Y100582D01*
D02*
G37*
G36*
X107433Y101544D02*
X107457Y101543D01*
X107479Y101538D01*
X107500Y101534D01*
X107519Y101529D01*
X107537Y101523D01*
X107554Y101516D01*
X107569Y101509D01*
X107583Y101502D01*
X107594Y101495D01*
X107604Y101490D01*
X107612Y101484D01*
X107619Y101480D01*
X107623Y101476D01*
X107626Y101475D01*
X107627Y101473D01*
X107641Y101459D01*
X107654Y101444D01*
X107666Y101427D01*
X107676Y101411D01*
X107692Y101378D01*
X107704Y101344D01*
X107708Y101329D01*
X107712Y101314D01*
X107715Y101301D01*
X107717Y101290D01*
X107719Y101281D01*
Y101274D01*
X107720Y101269D01*
Y101268D01*
X107600Y101256D01*
X107597Y101287D01*
X107591Y101315D01*
X107583Y101340D01*
X107573Y101360D01*
X107565Y101376D01*
X107557Y101387D01*
X107551Y101394D01*
X107548Y101397D01*
X107527Y101414D01*
X107505Y101426D01*
X107482Y101436D01*
X107461Y101441D01*
X107441Y101446D01*
X107425Y101447D01*
X107419Y101448D01*
X107411D01*
X107382Y101447D01*
X107355Y101441D01*
X107333Y101433D01*
X107314Y101425D01*
X107299Y101415D01*
X107289Y101408D01*
X107282Y101403D01*
X107279Y101400D01*
X107263Y101380D01*
X107250Y101361D01*
X107240Y101342D01*
X107235Y101322D01*
X107231Y101307D01*
X107229Y101293D01*
X107228Y101285D01*
Y101283D01*
Y101282D01*
X107231Y101257D01*
X107236Y101231D01*
X107246Y101207D01*
X107256Y101185D01*
X107267Y101167D01*
X107276Y101152D01*
X107279Y101146D01*
X107282Y101142D01*
X107285Y101140D01*
Y101139D01*
X107296Y101124D01*
X107310Y101109D01*
X107325Y101092D01*
X107342Y101075D01*
X107376Y101042D01*
X107411Y101009D01*
X107429Y100993D01*
X107444Y100980D01*
X107459Y100967D01*
X107472Y100956D01*
X107482Y100948D01*
X107490Y100941D01*
X107496Y100937D01*
X107497Y100935D01*
X107532Y100906D01*
X107563Y100878D01*
X107590Y100853D01*
X107611Y100833D01*
X107629Y100815D01*
X107641Y100802D01*
X107648Y100794D01*
X107651Y100792D01*
Y100791D01*
X107670Y100767D01*
X107686Y100745D01*
X107699Y100723D01*
X107710Y100704D01*
X107719Y100687D01*
X107724Y100674D01*
X107727Y100666D01*
X107729Y100665D01*
Y100663D01*
X107734Y100648D01*
X107737Y100634D01*
X107740Y100620D01*
X107741Y100608D01*
X107742Y100597D01*
Y100588D01*
Y100583D01*
Y100582D01*
X107106D01*
Y100695D01*
X107579D01*
X107562Y100719D01*
X107554Y100729D01*
X107547Y100738D01*
X107540Y100747D01*
X107534Y100752D01*
X107530Y100756D01*
X107529Y100758D01*
X107522Y100765D01*
X107514Y100772D01*
X107494Y100790D01*
X107472Y100810D01*
X107448Y100831D01*
X107426Y100849D01*
X107416Y100858D01*
X107408Y100866D01*
X107401Y100871D01*
X107396Y100876D01*
X107393Y100878D01*
X107392Y100880D01*
X107369Y100899D01*
X107347Y100917D01*
X107328Y100935D01*
X107310Y100950D01*
X107293Y100966D01*
X107279Y100980D01*
X107265Y100992D01*
X107254Y101003D01*
X107243Y101014D01*
X107235Y101023D01*
X107228Y101029D01*
X107221Y101036D01*
X107214Y101045D01*
X107211Y101048D01*
X107192Y101071D01*
X107175Y101092D01*
X107161Y101113D01*
X107150Y101129D01*
X107142Y101145D01*
X107136Y101156D01*
X107134Y101163D01*
X107132Y101165D01*
X107124Y101186D01*
X107118Y101207D01*
X107113Y101226D01*
X107110Y101243D01*
X107109Y101258D01*
X107107Y101269D01*
Y101276D01*
Y101279D01*
X107109Y101300D01*
X107111Y101319D01*
X107114Y101339D01*
X107120Y101355D01*
X107134Y101389D01*
X107147Y101415D01*
X107156Y101427D01*
X107163Y101437D01*
X107170Y101447D01*
X107177Y101454D01*
X107182Y101459D01*
X107185Y101465D01*
X107188Y101466D01*
X107189Y101468D01*
X107204Y101482D01*
X107221Y101494D01*
X107239Y101504D01*
X107257Y101512D01*
X107293Y101526D01*
X107329Y101536D01*
X107344Y101538D01*
X107360Y101541D01*
X107373Y101543D01*
X107385Y101544D01*
X107394Y101545D01*
X107408D01*
X107433Y101544D01*
D02*
G37*
G36*
X115804Y102354D02*
Y102246D01*
X115387D01*
Y102016D01*
X115269D01*
Y102246D01*
X115138D01*
Y102354D01*
X115269D01*
Y102976D01*
X115364D01*
X115804Y102354D01*
D02*
G37*
G36*
X117353Y102862D02*
X117037D01*
Y102016D01*
X116909D01*
Y102862D01*
X116593D01*
Y102976D01*
X117353D01*
Y102862D01*
D02*
G37*
G36*
X119149Y102016D02*
X118783D01*
X118750Y102017D01*
X118721Y102019D01*
X118694Y102022D01*
X118672Y102024D01*
X118654Y102027D01*
X118640Y102029D01*
X118632Y102031D01*
X118629D01*
X118605Y102038D01*
X118586Y102045D01*
X118568Y102054D01*
X118553Y102062D01*
X118540Y102067D01*
X118531Y102073D01*
X118525Y102077D01*
X118524Y102078D01*
X118508Y102091D01*
X118495Y102106D01*
X118483Y102121D01*
X118472Y102135D01*
X118464Y102149D01*
X118458Y102159D01*
X118454Y102166D01*
X118453Y102169D01*
X118443Y102191D01*
X118436Y102213D01*
X118431Y102234D01*
X118428Y102253D01*
X118425Y102270D01*
X118424Y102284D01*
Y102292D01*
Y102293D01*
Y102295D01*
X118425Y102325D01*
X118431Y102353D01*
X118439Y102377D01*
X118447Y102399D01*
X118456Y102415D01*
X118464Y102428D01*
X118470Y102436D01*
X118471Y102439D01*
X118490Y102461D01*
X118511Y102479D01*
X118535Y102495D01*
X118556Y102507D01*
X118575Y102517D01*
X118592Y102522D01*
X118597Y102525D01*
X118601Y102526D01*
X118604Y102528D01*
X118605D01*
X118582Y102542D01*
X118561Y102556D01*
X118544Y102571D01*
X118531Y102585D01*
X118520Y102596D01*
X118511Y102607D01*
X118507Y102612D01*
X118506Y102615D01*
X118495Y102636D01*
X118486Y102655D01*
X118479Y102675D01*
X118475Y102693D01*
X118472Y102708D01*
X118471Y102721D01*
Y102728D01*
Y102730D01*
X118472Y102754D01*
X118477Y102777D01*
X118483Y102798D01*
X118490Y102818D01*
X118497Y102834D01*
X118504Y102845D01*
X118508Y102854D01*
X118510Y102856D01*
X118525Y102877D01*
X118542Y102897D01*
X118560Y102912D01*
X118576Y102924D01*
X118590Y102934D01*
X118603Y102941D01*
X118611Y102945D01*
X118612Y102947D01*
X118614D01*
X118640Y102956D01*
X118669Y102963D01*
X118698Y102969D01*
X118726Y102972D01*
X118751Y102974D01*
X118762D01*
X118772Y102976D01*
X119149D01*
Y102016D01*
D02*
G37*
G36*
X119479Y102314D02*
Y102285D01*
X119482Y102260D01*
X119483Y102239D01*
X119486Y102223D01*
X119489Y102210D01*
X119490Y102201D01*
X119493Y102195D01*
Y102194D01*
X119499Y102180D01*
X119506Y102169D01*
X119514Y102159D01*
X119521Y102149D01*
X119529Y102144D01*
X119535Y102138D01*
X119539Y102135D01*
X119540Y102134D01*
X119554Y102127D01*
X119568Y102121D01*
X119582Y102119D01*
X119594Y102116D01*
X119607Y102115D01*
X119615Y102113D01*
X119623D01*
X119646Y102115D01*
X119666Y102120D01*
X119683Y102126D01*
X119698Y102134D01*
X119709Y102141D01*
X119718Y102148D01*
X119723Y102152D01*
X119725Y102153D01*
X119732Y102162D01*
X119737Y102171D01*
X119745Y102194D01*
X119754Y102219D01*
X119758Y102244D01*
X119762Y102267D01*
Y102277D01*
X119763Y102285D01*
X119765Y102293D01*
Y102299D01*
Y102302D01*
Y102303D01*
X119880Y102287D01*
Y102260D01*
X119879Y102237D01*
X119874Y102213D01*
X119872Y102192D01*
X119866Y102173D01*
X119861Y102156D01*
X119855Y102140D01*
X119849Y102126D01*
X119843Y102113D01*
X119837Y102102D01*
X119831Y102092D01*
X119826Y102085D01*
X119822Y102080D01*
X119819Y102074D01*
X119818Y102073D01*
X119816Y102072D01*
X119802Y102059D01*
X119788Y102048D01*
X119773Y102038D01*
X119757Y102030D01*
X119725Y102017D01*
X119694Y102009D01*
X119665Y102004D01*
X119654Y102002D01*
X119643Y102001D01*
X119635Y101999D01*
X119622D01*
X119592Y102001D01*
X119564Y102005D01*
X119539Y102011D01*
X119517Y102017D01*
X119499Y102023D01*
X119486Y102029D01*
X119478Y102033D01*
X119475Y102034D01*
X119453Y102048D01*
X119433Y102065D01*
X119418Y102081D01*
X119404Y102097D01*
X119395Y102112D01*
X119388Y102123D01*
X119384Y102131D01*
X119382Y102133D01*
Y102134D01*
X119372Y102162D01*
X119364Y102191D01*
X119359Y102223D01*
X119356Y102253D01*
X119353Y102280D01*
Y102291D01*
X119352Y102302D01*
Y102310D01*
Y102316D01*
Y102320D01*
Y102321D01*
Y102976D01*
X119479D01*
Y102314D01*
D02*
G37*
G36*
X109871Y101750D02*
X109090D01*
Y101834D01*
X109871D01*
Y101750D01*
D02*
G37*
G36*
X114348D02*
X113567D01*
Y101834D01*
X114348D01*
Y101750D01*
D02*
G37*
G36*
X112503Y102977D02*
X112538Y102972D01*
X112567Y102962D01*
X112592Y102952D01*
X112613Y102941D01*
X112621Y102937D01*
X112628Y102931D01*
X112634Y102929D01*
X112638Y102926D01*
X112639Y102923D01*
X112641D01*
X112666Y102901D01*
X112686Y102875D01*
X112704Y102848D01*
X112718Y102823D01*
X112729Y102800D01*
X112735Y102790D01*
X112738Y102780D01*
X112741Y102773D01*
X112743Y102768D01*
X112745Y102765D01*
Y102764D01*
X112750Y102743D01*
X112756Y102722D01*
X112764Y102676D01*
X112771Y102630D01*
X112775Y102587D01*
X112777Y102567D01*
X112778Y102549D01*
Y102532D01*
X112779Y102517D01*
Y102506D01*
Y102496D01*
Y102490D01*
Y102489D01*
X112778Y102440D01*
X112775Y102395D01*
X112771Y102353D01*
X112764Y102314D01*
X112757Y102278D01*
X112749Y102246D01*
X112741Y102217D01*
X112732Y102192D01*
X112724Y102170D01*
X112714Y102151D01*
X112707Y102134D01*
X112700Y102121D01*
X112693Y102110D01*
X112689Y102103D01*
X112686Y102099D01*
X112685Y102098D01*
X112670Y102081D01*
X112653Y102066D01*
X112635Y102052D01*
X112617Y102041D01*
X112599Y102031D01*
X112581Y102023D01*
X112563Y102017D01*
X112546Y102012D01*
X112530Y102008D01*
X112514Y102005D01*
X112501Y102002D01*
X112490Y102001D01*
X112480Y101999D01*
X112466D01*
X112429Y102002D01*
X112394Y102008D01*
X112365Y102017D01*
X112340Y102027D01*
X112319Y102037D01*
X112312Y102042D01*
X112305Y102047D01*
X112300Y102049D01*
X112295Y102052D01*
X112294Y102055D01*
X112293D01*
X112268Y102078D01*
X112247Y102103D01*
X112229Y102131D01*
X112215Y102156D01*
X112204Y102180D01*
X112198Y102189D01*
X112196Y102199D01*
X112193Y102206D01*
X112190Y102212D01*
X112189Y102214D01*
Y102216D01*
X112182Y102237D01*
X112176Y102257D01*
X112168Y102302D01*
X112161Y102348D01*
X112157Y102392D01*
X112155Y102411D01*
X112154Y102429D01*
Y102446D01*
X112153Y102461D01*
Y102472D01*
Y102482D01*
Y102488D01*
Y102489D01*
Y102515D01*
X112154Y102540D01*
Y102562D01*
X112155Y102585D01*
X112158Y102604D01*
X112159Y102624D01*
X112161Y102640D01*
X112164Y102655D01*
X112165Y102669D01*
X112168Y102682D01*
X112169Y102691D01*
X112171Y102700D01*
X112172Y102707D01*
X112173Y102711D01*
X112175Y102714D01*
Y102715D01*
X112183Y102746D01*
X112193Y102773D01*
X112204Y102797D01*
X112212Y102818D01*
X112222Y102836D01*
X112227Y102848D01*
X112233Y102855D01*
X112234Y102858D01*
X112250Y102879D01*
X112265Y102897D01*
X112282Y102912D01*
X112297Y102926D01*
X112311Y102936D01*
X112322Y102942D01*
X112329Y102947D01*
X112330Y102948D01*
X112331D01*
X112354Y102959D01*
X112377Y102966D01*
X112399Y102972D01*
X112420Y102976D01*
X112438Y102979D01*
X112453Y102980D01*
X112466D01*
X112503Y102977D01*
D02*
G37*
%LPC*%
G36*
X110531Y100931D02*
X110530D01*
X110531Y100887D01*
X110533Y100859D01*
X110534Y100835D01*
X110537Y100816D01*
X110541Y100799D01*
X110545Y100787D01*
X110548Y100777D01*
X110549Y100772D01*
X110551Y100770D01*
X110562Y100752D01*
X110573Y100735D01*
X110587Y100722D01*
X110599Y100711D01*
X110610Y100701D01*
X110620Y100694D01*
X110626Y100690D01*
X110628Y100688D01*
X110649Y100679D01*
X110670Y100672D01*
X110689Y100666D01*
X110709Y100663D01*
X110724Y100661D01*
X110738Y100659D01*
X110749D01*
X110774Y100661D01*
X110795Y100663D01*
X110813Y100669D01*
X110828Y100674D01*
X110839Y100680D01*
X110848Y100686D01*
X110853Y100688D01*
X110854Y100690D01*
X110866Y100702D01*
X110874Y100716D01*
X110881Y100729D01*
X110885Y100741D01*
X110888Y100752D01*
X110889Y100760D01*
Y100767D01*
Y100769D01*
X110888Y100780D01*
X110886Y100791D01*
X110884Y100799D01*
X110881Y100808D01*
X110878Y100815D01*
X110877Y100820D01*
X110874Y100823D01*
Y100824D01*
X110860Y100841D01*
X110843Y100852D01*
X110838Y100856D01*
X110832Y100859D01*
X110828Y100862D01*
X110827D01*
X110813Y100867D01*
X110798Y100871D01*
X110781Y100876D01*
X110764Y100878D01*
X110749Y100881D01*
X110735Y100884D01*
X110727Y100885D01*
X110724D01*
X110701Y100889D01*
X110678Y100892D01*
X110659Y100896D01*
X110639Y100900D01*
X110621Y100905D01*
X110606Y100909D01*
X110591Y100912D01*
X110578Y100916D01*
X110567Y100919D01*
X110558Y100921D01*
X110549Y100924D01*
X110542Y100927D01*
X110537Y100928D01*
X110533Y100930D01*
X110531Y100931D01*
D02*
G37*
G36*
X114484D02*
X114482D01*
X114484Y100887D01*
X114485Y100859D01*
X114487Y100835D01*
X114489Y100816D01*
X114494Y100799D01*
X114498Y100787D01*
X114500Y100777D01*
X114502Y100772D01*
X114503Y100770D01*
X114514Y100752D01*
X114525Y100735D01*
X114539Y100722D01*
X114552Y100711D01*
X114563Y100701D01*
X114573Y100694D01*
X114578Y100690D01*
X114581Y100688D01*
X114602Y100679D01*
X114622Y100672D01*
X114642Y100666D01*
X114661Y100663D01*
X114677Y100661D01*
X114690Y100659D01*
X114702D01*
X114727Y100661D01*
X114747Y100663D01*
X114765Y100669D01*
X114781Y100674D01*
X114792Y100680D01*
X114800Y100686D01*
X114806Y100688D01*
X114807Y100690D01*
X114818Y100702D01*
X114826Y100716D01*
X114833Y100729D01*
X114837Y100741D01*
X114840Y100752D01*
X114842Y100760D01*
Y100767D01*
Y100769D01*
X114840Y100780D01*
X114839Y100791D01*
X114836Y100799D01*
X114833Y100808D01*
X114831Y100815D01*
X114829Y100820D01*
X114826Y100823D01*
Y100824D01*
X114812Y100841D01*
X114796Y100852D01*
X114790Y100856D01*
X114785Y100859D01*
X114781Y100862D01*
X114779D01*
X114765Y100867D01*
X114750Y100871D01*
X114733Y100876D01*
X114717Y100878D01*
X114702Y100881D01*
X114688Y100884D01*
X114679Y100885D01*
X114677D01*
X114653Y100889D01*
X114631Y100892D01*
X114611Y100896D01*
X114592Y100900D01*
X114574Y100905D01*
X114559Y100909D01*
X114543Y100912D01*
X114531Y100916D01*
X114520Y100919D01*
X114510Y100921D01*
X114502Y100924D01*
X114495Y100927D01*
X114489Y100928D01*
X114485Y100930D01*
X114484Y100931D01*
D02*
G37*
G36*
X119396Y101476D02*
X119386D01*
X119347Y101473D01*
X119311Y101468D01*
X119277Y101459D01*
X119246Y101450D01*
X119232Y101444D01*
X119220Y101439D01*
X119210Y101434D01*
X119200Y101430D01*
X119194Y101427D01*
X119188Y101425D01*
X119185Y101422D01*
X119184D01*
X119148Y101400D01*
X119117Y101375D01*
X119091Y101350D01*
X119069Y101325D01*
X119051Y101303D01*
X119044Y101293D01*
X119038Y101285D01*
X119034Y101278D01*
X119031Y101272D01*
X119028Y101269D01*
Y101268D01*
X119010Y101231D01*
X118997Y101195D01*
X118987Y101160D01*
X118980Y101128D01*
X118977Y101114D01*
X118976Y101102D01*
X118974Y101090D01*
Y101081D01*
X118973Y101074D01*
Y101067D01*
Y101064D01*
Y101063D01*
X118976Y101024D01*
X118981Y100985D01*
X118991Y100950D01*
X119001Y100920D01*
X119006Y100906D01*
X119010Y100895D01*
X119016Y100884D01*
X119020Y100874D01*
X119023Y100867D01*
X119026Y100862D01*
X119028Y100859D01*
Y100858D01*
X119051Y100823D01*
X119076Y100792D01*
X119101Y100766D01*
X119126Y100744D01*
X119146Y100727D01*
X119156Y100720D01*
X119164Y100715D01*
X119171Y100711D01*
X119177Y100708D01*
X119180Y100705D01*
X119181D01*
X119218Y100687D01*
X119255Y100673D01*
X119289Y100665D01*
X119321Y100658D01*
X119335Y100655D01*
X119347Y100654D01*
X119359Y100652D01*
X119368D01*
X119375Y100651D01*
X119386D01*
X119425Y100654D01*
X119464Y100659D01*
X119499Y100668D01*
X119529Y100679D01*
X119543Y100683D01*
X119554Y100688D01*
X119565Y100692D01*
X119575Y100697D01*
X119582Y100699D01*
X119587Y100702D01*
X119590Y100705D01*
X119592D01*
X119626Y100727D01*
X119657Y100752D01*
X119683Y100777D01*
X119705Y100802D01*
X119722Y100824D01*
X119729Y100833D01*
X119734Y100841D01*
X119739Y100848D01*
X119741Y100853D01*
X119744Y100856D01*
Y100858D01*
X119762Y100895D01*
X119776Y100931D01*
X119784Y100966D01*
X119791Y100998D01*
X119794Y101011D01*
X119795Y101024D01*
X119797Y101035D01*
Y101045D01*
X119798Y101052D01*
Y101059D01*
Y101061D01*
Y101063D01*
X119795Y101102D01*
X119790Y101140D01*
X119780Y101175D01*
X119770Y101206D01*
X119765Y101219D01*
X119761Y101232D01*
X119755Y101242D01*
X119751Y101251D01*
X119748Y101258D01*
X119745Y101264D01*
X119743Y101267D01*
Y101268D01*
X119721Y101303D01*
X119696Y101335D01*
X119669Y101361D01*
X119644Y101383D01*
X119623Y101400D01*
X119614Y101407D01*
X119605Y101412D01*
X119598Y101416D01*
X119593Y101419D01*
X119590Y101422D01*
X119589D01*
X119551Y101440D01*
X119515Y101454D01*
X119482Y101464D01*
X119450Y101469D01*
X119436Y101472D01*
X119424Y101473D01*
X119414Y101475D01*
X119404D01*
X119396Y101476D01*
D02*
G37*
%LPD*%
G36*
X119408Y101340D02*
X119435Y101336D01*
X119458Y101330D01*
X119479Y101325D01*
X119496Y101319D01*
X119508Y101314D01*
X119517Y101310D01*
X119518Y101308D01*
X119519D01*
X119540Y101294D01*
X119560Y101279D01*
X119575Y101264D01*
X119589Y101247D01*
X119598Y101233D01*
X119607Y101222D01*
X119611Y101214D01*
X119612Y101213D01*
Y101211D01*
X119623Y101186D01*
X119630Y101161D01*
X119636Y101136D01*
X119640Y101113D01*
X119643Y101092D01*
X119644Y101075D01*
Y101070D01*
Y101066D01*
Y101063D01*
Y101061D01*
X119643Y101038D01*
X119641Y101014D01*
X119637Y100993D01*
X119633Y100973D01*
X119628Y100955D01*
X119622Y100937D01*
X119615Y100921D01*
X119608Y100907D01*
X119603Y100895D01*
X119596Y100884D01*
X119590Y100874D01*
X119585Y100867D01*
X119580Y100862D01*
X119576Y100858D01*
X119575Y100855D01*
X119574Y100853D01*
X119560Y100841D01*
X119544Y100830D01*
X119529Y100819D01*
X119514Y100810D01*
X119482Y100798D01*
X119451Y100790D01*
X119425Y100784D01*
X119414Y100783D01*
X119404Y100781D01*
X119396Y100780D01*
X119385D01*
X119353Y100783D01*
X119322Y100788D01*
X119296Y100795D01*
X119274Y100805D01*
X119256Y100813D01*
X119242Y100821D01*
X119234Y100827D01*
X119232Y100828D01*
X119231D01*
X119209Y100848D01*
X119191Y100869D01*
X119175Y100891D01*
X119164Y100912D01*
X119156Y100931D01*
X119151Y100945D01*
X119149Y100950D01*
X119148Y100955D01*
X119146Y100957D01*
Y100959D01*
X119227Y100982D01*
X119234Y100962D01*
X119242Y100943D01*
X119252Y100927D01*
X119263Y100914D01*
X119271Y100903D01*
X119280Y100896D01*
X119285Y100891D01*
X119286Y100889D01*
X119303Y100878D01*
X119321Y100870D01*
X119339Y100864D01*
X119354Y100860D01*
X119370Y100858D01*
X119381Y100856D01*
X119390D01*
X119417Y100859D01*
X119440Y100864D01*
X119460Y100873D01*
X119478Y100882D01*
X119492Y100891D01*
X119501Y100899D01*
X119507Y100905D01*
X119510Y100907D01*
X119525Y100928D01*
X119536Y100953D01*
X119544Y100978D01*
X119550Y101002D01*
X119553Y101024D01*
X119554Y101034D01*
Y101042D01*
X119555Y101049D01*
Y101054D01*
Y101057D01*
Y101059D01*
X119553Y101095D01*
X119547Y101125D01*
X119540Y101153D01*
X119531Y101174D01*
X119522Y101192D01*
X119514Y101204D01*
X119508Y101211D01*
X119507Y101214D01*
X119488Y101232D01*
X119467Y101246D01*
X119446Y101256D01*
X119426Y101261D01*
X119408Y101265D01*
X119395Y101267D01*
X119389Y101268D01*
X119382D01*
X119364Y101267D01*
X119346Y101264D01*
X119331Y101260D01*
X119318Y101254D01*
X119307Y101249D01*
X119300Y101244D01*
X119295Y101242D01*
X119293Y101240D01*
X119280Y101229D01*
X119267Y101218D01*
X119257Y101206D01*
X119249Y101193D01*
X119242Y101182D01*
X119238Y101174D01*
X119235Y101168D01*
X119234Y101165D01*
X119156Y101186D01*
X119166Y101211D01*
X119178Y101233D01*
X119191Y101253D01*
X119205Y101269D01*
X119217Y101282D01*
X119227Y101292D01*
X119234Y101297D01*
X119237Y101299D01*
X119259Y101312D01*
X119284Y101323D01*
X119307Y101330D01*
X119329Y101336D01*
X119350Y101339D01*
X119365Y101342D01*
X119381D01*
X119408Y101340D01*
D02*
G37*
%LPC*%
G36*
X118088Y101441D02*
X118078Y101409D01*
X118067Y101376D01*
X118056Y101343D01*
X118045Y101311D01*
X118040Y101297D01*
X118035Y101283D01*
X118031Y101271D01*
X118027Y101261D01*
X118024Y101253D01*
X118022Y101246D01*
X118020Y101242D01*
Y101240D01*
X117920Y100977D01*
X118245D01*
X118141Y101257D01*
X118128Y101292D01*
X118119Y101325D01*
X118109Y101355D01*
X118102Y101383D01*
X118097Y101407D01*
X118094Y101416D01*
X118092Y101426D01*
X118090Y101432D01*
Y101437D01*
X118088Y101440D01*
Y101441D01*
D02*
G37*
G36*
X105112D02*
X105102Y101409D01*
X105091Y101376D01*
X105080Y101343D01*
X105069Y101311D01*
X105063Y101297D01*
X105059Y101283D01*
X105055Y101271D01*
X105051Y101261D01*
X105048Y101253D01*
X105045Y101246D01*
X105044Y101242D01*
Y101240D01*
X104944Y100977D01*
X105268D01*
X105164Y101257D01*
X105152Y101292D01*
X105142Y101325D01*
X105132Y101355D01*
X105125Y101383D01*
X105120Y101407D01*
X105117Y101416D01*
X105116Y101426D01*
X105113Y101432D01*
Y101437D01*
X105112Y101440D01*
Y101441D01*
D02*
G37*
G36*
X95931Y101196D02*
X95922D01*
X95906Y101195D01*
X95890Y101193D01*
X95861Y101185D01*
X95836Y101174D01*
X95816Y101161D01*
X95799Y101149D01*
X95786Y101138D01*
X95779Y101129D01*
X95777Y101128D01*
Y101127D01*
X95764Y101109D01*
X95753Y101088D01*
X95746Y101067D01*
X95739Y101045D01*
X95735Y101027D01*
X95732Y101010D01*
Y101005D01*
X95731Y101000D01*
Y100998D01*
Y100996D01*
X96121D01*
X96117Y101028D01*
X96108Y101057D01*
X96098Y101082D01*
X96087Y101102D01*
X96078Y101118D01*
X96068Y101131D01*
X96062Y101138D01*
X96060Y101140D01*
X96037Y101158D01*
X96015Y101172D01*
X95992Y101182D01*
X95969Y101189D01*
X95951Y101193D01*
X95936Y101195D01*
X95931Y101196D01*
D02*
G37*
G36*
X97795D02*
X97786D01*
X97770Y101195D01*
X97754Y101193D01*
X97725Y101185D01*
X97700Y101174D01*
X97679Y101161D01*
X97663Y101149D01*
X97650Y101138D01*
X97643Y101129D01*
X97641Y101128D01*
Y101127D01*
X97628Y101109D01*
X97617Y101088D01*
X97610Y101067D01*
X97603Y101045D01*
X97599Y101027D01*
X97596Y101010D01*
Y101005D01*
X97595Y101000D01*
Y100998D01*
Y100996D01*
X97985D01*
X97980Y101028D01*
X97972Y101057D01*
X97962Y101082D01*
X97951Y101102D01*
X97942Y101118D01*
X97932Y101131D01*
X97926Y101138D01*
X97924Y101140D01*
X97901Y101158D01*
X97879Y101172D01*
X97856Y101182D01*
X97833Y101189D01*
X97815Y101193D01*
X97800Y101195D01*
X97795Y101196D01*
D02*
G37*
G36*
X99212D02*
X99204D01*
X99187Y101195D01*
X99172Y101193D01*
X99143Y101185D01*
X99118Y101174D01*
X99097Y101161D01*
X99080Y101149D01*
X99068Y101138D01*
X99061Y101129D01*
X99058Y101128D01*
Y101127D01*
X99046Y101109D01*
X99034Y101088D01*
X99027Y101067D01*
X99021Y101045D01*
X99016Y101027D01*
X99014Y101010D01*
Y101005D01*
X99012Y101000D01*
Y100998D01*
Y100996D01*
X99402D01*
X99398Y101028D01*
X99389Y101057D01*
X99380Y101082D01*
X99369Y101102D01*
X99359Y101118D01*
X99349Y101131D01*
X99344Y101138D01*
X99341Y101140D01*
X99319Y101158D01*
X99297Y101172D01*
X99273Y101182D01*
X99251Y101189D01*
X99233Y101193D01*
X99217Y101195D01*
X99212Y101196D01*
D02*
G37*
G36*
X108168Y101448D02*
X108160D01*
X108145Y101447D01*
X108129Y101446D01*
X108115Y101441D01*
X108103Y101436D01*
X108079Y101423D01*
X108059Y101409D01*
X108043Y101394D01*
X108031Y101382D01*
X108027Y101376D01*
X108024Y101372D01*
X108021Y101371D01*
Y101369D01*
X108011Y101353D01*
X108003Y101333D01*
X107995Y101311D01*
X107989Y101287D01*
X107984Y101262D01*
X107980Y101236D01*
X107973Y101183D01*
X107970Y101157D01*
X107968Y101133D01*
X107967Y101111D01*
Y101093D01*
X107966Y101077D01*
Y101064D01*
Y101057D01*
Y101056D01*
Y101054D01*
Y101011D01*
X107968Y100973D01*
X107971Y100938D01*
X107974Y100905D01*
X107978Y100877D01*
X107984Y100851D01*
X107989Y100828D01*
X107993Y100808D01*
X107999Y100791D01*
X108004Y100777D01*
X108009Y100765D01*
X108014Y100755D01*
X108017Y100748D01*
X108020Y100744D01*
X108023Y100741D01*
Y100740D01*
X108034Y100726D01*
X108045Y100715D01*
X108056Y100704D01*
X108067Y100695D01*
X108090Y100681D01*
X108111Y100672D01*
X108131Y100666D01*
X108145Y100663D01*
X108150Y100662D01*
X108158D01*
X108174Y100663D01*
X108188Y100665D01*
X108214Y100674D01*
X108237Y100687D01*
X108258Y100701D01*
X108274Y100715D01*
X108286Y100727D01*
X108293Y100737D01*
X108296Y100738D01*
Y100740D01*
X108305Y100756D01*
X108314Y100776D01*
X108322Y100798D01*
X108328Y100821D01*
X108333Y100846D01*
X108337Y100873D01*
X108344Y100927D01*
X108347Y100952D01*
X108348Y100975D01*
X108350Y100998D01*
Y101016D01*
X108351Y101032D01*
Y101045D01*
Y101052D01*
Y101054D01*
X108350Y101097D01*
X108348Y101136D01*
X108346Y101172D01*
X108341Y101206D01*
X108337Y101235D01*
X108332Y101261D01*
X108326Y101285D01*
X108321Y101305D01*
X108315Y101323D01*
X108311Y101339D01*
X108305Y101351D01*
X108301Y101362D01*
X108297Y101369D01*
X108294Y101375D01*
X108292Y101378D01*
Y101379D01*
X108282Y101391D01*
X108272Y101403D01*
X108261Y101411D01*
X108250Y101419D01*
X108228Y101432D01*
X108207Y101440D01*
X108189Y101444D01*
X108174Y101447D01*
X108168Y101448D01*
D02*
G37*
G36*
X106676D02*
X106668D01*
X106652Y101447D01*
X106637Y101446D01*
X106623Y101441D01*
X106611Y101436D01*
X106587Y101423D01*
X106566Y101409D01*
X106551Y101394D01*
X106539Y101382D01*
X106534Y101376D01*
X106532Y101372D01*
X106529Y101371D01*
Y101369D01*
X106519Y101353D01*
X106511Y101333D01*
X106503Y101311D01*
X106497Y101287D01*
X106491Y101262D01*
X106487Y101236D01*
X106480Y101183D01*
X106478Y101157D01*
X106476Y101133D01*
X106475Y101111D01*
Y101093D01*
X106473Y101077D01*
Y101064D01*
Y101057D01*
Y101056D01*
Y101054D01*
Y101011D01*
X106476Y100973D01*
X106479Y100938D01*
X106482Y100905D01*
X106486Y100877D01*
X106491Y100851D01*
X106497Y100828D01*
X106501Y100808D01*
X106507Y100791D01*
X106512Y100777D01*
X106516Y100765D01*
X106522Y100755D01*
X106525Y100748D01*
X106527Y100744D01*
X106530Y100741D01*
Y100740D01*
X106541Y100726D01*
X106552Y100715D01*
X106564Y100704D01*
X106575Y100695D01*
X106598Y100681D01*
X106619Y100672D01*
X106638Y100666D01*
X106652Y100663D01*
X106658Y100662D01*
X106666D01*
X106681Y100663D01*
X106695Y100665D01*
X106722Y100674D01*
X106745Y100687D01*
X106766Y100701D01*
X106781Y100715D01*
X106794Y100727D01*
X106801Y100737D01*
X106803Y100738D01*
Y100740D01*
X106813Y100756D01*
X106822Y100776D01*
X106830Y100798D01*
X106835Y100821D01*
X106841Y100846D01*
X106845Y100873D01*
X106852Y100927D01*
X106855Y100952D01*
X106856Y100975D01*
X106858Y100998D01*
Y101016D01*
X106859Y101032D01*
Y101045D01*
Y101052D01*
Y101054D01*
X106858Y101097D01*
X106856Y101136D01*
X106853Y101172D01*
X106849Y101206D01*
X106845Y101235D01*
X106840Y101261D01*
X106834Y101285D01*
X106828Y101305D01*
X106823Y101323D01*
X106819Y101339D01*
X106813Y101351D01*
X106809Y101362D01*
X106805Y101369D01*
X106802Y101375D01*
X106799Y101378D01*
Y101379D01*
X106790Y101391D01*
X106780Y101403D01*
X106769Y101411D01*
X106758Y101419D01*
X106736Y101432D01*
X106715Y101440D01*
X106697Y101444D01*
X106681Y101447D01*
X106676Y101448D01*
D02*
G37*
G36*
X95208Y101196D02*
X95201D01*
X95186Y101195D01*
X95172Y101193D01*
X95146Y101185D01*
X95122Y101175D01*
X95103Y101163D01*
X95087Y101150D01*
X95075Y101139D01*
X95068Y101131D01*
X95065Y101129D01*
Y101128D01*
X95056Y101114D01*
X95047Y101100D01*
X95033Y101067D01*
X95024Y101032D01*
X95017Y100999D01*
X95014Y100982D01*
X95013Y100967D01*
X95011Y100953D01*
Y100942D01*
X95010Y100932D01*
Y100925D01*
Y100920D01*
Y100919D01*
Y100895D01*
X95013Y100873D01*
X95015Y100853D01*
X95018Y100834D01*
X95022Y100817D01*
X95028Y100801D01*
X95032Y100787D01*
X95038Y100774D01*
X95043Y100763D01*
X95047Y100752D01*
X95053Y100745D01*
X95057Y100738D01*
X95060Y100733D01*
X95062Y100729D01*
X95065Y100727D01*
Y100726D01*
X95075Y100715D01*
X95086Y100705D01*
X95108Y100690D01*
X95130Y100679D01*
X95151Y100672D01*
X95169Y100666D01*
X95185Y100665D01*
X95190Y100663D01*
X95197D01*
X95211Y100665D01*
X95225Y100666D01*
X95250Y100673D01*
X95273Y100684D01*
X95293Y100697D01*
X95308Y100708D01*
X95320Y100719D01*
X95327Y100726D01*
X95329Y100729D01*
X95330D01*
X95340Y100742D01*
X95348Y100756D01*
X95362Y100788D01*
X95372Y100821D01*
X95379Y100853D01*
X95383Y100882D01*
X95384Y100895D01*
Y100906D01*
X95386Y100916D01*
Y100923D01*
Y100927D01*
Y100928D01*
Y100953D01*
X95383Y100977D01*
X95380Y100999D01*
X95377Y101018D01*
X95373Y101036D01*
X95369Y101053D01*
X95365Y101068D01*
X95359Y101082D01*
X95354Y101093D01*
X95350Y101103D01*
X95345Y101111D01*
X95341Y101118D01*
X95337Y101124D01*
X95336Y101128D01*
X95333Y101129D01*
Y101131D01*
X95323Y101142D01*
X95312Y101153D01*
X95290Y101168D01*
X95268Y101181D01*
X95247Y101188D01*
X95229Y101193D01*
X95214Y101195D01*
X95208Y101196D01*
D02*
G37*
G36*
X102589D02*
X102567D01*
X102553Y101193D01*
X102526Y101186D01*
X102503Y101175D01*
X102483Y101164D01*
X102467Y101152D01*
X102454Y101140D01*
X102447Y101133D01*
X102445Y101132D01*
Y101131D01*
X102435Y101118D01*
X102425Y101104D01*
X102411Y101072D01*
X102402Y101041D01*
X102395Y101009D01*
X102391Y100981D01*
X102389Y100968D01*
Y100957D01*
X102388Y100949D01*
Y100942D01*
Y100938D01*
Y100937D01*
Y100913D01*
X102391Y100889D01*
X102393Y100869D01*
X102396Y100851D01*
X102400Y100833D01*
X102406Y100816D01*
X102410Y100802D01*
X102416Y100790D01*
X102421Y100777D01*
X102425Y100767D01*
X102431Y100759D01*
X102435Y100754D01*
X102438Y100748D01*
X102440Y100744D01*
X102443Y100742D01*
Y100741D01*
X102454Y100730D01*
X102465Y100720D01*
X102488Y100705D01*
X102511Y100694D01*
X102532Y100687D01*
X102551Y100681D01*
X102567Y100680D01*
X102572Y100679D01*
X102581D01*
X102596Y100680D01*
X102610Y100681D01*
X102636Y100688D01*
X102660Y100698D01*
X102679Y100711D01*
X102696Y100722D01*
X102707Y100731D01*
X102714Y100738D01*
X102716Y100741D01*
X102726Y100754D01*
X102734Y100767D01*
X102748Y100799D01*
X102757Y100831D01*
X102764Y100864D01*
X102768Y100894D01*
X102769Y100907D01*
Y100919D01*
X102771Y100928D01*
Y100935D01*
Y100939D01*
Y100941D01*
Y100964D01*
X102768Y100985D01*
X102765Y101005D01*
X102762Y101024D01*
X102758Y101041D01*
X102754Y101056D01*
X102748Y101071D01*
X102743Y101084D01*
X102739Y101095D01*
X102733Y101104D01*
X102729Y101113D01*
X102725Y101118D01*
X102722Y101124D01*
X102719Y101128D01*
X102716Y101129D01*
Y101131D01*
X102705Y101142D01*
X102694Y101153D01*
X102672Y101168D01*
X102650Y101181D01*
X102628Y101188D01*
X102610Y101193D01*
X102594Y101195D01*
X102589Y101196D01*
D02*
G37*
G36*
X115387Y102784D02*
Y102354D01*
X115689D01*
X115387Y102784D01*
D02*
G37*
G36*
X119022Y102862D02*
X118794D01*
X118764Y102859D01*
X118740Y102858D01*
X118719Y102855D01*
X118704Y102852D01*
X118694Y102851D01*
X118687Y102848D01*
X118686D01*
X118671Y102843D01*
X118657Y102834D01*
X118646Y102826D01*
X118636Y102818D01*
X118629Y102811D01*
X118624Y102804D01*
X118621Y102800D01*
X118619Y102798D01*
X118611Y102784D01*
X118605Y102771D01*
X118601Y102757D01*
X118599Y102743D01*
X118597Y102732D01*
X118596Y102723D01*
Y102718D01*
Y102715D01*
X118597Y102697D01*
X118600Y102680D01*
X118604Y102667D01*
X118608Y102655D01*
X118612Y102646D01*
X118617Y102637D01*
X118619Y102633D01*
X118621Y102632D01*
X118630Y102621D01*
X118643Y102610D01*
X118655Y102601D01*
X118667Y102596D01*
X118678Y102590D01*
X118686Y102586D01*
X118691Y102585D01*
X118694Y102583D01*
X118710Y102581D01*
X118729Y102578D01*
X118748Y102576D01*
X118768Y102575D01*
X118786Y102574D01*
X119022D01*
Y102862D01*
D02*
G37*
G36*
Y102460D02*
X118769D01*
X118740Y102457D01*
X118716Y102454D01*
X118697Y102452D01*
X118682Y102449D01*
X118669Y102446D01*
X118664Y102445D01*
X118661Y102443D01*
X118643Y102436D01*
X118628Y102428D01*
X118614Y102418D01*
X118603Y102409D01*
X118594Y102400D01*
X118589Y102393D01*
X118585Y102388D01*
X118583Y102386D01*
X118574Y102371D01*
X118567Y102356D01*
X118561Y102341D01*
X118558Y102327D01*
X118556Y102314D01*
X118554Y102303D01*
Y102298D01*
Y102295D01*
X118556Y102278D01*
X118557Y102262D01*
X118560Y102248D01*
X118564Y102237D01*
X118568Y102227D01*
X118571Y102219D01*
X118572Y102214D01*
X118574Y102213D01*
X118582Y102201D01*
X118589Y102189D01*
X118599Y102181D01*
X118605Y102173D01*
X118612Y102167D01*
X118618Y102163D01*
X118622Y102160D01*
X118624Y102159D01*
X118647Y102148D01*
X118671Y102140D01*
X118680Y102137D01*
X118689Y102135D01*
X118694Y102134D01*
X118696D01*
X118707Y102133D01*
X118719Y102131D01*
X118748Y102130D01*
X119022D01*
Y102460D01*
D02*
G37*
G36*
X112476Y102883D02*
X112467D01*
X112452Y102881D01*
X112437Y102880D01*
X112423Y102876D01*
X112410Y102870D01*
X112387Y102858D01*
X112366Y102844D01*
X112351Y102829D01*
X112338Y102816D01*
X112334Y102811D01*
X112331Y102807D01*
X112329Y102805D01*
Y102804D01*
X112319Y102787D01*
X112311Y102768D01*
X112302Y102746D01*
X112297Y102722D01*
X112291Y102697D01*
X112287Y102671D01*
X112280Y102618D01*
X112277Y102592D01*
X112276Y102568D01*
X112275Y102546D01*
Y102528D01*
X112273Y102511D01*
Y102499D01*
Y102492D01*
Y102490D01*
Y102489D01*
Y102446D01*
X112276Y102407D01*
X112279Y102372D01*
X112282Y102339D01*
X112286Y102311D01*
X112291Y102285D01*
X112297Y102263D01*
X112301Y102242D01*
X112306Y102225D01*
X112312Y102212D01*
X112316Y102199D01*
X112322Y102189D01*
X112324Y102183D01*
X112327Y102178D01*
X112330Y102176D01*
Y102174D01*
X112341Y102160D01*
X112352Y102149D01*
X112363Y102138D01*
X112374Y102130D01*
X112398Y102116D01*
X112419Y102106D01*
X112438Y102101D01*
X112452Y102098D01*
X112458Y102097D01*
X112466D01*
X112481Y102098D01*
X112495Y102099D01*
X112521Y102109D01*
X112545Y102121D01*
X112566Y102135D01*
X112581Y102149D01*
X112594Y102162D01*
X112600Y102171D01*
X112603Y102173D01*
Y102174D01*
X112613Y102191D01*
X112621Y102210D01*
X112630Y102232D01*
X112635Y102256D01*
X112641Y102281D01*
X112645Y102307D01*
X112652Y102361D01*
X112655Y102386D01*
X112656Y102410D01*
X112657Y102432D01*
Y102450D01*
X112659Y102467D01*
Y102479D01*
Y102486D01*
Y102489D01*
X112657Y102532D01*
X112656Y102571D01*
X112653Y102607D01*
X112649Y102640D01*
X112645Y102669D01*
X112639Y102696D01*
X112634Y102719D01*
X112628Y102740D01*
X112623Y102758D01*
X112618Y102773D01*
X112613Y102786D01*
X112609Y102797D01*
X112605Y102804D01*
X112602Y102809D01*
X112599Y102812D01*
Y102814D01*
X112589Y102826D01*
X112580Y102837D01*
X112569Y102845D01*
X112557Y102854D01*
X112535Y102866D01*
X112514Y102875D01*
X112496Y102879D01*
X112481Y102881D01*
X112476Y102883D01*
D02*
G37*
%LPD*%
D78*
X110735Y30718D02*
G03*
X110735Y30718I-46J0D01*
G01*
X96007Y25482D02*
G03*
X96007Y25482I-46J0D01*
G01*
X35447Y25432D02*
G03*
X35447Y25432I-46J0D01*
G01*
X50215Y30668D02*
G03*
X50215Y30668I-46J0D01*
G01*
X91435Y44525D02*
Y53350D01*
X84860D02*
X91435D01*
X84860Y44525D02*
X91435D01*
X84860D02*
Y53350D01*
X91445Y54075D02*
Y62900D01*
X84870D02*
X91445D01*
X84870Y54075D02*
X91445D01*
X84870D02*
Y62900D01*
X114265Y39963D02*
X115332D01*
X114265Y24097D02*
X115332D01*
Y23030D02*
Y41030D01*
X122833D01*
X115332Y23030D02*
X122833D01*
X114265Y24097D02*
Y39963D01*
X122833Y23030D02*
Y41030D01*
X104075Y30675D02*
X109975D01*
X104075Y25525D02*
X109975D01*
X96675D02*
X102575D01*
X96675Y30675D02*
X102575D01*
X36115Y25475D02*
X42015D01*
X36115Y30625D02*
X42015D01*
X43555D02*
X49455D01*
X43555Y25475D02*
X49455D01*
X39690Y105352D02*
Y112853D01*
X38623Y104285D02*
Y105352D01*
X30797Y104285D02*
Y105352D01*
X29730D02*
X39690D01*
X29730D02*
Y112853D01*
X30797Y104285D02*
X38623D01*
X29730Y112853D02*
X39690D01*
X76085Y110720D02*
X77760D01*
X58435Y110695D02*
X74185D01*
X55360Y110720D02*
X57060D01*
X55360Y109995D02*
Y110720D01*
Y104970D02*
Y108695D01*
X77760Y110045D02*
Y110720D01*
X77760Y104970D02*
Y108720D01*
X55360Y104970D02*
X77760D01*
X55360Y96940D02*
X57035D01*
X58935Y96965D02*
X74685D01*
X76060Y96940D02*
X77760D01*
Y97665D01*
Y98965D02*
Y102690D01*
X55360Y96940D02*
Y97615D01*
X55360Y98940D02*
Y102690D01*
X77760D01*
D85*
X44724Y46006D02*
G03*
X44724Y46006I-125J0D01*
G01*
X44162Y53345D02*
G03*
X44162Y53345I-125J0D01*
G01*
X80575Y100240D02*
G03*
X80575Y100240I-125J0D01*
G01*
X35985Y102770D02*
G03*
X35985Y102770I-125J0D01*
G01*
D86*
X40060Y43040D02*
G03*
X40060Y43040I-285J0D01*
G01*
X47522Y68985D02*
Y76605D01*
X52572D01*
Y68985D02*
Y76605D01*
X47522Y68985D02*
X52572D01*
D87*
X90600Y51475D02*
G03*
X90600Y51475I-515J0D01*
G01*
X90610Y61025D02*
G03*
X90610Y61025I-515J0D01*
G01*
X92963Y20300D02*
G03*
X93598Y20300I317J0D01*
G01*
X32993Y20340D02*
G03*
X33627Y20340I317J0D01*
G01*
X63391Y68299D02*
G03*
X64026Y68299I317J0D01*
G01*
X95205Y15390D02*
Y20300D01*
X91330Y15390D02*
X95205D01*
X91330D02*
Y20300D01*
X92963D01*
X93598D02*
X95205D01*
X35235Y15430D02*
Y20340D01*
X31360Y15430D02*
X35235D01*
X31360D02*
Y20340D01*
X32993D01*
X33627D02*
X35235D01*
X47820Y36680D02*
Y38360D01*
X45200Y36680D02*
X47820D01*
X45200D02*
Y38360D01*
X47820D01*
X45475Y36680D02*
Y38335D01*
X35875Y43565D02*
X40350D01*
X35875Y39265D02*
Y43565D01*
Y39265D02*
X40350D01*
Y43565D01*
X65633Y63389D02*
Y68299D01*
X61758Y63389D02*
X65633D01*
X61758D02*
Y68299D01*
X63391D01*
X64026D02*
X65633D01*
X36635Y92745D02*
X37635D01*
X36610Y91110D02*
X37635D01*
X36610D02*
Y92920D01*
X37635Y91110D02*
Y92920D01*
X36610D02*
X37635D01*
X58880Y35480D02*
X59880D01*
Y35980D01*
X59713Y36146D01*
X59380D01*
X59213Y35980D01*
Y35480D01*
Y35813D02*
X58880Y36146D01*
Y36480D02*
Y36813D01*
Y36646D01*
X59880D01*
X59713Y36480D01*
X58880Y37313D02*
Y37646D01*
Y37479D01*
X59880D01*
X59713Y37313D01*
X67794Y39773D02*
X67960Y39940D01*
X68293D01*
X68460Y39773D01*
Y39107D01*
X68293Y38940D01*
X67960D01*
X67794Y39107D01*
X67460Y38940D02*
X67127D01*
X67294D01*
Y39940D01*
X67460Y39773D01*
X66627Y38940D02*
X66294D01*
X66461D01*
Y39940D01*
X66627Y39773D01*
X96820Y60800D02*
Y61800D01*
X96320D01*
X96154Y61633D01*
Y61300D01*
X96320Y61133D01*
X96820D01*
X96487D02*
X96154Y60800D01*
X95820Y61633D02*
X95654Y61800D01*
X95320D01*
X95154Y61633D01*
Y61466D01*
X95320Y61300D01*
X95487D01*
X95320D01*
X95154Y61133D01*
Y60967D01*
X95320Y60800D01*
X95654D01*
X95820Y60967D01*
X94154Y61800D02*
X94487Y61633D01*
X94821Y61300D01*
Y60967D01*
X94654Y60800D01*
X94321D01*
X94154Y60967D01*
Y61133D01*
X94321Y61300D01*
X94821D01*
X99890Y58970D02*
Y59970D01*
X99390D01*
X99224Y59803D01*
Y59470D01*
X99390Y59303D01*
X99890D01*
X99557D02*
X99224Y58970D01*
X98890Y59803D02*
X98724Y59970D01*
X98390D01*
X98224Y59803D01*
Y59636D01*
X98390Y59470D01*
X98557D01*
X98390D01*
X98224Y59303D01*
Y59137D01*
X98390Y58970D01*
X98724D01*
X98890Y59137D01*
X97891Y59970D02*
X97224D01*
Y59803D01*
X97891Y59137D01*
Y58970D01*
X100040Y52830D02*
Y53830D01*
X99540D01*
X99374Y53663D01*
Y53330D01*
X99540Y53163D01*
X100040D01*
X99707D02*
X99374Y52830D01*
X99040Y53663D02*
X98874Y53830D01*
X98540D01*
X98374Y53663D01*
Y53496D01*
X98540Y53330D01*
X98707D01*
X98540D01*
X98374Y53163D01*
Y52997D01*
X98540Y52830D01*
X98874D01*
X99040Y52997D01*
X98041Y53663D02*
X97874Y53830D01*
X97541D01*
X97374Y53663D01*
Y53496D01*
X97541Y53330D01*
X97707D01*
X97541D01*
X97374Y53163D01*
Y52997D01*
X97541Y52830D01*
X97874D01*
X98041Y52997D01*
X96750Y51340D02*
Y52340D01*
X96250D01*
X96084Y52173D01*
Y51840D01*
X96250Y51673D01*
X96750D01*
X96417D02*
X96084Y51340D01*
X95750Y52173D02*
X95584Y52340D01*
X95250D01*
X95084Y52173D01*
Y52006D01*
X95250Y51840D01*
X95417D01*
X95250D01*
X95084Y51673D01*
Y51507D01*
X95250Y51340D01*
X95584D01*
X95750Y51507D01*
X94084Y51340D02*
X94751D01*
X94084Y52006D01*
Y52173D01*
X94251Y52340D01*
X94584D01*
X94751Y52173D01*
X95030Y54340D02*
Y53507D01*
X94863Y53340D01*
X94530D01*
X94364Y53507D01*
Y54340D01*
X94030Y53507D02*
X93864Y53340D01*
X93530D01*
X93364Y53507D01*
Y54173D01*
X93530Y54340D01*
X93864D01*
X94030Y54173D01*
Y54006D01*
X93864Y53840D01*
X93364D01*
X92670Y64270D02*
Y63437D01*
X92503Y63270D01*
X92170D01*
X92004Y63437D01*
Y64270D01*
X91670Y63270D02*
X91337D01*
X91504D01*
Y64270D01*
X91670Y64103D01*
X90837D02*
X90671Y64270D01*
X90337D01*
X90171Y64103D01*
Y63437D01*
X90337Y63270D01*
X90671D01*
X90837Y63437D01*
Y64103D01*
X79460Y58860D02*
X80460D01*
Y59360D01*
X80293Y59526D01*
X79960D01*
X79793Y59360D01*
Y58860D01*
Y59193D02*
X79460Y59526D01*
X80293Y59860D02*
X80460Y60026D01*
Y60360D01*
X80293Y60526D01*
X80126D01*
X79960Y60360D01*
Y60193D01*
Y60360D01*
X79793Y60526D01*
X79627D01*
X79460Y60360D01*
Y60026D01*
X79627Y59860D01*
X80460Y61526D02*
Y60859D01*
X79960D01*
X80126Y61193D01*
Y61359D01*
X79960Y61526D01*
X79627D01*
X79460Y61359D01*
Y61026D01*
X79627Y60859D01*
X79480Y50420D02*
X80480D01*
Y50920D01*
X80313Y51086D01*
X79980D01*
X79813Y50920D01*
Y50420D01*
Y50753D02*
X79480Y51086D01*
X80313Y51420D02*
X80480Y51586D01*
Y51920D01*
X80313Y52086D01*
X80146D01*
X79980Y51920D01*
Y51753D01*
Y51920D01*
X79813Y52086D01*
X79647D01*
X79480Y51920D01*
Y51586D01*
X79647Y51420D01*
X79480Y52419D02*
Y52753D01*
Y52586D01*
X80480D01*
X80313Y52419D01*
X121920Y21480D02*
Y22146D01*
X121587Y22480D01*
X121254Y22146D01*
Y21480D01*
Y21980D01*
X121920D01*
X120254Y22313D02*
X120420Y22480D01*
X120754D01*
X120920Y22313D01*
Y21647D01*
X120754Y21480D01*
X120420D01*
X120254Y21647D01*
X119921Y21313D02*
X119254D01*
X118921Y22480D02*
X118588D01*
X118754D01*
Y21480D01*
X118921D01*
X118588D01*
X118088D02*
Y22480D01*
X117421Y21480D01*
Y22480D01*
X117088Y21480D02*
X116755D01*
X116922D01*
Y22480D01*
X117088Y22313D01*
X121610Y18246D02*
Y17580D01*
X121110D01*
Y17913D01*
Y17580D01*
X120610D01*
Y19080D02*
X121610D01*
X121110Y18580D01*
Y19246D01*
X113990Y17230D02*
X114990D01*
Y17730D01*
X114823Y17896D01*
X114490D01*
X114323Y17730D01*
Y17230D01*
Y17563D02*
X113990Y17896D01*
X114823Y18230D02*
X114990Y18396D01*
Y18730D01*
X114823Y18896D01*
X114656D01*
X114490Y18730D01*
Y18563D01*
Y18730D01*
X114323Y18896D01*
X114157D01*
X113990Y18730D01*
Y18396D01*
X114157Y18230D01*
Y19229D02*
X113990Y19396D01*
Y19729D01*
X114157Y19896D01*
X114823D01*
X114990Y19729D01*
Y19396D01*
X114823Y19229D01*
X114656D01*
X114490Y19396D01*
Y19896D01*
X111364Y34100D02*
X112030D01*
Y33600D01*
X111697D01*
X112030D01*
Y33100D01*
X111030D02*
X110697D01*
X110864D01*
Y34100D01*
X111030Y33933D01*
X106734Y32767D02*
Y33433D01*
X106900Y33600D01*
X107233D01*
X107400Y33433D01*
Y32767D01*
X107233Y32600D01*
X106900D01*
X107067Y32933D02*
X106734Y32600D01*
X106900D02*
X106734Y32767D01*
X105734Y32600D02*
X106400D01*
X105734Y33266D01*
Y33433D01*
X105900Y33600D01*
X106234D01*
X106400Y33433D01*
X99994Y32767D02*
Y33433D01*
X100160Y33600D01*
X100493D01*
X100660Y33433D01*
Y32767D01*
X100493Y32600D01*
X100160D01*
X100327Y32933D02*
X99994Y32600D01*
X100160D02*
X99994Y32767D01*
X99660Y33433D02*
X99494Y33600D01*
X99160D01*
X98994Y33433D01*
Y33266D01*
X99160Y33100D01*
X99327D01*
X99160D01*
X98994Y32933D01*
Y32767D01*
X99160Y32600D01*
X99494D01*
X99660Y32767D01*
X95220Y21630D02*
Y20797D01*
X95053Y20630D01*
X94720D01*
X94554Y20797D01*
Y21630D01*
X94220Y21463D02*
X94054Y21630D01*
X93720D01*
X93554Y21463D01*
Y21296D01*
X93720Y21130D01*
X93887D01*
X93720D01*
X93554Y20963D01*
Y20797D01*
X93720Y20630D01*
X94054D01*
X94220Y20797D01*
X91644Y22853D02*
X91810Y23020D01*
X92143D01*
X92310Y22853D01*
Y22187D01*
X92143Y22020D01*
X91810D01*
X91644Y22187D01*
X90644Y22020D02*
X91310D01*
X90644Y22686D01*
Y22853D01*
X90810Y23020D01*
X91144D01*
X91310Y22853D01*
X89644Y22020D02*
X90311D01*
X89644Y22686D01*
Y22853D01*
X89811Y23020D01*
X90144D01*
X90311Y22853D01*
X86800Y21080D02*
X87800D01*
Y21580D01*
X87633Y21746D01*
X87300D01*
X87133Y21580D01*
Y21080D01*
Y21413D02*
X86800Y21746D01*
Y22746D02*
Y22080D01*
X87466Y22746D01*
X87633D01*
X87800Y22580D01*
Y22246D01*
X87633Y22080D01*
Y23079D02*
X87800Y23246D01*
Y23579D01*
X87633Y23746D01*
X87466D01*
X87300Y23579D01*
Y23413D01*
Y23579D01*
X87133Y23746D01*
X86967D01*
X86800Y23579D01*
Y23246D01*
X86967Y23079D01*
X88160Y20170D02*
X89160D01*
Y20670D01*
X88993Y20836D01*
X88660D01*
X88493Y20670D01*
Y20170D01*
Y20503D02*
X88160Y20836D01*
Y21836D02*
Y21170D01*
X88826Y21836D01*
X88993D01*
X89160Y21670D01*
Y21336D01*
X88993Y21170D01*
Y22169D02*
X89160Y22336D01*
Y22669D01*
X88993Y22836D01*
X88327D01*
X88160Y22669D01*
Y22336D01*
X88327Y22169D01*
X88993D01*
X84533Y14796D02*
X84700Y14630D01*
Y14297D01*
X84533Y14130D01*
X83867D01*
X83700Y14297D01*
Y14630D01*
X83867Y14796D01*
X83700Y15796D02*
Y15130D01*
X84366Y15796D01*
X84533D01*
X84700Y15630D01*
Y15296D01*
X84533Y15130D01*
Y16129D02*
X84700Y16296D01*
Y16629D01*
X84533Y16796D01*
X84366D01*
X84200Y16629D01*
Y16463D01*
Y16629D01*
X84033Y16796D01*
X83867D01*
X83700Y16629D01*
Y16296D01*
X83867Y16129D01*
X85983Y14776D02*
X86150Y14610D01*
Y14277D01*
X85983Y14110D01*
X85317D01*
X85150Y14277D01*
Y14610D01*
X85317Y14776D01*
X86150Y15110D02*
X85150D01*
Y15610D01*
X85317Y15776D01*
X85483D01*
X85650Y15610D01*
Y15110D01*
Y15610D01*
X85816Y15776D01*
X85983D01*
X86150Y15610D01*
Y15110D01*
Y16776D02*
X85983Y16443D01*
X85650Y16109D01*
X85317D01*
X85150Y16276D01*
Y16609D01*
X85317Y16776D01*
X85483D01*
X85650Y16609D01*
Y16109D01*
X29883Y65196D02*
X30050Y65030D01*
Y64697D01*
X29883Y64530D01*
X29217D01*
X29050Y64697D01*
Y65030D01*
X29217Y65196D01*
X29050Y65530D02*
Y65863D01*
Y65696D01*
X30050D01*
X29883Y65530D01*
X29050Y67029D02*
Y66363D01*
X29716Y67029D01*
X29883D01*
X30050Y66863D01*
Y66529D01*
X29883Y66363D01*
X31063Y64506D02*
X31230Y64340D01*
Y64007D01*
X31063Y63840D01*
X30397D01*
X30230Y64007D01*
Y64340D01*
X30397Y64506D01*
X31230Y64840D02*
X30230D01*
Y65340D01*
X30397Y65506D01*
X30563D01*
X30730Y65340D01*
Y64840D01*
Y65340D01*
X30896Y65506D01*
X31063D01*
X31230Y65340D01*
Y64840D01*
X30230Y66339D02*
X31230D01*
X30730Y65839D01*
Y66506D01*
X35520Y21830D02*
Y20997D01*
X35353Y20830D01*
X35020D01*
X34854Y20997D01*
Y21830D01*
X33854D02*
X34187Y21663D01*
X34520Y21330D01*
Y20997D01*
X34354Y20830D01*
X34020D01*
X33854Y20997D01*
Y21163D01*
X34020Y21330D01*
X34520D01*
X39384Y31707D02*
Y32373D01*
X39550Y32540D01*
X39883D01*
X40050Y32373D01*
Y31707D01*
X39883Y31540D01*
X39550D01*
X39717Y31873D02*
X39384Y31540D01*
X39550D02*
X39384Y31707D01*
X38384Y32540D02*
X38717Y32373D01*
X39050Y32040D01*
Y31707D01*
X38884Y31540D01*
X38550D01*
X38384Y31707D01*
Y31873D01*
X38550Y32040D01*
X39050D01*
X45114Y31597D02*
Y32263D01*
X45280Y32430D01*
X45613D01*
X45780Y32263D01*
Y31597D01*
X45613Y31430D01*
X45280D01*
X45447Y31763D02*
X45114Y31430D01*
X45280D02*
X45114Y31597D01*
X44114Y32430D02*
X44780D01*
Y31930D01*
X44447Y32096D01*
X44280D01*
X44114Y31930D01*
Y31597D01*
X44280Y31430D01*
X44614D01*
X44780Y31597D01*
X50710Y38110D02*
Y37110D01*
X50210D01*
X50044Y37277D01*
Y37943D01*
X50210Y38110D01*
X50710D01*
X49044D02*
X49710D01*
Y37610D01*
X49377Y37776D01*
X49210D01*
X49044Y37610D01*
Y37277D01*
X49210Y37110D01*
X49544D01*
X49710Y37277D01*
X51934Y35660D02*
X52600D01*
Y35160D01*
X52267D01*
X52600D01*
Y34660D01*
X50934D02*
X51600D01*
X50934Y35326D01*
Y35493D01*
X51100Y35660D01*
X51434D01*
X51600Y35493D01*
X30713Y41806D02*
X30880Y41640D01*
Y41307D01*
X30713Y41140D01*
X30047D01*
X29880Y41307D01*
Y41640D01*
X30047Y41806D01*
X29880Y42640D02*
X30880D01*
X30380Y42140D01*
Y42806D01*
X29880Y43639D02*
X30880D01*
X30380Y43139D01*
Y43806D01*
X28814Y56823D02*
X28980Y56990D01*
X29313D01*
X29480Y56823D01*
Y56157D01*
X29313Y55990D01*
X28980D01*
X28814Y56157D01*
X28480Y55990D02*
X28147D01*
X28314D01*
Y56990D01*
X28480Y56823D01*
X26981Y56990D02*
X27314Y56823D01*
X27647Y56490D01*
Y56157D01*
X27481Y55990D01*
X27147D01*
X26981Y56157D01*
Y56323D01*
X27147Y56490D01*
X27647D01*
X26204Y52573D02*
X26370Y52740D01*
X26703D01*
X26870Y52573D01*
Y51907D01*
X26703Y51740D01*
X26370D01*
X26204Y51907D01*
X25870Y51740D02*
X25537D01*
X25704D01*
Y52740D01*
X25870Y52573D01*
X25037D02*
X24871Y52740D01*
X24537D01*
X24371Y52573D01*
Y52406D01*
X24537Y52240D01*
X24371Y52073D01*
Y51907D01*
X24537Y51740D01*
X24871D01*
X25037Y51907D01*
Y52073D01*
X24871Y52240D01*
X25037Y52406D01*
Y52573D01*
X24871Y52240D02*
X24537D01*
X36454Y47613D02*
X36620Y47780D01*
X36953D01*
X37120Y47613D01*
Y46947D01*
X36953Y46780D01*
X36620D01*
X36454Y46947D01*
X36120Y47780D02*
X35454D01*
Y47613D01*
X36120Y46947D01*
Y46780D01*
X41460Y44780D02*
Y43947D01*
X41293Y43780D01*
X40960D01*
X40794Y43947D01*
Y44780D01*
X40460Y43780D02*
X40127D01*
X40294D01*
Y44780D01*
X40460Y44613D01*
X39627Y43780D02*
X39294D01*
X39461D01*
Y44780D01*
X39627Y44613D01*
X42723Y44086D02*
X42890Y43920D01*
Y43587D01*
X42723Y43420D01*
X42057D01*
X41890Y43587D01*
Y43920D01*
X42057Y44086D01*
X41890Y44920D02*
X42890D01*
X42390Y44420D01*
Y45086D01*
X42723Y45419D02*
X42890Y45586D01*
Y45919D01*
X42723Y46086D01*
X42556D01*
X42390Y45919D01*
Y45753D01*
Y45919D01*
X42223Y46086D01*
X42057D01*
X41890Y45919D01*
Y45586D01*
X42057Y45419D01*
X41410Y46270D02*
X40744Y45270D01*
Y46270D02*
X41410Y45270D01*
X40410D02*
X40077D01*
X40244D01*
Y46270D01*
X40410Y46103D01*
X46933Y45786D02*
X47100Y45620D01*
Y45287D01*
X46933Y45120D01*
X46267D01*
X46100Y45287D01*
Y45620D01*
X46267Y45786D01*
X47100Y46786D02*
X46933Y46453D01*
X46600Y46120D01*
X46267D01*
X46100Y46286D01*
Y46620D01*
X46267Y46786D01*
X46433D01*
X46600Y46620D01*
Y46120D01*
X47844Y51373D02*
X48010Y51540D01*
X48343D01*
X48510Y51373D01*
Y50707D01*
X48343Y50540D01*
X48010D01*
X47844Y50707D01*
X47510Y50540D02*
X47177D01*
X47344D01*
Y51540D01*
X47510Y51373D01*
X46677Y51540D02*
X46011D01*
Y51373D01*
X46677Y50707D01*
Y50540D01*
X49683Y53766D02*
X49850Y53600D01*
Y53267D01*
X49683Y53100D01*
X49017D01*
X48850Y53267D01*
Y53600D01*
X49017Y53766D01*
X48850Y54100D02*
Y54433D01*
Y54266D01*
X49850D01*
X49683Y54100D01*
X48850Y55433D02*
X49850D01*
X49350Y54933D01*
Y55599D01*
X50973Y53486D02*
X51140Y53320D01*
Y52987D01*
X50973Y52820D01*
X50307D01*
X50140Y52987D01*
Y53320D01*
X50307Y53486D01*
X51140Y53820D02*
X50140D01*
Y54320D01*
X50307Y54486D01*
X50473D01*
X50640Y54320D01*
Y53820D01*
Y54320D01*
X50806Y54486D01*
X50973D01*
X51140Y54320D01*
Y53820D01*
X50140Y55486D02*
Y54819D01*
X50806Y55486D01*
X50973D01*
X51140Y55319D01*
Y54986D01*
X50973Y54819D01*
X52223Y53446D02*
X52390Y53280D01*
Y52947D01*
X52223Y52780D01*
X51557D01*
X51390Y52947D01*
Y53280D01*
X51557Y53446D01*
X52390Y53780D02*
X51390D01*
Y54280D01*
X51557Y54446D01*
X51723D01*
X51890Y54280D01*
Y53780D01*
Y54280D01*
X52056Y54446D01*
X52223D01*
X52390Y54280D01*
Y53780D01*
X51390Y54779D02*
Y55113D01*
Y54946D01*
X52390D01*
X52223Y54779D01*
X52940Y58620D02*
Y59620D01*
X52440D01*
X52274Y59453D01*
Y59120D01*
X52440Y58953D01*
X52940D01*
X52607D02*
X52274Y58620D01*
X51440D02*
Y59620D01*
X51940Y59120D01*
X51274D01*
X54044Y61693D02*
X54210Y61860D01*
X54543D01*
X54710Y61693D01*
Y61027D01*
X54543Y60860D01*
X54210D01*
X54044Y61027D01*
X53710Y61860D02*
Y60860D01*
X53210D01*
X53044Y61027D01*
Y61193D01*
X53210Y61360D01*
X53710D01*
X53210D01*
X53044Y61526D01*
Y61693D01*
X53210Y61860D01*
X53710D01*
X52711Y60860D02*
X52377D01*
X52544D01*
Y61860D01*
X52711Y61693D01*
X51878D02*
X51711Y61860D01*
X51378D01*
X51211Y61693D01*
Y61526D01*
X51378Y61360D01*
X51544D01*
X51378D01*
X51211Y61193D01*
Y61027D01*
X51378Y60860D01*
X51711D01*
X51878Y61027D01*
X54054Y63123D02*
X54220Y63290D01*
X54553D01*
X54720Y63123D01*
Y62457D01*
X54553Y62290D01*
X54220D01*
X54054Y62457D01*
X53720Y63290D02*
Y62290D01*
X53220D01*
X53054Y62457D01*
Y62623D01*
X53220Y62790D01*
X53720D01*
X53220D01*
X53054Y62956D01*
Y63123D01*
X53220Y63290D01*
X53720D01*
X52721Y62290D02*
X52387D01*
X52554D01*
Y63290D01*
X52721Y63123D01*
X51388Y62290D02*
Y63290D01*
X51888Y62790D01*
X51221D01*
X67110Y59100D02*
X68110D01*
Y59600D01*
X67943Y59766D01*
X67610D01*
X67443Y59600D01*
Y59100D01*
Y59433D02*
X67110Y59766D01*
Y60100D02*
Y60433D01*
Y60266D01*
X68110D01*
X67943Y60100D01*
X68110Y60933D02*
Y61599D01*
X67943D01*
X67277Y60933D01*
X67110D01*
X66410Y69660D02*
Y68827D01*
X66243Y68660D01*
X65910D01*
X65744Y68827D01*
Y69660D01*
X64744Y68660D02*
X65410D01*
X64744Y69326D01*
Y69493D01*
X64910Y69660D01*
X65244D01*
X65410Y69493D01*
X58790Y59760D02*
X59790D01*
Y60260D01*
X59623Y60426D01*
X59290D01*
X59123Y60260D01*
Y59760D01*
Y60093D02*
X58790Y60426D01*
Y60760D02*
Y61093D01*
Y60926D01*
X59790D01*
X59623Y60760D01*
X59790Y62259D02*
Y61593D01*
X59290D01*
X59456Y61926D01*
Y62093D01*
X59290Y62259D01*
X58957D01*
X58790Y62093D01*
Y61759D01*
X58957Y61593D01*
X56050Y59020D02*
X57050D01*
Y59520D01*
X56883Y59686D01*
X56550D01*
X56383Y59520D01*
Y59020D01*
Y59353D02*
X56050Y59686D01*
Y60020D02*
Y60353D01*
Y60186D01*
X57050D01*
X56883Y60020D01*
X56050Y61353D02*
X57050D01*
X56550Y60853D01*
Y61519D01*
X59244Y69423D02*
X59410Y69590D01*
X59743D01*
X59910Y69423D01*
Y68757D01*
X59743Y68590D01*
X59410D01*
X59244Y68757D01*
X58910Y69423D02*
X58744Y69590D01*
X58410D01*
X58244Y69423D01*
Y69256D01*
X58410Y69090D01*
X58244Y68923D01*
Y68757D01*
X58410Y68590D01*
X58744D01*
X58910Y68757D01*
Y68923D01*
X58744Y69090D01*
X58910Y69256D01*
Y69423D01*
X58744Y69090D02*
X58410D01*
X54910Y72800D02*
X55910D01*
Y73300D01*
X55743Y73466D01*
X55410D01*
X55243Y73300D01*
Y72800D01*
Y73133D02*
X54910Y73466D01*
Y73800D02*
Y74133D01*
Y73966D01*
X55910D01*
X55743Y73800D01*
Y74633D02*
X55910Y74799D01*
Y75133D01*
X55743Y75299D01*
X55077D01*
X54910Y75133D01*
Y74799D01*
X55077Y74633D01*
X55743D01*
X53530Y76890D02*
Y77890D01*
X53030D01*
X52864Y77723D01*
Y77390D01*
X53030Y77223D01*
X53530D01*
X52530Y76890D02*
Y77890D01*
X52030D01*
X51864Y77723D01*
Y77390D01*
X52030Y77223D01*
X52530D01*
X52197D02*
X51864Y76890D01*
X51031Y77890D02*
X51364D01*
X51531Y77723D01*
Y77057D01*
X51364Y76890D01*
X51031D01*
X50864Y77057D01*
Y77723D01*
X51031Y77890D01*
X49865Y77723D02*
X50031Y77890D01*
X50364D01*
X50531Y77723D01*
Y77057D01*
X50364Y76890D01*
X50031D01*
X49865Y77057D01*
Y77390D01*
X50198D01*
X45620Y65750D02*
Y64917D01*
X45453Y64750D01*
X45120D01*
X44954Y64917D01*
Y65750D01*
X44620Y64750D02*
X44287D01*
X44454D01*
Y65750D01*
X44620Y65583D01*
X39014Y68273D02*
X39180Y68440D01*
X39513D01*
X39680Y68273D01*
Y67607D01*
X39513Y67440D01*
X39180D01*
X39014Y67607D01*
X38680Y68440D02*
Y67440D01*
X38180D01*
X38014Y67607D01*
Y67773D01*
X38180Y67940D01*
X38680D01*
X38180D01*
X38014Y68106D01*
Y68273D01*
X38180Y68440D01*
X38680D01*
X37014D02*
X37681D01*
Y67940D01*
X37347Y68106D01*
X37181D01*
X37014Y67940D01*
Y67607D01*
X37181Y67440D01*
X37514D01*
X37681Y67607D01*
X38994Y69833D02*
X39160Y70000D01*
X39493D01*
X39660Y69833D01*
Y69167D01*
X39493Y69000D01*
X39160D01*
X38994Y69167D01*
X38660Y70000D02*
Y69000D01*
X38160D01*
X37994Y69167D01*
Y69333D01*
X38160Y69500D01*
X38660D01*
X38160D01*
X37994Y69666D01*
Y69833D01*
X38160Y70000D01*
X38660D01*
X37661D02*
X36994D01*
Y69833D01*
X37661Y69167D01*
Y69000D01*
X21710Y69430D02*
Y70430D01*
X21210D01*
X21044Y70263D01*
Y69930D01*
X21210Y69763D01*
X21710D01*
X21377D02*
X21044Y69430D01*
X20044Y70430D02*
X20377Y70263D01*
X20710Y69930D01*
Y69597D01*
X20544Y69430D01*
X20210D01*
X20044Y69597D01*
Y69763D01*
X20210Y69930D01*
X20710D01*
X21074Y71523D02*
X21240Y71690D01*
X21573D01*
X21740Y71523D01*
Y70857D01*
X21573Y70690D01*
X21240D01*
X21074Y70857D01*
X20074Y71690D02*
X20740D01*
Y71190D01*
X20407Y71356D01*
X20240D01*
X20074Y71190D01*
Y70857D01*
X20240Y70690D01*
X20574D01*
X20740Y70857D01*
X18204Y89363D02*
X18370Y89530D01*
X18703D01*
X18870Y89363D01*
Y88697D01*
X18703Y88530D01*
X18370D01*
X18204Y88697D01*
X17370Y88530D02*
Y89530D01*
X17870Y89030D01*
X17204D01*
X18840Y87130D02*
Y88130D01*
X18340D01*
X18174Y87963D01*
Y87630D01*
X18340Y87463D01*
X18840D01*
X18507D02*
X18174Y87130D01*
X17174Y88130D02*
X17840D01*
Y87630D01*
X17507Y87796D01*
X17340D01*
X17174Y87630D01*
Y87297D01*
X17340Y87130D01*
X17674D01*
X17840Y87297D01*
X36650Y88870D02*
Y89870D01*
X36150D01*
X35984Y89703D01*
Y89370D01*
X36150Y89203D01*
X36650D01*
X36317D02*
X35984Y88870D01*
X35650Y89703D02*
X35484Y89870D01*
X35150D01*
X34984Y89703D01*
Y89536D01*
X35150Y89370D01*
X35317D01*
X35150D01*
X34984Y89203D01*
Y89037D01*
X35150Y88870D01*
X35484D01*
X35650Y89037D01*
X34651Y89703D02*
X34484Y89870D01*
X34151D01*
X33984Y89703D01*
Y89037D01*
X34151Y88870D01*
X34484D01*
X34651Y89037D01*
Y89703D01*
X40184Y92183D02*
X40350Y92350D01*
X40683D01*
X40850Y92183D01*
Y91517D01*
X40683Y91350D01*
X40350D01*
X40184Y91517D01*
X39850Y92183D02*
X39684Y92350D01*
X39350D01*
X39184Y92183D01*
Y92016D01*
X39350Y91850D01*
X39517D01*
X39350D01*
X39184Y91683D01*
Y91517D01*
X39350Y91350D01*
X39684D01*
X39850Y91517D01*
X38851Y92183D02*
X38684Y92350D01*
X38351D01*
X38184Y92183D01*
Y92016D01*
X38351Y91850D01*
X38184Y91683D01*
Y91517D01*
X38351Y91350D01*
X38684D01*
X38851Y91517D01*
Y91683D01*
X38684Y91850D01*
X38851Y92016D01*
Y92183D01*
X38684Y91850D02*
X38351D01*
X36610Y95560D02*
Y94560D01*
X35944D01*
X34944Y95560D02*
X35277Y95393D01*
X35610Y95060D01*
Y94727D01*
X35444Y94560D01*
X35110D01*
X34944Y94727D01*
Y94893D01*
X35110Y95060D01*
X35610D01*
X38664Y96873D02*
X38830Y97040D01*
X39163D01*
X39330Y96873D01*
Y96207D01*
X39163Y96040D01*
X38830D01*
X38664Y96207D01*
X38330Y96873D02*
X38164Y97040D01*
X37830D01*
X37664Y96873D01*
Y96706D01*
X37830Y96540D01*
X37997D01*
X37830D01*
X37664Y96373D01*
Y96207D01*
X37830Y96040D01*
X38164D01*
X38330Y96207D01*
X36664Y97040D02*
X36997Y96873D01*
X37331Y96540D01*
Y96207D01*
X37164Y96040D01*
X36831D01*
X36664Y96207D01*
Y96373D01*
X36831Y96540D01*
X37331D01*
X24024Y103323D02*
X24190Y103490D01*
X24523D01*
X24690Y103323D01*
Y102657D01*
X24523Y102490D01*
X24190D01*
X24024Y102657D01*
X23690Y103323D02*
X23524Y103490D01*
X23190D01*
X23024Y103323D01*
Y103156D01*
X23190Y102990D01*
X23357D01*
X23190D01*
X23024Y102823D01*
Y102657D01*
X23190Y102490D01*
X23524D01*
X23690Y102657D01*
X22691Y103490D02*
X22024D01*
Y103323D01*
X22691Y102657D01*
Y102490D01*
X39284Y103573D02*
X39450Y103740D01*
X39783D01*
X39950Y103573D01*
Y102907D01*
X39783Y102740D01*
X39450D01*
X39284Y102907D01*
X38950Y103573D02*
X38784Y103740D01*
X38450D01*
X38284Y103573D01*
Y103406D01*
X38450Y103240D01*
X38617D01*
X38450D01*
X38284Y103073D01*
Y102907D01*
X38450Y102740D01*
X38784D01*
X38950Y102907D01*
X37284Y103740D02*
X37951D01*
Y103240D01*
X37617Y103406D01*
X37451D01*
X37284Y103240D01*
Y102907D01*
X37451Y102740D01*
X37784D01*
X37951Y102907D01*
X39710Y114340D02*
Y113340D01*
X39210D01*
X39044Y113507D01*
Y114173D01*
X39210Y114340D01*
X39710D01*
X38044Y114173D02*
X38210Y114340D01*
X38544D01*
X38710Y114173D01*
Y113507D01*
X38544Y113340D01*
X38210D01*
X38044Y113507D01*
X37711Y113173D02*
X37044D01*
X36711Y114340D02*
X36378D01*
X36544D01*
Y113340D01*
X36711D01*
X36378D01*
X35878D02*
Y114340D01*
X35211Y113340D01*
Y114340D01*
X73094Y112633D02*
X73260Y112800D01*
X73593D01*
X73760Y112633D01*
Y112466D01*
X73593Y112300D01*
X73260D01*
X73094Y112133D01*
Y111967D01*
X73260Y111800D01*
X73593D01*
X73760Y111967D01*
X72760Y112800D02*
X72094D01*
X72427D01*
Y111800D01*
X71761Y112800D02*
X71094D01*
Y112633D01*
X71761Y111967D01*
Y111800D01*
X70761Y112800D02*
X70095D01*
Y112633D01*
X70761Y111967D01*
Y111800D01*
X69761Y112633D02*
X69595Y112800D01*
X69261D01*
X69095Y112633D01*
Y112466D01*
X69261Y112300D01*
X69428D01*
X69261D01*
X69095Y112133D01*
Y111967D01*
X69261Y111800D01*
X69595D01*
X69761Y111967D01*
X68095Y112800D02*
X68762D01*
Y112300D01*
X68428Y112466D01*
X68262D01*
X68095Y112300D01*
Y111967D01*
X68262Y111800D01*
X68595D01*
X68762Y111967D01*
X66762Y111800D02*
X66429D01*
X66596D01*
Y112800D01*
X66762Y112633D01*
X65929Y111800D02*
Y111967D01*
X65763D01*
Y111800D01*
X65929D01*
X64596D02*
Y112800D01*
X65096Y112300D01*
X64430D01*
X63597Y111800D02*
Y112800D01*
X64096Y112300D01*
X63430D01*
X63097Y111800D02*
X62764D01*
X62930D01*
Y112466D01*
X63097D01*
X62264Y111800D02*
Y112466D01*
X61764D01*
X61597Y112300D01*
Y111800D01*
X60598Y112466D02*
X61097D01*
X61264Y112300D01*
Y111967D01*
X61097Y111800D01*
X60598D01*
X60264Y112800D02*
Y111800D01*
Y112300D01*
X60098Y112466D01*
X59765D01*
X59598Y112300D01*
Y111800D01*
X75144Y95443D02*
X75310Y95610D01*
X75643D01*
X75810Y95443D01*
Y95276D01*
X75643Y95110D01*
X75310D01*
X75144Y94943D01*
Y94777D01*
X75310Y94610D01*
X75643D01*
X75810Y94777D01*
X74810Y95610D02*
X74144D01*
X74477D01*
Y94610D01*
X73811Y95610D02*
X73144D01*
Y95443D01*
X73811Y94777D01*
Y94610D01*
X72811Y94777D02*
X72644Y94610D01*
X72311D01*
X72145Y94777D01*
Y95443D01*
X72311Y95610D01*
X72644D01*
X72811Y95443D01*
Y95276D01*
X72644Y95110D01*
X72145D01*
X71145Y94610D02*
X71811D01*
X71145Y95276D01*
Y95443D01*
X71311Y95610D01*
X71645D01*
X71811Y95443D01*
X70812D02*
X70645Y95610D01*
X70312D01*
X70145Y95443D01*
Y94777D01*
X70312Y94610D01*
X70645D01*
X70812Y94777D01*
Y95443D01*
X68146D02*
X68312Y95610D01*
X68646D01*
X68812Y95443D01*
Y94777D01*
X68646Y94610D01*
X68312D01*
X68146Y94777D01*
Y95110D01*
X68479D01*
X67813Y95610D02*
Y94610D01*
X67146D01*
X66146Y95443D02*
X66313Y95610D01*
X66646D01*
X66813Y95443D01*
Y94777D01*
X66646Y94610D01*
X66313D01*
X66146Y94777D01*
X65813Y95610D02*
Y94610D01*
X65313D01*
X65147Y94777D01*
Y95443D01*
X65313Y95610D01*
X65813D01*
X63481Y94610D02*
X63814Y94943D01*
Y95276D01*
X63481Y95610D01*
X62981Y94610D02*
X62648D01*
X62814D01*
Y95610D01*
X62981Y95443D01*
X61481Y94610D02*
X62148D01*
X61481Y95276D01*
Y95443D01*
X61648Y95610D01*
X61981D01*
X62148Y95443D01*
X61148D02*
X60981Y95610D01*
X60648D01*
X60482Y95443D01*
Y95276D01*
X60648Y95110D01*
X60482Y94943D01*
Y94777D01*
X60648Y94610D01*
X60981D01*
X61148Y94777D01*
Y94943D01*
X60981Y95110D01*
X61148Y95276D01*
Y95443D01*
X60981Y95110D02*
X60648D01*
X60148Y94943D02*
X59149D01*
X59815Y95610D02*
Y94443D01*
X59482Y95610D02*
Y94443D01*
X58482Y95610D02*
X58815Y95443D01*
X59149Y95110D01*
Y94777D01*
X58982Y94610D01*
X58649D01*
X58482Y94777D01*
Y94943D01*
X58649Y95110D01*
X59149D01*
X57649Y94610D02*
Y95610D01*
X58149Y95110D01*
X57483D01*
X57149Y94610D02*
X56816Y94943D01*
Y95276D01*
X57149Y95610D01*
X80474Y96747D02*
Y97413D01*
X80640Y97580D01*
X80973D01*
X81140Y97413D01*
Y96747D01*
X80973Y96580D01*
X80640D01*
X80807Y96913D02*
X80474Y96580D01*
X80640D02*
X80474Y96747D01*
X80140Y96580D02*
X79807D01*
X79974D01*
Y97580D01*
X80140Y97413D01*
X83880Y101200D02*
Y102200D01*
X83380D01*
X83214Y102033D01*
Y101700D01*
X83380Y101533D01*
X83880D01*
X83547D02*
X83214Y101200D01*
X82880Y102200D02*
X82214D01*
Y102033D01*
X82880Y101367D01*
Y101200D01*
X82180Y95930D02*
X83180D01*
Y96430D01*
X83013Y96596D01*
X82680D01*
X82513Y96430D01*
Y95930D01*
Y96263D02*
X82180Y96596D01*
X83013Y96930D02*
X83180Y97096D01*
Y97430D01*
X83013Y97596D01*
X82846D01*
X82680Y97430D01*
X82513Y97596D01*
X82347D01*
X82180Y97430D01*
Y97096D01*
X82347Y96930D01*
X82513D01*
X82680Y97096D01*
X82846Y96930D01*
X83013D01*
X82680Y97096D02*
Y97430D01*
X103980Y87310D02*
Y88310D01*
X103480D01*
X103314Y88143D01*
Y87810D01*
X103480Y87643D01*
X103980D01*
X103647D02*
X103314Y87310D01*
X102314D02*
X102980D01*
X102314Y87976D01*
Y88143D01*
X102480Y88310D01*
X102814D01*
X102980Y88143D01*
X103204Y89433D02*
X103370Y89600D01*
X103703D01*
X103870Y89433D01*
Y88767D01*
X103703Y88600D01*
X103370D01*
X103204Y88767D01*
X102870Y88600D02*
X102537D01*
X102704D01*
Y89600D01*
X102870Y89433D01*
X99700Y69340D02*
Y70340D01*
X99200D01*
X99034Y70173D01*
Y69840D01*
X99200Y69673D01*
X99700D01*
X99367D02*
X99034Y69340D01*
X98700Y70173D02*
X98534Y70340D01*
X98200D01*
X98034Y70173D01*
Y70006D01*
X98200Y69840D01*
X98367D01*
X98200D01*
X98034Y69673D01*
Y69507D01*
X98200Y69340D01*
X98534D01*
X98700Y69507D01*
X99034Y71613D02*
X99200Y71780D01*
X99533D01*
X99700Y71613D01*
Y70947D01*
X99533Y70780D01*
X99200D01*
X99034Y70947D01*
X98034Y70780D02*
X98700D01*
X98034Y71446D01*
Y71613D01*
X98200Y71780D01*
X98534D01*
X98700Y71613D01*
X26690Y21130D02*
X27690D01*
Y21630D01*
X27523Y21796D01*
X27190D01*
X27023Y21630D01*
Y21130D01*
Y21463D02*
X26690Y21796D01*
Y22796D02*
Y22130D01*
X27356Y22796D01*
X27523D01*
X27690Y22630D01*
Y22296D01*
X27523Y22130D01*
X26857Y23129D02*
X26690Y23296D01*
Y23629D01*
X26857Y23796D01*
X27523D01*
X27690Y23629D01*
Y23296D01*
X27523Y23129D01*
X27356D01*
X27190Y23296D01*
Y23796D01*
X43710Y93360D02*
X43044D01*
X43377Y93693D02*
Y93027D01*
X42710Y93693D02*
X42544Y93860D01*
X42210D01*
X42044Y93693D01*
Y93526D01*
X42210Y93360D01*
X42377D01*
X42210D01*
X42044Y93193D01*
Y93027D01*
X42210Y92860D01*
X42544D01*
X42710Y93027D01*
X41711Y93860D02*
Y93193D01*
X41377Y92860D01*
X41044Y93193D01*
Y93860D01*
X40711Y93693D02*
X40544Y93860D01*
X40211D01*
X40045Y93693D01*
Y93526D01*
X40211Y93360D01*
X40378D01*
X40211D01*
X40045Y93193D01*
Y93027D01*
X40211Y92860D01*
X40544D01*
X40711Y93027D01*
X39711Y93860D02*
Y92860D01*
X39211D01*
X39045Y93027D01*
Y93693D01*
X39211Y93860D01*
X39711D01*
X38045Y93693D02*
X38212Y93860D01*
X38545D01*
X38712Y93693D01*
Y93027D01*
X38545Y92860D01*
X38212D01*
X38045Y93027D01*
X38810Y100560D02*
Y99560D01*
X38144D01*
X37810Y100560D02*
X37144D01*
Y100393D01*
X37810Y99727D01*
Y99560D01*
X31624Y52803D02*
X31790Y52970D01*
X32123D01*
X32290Y52803D01*
Y52137D01*
X32123Y51970D01*
X31790D01*
X31624Y52137D01*
X31290Y52803D02*
X31124Y52970D01*
X30790D01*
X30624Y52803D01*
Y52636D01*
X30790Y52470D01*
X30957D01*
X30790D01*
X30624Y52303D01*
Y52137D01*
X30790Y51970D01*
X31124D01*
X31290Y52137D01*
X67774Y41243D02*
X67940Y41410D01*
X68273D01*
X68440Y41243D01*
Y40577D01*
X68273Y40410D01*
X67940D01*
X67774Y40577D01*
X67440D02*
X67274Y40410D01*
X66940D01*
X66774Y40577D01*
Y41243D01*
X66940Y41410D01*
X67274D01*
X67440Y41243D01*
Y41076D01*
X67274Y40910D01*
X66774D01*
X69473Y59616D02*
X69640Y59450D01*
Y59117D01*
X69473Y58950D01*
X68807D01*
X68640Y59117D01*
Y59450D01*
X68807Y59616D01*
X68640Y59950D02*
Y60283D01*
Y60116D01*
X69640D01*
X69473Y59950D01*
Y60783D02*
X69640Y60949D01*
Y61283D01*
X69473Y61449D01*
X68807D01*
X68640Y61283D01*
Y60949D01*
X68807Y60783D01*
X69473D01*
X47354Y67223D02*
X47520Y67390D01*
X47853D01*
X48020Y67223D01*
Y66557D01*
X47853Y66390D01*
X47520D01*
X47354Y66557D01*
X47020Y66390D02*
X46687D01*
X46854D01*
Y67390D01*
X47020Y67223D01*
X46187D02*
X46021Y67390D01*
X45687D01*
X45521Y67223D01*
Y67056D01*
X45687Y66890D01*
X45854D01*
X45687D01*
X45521Y66723D01*
Y66557D01*
X45687Y66390D01*
X46021D01*
X46187Y66557D01*
X32343Y66166D02*
X32510Y66000D01*
Y65667D01*
X32343Y65500D01*
X31677D01*
X31510Y65667D01*
Y66000D01*
X31677Y66166D01*
X31510Y66500D02*
Y66833D01*
Y66666D01*
X32510D01*
X32343Y66500D01*
X32510Y67999D02*
Y67333D01*
X32010D01*
X32176Y67666D01*
Y67833D01*
X32010Y67999D01*
X31677D01*
X31510Y67833D01*
Y67499D01*
X31677Y67333D01*
X32054Y22953D02*
X32220Y23120D01*
X32553D01*
X32720Y22953D01*
Y22287D01*
X32553Y22120D01*
X32220D01*
X32054Y22287D01*
X31054Y22120D02*
X31720D01*
X31054Y22786D01*
Y22953D01*
X31220Y23120D01*
X31554D01*
X31720Y22953D01*
X30721Y22287D02*
X30554Y22120D01*
X30221D01*
X30054Y22287D01*
Y22953D01*
X30221Y23120D01*
X30554D01*
X30721Y22953D01*
Y22786D01*
X30554Y22620D01*
X30054D01*
X25853Y21716D02*
X26020Y21550D01*
Y21217D01*
X25853Y21050D01*
X25187D01*
X25020Y21217D01*
Y21550D01*
X25187Y21716D01*
X25853Y22050D02*
X26020Y22216D01*
Y22550D01*
X25853Y22716D01*
X25686D01*
X25520Y22550D01*
Y22383D01*
Y22550D01*
X25353Y22716D01*
X25187D01*
X25020Y22550D01*
Y22216D01*
X25187Y22050D01*
X25853Y23049D02*
X26020Y23216D01*
Y23549D01*
X25853Y23716D01*
X25187D01*
X25020Y23549D01*
Y23216D01*
X25187Y23049D01*
X25853D01*
X80163Y46516D02*
X80330Y46350D01*
Y46017D01*
X80163Y45850D01*
X79497D01*
X79330Y46017D01*
Y46350D01*
X79497Y46516D01*
X79330Y47350D02*
X80330D01*
X79830Y46850D01*
Y47516D01*
X80163Y47849D02*
X80330Y48016D01*
Y48349D01*
X80163Y48516D01*
X79497D01*
X79330Y48349D01*
Y48016D01*
X79497Y47849D01*
X80163D01*
X81753Y59466D02*
X81920Y59300D01*
Y58967D01*
X81753Y58800D01*
X81087D01*
X80920Y58967D01*
Y59300D01*
X81087Y59466D01*
X80920Y60300D02*
X81920D01*
X81420Y59800D01*
Y60466D01*
X80920Y61466D02*
Y60799D01*
X81586Y61466D01*
X81753D01*
X81920Y61299D01*
Y60966D01*
X81753Y60799D01*
X27483Y14956D02*
X27650Y14790D01*
Y14457D01*
X27483Y14290D01*
X26817D01*
X26650Y14457D01*
Y14790D01*
X26817Y14956D01*
X27650Y15290D02*
X26650D01*
Y15790D01*
X26817Y15956D01*
X26983D01*
X27150Y15790D01*
Y15290D01*
Y15790D01*
X27316Y15956D01*
X27483D01*
X27650Y15790D01*
Y15290D01*
X27483Y16289D02*
X27650Y16456D01*
Y16789D01*
X27483Y16956D01*
X27316D01*
X27150Y16789D01*
X26983Y16956D01*
X26817D01*
X26650Y16789D01*
Y16456D01*
X26817Y16289D01*
X26983D01*
X27150Y16456D01*
X27316Y16289D01*
X27483D01*
X27150Y16456D02*
Y16789D01*
X118274Y10390D02*
X118940D01*
Y9390D01*
X118274D01*
X118940Y9890D02*
X118607D01*
X117774Y10056D02*
X117440D01*
X117274Y9890D01*
Y9390D01*
X117774D01*
X117940Y9557D01*
X117774Y9723D01*
X117274D01*
X116941Y10056D02*
Y9390D01*
Y9723D01*
X116774Y9890D01*
X116607Y10056D01*
X116441D01*
X115774Y10223D02*
Y10056D01*
X115941D01*
X115608D01*
X115774D01*
Y9557D01*
X115608Y9390D01*
X115108Y10390D02*
Y9390D01*
Y9890D01*
X114941Y10056D01*
X114608D01*
X114441Y9890D01*
Y9390D01*
X114108D02*
X113775D01*
X113942D01*
Y10390D01*
X114108Y10223D01*
X118534Y3350D02*
X119200D01*
Y2350D01*
X118534D01*
X119200Y2850D02*
X118867D01*
X118034Y3016D02*
X117700D01*
X117534Y2850D01*
Y2350D01*
X118034D01*
X118200Y2517D01*
X118034Y2683D01*
X117534D01*
X117201Y3016D02*
Y2350D01*
Y2683D01*
X117034Y2850D01*
X116867Y3016D01*
X116701D01*
X116034Y3183D02*
Y3016D01*
X116201D01*
X115868D01*
X116034D01*
Y2517D01*
X115868Y2350D01*
X115368Y3350D02*
Y2350D01*
Y2850D01*
X115201Y3016D01*
X114868D01*
X114701Y2850D01*
Y2350D01*
X113702D02*
X114368D01*
X113702Y3016D01*
Y3183D01*
X113868Y3350D01*
X114202D01*
X114368Y3183D01*
X28084Y110720D02*
X28750D01*
Y110220D01*
X28417D01*
X28750D01*
Y109720D01*
X27750Y110553D02*
X27584Y110720D01*
X27250D01*
X27084Y110553D01*
Y110386D01*
X27250Y110220D01*
X27417D01*
X27250D01*
X27084Y110053D01*
Y109887D01*
X27250Y109720D01*
X27584D01*
X27750Y109887D01*
X28830Y52510D02*
Y51510D01*
X28164D01*
X27830D02*
X27497D01*
X27664D01*
Y52510D01*
X27830Y52343D01*
X33560Y50110D02*
Y51110D01*
X33060D01*
X32894Y50943D01*
Y50610D01*
X33060Y50443D01*
X33560D01*
X33227D02*
X32894Y50110D01*
X32560D02*
X32227D01*
X32394D01*
Y51110D01*
X32560Y50943D01*
X44180Y70970D02*
X45180D01*
Y71470D01*
X45013Y71636D01*
X44680D01*
X44513Y71470D01*
Y70970D01*
Y71303D02*
X44180Y71636D01*
X44347Y71970D02*
X44180Y72136D01*
Y72470D01*
X44347Y72636D01*
X45013D01*
X45180Y72470D01*
Y72136D01*
X45013Y71970D01*
X44846D01*
X44680Y72136D01*
Y72636D01*
X57440Y35480D02*
X58440D01*
Y35980D01*
X58273Y36146D01*
X57940D01*
X57773Y35980D01*
Y35480D01*
Y35813D02*
X57440Y36146D01*
Y36480D02*
Y36813D01*
Y36646D01*
X58440D01*
X58273Y36480D01*
X57440Y37979D02*
Y37313D01*
X58106Y37979D01*
X58273D01*
X58440Y37813D01*
Y37479D01*
X58273Y37313D01*
X60310Y35480D02*
X61310D01*
Y35980D01*
X61143Y36146D01*
X60810D01*
X60643Y35980D01*
Y35480D01*
Y35813D02*
X60310Y36146D01*
Y36480D02*
Y36813D01*
Y36646D01*
X61310D01*
X61143Y36480D01*
Y37313D02*
X61310Y37479D01*
Y37813D01*
X61143Y37979D01*
X60976D01*
X60810Y37813D01*
Y37646D01*
Y37813D01*
X60643Y37979D01*
X60477D01*
X60310Y37813D01*
Y37479D01*
X60477Y37313D01*
X61800Y35460D02*
X62800D01*
Y35960D01*
X62633Y36126D01*
X62300D01*
X62133Y35960D01*
Y35460D01*
Y35793D02*
X61800Y36126D01*
Y36460D02*
Y36793D01*
Y36626D01*
X62800D01*
X62633Y36460D01*
X62800Y37959D02*
X62633Y37626D01*
X62300Y37293D01*
X61967D01*
X61800Y37459D01*
Y37793D01*
X61967Y37959D01*
X62133D01*
X62300Y37793D01*
Y37293D01*
X28120Y22080D02*
X29120D01*
Y22580D01*
X28953Y22746D01*
X28620D01*
X28453Y22580D01*
Y22080D01*
Y22413D02*
X28120Y22746D01*
Y23746D02*
Y23080D01*
X28786Y23746D01*
X28953D01*
X29120Y23580D01*
Y23246D01*
X28953Y23080D01*
X29120Y24746D02*
X28953Y24413D01*
X28620Y24079D01*
X28287D01*
X28120Y24246D01*
Y24579D01*
X28287Y24746D01*
X28453D01*
X28620Y24579D01*
Y24079D01*
X44840Y43190D02*
X45840D01*
Y43690D01*
X45673Y43856D01*
X45340D01*
X45173Y43690D01*
Y43190D01*
Y43523D02*
X44840Y43856D01*
Y44690D02*
X45840D01*
X45340Y44190D01*
Y44856D01*
X45673Y45189D02*
X45840Y45356D01*
Y45689D01*
X45673Y45856D01*
X45007D01*
X44840Y45689D01*
Y45356D01*
X45007Y45189D01*
X45673D01*
X32920Y40870D02*
X33920D01*
Y41370D01*
X33753Y41536D01*
X33420D01*
X33253Y41370D01*
Y40870D01*
Y41203D02*
X32920Y41536D01*
Y42370D02*
X33920D01*
X33420Y41870D01*
Y42536D01*
X32920Y42869D02*
Y43203D01*
Y43036D01*
X33920D01*
X33753Y42869D01*
X119354Y48113D02*
X119520Y48280D01*
X119853D01*
X120020Y48113D01*
Y47946D01*
X119853Y47780D01*
X119520D01*
X119354Y47613D01*
Y47447D01*
X119520Y47280D01*
X119853D01*
X120020Y47447D01*
X119020Y48280D02*
Y47280D01*
X118354D01*
X118021D02*
Y48280D01*
X117521D01*
X117354Y48113D01*
Y47780D01*
X117521Y47613D01*
X118021D01*
X117021Y48280D02*
Y47280D01*
X116521D01*
X116355Y47447D01*
Y48113D01*
X116521Y48280D01*
X117021D01*
D88*
X48197Y70045D02*
G03*
X48197Y70045I-100J0D01*
G01*
X93030Y99630D02*
Y104680D01*
Y99630D02*
X120720D01*
X93030Y104680D02*
X120720D01*
Y99630D02*
Y104680D01*
X120740Y99560D02*
Y104610D01*
X93050D02*
X120740D01*
X93050Y99560D02*
X120740D01*
X93050D02*
Y104610D01*
X59810Y40090D02*
Y40490D01*
X59010Y40090D02*
Y40490D01*
X94540Y58060D02*
Y58860D01*
X96140Y58060D02*
Y58860D01*
X97780Y56230D02*
Y57030D01*
X99380Y56230D02*
Y57030D01*
X99420Y50010D02*
Y50810D01*
X97820Y50010D02*
Y50810D01*
X94550Y48490D02*
Y49290D01*
X96150Y48490D02*
Y49290D01*
X79610Y56990D02*
Y57390D01*
X80410Y56990D02*
Y57390D01*
X81730Y50200D02*
Y50600D01*
X80930Y50200D02*
Y50600D01*
X118240Y18090D02*
Y18890D01*
X119840Y18090D02*
Y18890D01*
X115570Y18050D02*
Y18850D01*
X117170Y18050D02*
Y18850D01*
X110930Y31040D02*
X111730D01*
X110930Y32640D02*
X111730D01*
X87610Y19130D02*
Y19530D01*
X86810Y19130D02*
Y19530D01*
X88230Y18330D02*
Y18730D01*
X89030Y18330D02*
Y18730D01*
X50420Y33210D02*
Y34010D01*
X48820Y33210D02*
Y34010D01*
X41437Y50290D02*
X43037D01*
X45237Y48390D02*
Y48690D01*
X41437Y46790D02*
X43037D01*
X39237Y48390D02*
Y48690D01*
X49490Y59530D02*
X49890D01*
X49490Y58730D02*
X49890D01*
X68090Y56910D02*
Y57310D01*
X67290Y56910D02*
Y57310D01*
X57310Y62770D02*
Y63170D01*
X58110Y62770D02*
Y63170D01*
X58690Y63710D02*
Y64110D01*
X59490Y63710D02*
Y64110D01*
X55030Y70900D02*
Y71300D01*
X55830Y70900D02*
Y71300D01*
X34887Y54920D02*
X43362D01*
X44187Y55745D01*
Y64220D01*
X34887Y54920D02*
Y64220D01*
X44187D01*
X24170Y69420D02*
X24570D01*
X24170Y70220D02*
X24570D01*
X20350Y87240D02*
X20750D01*
X20350Y88040D02*
X20750D01*
X34460Y91240D02*
X34860D01*
X34460Y90440D02*
X34860D01*
X24150Y91350D02*
X30450D01*
X32463Y93363D01*
Y101725D01*
X22163Y93337D02*
X24150Y91350D01*
X22163Y93337D02*
Y101725D01*
X32463D01*
X79425Y98040D02*
Y98535D01*
X79420Y100145D02*
Y100640D01*
X79425Y98040D02*
X80325D01*
X79420Y100640D02*
X80325D01*
X80150Y102040D02*
X80550D01*
X80150Y101240D02*
X80550D01*
X82250Y99120D02*
Y99520D01*
X83050Y99120D02*
Y99520D01*
X105500Y88230D02*
X105900D01*
X105500Y87430D02*
X105900D01*
X101420Y69530D02*
X101820D01*
X101420Y70330D02*
X101820D01*
X36790Y51090D02*
X37190D01*
X36790Y50290D02*
X37190D01*
X36310Y51730D02*
X36410D01*
X36310Y52530D02*
X36410D01*
X36310Y52530D02*
X36410D01*
X36310Y51730D02*
X36410D01*
X62650Y40090D02*
Y40490D01*
X61850Y40090D02*
Y40490D01*
X61220Y40080D02*
Y40480D01*
X60420Y40080D02*
Y40480D01*
X58390Y40080D02*
Y40480D01*
X57590Y40080D02*
Y40480D01*
X33760Y39020D02*
Y39420D01*
X32960Y39020D02*
Y39420D01*
X44500Y40400D02*
Y41200D01*
X46100Y40400D02*
Y41200D01*
X27230Y106440D02*
Y107240D01*
X28830Y106440D02*
Y107240D01*
X36460Y98920D02*
Y100820D01*
X33060Y98920D02*
Y100820D01*
X28170Y18330D02*
Y18730D01*
X28970Y18330D02*
Y18730D01*
X27490Y19180D02*
Y19580D01*
X26690Y19180D02*
Y19580D01*
X117050Y46660D02*
X119590D01*
X117050Y41580D02*
Y46660D01*
Y41580D02*
X119590D01*
Y46660D01*
X44330Y69100D02*
Y69500D01*
X45130Y69100D02*
Y69500D01*
D141*
X32960Y94130D02*
Y94430D01*
X34360Y94130D02*
Y94430D01*
M02*
