G04 Layer_Color=65535*
%FSLAX43Y43*%
%MOMM*%
G71*
G01*
G75*
%ADD78C,0.254*%
%ADD85C,0.250*%
%ADD86C,0.050*%
%ADD87C,0.100*%
%ADD88C,0.200*%
G36*
X96186Y100502D02*
X96042D01*
X95930Y100793D01*
X95528D01*
X95424Y100502D01*
X95289D01*
X95655Y101461D01*
X95794D01*
X96186Y100502D01*
D02*
G37*
G36*
X112594Y101198D02*
X112713D01*
Y101106D01*
X112594D01*
Y100697D01*
Y100694D01*
Y100689D01*
Y100680D01*
X112595Y100671D01*
X112597Y100649D01*
X112598Y100639D01*
X112600Y100632D01*
X112601Y100629D01*
X112605Y100624D01*
X112611Y100617D01*
X112620Y100610D01*
X112623Y100608D01*
X112630Y100606D01*
X112643Y100603D01*
X112661Y100601D01*
X112675D01*
X112681Y100603D01*
X112691D01*
X112702Y100604D01*
X112713Y100606D01*
X112729Y100502D01*
X112726D01*
X112720Y100500D01*
X112711Y100499D01*
X112698Y100497D01*
X112684Y100495D01*
X112669Y100493D01*
X112638Y100492D01*
X112627D01*
X112616Y100493D01*
X112602Y100495D01*
X112586Y100496D01*
X112569Y100500D01*
X112554Y100504D01*
X112539Y100511D01*
X112537Y100513D01*
X112533Y100515D01*
X112528Y100520D01*
X112519Y100526D01*
X112512Y100533D01*
X112504Y100543D01*
X112496Y100553D01*
X112490Y100565D01*
Y100567D01*
X112487Y100572D01*
X112486Y100582D01*
X112483Y100596D01*
X112480Y100614D01*
X112479Y100625D01*
Y100637D01*
X112478Y100653D01*
X112476Y100668D01*
Y100685D01*
Y100704D01*
Y101106D01*
X112389D01*
Y101198D01*
X112476D01*
Y101370D01*
X112594Y101440D01*
Y101198D01*
D02*
G37*
G36*
X94445Y101476D02*
X94456D01*
X94469Y101475D01*
X94485Y101472D01*
X94501Y101470D01*
X94537Y101463D01*
X94579Y101450D01*
X94622Y101435D01*
X94644Y101424D01*
X94666Y101413D01*
X94668Y101411D01*
X94672Y101410D01*
X94678Y101406D01*
X94686Y101402D01*
X94696Y101395D01*
X94708Y101386D01*
X94720Y101377D01*
X94734Y101366D01*
X94750Y101353D01*
X94765Y101341D01*
X94795Y101309D01*
X94825Y101271D01*
X94852Y101230D01*
X94854Y101228D01*
X94855Y101224D01*
X94858Y101219D01*
X94863Y101209D01*
X94868Y101198D01*
X94873Y101185D01*
X94880Y101171D01*
X94886Y101155D01*
X94892Y101137D01*
X94898Y101117D01*
X94909Y101076D01*
X94916Y101030D01*
X94917Y101006D01*
X94919Y100983D01*
Y100981D01*
Y100977D01*
Y100970D01*
X94917Y100961D01*
Y100949D01*
X94916Y100936D01*
X94913Y100920D01*
X94910Y100904D01*
X94902Y100866D01*
X94891Y100826D01*
X94874Y100782D01*
X94863Y100759D01*
X94852Y100737D01*
X94851Y100736D01*
X94849Y100732D01*
X94845Y100726D01*
X94840Y100718D01*
X94834Y100708D01*
X94826Y100697D01*
X94816Y100685D01*
X94805Y100671D01*
X94779Y100640D01*
X94748Y100610D01*
X94711Y100581D01*
X94669Y100554D01*
X94668D01*
X94664Y100551D01*
X94658Y100549D01*
X94648Y100545D01*
X94639Y100539D01*
X94626Y100533D01*
X94611Y100528D01*
X94594Y100522D01*
X94578Y100515D01*
X94558Y100510D01*
X94517Y100499D01*
X94471Y100492D01*
X94447Y100490D01*
X94424Y100489D01*
X94411D01*
X94402Y100490D01*
X94390D01*
X94377Y100493D01*
X94361Y100495D01*
X94345Y100497D01*
X94307Y100506D01*
X94267Y100517D01*
X94223Y100533D01*
X94200Y100543D01*
X94178Y100554D01*
X94177Y100556D01*
X94173Y100557D01*
X94167Y100561D01*
X94159Y100567D01*
X94149Y100574D01*
X94138Y100581D01*
X94126Y100590D01*
X94112Y100601D01*
X94081Y100628D01*
X94051Y100660D01*
X94022Y100696D01*
X93995Y100737D01*
Y100739D01*
X93992Y100743D01*
X93990Y100748D01*
X93985Y100758D01*
X93980Y100769D01*
X93974Y100782D01*
X93969Y100796D01*
X93963Y100812D01*
X93956Y100830D01*
X93951Y100850D01*
X93940Y100891D01*
X93933Y100936D01*
X93931Y100959D01*
X93930Y100983D01*
Y100984D01*
Y100988D01*
Y100995D01*
X93931Y101005D01*
Y101016D01*
X93934Y101030D01*
X93936Y101045D01*
X93938Y101062D01*
X93947Y101099D01*
X93958Y101141D01*
X93974Y101185D01*
X93984Y101207D01*
X93995Y101230D01*
X93997Y101231D01*
X93998Y101235D01*
X94002Y101241D01*
X94008Y101249D01*
X94015Y101259D01*
X94023Y101271D01*
X94033Y101284D01*
X94044Y101298D01*
X94070Y101327D01*
X94101Y101357D01*
X94138Y101386D01*
X94180Y101413D01*
X94181Y101414D01*
X94185Y101415D01*
X94192Y101418D01*
X94200Y101422D01*
X94212Y101428D01*
X94224Y101433D01*
X94239Y101439D01*
X94255Y101446D01*
X94273Y101452D01*
X94292Y101457D01*
X94334Y101468D01*
X94378Y101475D01*
X94400Y101478D01*
X94436D01*
X94445Y101476D01*
D02*
G37*
G36*
X97584Y100502D02*
X97466D01*
Y101198D01*
X97584D01*
Y100502D01*
D02*
G37*
G36*
X99207Y101212D02*
X99228Y101210D01*
X99251Y101207D01*
X99275Y101203D01*
X99298Y101198D01*
X99321Y101191D01*
X99323Y101189D01*
X99330Y101187D01*
X99340Y101182D01*
X99353Y101177D01*
X99366Y101169D01*
X99380Y101160D01*
X99393Y101149D01*
X99404Y101138D01*
X99405Y101137D01*
X99408Y101133D01*
X99412Y101126D01*
X99418Y101117D01*
X99425Y101105D01*
X99430Y101092D01*
X99436Y101077D01*
X99440Y101059D01*
Y101058D01*
X99441Y101053D01*
X99443Y101045D01*
X99444Y101034D01*
Y101019D01*
X99445Y101001D01*
X99447Y100977D01*
Y100951D01*
Y100793D01*
Y100791D01*
Y100786D01*
Y100778D01*
Y100766D01*
Y100754D01*
Y100739D01*
X99448Y100705D01*
Y100671D01*
X99450Y100636D01*
X99451Y100621D01*
Y100607D01*
X99452Y100594D01*
X99454Y100585D01*
Y100583D01*
X99455Y100578D01*
X99457Y100569D01*
X99461Y100558D01*
X99463Y100546D01*
X99469Y100532D01*
X99476Y100517D01*
X99483Y100502D01*
X99359D01*
X99358Y100503D01*
X99357Y100508D01*
X99354Y100515D01*
X99350Y100526D01*
X99346Y100539D01*
X99343Y100554D01*
X99340Y100571D01*
X99337Y100589D01*
X99336D01*
X99335Y100586D01*
X99326Y100579D01*
X99314Y100569D01*
X99297Y100557D01*
X99276Y100545D01*
X99255Y100531D01*
X99233Y100518D01*
X99210Y100508D01*
X99207Y100507D01*
X99199Y100506D01*
X99186Y100502D01*
X99171Y100497D01*
X99151Y100493D01*
X99129Y100490D01*
X99104Y100488D01*
X99079Y100486D01*
X99068D01*
X99060Y100488D01*
X99050D01*
X99039Y100489D01*
X99014Y100493D01*
X98986Y100500D01*
X98956Y100510D01*
X98928Y100524D01*
X98903Y100542D01*
X98900Y100545D01*
X98894Y100551D01*
X98884Y100564D01*
X98873Y100581D01*
X98862Y100601D01*
X98852Y100625D01*
X98845Y100654D01*
X98844Y100668D01*
X98842Y100685D01*
Y100687D01*
Y100693D01*
X98844Y100703D01*
X98845Y100715D01*
X98848Y100730D01*
X98852Y100746D01*
X98857Y100762D01*
X98864Y100778D01*
X98866Y100779D01*
X98869Y100784D01*
X98874Y100793D01*
X98881Y100802D01*
X98889Y100814D01*
X98900Y100825D01*
X98912Y100836D01*
X98925Y100845D01*
X98927Y100847D01*
X98932Y100850D01*
X98939Y100855D01*
X98950Y100861D01*
X98963Y100866D01*
X98978Y100873D01*
X98993Y100879D01*
X99011Y100884D01*
X99013D01*
X99018Y100886D01*
X99027Y100888D01*
X99038Y100890D01*
X99052Y100893D01*
X99070Y100895D01*
X99090Y100900D01*
X99115Y100902D01*
X99117D01*
X99122Y100904D01*
X99129D01*
X99139Y100905D01*
X99150Y100906D01*
X99164Y100909D01*
X99179Y100911D01*
X99196Y100913D01*
X99229Y100920D01*
X99265Y100927D01*
X99297Y100936D01*
X99312Y100940D01*
X99326Y100944D01*
Y100945D01*
Y100948D01*
X99328Y100956D01*
Y100966D01*
Y100972D01*
Y100974D01*
Y100976D01*
Y100977D01*
Y100986D01*
X99326Y100999D01*
X99323Y101015D01*
X99319Y101031D01*
X99312Y101048D01*
X99304Y101063D01*
X99293Y101076D01*
X99292Y101077D01*
X99285Y101083D01*
X99273Y101088D01*
X99260Y101096D01*
X99240Y101103D01*
X99218Y101110D01*
X99190Y101115D01*
X99158Y101116D01*
X99145D01*
X99131Y101115D01*
X99111Y101112D01*
X99092Y101109D01*
X99071Y101103D01*
X99052Y101096D01*
X99035Y101087D01*
X99034Y101085D01*
X99028Y101081D01*
X99021Y101074D01*
X99013Y101063D01*
X99004Y101049D01*
X98995Y101031D01*
X98986Y101009D01*
X98978Y100984D01*
X98863Y100999D01*
Y101001D01*
X98864Y101002D01*
Y101006D01*
X98866Y101012D01*
X98870Y101024D01*
X98875Y101042D01*
X98882Y101060D01*
X98891Y101080D01*
X98902Y101099D01*
X98914Y101117D01*
X98916Y101119D01*
X98921Y101124D01*
X98930Y101133D01*
X98941Y101144D01*
X98956Y101155D01*
X98974Y101166D01*
X98995Y101178D01*
X99018Y101188D01*
X99020D01*
X99021Y101189D01*
X99025Y101191D01*
X99031Y101192D01*
X99045Y101196D01*
X99064Y101201D01*
X99086Y101205D01*
X99114Y101209D01*
X99143Y101212D01*
X99176Y101213D01*
X99192D01*
X99207Y101212D01*
D02*
G37*
G36*
X101093Y100502D02*
X100960D01*
X100588Y101461D01*
X100727D01*
X100977Y100764D01*
Y100762D01*
X100978Y100759D01*
X100979Y100755D01*
X100982Y100750D01*
X100983Y100741D01*
X100986Y100733D01*
X100993Y100712D01*
X101002Y100689D01*
X101010Y100662D01*
X101026Y100607D01*
Y100608D01*
X101028Y100611D01*
X101029Y100615D01*
X101031Y100621D01*
X101035Y100636D01*
X101042Y100657D01*
X101049Y100680D01*
X101057Y100707D01*
X101067Y100735D01*
X101078Y100764D01*
X101339Y101461D01*
X101467D01*
X101093Y100502D01*
D02*
G37*
G36*
X117232D02*
X117119D01*
X116857Y101198D01*
X116982D01*
X117132Y100780D01*
Y100779D01*
X117133Y100778D01*
X117135Y100773D01*
X117136Y100769D01*
X117140Y100755D01*
X117146Y100737D01*
X117153Y100716D01*
X117161Y100693D01*
X117168Y100667D01*
X117176Y100640D01*
X117178Y100643D01*
X117179Y100650D01*
X117183Y100661D01*
X117187Y100678D01*
X117194Y100696D01*
X117201Y100719D01*
X117211Y100744D01*
X117221Y100772D01*
X117375Y101198D01*
X117497D01*
X117232Y100502D01*
D02*
G37*
G36*
X115323Y101212D02*
X115344Y101210D01*
X115366Y101207D01*
X115390Y101202D01*
X115415Y101196D01*
X115438Y101188D01*
X115440D01*
X115441Y101187D01*
X115448Y101184D01*
X115459Y101178D01*
X115473Y101171D01*
X115488Y101162D01*
X115504Y101151D01*
X115518Y101138D01*
X115530Y101124D01*
X115531Y101123D01*
X115534Y101117D01*
X115540Y101108D01*
X115547Y101096D01*
X115554Y101080D01*
X115561Y101062D01*
X115566Y101041D01*
X115572Y101017D01*
X115457Y101002D01*
Y101005D01*
X115455Y101010D01*
X115452Y101020D01*
X115448Y101033D01*
X115441Y101045D01*
X115433Y101059D01*
X115423Y101073D01*
X115409Y101085D01*
X115408Y101087D01*
X115402Y101090D01*
X115394Y101095D01*
X115382Y101101D01*
X115368Y101106D01*
X115350Y101112D01*
X115328Y101115D01*
X115304Y101116D01*
X115290D01*
X115276Y101115D01*
X115258Y101113D01*
X115240Y101109D01*
X115221Y101105D01*
X115203Y101098D01*
X115187Y101088D01*
X115186Y101087D01*
X115182Y101084D01*
X115176Y101078D01*
X115171Y101070D01*
X115164Y101062D01*
X115158Y101051D01*
X115154Y101038D01*
X115153Y101026D01*
Y101024D01*
Y101022D01*
X115154Y101017D01*
Y101012D01*
X115158Y100998D01*
X115167Y100984D01*
X115168Y100983D01*
X115169Y100981D01*
X115172Y100977D01*
X115178Y100973D01*
X115183Y100969D01*
X115192Y100963D01*
X115201Y100959D01*
X115212Y100954D01*
X115214D01*
X115217Y100952D01*
X115222Y100951D01*
X115232Y100947D01*
X115246Y100943D01*
X115264Y100938D01*
X115275Y100934D01*
X115287Y100931D01*
X115301Y100927D01*
X115316Y100923D01*
X115318D01*
X115322Y100922D01*
X115329Y100920D01*
X115337Y100918D01*
X115347Y100915D01*
X115359Y100912D01*
X115386Y100904D01*
X115415Y100895D01*
X115444Y100886D01*
X115470Y100876D01*
X115481Y100872D01*
X115491Y100868D01*
X115494Y100866D01*
X115500Y100864D01*
X115508Y100859D01*
X115520Y100852D01*
X115533Y100844D01*
X115545Y100833D01*
X115558Y100821D01*
X115569Y100807D01*
X115570Y100805D01*
X115573Y100800D01*
X115579Y100791D01*
X115584Y100779D01*
X115588Y100764D01*
X115594Y100747D01*
X115597Y100728D01*
X115598Y100705D01*
Y100703D01*
Y100696D01*
X115597Y100685D01*
X115594Y100669D01*
X115590Y100653D01*
X115583Y100635D01*
X115574Y100614D01*
X115563Y100594D01*
X115562Y100592D01*
X115556Y100586D01*
X115549Y100576D01*
X115538Y100565D01*
X115523Y100553D01*
X115506Y100539D01*
X115487Y100526D01*
X115463Y100514D01*
X115462D01*
X115461Y100513D01*
X115452Y100510D01*
X115438Y100506D01*
X115420Y100500D01*
X115398Y100495D01*
X115373Y100490D01*
X115347Y100488D01*
X115316Y100486D01*
X115304D01*
X115294Y100488D01*
X115283D01*
X115269Y100489D01*
X115255Y100490D01*
X115240Y100493D01*
X115207Y100500D01*
X115172Y100510D01*
X115139Y100524D01*
X115124Y100532D01*
X115110Y100542D01*
X115108Y100543D01*
X115107Y100545D01*
X115099Y100553D01*
X115086Y100565D01*
X115072Y100585D01*
X115057Y100608D01*
X115042Y100636D01*
X115029Y100671D01*
X115020Y100710D01*
X115136Y100728D01*
Y100726D01*
Y100725D01*
X115139Y100716D01*
X115142Y100703D01*
X115147Y100687D01*
X115154Y100671D01*
X115163Y100653D01*
X115175Y100635D01*
X115190Y100619D01*
X115193Y100618D01*
X115199Y100614D01*
X115210Y100608D01*
X115224Y100601D01*
X115242Y100594D01*
X115262Y100589D01*
X115287Y100585D01*
X115316Y100583D01*
X115330D01*
X115344Y100585D01*
X115362Y100588D01*
X115382Y100592D01*
X115402Y100597D01*
X115420Y100604D01*
X115437Y100615D01*
X115438Y100617D01*
X115444Y100621D01*
X115450Y100628D01*
X115458Y100637D01*
X115465Y100649D01*
X115472Y100662D01*
X115476Y100676D01*
X115477Y100693D01*
Y100694D01*
Y100700D01*
X115476Y100707D01*
X115473Y100716D01*
X115469Y100726D01*
X115462Y100736D01*
X115454Y100747D01*
X115441Y100755D01*
X115440Y100757D01*
X115436Y100758D01*
X115429Y100762D01*
X115418Y100766D01*
X115401Y100772D01*
X115391Y100776D01*
X115380Y100779D01*
X115368Y100783D01*
X115354Y100787D01*
X115339Y100791D01*
X115321Y100796D01*
X115319D01*
X115315Y100797D01*
X115308Y100798D01*
X115300Y100801D01*
X115289Y100804D01*
X115276Y100808D01*
X115250Y100815D01*
X115219Y100825D01*
X115190Y100833D01*
X115163Y100843D01*
X115150Y100848D01*
X115140Y100852D01*
X115138Y100854D01*
X115132Y100857D01*
X115124Y100862D01*
X115113Y100869D01*
X115100Y100879D01*
X115088Y100890D01*
X115075Y100902D01*
X115064Y100918D01*
X115063Y100919D01*
X115060Y100925D01*
X115056Y100934D01*
X115052Y100945D01*
X115047Y100959D01*
X115043Y100976D01*
X115040Y100992D01*
X115039Y101012D01*
Y101015D01*
Y101020D01*
X115040Y101029D01*
X115042Y101041D01*
X115045Y101053D01*
X115047Y101069D01*
X115053Y101083D01*
X115060Y101098D01*
X115061Y101099D01*
X115064Y101105D01*
X115068Y101112D01*
X115075Y101121D01*
X115083Y101131D01*
X115093Y101144D01*
X115104Y101155D01*
X115118Y101164D01*
X115120Y101166D01*
X115124Y101167D01*
X115129Y101171D01*
X115138Y101176D01*
X115149Y101181D01*
X115161Y101187D01*
X115176Y101192D01*
X115193Y101198D01*
X115196Y101199D01*
X115201Y101201D01*
X115211Y101203D01*
X115224Y101206D01*
X115239Y101209D01*
X115255Y101210D01*
X115275Y101213D01*
X115308D01*
X115323Y101212D01*
D02*
G37*
G36*
X116046D02*
X116057Y101210D01*
X116071Y101207D01*
X116086Y101205D01*
X116104Y101201D01*
X116121Y101196D01*
X116140Y101189D01*
X116158Y101182D01*
X116178Y101173D01*
X116197Y101162D01*
X116217Y101149D01*
X116235Y101134D01*
X116251Y101117D01*
X116253Y101116D01*
X116255Y101113D01*
X116260Y101108D01*
X116265Y101099D01*
X116272Y101090D01*
X116279Y101078D01*
X116287Y101065D01*
X116296Y101048D01*
X116304Y101030D01*
X116312Y101010D01*
X116319Y100988D01*
X116326Y100965D01*
X116332Y100938D01*
X116336Y100911D01*
X116339Y100882D01*
X116340Y100850D01*
Y100848D01*
Y100843D01*
Y100833D01*
X116339Y100819D01*
X115818D01*
Y100818D01*
Y100814D01*
X115820Y100808D01*
Y100800D01*
X115821Y100790D01*
X115824Y100779D01*
X115828Y100754D01*
X115837Y100726D01*
X115848Y100696D01*
X115863Y100668D01*
X115882Y100643D01*
X115884D01*
X115885Y100640D01*
X115893Y100633D01*
X115906Y100624D01*
X115923Y100614D01*
X115945Y100603D01*
X115970Y100593D01*
X115997Y100586D01*
X116013Y100585D01*
X116029Y100583D01*
X116040D01*
X116053Y100585D01*
X116068Y100588D01*
X116085Y100592D01*
X116104Y100597D01*
X116122Y100606D01*
X116140Y100617D01*
X116142Y100618D01*
X116149Y100624D01*
X116157Y100632D01*
X116167Y100643D01*
X116178Y100658D01*
X116190Y100678D01*
X116203Y100700D01*
X116214Y100726D01*
X116336Y100711D01*
Y100710D01*
X116334Y100707D01*
X116333Y100701D01*
X116330Y100693D01*
X116326Y100685D01*
X116322Y100674D01*
X116311Y100650D01*
X116297Y100624D01*
X116278Y100596D01*
X116255Y100569D01*
X116228Y100545D01*
X116226D01*
X116223Y100542D01*
X116219Y100539D01*
X116214Y100535D01*
X116205Y100531D01*
X116197Y100526D01*
X116186Y100521D01*
X116174Y100515D01*
X116160Y100510D01*
X116146Y100504D01*
X116111Y100496D01*
X116072Y100489D01*
X116029Y100486D01*
X116014D01*
X116004Y100488D01*
X115992Y100489D01*
X115977Y100492D01*
X115960Y100495D01*
X115942Y100497D01*
X115903Y100508D01*
X115882Y100517D01*
X115863Y100525D01*
X115842Y100536D01*
X115823Y100549D01*
X115805Y100563D01*
X115787Y100579D01*
X115785Y100581D01*
X115782Y100583D01*
X115778Y100589D01*
X115773Y100597D01*
X115766Y100607D01*
X115759Y100618D01*
X115751Y100632D01*
X115742Y100647D01*
X115734Y100665D01*
X115726Y100685D01*
X115719Y100707D01*
X115712Y100730D01*
X115706Y100755D01*
X115702Y100783D01*
X115699Y100812D01*
X115698Y100843D01*
Y100844D01*
Y100851D01*
Y100859D01*
X115699Y100872D01*
X115701Y100887D01*
X115702Y100904D01*
X115705Y100923D01*
X115709Y100943D01*
X115720Y100987D01*
X115727Y101009D01*
X115735Y101033D01*
X115746Y101055D01*
X115759Y101076D01*
X115773Y101096D01*
X115788Y101116D01*
X115789Y101117D01*
X115792Y101120D01*
X115798Y101124D01*
X115805Y101131D01*
X115813Y101138D01*
X115824Y101146D01*
X115837Y101156D01*
X115852Y101164D01*
X115867Y101174D01*
X115885Y101182D01*
X115904Y101191D01*
X115925Y101198D01*
X115947Y101205D01*
X115971Y101209D01*
X115996Y101212D01*
X116022Y101213D01*
X116036D01*
X116046Y101212D01*
D02*
G37*
G36*
X98509D02*
X98519D01*
X98529Y101210D01*
X98552Y101206D01*
X98577Y101199D01*
X98604Y101188D01*
X98630Y101174D01*
X98652Y101155D01*
X98655Y101152D01*
X98661Y101144D01*
X98670Y101131D01*
X98674Y101121D01*
X98680Y101112D01*
X98685Y101099D01*
X98690Y101087D01*
X98695Y101073D01*
X98699Y101056D01*
X98702Y101040D01*
X98705Y101020D01*
X98708Y101001D01*
Y100979D01*
Y100502D01*
X98590D01*
Y100938D01*
Y100940D01*
Y100941D01*
Y100949D01*
Y100962D01*
X98588Y100977D01*
X98587Y100994D01*
X98586Y101010D01*
X98583Y101027D01*
X98579Y101040D01*
Y101041D01*
X98576Y101045D01*
X98573Y101051D01*
X98569Y101058D01*
X98563Y101066D01*
X98557Y101074D01*
X98548Y101083D01*
X98537Y101091D01*
X98536Y101092D01*
X98532Y101094D01*
X98526Y101096D01*
X98516Y101101D01*
X98507Y101105D01*
X98494Y101108D01*
X98482Y101109D01*
X98466Y101110D01*
X98459D01*
X98454Y101109D01*
X98440Y101108D01*
X98423Y101105D01*
X98404Y101098D01*
X98383Y101090D01*
X98362Y101077D01*
X98343Y101060D01*
X98342Y101058D01*
X98336Y101051D01*
X98328Y101040D01*
X98319Y101023D01*
X98310Y101001D01*
X98303Y100974D01*
X98297Y100943D01*
X98294Y100905D01*
Y100502D01*
X98176D01*
Y100952D01*
Y100954D01*
Y100956D01*
Y100959D01*
Y100965D01*
X98175Y100980D01*
X98172Y100997D01*
X98170Y101016D01*
X98164Y101035D01*
X98157Y101053D01*
X98147Y101070D01*
X98146Y101072D01*
X98142Y101077D01*
X98135Y101083D01*
X98125Y101091D01*
X98113Y101098D01*
X98096Y101105D01*
X98077Y101109D01*
X98053Y101110D01*
X98045D01*
X98035Y101109D01*
X98024Y101108D01*
X98010Y101103D01*
X97993Y101099D01*
X97978Y101092D01*
X97962Y101084D01*
X97960Y101083D01*
X97955Y101078D01*
X97948Y101073D01*
X97938Y101065D01*
X97928Y101053D01*
X97919Y101040D01*
X97909Y101024D01*
X97901Y101006D01*
X97899Y101004D01*
X97898Y100997D01*
X97895Y100986D01*
X97891Y100970D01*
X97887Y100949D01*
X97884Y100925D01*
X97882Y100895D01*
X97881Y100862D01*
Y100502D01*
X97763D01*
Y101198D01*
X97869D01*
Y101098D01*
X97870Y101101D01*
X97874Y101106D01*
X97882Y101116D01*
X97892Y101127D01*
X97905Y101141D01*
X97920Y101155D01*
X97937Y101169D01*
X97956Y101181D01*
X97959Y101182D01*
X97966Y101187D01*
X97977Y101191D01*
X97992Y101198D01*
X98010Y101203D01*
X98031Y101207D01*
X98054Y101212D01*
X98079Y101213D01*
X98092D01*
X98107Y101212D01*
X98124Y101209D01*
X98145Y101205D01*
X98165Y101199D01*
X98186Y101191D01*
X98206Y101180D01*
X98208Y101178D01*
X98214Y101174D01*
X98222Y101167D01*
X98233Y101156D01*
X98244Y101144D01*
X98257Y101128D01*
X98268Y101110D01*
X98276Y101090D01*
X98278Y101091D01*
X98281Y101095D01*
X98285Y101101D01*
X98292Y101109D01*
X98300Y101119D01*
X98310Y101128D01*
X98321Y101139D01*
X98335Y101152D01*
X98350Y101163D01*
X98365Y101174D01*
X98383Y101184D01*
X98403Y101194D01*
X98423Y101202D01*
X98446Y101207D01*
X98468Y101212D01*
X98493Y101213D01*
X98502D01*
X98509Y101212D01*
D02*
G37*
G36*
X113086D02*
X113107Y101210D01*
X113129Y101207D01*
X113153Y101202D01*
X113178Y101196D01*
X113202Y101188D01*
X113203D01*
X113204Y101187D01*
X113211Y101184D01*
X113222Y101178D01*
X113236Y101171D01*
X113251Y101162D01*
X113267Y101151D01*
X113281Y101138D01*
X113293Y101124D01*
X113294Y101123D01*
X113297Y101117D01*
X113303Y101108D01*
X113310Y101096D01*
X113317Y101080D01*
X113324Y101062D01*
X113329Y101041D01*
X113335Y101017D01*
X113220Y101002D01*
Y101005D01*
X113218Y101010D01*
X113215Y101020D01*
X113211Y101033D01*
X113204Y101045D01*
X113196Y101059D01*
X113186Y101073D01*
X113172Y101085D01*
X113171Y101087D01*
X113165Y101090D01*
X113157Y101095D01*
X113145Y101101D01*
X113131Y101106D01*
X113113Y101112D01*
X113091Y101115D01*
X113067Y101116D01*
X113053D01*
X113039Y101115D01*
X113021Y101113D01*
X113003Y101109D01*
X112984Y101105D01*
X112966Y101098D01*
X112951Y101088D01*
X112949Y101087D01*
X112945Y101084D01*
X112939Y101078D01*
X112934Y101070D01*
X112927Y101062D01*
X112921Y101051D01*
X112917Y101038D01*
X112916Y101026D01*
Y101024D01*
Y101022D01*
X112917Y101017D01*
Y101012D01*
X112921Y100998D01*
X112930Y100984D01*
X112931Y100983D01*
X112932Y100981D01*
X112935Y100977D01*
X112941Y100973D01*
X112946Y100969D01*
X112955Y100963D01*
X112964Y100959D01*
X112975Y100954D01*
X112977D01*
X112980Y100952D01*
X112985Y100951D01*
X112995Y100947D01*
X113009Y100943D01*
X113027Y100938D01*
X113038Y100934D01*
X113050Y100931D01*
X113064Y100927D01*
X113079Y100923D01*
X113081D01*
X113085Y100922D01*
X113092Y100920D01*
X113100Y100918D01*
X113110Y100915D01*
X113122Y100912D01*
X113149Y100904D01*
X113178Y100895D01*
X113207Y100886D01*
X113233Y100876D01*
X113245Y100872D01*
X113254Y100868D01*
X113257Y100866D01*
X113263Y100864D01*
X113271Y100859D01*
X113283Y100852D01*
X113296Y100844D01*
X113308Y100833D01*
X113321Y100821D01*
X113332Y100807D01*
X113333Y100805D01*
X113336Y100800D01*
X113342Y100791D01*
X113347Y100779D01*
X113351Y100764D01*
X113357Y100747D01*
X113360Y100728D01*
X113361Y100705D01*
Y100703D01*
Y100696D01*
X113360Y100685D01*
X113357Y100669D01*
X113353Y100653D01*
X113346Y100635D01*
X113337Y100614D01*
X113326Y100594D01*
X113325Y100592D01*
X113319Y100586D01*
X113312Y100576D01*
X113301Y100565D01*
X113286Y100553D01*
X113269Y100539D01*
X113250Y100526D01*
X113226Y100514D01*
X113225D01*
X113224Y100513D01*
X113215Y100510D01*
X113202Y100506D01*
X113184Y100500D01*
X113161Y100495D01*
X113136Y100490D01*
X113110Y100488D01*
X113079Y100486D01*
X113067D01*
X113057Y100488D01*
X113046D01*
X113032Y100489D01*
X113018Y100490D01*
X113003Y100493D01*
X112970Y100500D01*
X112935Y100510D01*
X112902Y100524D01*
X112887Y100532D01*
X112873Y100542D01*
X112871Y100543D01*
X112870Y100545D01*
X112862Y100553D01*
X112849Y100565D01*
X112835Y100585D01*
X112820Y100608D01*
X112805Y100636D01*
X112792Y100671D01*
X112783Y100710D01*
X112899Y100728D01*
Y100726D01*
Y100725D01*
X112902Y100716D01*
X112905Y100703D01*
X112910Y100687D01*
X112917Y100671D01*
X112926Y100653D01*
X112938Y100635D01*
X112953Y100619D01*
X112956Y100618D01*
X112962Y100614D01*
X112973Y100608D01*
X112987Y100601D01*
X113005Y100594D01*
X113025Y100589D01*
X113050Y100585D01*
X113079Y100583D01*
X113093D01*
X113107Y100585D01*
X113125Y100588D01*
X113145Y100592D01*
X113165Y100597D01*
X113184Y100604D01*
X113200Y100615D01*
X113202Y100617D01*
X113207Y100621D01*
X113213Y100628D01*
X113221Y100637D01*
X113228Y100649D01*
X113235Y100662D01*
X113239Y100676D01*
X113240Y100693D01*
Y100694D01*
Y100700D01*
X113239Y100707D01*
X113236Y100716D01*
X113232Y100726D01*
X113225Y100736D01*
X113217Y100747D01*
X113204Y100755D01*
X113203Y100757D01*
X113199Y100758D01*
X113192Y100762D01*
X113181Y100766D01*
X113164Y100772D01*
X113154Y100776D01*
X113143Y100779D01*
X113131Y100783D01*
X113117Y100787D01*
X113102Y100791D01*
X113084Y100796D01*
X113082D01*
X113078Y100797D01*
X113071Y100798D01*
X113063Y100801D01*
X113052Y100804D01*
X113039Y100808D01*
X113013Y100815D01*
X112982Y100825D01*
X112953Y100833D01*
X112926Y100843D01*
X112913Y100848D01*
X112903Y100852D01*
X112901Y100854D01*
X112895Y100857D01*
X112887Y100862D01*
X112876Y100869D01*
X112863Y100879D01*
X112851Y100890D01*
X112838Y100902D01*
X112827Y100918D01*
X112826Y100919D01*
X112823Y100925D01*
X112819Y100934D01*
X112815Y100945D01*
X112810Y100959D01*
X112806Y100976D01*
X112804Y100992D01*
X112802Y101012D01*
Y101015D01*
Y101020D01*
X112804Y101029D01*
X112805Y101041D01*
X112808Y101053D01*
X112810Y101069D01*
X112816Y101083D01*
X112823Y101098D01*
X112824Y101099D01*
X112827Y101105D01*
X112831Y101112D01*
X112838Y101121D01*
X112846Y101131D01*
X112856Y101144D01*
X112867Y101155D01*
X112881Y101164D01*
X112883Y101166D01*
X112887Y101167D01*
X112892Y101171D01*
X112901Y101176D01*
X112912Y101181D01*
X112924Y101187D01*
X112939Y101192D01*
X112956Y101198D01*
X112959Y101199D01*
X112964Y101201D01*
X112974Y101203D01*
X112987Y101206D01*
X113002Y101209D01*
X113018Y101210D01*
X113038Y101213D01*
X113071D01*
X113086Y101212D01*
D02*
G37*
G36*
X117910D02*
X117921Y101210D01*
X117935Y101207D01*
X117950Y101205D01*
X117968Y101201D01*
X117985Y101196D01*
X118004Y101189D01*
X118022Y101182D01*
X118042Y101173D01*
X118061Y101162D01*
X118080Y101149D01*
X118098Y101134D01*
X118115Y101117D01*
X118116Y101116D01*
X118119Y101113D01*
X118123Y101108D01*
X118129Y101099D01*
X118136Y101090D01*
X118143Y101078D01*
X118151Y101065D01*
X118159Y101048D01*
X118168Y101030D01*
X118176Y101010D01*
X118183Y100988D01*
X118190Y100965D01*
X118196Y100938D01*
X118200Y100911D01*
X118202Y100882D01*
X118204Y100850D01*
Y100848D01*
Y100843D01*
Y100833D01*
X118202Y100819D01*
X117682D01*
Y100818D01*
Y100814D01*
X117684Y100808D01*
Y100800D01*
X117685Y100790D01*
X117688Y100779D01*
X117692Y100754D01*
X117700Y100726D01*
X117712Y100696D01*
X117727Y100668D01*
X117746Y100643D01*
X117748D01*
X117749Y100640D01*
X117757Y100633D01*
X117770Y100624D01*
X117786Y100614D01*
X117809Y100603D01*
X117834Y100593D01*
X117861Y100586D01*
X117877Y100585D01*
X117893Y100583D01*
X117904D01*
X117917Y100585D01*
X117932Y100588D01*
X117949Y100592D01*
X117968Y100597D01*
X117986Y100606D01*
X118004Y100617D01*
X118006Y100618D01*
X118012Y100624D01*
X118021Y100632D01*
X118031Y100643D01*
X118042Y100658D01*
X118054Y100678D01*
X118067Y100700D01*
X118078Y100726D01*
X118200Y100711D01*
Y100710D01*
X118198Y100707D01*
X118197Y100701D01*
X118194Y100693D01*
X118190Y100685D01*
X118186Y100674D01*
X118175Y100650D01*
X118161Y100624D01*
X118141Y100596D01*
X118119Y100569D01*
X118092Y100545D01*
X118090D01*
X118087Y100542D01*
X118083Y100539D01*
X118078Y100535D01*
X118069Y100531D01*
X118061Y100526D01*
X118050Y100521D01*
X118037Y100515D01*
X118024Y100510D01*
X118010Y100504D01*
X117975Y100496D01*
X117936Y100489D01*
X117893Y100486D01*
X117878D01*
X117868Y100488D01*
X117856Y100489D01*
X117841Y100492D01*
X117824Y100495D01*
X117806Y100497D01*
X117767Y100508D01*
X117746Y100517D01*
X117727Y100525D01*
X117706Y100536D01*
X117687Y100549D01*
X117669Y100563D01*
X117651Y100579D01*
X117649Y100581D01*
X117646Y100583D01*
X117642Y100589D01*
X117637Y100597D01*
X117630Y100607D01*
X117623Y100618D01*
X117614Y100632D01*
X117606Y100647D01*
X117598Y100665D01*
X117589Y100685D01*
X117583Y100707D01*
X117576Y100730D01*
X117570Y100755D01*
X117566Y100783D01*
X117563Y100812D01*
X117562Y100843D01*
Y100844D01*
Y100851D01*
Y100859D01*
X117563Y100872D01*
X117565Y100887D01*
X117566Y100904D01*
X117569Y100923D01*
X117573Y100943D01*
X117584Y100987D01*
X117591Y101009D01*
X117599Y101033D01*
X117610Y101055D01*
X117623Y101076D01*
X117637Y101096D01*
X117652Y101116D01*
X117653Y101117D01*
X117656Y101120D01*
X117662Y101124D01*
X117669Y101131D01*
X117677Y101138D01*
X117688Y101146D01*
X117700Y101156D01*
X117716Y101164D01*
X117731Y101174D01*
X117749Y101182D01*
X117768Y101191D01*
X117789Y101198D01*
X117811Y101205D01*
X117835Y101209D01*
X117860Y101212D01*
X117886Y101213D01*
X117900D01*
X117910Y101212D01*
D02*
G37*
G36*
X99885D02*
X99906Y101210D01*
X99928Y101207D01*
X99952Y101202D01*
X99977Y101196D01*
X100000Y101188D01*
X100002D01*
X100003Y101187D01*
X100010Y101184D01*
X100021Y101178D01*
X100035Y101171D01*
X100050Y101162D01*
X100065Y101151D01*
X100079Y101138D01*
X100092Y101124D01*
X100093Y101123D01*
X100096Y101117D01*
X100101Y101108D01*
X100108Y101096D01*
X100115Y101080D01*
X100122Y101062D01*
X100128Y101041D01*
X100133Y101017D01*
X100018Y101002D01*
Y101005D01*
X100017Y101010D01*
X100014Y101020D01*
X100010Y101033D01*
X100003Y101045D01*
X99995Y101059D01*
X99985Y101073D01*
X99971Y101085D01*
X99970Y101087D01*
X99964Y101090D01*
X99956Y101095D01*
X99943Y101101D01*
X99929Y101106D01*
X99911Y101112D01*
X99889Y101115D01*
X99866Y101116D01*
X99852D01*
X99838Y101115D01*
X99820Y101113D01*
X99802Y101109D01*
X99782Y101105D01*
X99764Y101098D01*
X99749Y101088D01*
X99748Y101087D01*
X99744Y101084D01*
X99738Y101078D01*
X99733Y101070D01*
X99726Y101062D01*
X99720Y101051D01*
X99716Y101038D01*
X99715Y101026D01*
Y101024D01*
Y101022D01*
X99716Y101017D01*
Y101012D01*
X99720Y100998D01*
X99728Y100984D01*
X99730Y100983D01*
X99731Y100981D01*
X99734Y100977D01*
X99739Y100973D01*
X99745Y100969D01*
X99753Y100963D01*
X99763Y100959D01*
X99774Y100954D01*
X99776D01*
X99778Y100952D01*
X99784Y100951D01*
X99794Y100947D01*
X99807Y100943D01*
X99825Y100938D01*
X99837Y100934D01*
X99849Y100931D01*
X99863Y100927D01*
X99878Y100923D01*
X99880D01*
X99884Y100922D01*
X99891Y100920D01*
X99899Y100918D01*
X99909Y100915D01*
X99921Y100912D01*
X99948Y100904D01*
X99977Y100895D01*
X100006Y100886D01*
X100032Y100876D01*
X100043Y100872D01*
X100053Y100868D01*
X100056Y100866D01*
X100061Y100864D01*
X100070Y100859D01*
X100082Y100852D01*
X100094Y100844D01*
X100107Y100833D01*
X100119Y100821D01*
X100131Y100807D01*
X100132Y100805D01*
X100135Y100800D01*
X100140Y100791D01*
X100146Y100779D01*
X100150Y100764D01*
X100156Y100747D01*
X100158Y100728D01*
X100160Y100705D01*
Y100703D01*
Y100696D01*
X100158Y100685D01*
X100156Y100669D01*
X100151Y100653D01*
X100144Y100635D01*
X100136Y100614D01*
X100125Y100594D01*
X100124Y100592D01*
X100118Y100586D01*
X100111Y100576D01*
X100100Y100565D01*
X100085Y100553D01*
X100068Y100539D01*
X100049Y100526D01*
X100025Y100514D01*
X100024D01*
X100022Y100513D01*
X100014Y100510D01*
X100000Y100506D01*
X99982Y100500D01*
X99960Y100495D01*
X99935Y100490D01*
X99909Y100488D01*
X99878Y100486D01*
X99866D01*
X99856Y100488D01*
X99845D01*
X99831Y100489D01*
X99817Y100490D01*
X99802Y100493D01*
X99769Y100500D01*
X99734Y100510D01*
X99701Y100524D01*
X99685Y100532D01*
X99672Y100542D01*
X99670Y100543D01*
X99669Y100545D01*
X99660Y100553D01*
X99648Y100565D01*
X99634Y100585D01*
X99619Y100608D01*
X99604Y100636D01*
X99591Y100671D01*
X99581Y100710D01*
X99698Y100728D01*
Y100726D01*
Y100725D01*
X99701Y100716D01*
X99703Y100703D01*
X99709Y100687D01*
X99716Y100671D01*
X99724Y100653D01*
X99737Y100635D01*
X99752Y100619D01*
X99755Y100618D01*
X99760Y100614D01*
X99771Y100608D01*
X99785Y100601D01*
X99803Y100594D01*
X99824Y100589D01*
X99849Y100585D01*
X99878Y100583D01*
X99892D01*
X99906Y100585D01*
X99924Y100588D01*
X99943Y100592D01*
X99964Y100597D01*
X99982Y100604D01*
X99999Y100615D01*
X100000Y100617D01*
X100006Y100621D01*
X100011Y100628D01*
X100020Y100637D01*
X100027Y100649D01*
X100033Y100662D01*
X100038Y100676D01*
X100039Y100693D01*
Y100694D01*
Y100700D01*
X100038Y100707D01*
X100035Y100716D01*
X100031Y100726D01*
X100024Y100736D01*
X100015Y100747D01*
X100003Y100755D01*
X100002Y100757D01*
X99997Y100758D01*
X99990Y100762D01*
X99979Y100766D01*
X99963Y100772D01*
X99953Y100776D01*
X99942Y100779D01*
X99929Y100783D01*
X99916Y100787D01*
X99900Y100791D01*
X99882Y100796D01*
X99881D01*
X99877Y100797D01*
X99870Y100798D01*
X99862Y100801D01*
X99850Y100804D01*
X99838Y100808D01*
X99812Y100815D01*
X99781Y100825D01*
X99752Y100833D01*
X99724Y100843D01*
X99712Y100848D01*
X99702Y100852D01*
X99699Y100854D01*
X99694Y100857D01*
X99685Y100862D01*
X99674Y100869D01*
X99662Y100879D01*
X99649Y100890D01*
X99637Y100902D01*
X99626Y100918D01*
X99624Y100919D01*
X99622Y100925D01*
X99617Y100934D01*
X99613Y100945D01*
X99609Y100959D01*
X99605Y100976D01*
X99602Y100992D01*
X99601Y101012D01*
Y101015D01*
Y101020D01*
X99602Y101029D01*
X99604Y101041D01*
X99606Y101053D01*
X99609Y101069D01*
X99615Y101083D01*
X99622Y101098D01*
X99623Y101099D01*
X99626Y101105D01*
X99630Y101112D01*
X99637Y101121D01*
X99645Y101131D01*
X99655Y101144D01*
X99666Y101155D01*
X99680Y101164D01*
X99681Y101166D01*
X99685Y101167D01*
X99691Y101171D01*
X99699Y101176D01*
X99710Y101181D01*
X99723Y101187D01*
X99738Y101192D01*
X99755Y101198D01*
X99757Y101199D01*
X99763Y101201D01*
X99773Y101203D01*
X99785Y101206D01*
X99800Y101209D01*
X99817Y101210D01*
X99837Y101213D01*
X99870D01*
X99885Y101212D01*
D02*
G37*
G36*
X103838D02*
X103858Y101210D01*
X103881Y101207D01*
X103904Y101202D01*
X103929Y101196D01*
X103953Y101188D01*
X103954D01*
X103955Y101187D01*
X103962Y101184D01*
X103974Y101178D01*
X103987Y101171D01*
X104003Y101162D01*
X104018Y101151D01*
X104032Y101138D01*
X104044Y101124D01*
X104046Y101123D01*
X104048Y101117D01*
X104054Y101108D01*
X104061Y101096D01*
X104068Y101080D01*
X104075Y101062D01*
X104080Y101041D01*
X104086Y101017D01*
X103971Y101002D01*
Y101005D01*
X103969Y101010D01*
X103967Y101020D01*
X103962Y101033D01*
X103955Y101045D01*
X103947Y101059D01*
X103937Y101073D01*
X103924Y101085D01*
X103922Y101087D01*
X103917Y101090D01*
X103908Y101095D01*
X103896Y101101D01*
X103882Y101106D01*
X103864Y101112D01*
X103842Y101115D01*
X103818Y101116D01*
X103804D01*
X103790Y101115D01*
X103772Y101113D01*
X103754Y101109D01*
X103735Y101105D01*
X103717Y101098D01*
X103702Y101088D01*
X103700Y101087D01*
X103696Y101084D01*
X103691Y101078D01*
X103685Y101070D01*
X103678Y101062D01*
X103673Y101051D01*
X103668Y101038D01*
X103667Y101026D01*
Y101024D01*
Y101022D01*
X103668Y101017D01*
Y101012D01*
X103673Y100998D01*
X103681Y100984D01*
X103682Y100983D01*
X103684Y100981D01*
X103686Y100977D01*
X103692Y100973D01*
X103698Y100969D01*
X103706Y100963D01*
X103716Y100959D01*
X103727Y100954D01*
X103728D01*
X103731Y100952D01*
X103736Y100951D01*
X103746Y100947D01*
X103760Y100943D01*
X103778Y100938D01*
X103789Y100934D01*
X103802Y100931D01*
X103815Y100927D01*
X103831Y100923D01*
X103832D01*
X103836Y100922D01*
X103843Y100920D01*
X103851Y100918D01*
X103861Y100915D01*
X103874Y100912D01*
X103900Y100904D01*
X103929Y100895D01*
X103958Y100886D01*
X103985Y100876D01*
X103996Y100872D01*
X104005Y100868D01*
X104008Y100866D01*
X104014Y100864D01*
X104022Y100859D01*
X104035Y100852D01*
X104047Y100844D01*
X104059Y100833D01*
X104072Y100821D01*
X104083Y100807D01*
X104084Y100805D01*
X104087Y100800D01*
X104093Y100791D01*
X104098Y100779D01*
X104102Y100764D01*
X104108Y100747D01*
X104111Y100728D01*
X104112Y100705D01*
Y100703D01*
Y100696D01*
X104111Y100685D01*
X104108Y100669D01*
X104104Y100653D01*
X104097Y100635D01*
X104089Y100614D01*
X104078Y100594D01*
X104076Y100592D01*
X104071Y100586D01*
X104064Y100576D01*
X104053Y100565D01*
X104037Y100553D01*
X104021Y100539D01*
X104001Y100526D01*
X103978Y100514D01*
X103976D01*
X103975Y100513D01*
X103967Y100510D01*
X103953Y100506D01*
X103935Y100500D01*
X103912Y100495D01*
X103888Y100490D01*
X103861Y100488D01*
X103831Y100486D01*
X103818D01*
X103808Y100488D01*
X103797D01*
X103784Y100489D01*
X103770Y100490D01*
X103754Y100493D01*
X103721Y100500D01*
X103686Y100510D01*
X103653Y100524D01*
X103638Y100532D01*
X103624Y100542D01*
X103623Y100543D01*
X103621Y100545D01*
X103613Y100553D01*
X103600Y100565D01*
X103587Y100585D01*
X103571Y100608D01*
X103556Y100636D01*
X103544Y100671D01*
X103534Y100710D01*
X103650Y100728D01*
Y100726D01*
Y100725D01*
X103653Y100716D01*
X103656Y100703D01*
X103661Y100687D01*
X103668Y100671D01*
X103677Y100653D01*
X103689Y100635D01*
X103704Y100619D01*
X103707Y100618D01*
X103713Y100614D01*
X103724Y100608D01*
X103738Y100601D01*
X103756Y100594D01*
X103777Y100589D01*
X103802Y100585D01*
X103831Y100583D01*
X103845D01*
X103858Y100585D01*
X103876Y100588D01*
X103896Y100592D01*
X103917Y100597D01*
X103935Y100604D01*
X103951Y100615D01*
X103953Y100617D01*
X103958Y100621D01*
X103964Y100628D01*
X103972Y100637D01*
X103979Y100649D01*
X103986Y100662D01*
X103990Y100676D01*
X103992Y100693D01*
Y100694D01*
Y100700D01*
X103990Y100707D01*
X103987Y100716D01*
X103983Y100726D01*
X103976Y100736D01*
X103968Y100747D01*
X103955Y100755D01*
X103954Y100757D01*
X103950Y100758D01*
X103943Y100762D01*
X103932Y100766D01*
X103915Y100772D01*
X103906Y100776D01*
X103894Y100779D01*
X103882Y100783D01*
X103868Y100787D01*
X103853Y100791D01*
X103835Y100796D01*
X103833D01*
X103829Y100797D01*
X103822Y100798D01*
X103814Y100801D01*
X103803Y100804D01*
X103790Y100808D01*
X103764Y100815D01*
X103734Y100825D01*
X103704Y100833D01*
X103677Y100843D01*
X103664Y100848D01*
X103655Y100852D01*
X103652Y100854D01*
X103646Y100857D01*
X103638Y100862D01*
X103627Y100869D01*
X103614Y100879D01*
X103602Y100890D01*
X103589Y100902D01*
X103578Y100918D01*
X103577Y100919D01*
X103574Y100925D01*
X103570Y100934D01*
X103566Y100945D01*
X103562Y100959D01*
X103557Y100976D01*
X103555Y100992D01*
X103553Y101012D01*
Y101015D01*
Y101020D01*
X103555Y101029D01*
X103556Y101041D01*
X103559Y101053D01*
X103562Y101069D01*
X103567Y101083D01*
X103574Y101098D01*
X103575Y101099D01*
X103578Y101105D01*
X103582Y101112D01*
X103589Y101121D01*
X103598Y101131D01*
X103607Y101144D01*
X103618Y101155D01*
X103632Y101164D01*
X103634Y101166D01*
X103638Y101167D01*
X103643Y101171D01*
X103652Y101176D01*
X103663Y101181D01*
X103675Y101187D01*
X103691Y101192D01*
X103707Y101198D01*
X103710Y101199D01*
X103716Y101201D01*
X103725Y101203D01*
X103738Y101206D01*
X103753Y101209D01*
X103770Y101210D01*
X103789Y101213D01*
X103822D01*
X103838Y101212D01*
D02*
G37*
G36*
X110784Y100502D02*
X110666D01*
Y101198D01*
X110784D01*
Y100502D01*
D02*
G37*
G36*
X111829Y101117D02*
X111830Y101119D01*
X111833Y101121D01*
X111837Y101126D01*
X111844Y101133D01*
X111851Y101139D01*
X111860Y101148D01*
X111873Y101156D01*
X111885Y101166D01*
X111899Y101174D01*
X111915Y101182D01*
X111951Y101198D01*
X111970Y101205D01*
X111991Y101209D01*
X112013Y101212D01*
X112035Y101213D01*
X112048D01*
X112063Y101212D01*
X112081Y101209D01*
X112102Y101206D01*
X112124Y101201D01*
X112146Y101192D01*
X112168Y101182D01*
X112171Y101181D01*
X112178Y101177D01*
X112188Y101170D01*
X112200Y101160D01*
X112213Y101148D01*
X112227Y101134D01*
X112239Y101117D01*
X112250Y101098D01*
X112252Y101095D01*
X112254Y101088D01*
X112258Y101076D01*
X112263Y101058D01*
X112267Y101035D01*
X112271Y101009D01*
X112274Y100977D01*
X112275Y100941D01*
Y100502D01*
X112157D01*
Y100943D01*
Y100944D01*
Y100947D01*
Y100951D01*
Y100956D01*
X112156Y100972D01*
X112153Y100991D01*
X112148Y101012D01*
X112141Y101033D01*
X112131Y101053D01*
X112118Y101070D01*
X112117Y101072D01*
X112111Y101077D01*
X112103Y101084D01*
X112091Y101091D01*
X112075Y101099D01*
X112057Y101105D01*
X112035Y101110D01*
X112010Y101112D01*
X112002D01*
X111992Y101110D01*
X111978Y101109D01*
X111964Y101105D01*
X111948Y101101D01*
X111931Y101094D01*
X111913Y101084D01*
X111912Y101083D01*
X111906Y101078D01*
X111898Y101073D01*
X111888Y101065D01*
X111877Y101053D01*
X111866Y101041D01*
X111856Y101026D01*
X111848Y101009D01*
X111847Y101006D01*
X111845Y101001D01*
X111842Y100990D01*
X111838Y100976D01*
X111834Y100958D01*
X111831Y100936D01*
X111830Y100911D01*
X111829Y100882D01*
Y100502D01*
X111711D01*
Y101461D01*
X111829D01*
Y101117D01*
D02*
G37*
G36*
X119262Y100502D02*
X119128D01*
Y100636D01*
X119262D01*
Y100502D01*
D02*
G37*
G36*
X109664D02*
X109546D01*
Y101461D01*
X109664D01*
Y100502D01*
D02*
G37*
G36*
X107778D02*
X107643D01*
Y100636D01*
X107778D01*
Y100502D01*
D02*
G37*
G36*
X109163D02*
X109019D01*
X108906Y100793D01*
X108504D01*
X108400Y100502D01*
X108266D01*
X108632Y101461D01*
X108771D01*
X109163Y100502D01*
D02*
G37*
G36*
X109366D02*
X109248D01*
Y101461D01*
X109366D01*
Y100502D01*
D02*
G37*
G36*
X101981D02*
X101863D01*
Y101461D01*
X101981D01*
Y100502D01*
D02*
G37*
G36*
X101685D02*
X101567D01*
Y101198D01*
X101685D01*
Y100502D01*
D02*
G37*
G36*
X96835D02*
X96730D01*
Y100603D01*
X96729Y100601D01*
X96726Y100597D01*
X96722Y100592D01*
X96715Y100585D01*
X96706Y100576D01*
X96697Y100565D01*
X96686Y100556D01*
X96672Y100545D01*
X96657Y100533D01*
X96640Y100524D01*
X96622Y100514D01*
X96602Y100504D01*
X96580Y100497D01*
X96558Y100492D01*
X96533Y100488D01*
X96508Y100486D01*
X96498D01*
X96486Y100488D01*
X96471Y100489D01*
X96453Y100492D01*
X96433Y100496D01*
X96414Y100502D01*
X96393Y100510D01*
X96390Y100511D01*
X96385Y100514D01*
X96375Y100520D01*
X96364Y100526D01*
X96350Y100535D01*
X96338Y100545D01*
X96325Y100556D01*
X96314Y100568D01*
X96313Y100569D01*
X96310Y100575D01*
X96306Y100582D01*
X96300Y100593D01*
X96293Y100606D01*
X96288Y100621D01*
X96282Y100637D01*
X96278Y100655D01*
Y100657D01*
X96277Y100662D01*
X96275Y100671D01*
Y100682D01*
X96274Y100698D01*
X96272Y100716D01*
X96271Y100740D01*
Y100766D01*
Y101198D01*
X96389D01*
Y100811D01*
Y100809D01*
Y100807D01*
Y100802D01*
Y100796D01*
Y100780D01*
X96390Y100761D01*
Y100740D01*
X96392Y100719D01*
X96393Y100701D01*
X96396Y100686D01*
Y100685D01*
X96399Y100679D01*
X96401Y100671D01*
X96406Y100660D01*
X96412Y100649D01*
X96421Y100636D01*
X96430Y100625D01*
X96443Y100614D01*
X96444Y100612D01*
X96450Y100610D01*
X96457Y100606D01*
X96468Y100601D01*
X96480Y100596D01*
X96496Y100592D01*
X96512Y100589D01*
X96532Y100588D01*
X96541D01*
X96551Y100589D01*
X96564Y100590D01*
X96579Y100594D01*
X96596Y100599D01*
X96614Y100606D01*
X96632Y100614D01*
X96634Y100615D01*
X96640Y100619D01*
X96648Y100625D01*
X96658Y100633D01*
X96669Y100644D01*
X96680Y100657D01*
X96690Y100671D01*
X96698Y100687D01*
X96700Y100690D01*
X96701Y100696D01*
X96704Y100707D01*
X96708Y100722D01*
X96712Y100741D01*
X96715Y100765D01*
X96716Y100793D01*
X96718Y100825D01*
Y101198D01*
X96835D01*
Y100502D01*
D02*
G37*
G36*
X102282Y100913D02*
X102560Y101198D01*
X102714D01*
X102447Y100938D01*
X102741Y100502D01*
X102595D01*
X102363Y100857D01*
X102282Y100778D01*
Y100502D01*
X102164D01*
Y101461D01*
X102282D01*
Y100913D01*
D02*
G37*
G36*
X106425Y101464D02*
X106437Y101463D01*
X106450Y101461D01*
X106466Y101458D01*
X106481Y101456D01*
X106517Y101446D01*
X106553Y101432D01*
X106571Y101424D01*
X106589Y101414D01*
X106606Y101402D01*
X106621Y101388D01*
X106622Y101386D01*
X106625Y101385D01*
X106628Y101379D01*
X106633Y101374D01*
X106640Y101367D01*
X106647Y101357D01*
X106654Y101348D01*
X106663Y101335D01*
X106676Y101309D01*
X106690Y101275D01*
X106696Y101259D01*
X106699Y101239D01*
X106701Y101220D01*
X106703Y101199D01*
Y101196D01*
Y101189D01*
X106701Y101178D01*
X106700Y101163D01*
X106697Y101146D01*
X106692Y101127D01*
X106686Y101106D01*
X106678Y101085D01*
X106676Y101083D01*
X106674Y101076D01*
X106668Y101065D01*
X106660Y101049D01*
X106649Y101033D01*
X106635Y101012D01*
X106618Y100991D01*
X106599Y100968D01*
X106596Y100965D01*
X106589Y100956D01*
X106582Y100949D01*
X106575Y100943D01*
X106567Y100934D01*
X106556Y100923D01*
X106545Y100912D01*
X106531Y100900D01*
X106517Y100886D01*
X106500Y100870D01*
X106482Y100855D01*
X106463Y100837D01*
X106441Y100819D01*
X106418Y100800D01*
X106417Y100798D01*
X106414Y100796D01*
X106409Y100791D01*
X106402Y100786D01*
X106394Y100778D01*
X106384Y100769D01*
X106362Y100751D01*
X106338Y100730D01*
X106316Y100710D01*
X106296Y100692D01*
X106288Y100685D01*
X106281Y100678D01*
X106280Y100676D01*
X106276Y100672D01*
X106270Y100667D01*
X106263Y100658D01*
X106256Y100649D01*
X106248Y100639D01*
X106231Y100615D01*
X106704D01*
Y100502D01*
X106068D01*
Y100503D01*
Y100508D01*
Y100517D01*
X106069Y100528D01*
X106070Y100540D01*
X106073Y100554D01*
X106076Y100568D01*
X106081Y100583D01*
Y100585D01*
X106083Y100586D01*
X106086Y100594D01*
X106091Y100607D01*
X106100Y100624D01*
X106111Y100643D01*
X106124Y100665D01*
X106140Y100687D01*
X106159Y100711D01*
Y100712D01*
X106162Y100714D01*
X106169Y100722D01*
X106181Y100735D01*
X106199Y100753D01*
X106220Y100773D01*
X106247Y100798D01*
X106278Y100826D01*
X106313Y100855D01*
X106314Y100857D01*
X106320Y100861D01*
X106328Y100868D01*
X106338Y100876D01*
X106351Y100887D01*
X106366Y100900D01*
X106381Y100913D01*
X106399Y100929D01*
X106434Y100962D01*
X106468Y100995D01*
X106485Y101012D01*
X106500Y101029D01*
X106514Y101044D01*
X106525Y101059D01*
Y101060D01*
X106528Y101062D01*
X106531Y101066D01*
X106534Y101072D01*
X106543Y101087D01*
X106554Y101105D01*
X106564Y101127D01*
X106574Y101151D01*
X106579Y101177D01*
X106582Y101202D01*
Y101203D01*
Y101205D01*
X106581Y101213D01*
X106579Y101227D01*
X106575Y101242D01*
X106570Y101262D01*
X106560Y101281D01*
X106547Y101300D01*
X106531Y101320D01*
X106528Y101323D01*
X106521Y101328D01*
X106511Y101335D01*
X106496Y101345D01*
X106477Y101353D01*
X106455Y101361D01*
X106428Y101367D01*
X106399Y101368D01*
X106391D01*
X106385Y101367D01*
X106369Y101366D01*
X106349Y101361D01*
X106328Y101356D01*
X106305Y101346D01*
X106283Y101334D01*
X106262Y101317D01*
X106259Y101314D01*
X106253Y101307D01*
X106245Y101296D01*
X106237Y101280D01*
X106227Y101260D01*
X106219Y101235D01*
X106213Y101207D01*
X106210Y101176D01*
X106090Y101188D01*
Y101189D01*
X106091Y101194D01*
Y101201D01*
X106093Y101210D01*
X106095Y101221D01*
X106098Y101234D01*
X106102Y101249D01*
X106106Y101264D01*
X106118Y101298D01*
X106134Y101331D01*
X106144Y101348D01*
X106156Y101364D01*
X106169Y101379D01*
X106183Y101393D01*
X106184Y101395D01*
X106187Y101396D01*
X106191Y101400D01*
X106198Y101404D01*
X106206Y101410D01*
X106216Y101415D01*
X106227Y101422D01*
X106241Y101429D01*
X106256Y101436D01*
X106273Y101443D01*
X106291Y101449D01*
X106310Y101454D01*
X106331Y101458D01*
X106353Y101463D01*
X106377Y101464D01*
X106402Y101465D01*
X106416D01*
X106425Y101464D01*
D02*
G37*
G36*
X104933D02*
X104944Y101463D01*
X104958Y101461D01*
X104973Y101458D01*
X104989Y101456D01*
X105025Y101446D01*
X105061Y101432D01*
X105079Y101424D01*
X105097Y101414D01*
X105113Y101402D01*
X105129Y101388D01*
X105130Y101386D01*
X105133Y101385D01*
X105136Y101379D01*
X105141Y101374D01*
X105148Y101367D01*
X105155Y101357D01*
X105162Y101348D01*
X105170Y101335D01*
X105184Y101309D01*
X105198Y101275D01*
X105204Y101259D01*
X105206Y101239D01*
X105209Y101220D01*
X105211Y101199D01*
Y101196D01*
Y101189D01*
X105209Y101178D01*
X105208Y101163D01*
X105205Y101146D01*
X105199Y101127D01*
X105194Y101106D01*
X105186Y101085D01*
X105184Y101083D01*
X105181Y101076D01*
X105176Y101065D01*
X105168Y101049D01*
X105156Y101033D01*
X105143Y101012D01*
X105126Y100991D01*
X105107Y100968D01*
X105104Y100965D01*
X105097Y100956D01*
X105090Y100949D01*
X105083Y100943D01*
X105075Y100934D01*
X105064Y100923D01*
X105052Y100912D01*
X105039Y100900D01*
X105025Y100886D01*
X105008Y100870D01*
X104990Y100855D01*
X104971Y100837D01*
X104948Y100819D01*
X104926Y100800D01*
X104925Y100798D01*
X104922Y100796D01*
X104917Y100791D01*
X104910Y100786D01*
X104901Y100778D01*
X104892Y100769D01*
X104869Y100751D01*
X104846Y100730D01*
X104824Y100710D01*
X104804Y100692D01*
X104796Y100685D01*
X104789Y100678D01*
X104788Y100676D01*
X104783Y100672D01*
X104778Y100667D01*
X104771Y100658D01*
X104764Y100649D01*
X104756Y100639D01*
X104739Y100615D01*
X105212D01*
Y100502D01*
X104575D01*
Y100503D01*
Y100508D01*
Y100517D01*
X104577Y100528D01*
X104578Y100540D01*
X104581Y100554D01*
X104584Y100568D01*
X104589Y100583D01*
Y100585D01*
X104591Y100586D01*
X104593Y100594D01*
X104599Y100607D01*
X104607Y100624D01*
X104618Y100643D01*
X104632Y100665D01*
X104647Y100687D01*
X104667Y100711D01*
Y100712D01*
X104670Y100714D01*
X104677Y100722D01*
X104689Y100735D01*
X104707Y100753D01*
X104728Y100773D01*
X104754Y100798D01*
X104786Y100826D01*
X104821Y100855D01*
X104822Y100857D01*
X104828Y100861D01*
X104836Y100868D01*
X104846Y100876D01*
X104858Y100887D01*
X104874Y100900D01*
X104889Y100913D01*
X104907Y100929D01*
X104942Y100962D01*
X104976Y100995D01*
X104993Y101012D01*
X105008Y101029D01*
X105022Y101044D01*
X105033Y101059D01*
Y101060D01*
X105036Y101062D01*
X105039Y101066D01*
X105041Y101072D01*
X105051Y101087D01*
X105062Y101105D01*
X105072Y101127D01*
X105082Y101151D01*
X105087Y101177D01*
X105090Y101202D01*
Y101203D01*
Y101205D01*
X105089Y101213D01*
X105087Y101227D01*
X105083Y101242D01*
X105077Y101262D01*
X105068Y101281D01*
X105055Y101300D01*
X105039Y101320D01*
X105036Y101323D01*
X105029Y101328D01*
X105019Y101335D01*
X105004Y101345D01*
X104984Y101353D01*
X104962Y101361D01*
X104936Y101367D01*
X104907Y101368D01*
X104899D01*
X104893Y101367D01*
X104876Y101366D01*
X104857Y101361D01*
X104836Y101356D01*
X104813Y101346D01*
X104790Y101334D01*
X104770Y101317D01*
X104767Y101314D01*
X104761Y101307D01*
X104753Y101296D01*
X104745Y101280D01*
X104735Y101260D01*
X104727Y101235D01*
X104721Y101207D01*
X104718Y101176D01*
X104598Y101188D01*
Y101189D01*
X104599Y101194D01*
Y101201D01*
X104600Y101210D01*
X104603Y101221D01*
X104606Y101234D01*
X104610Y101249D01*
X104614Y101264D01*
X104625Y101298D01*
X104642Y101331D01*
X104652Y101348D01*
X104664Y101364D01*
X104677Y101379D01*
X104690Y101393D01*
X104692Y101395D01*
X104695Y101396D01*
X104699Y101400D01*
X104706Y101404D01*
X104714Y101410D01*
X104724Y101415D01*
X104735Y101422D01*
X104749Y101429D01*
X104764Y101436D01*
X104781Y101443D01*
X104799Y101449D01*
X104818Y101454D01*
X104839Y101458D01*
X104861Y101463D01*
X104885Y101464D01*
X104910Y101465D01*
X104923D01*
X104933Y101464D01*
D02*
G37*
G36*
X103159Y101212D02*
X103180Y101210D01*
X103204Y101207D01*
X103227Y101203D01*
X103251Y101198D01*
X103273Y101191D01*
X103276Y101189D01*
X103283Y101187D01*
X103293Y101182D01*
X103305Y101177D01*
X103319Y101169D01*
X103333Y101160D01*
X103345Y101149D01*
X103356Y101138D01*
X103358Y101137D01*
X103361Y101133D01*
X103365Y101126D01*
X103370Y101117D01*
X103377Y101105D01*
X103383Y101092D01*
X103388Y101077D01*
X103392Y101059D01*
Y101058D01*
X103394Y101053D01*
X103395Y101045D01*
X103397Y101034D01*
Y101019D01*
X103398Y101001D01*
X103399Y100977D01*
Y100951D01*
Y100793D01*
Y100791D01*
Y100786D01*
Y100778D01*
Y100766D01*
Y100754D01*
Y100739D01*
X103401Y100705D01*
Y100671D01*
X103402Y100636D01*
X103404Y100621D01*
Y100607D01*
X103405Y100594D01*
X103406Y100585D01*
Y100583D01*
X103408Y100578D01*
X103409Y100569D01*
X103413Y100558D01*
X103416Y100546D01*
X103422Y100532D01*
X103428Y100517D01*
X103435Y100502D01*
X103312D01*
X103311Y100503D01*
X103309Y100508D01*
X103306Y100515D01*
X103302Y100526D01*
X103298Y100539D01*
X103295Y100554D01*
X103293Y100571D01*
X103290Y100589D01*
X103288D01*
X103287Y100586D01*
X103279Y100579D01*
X103266Y100569D01*
X103250Y100557D01*
X103229Y100545D01*
X103208Y100531D01*
X103186Y100518D01*
X103162Y100508D01*
X103159Y100507D01*
X103151Y100506D01*
X103139Y100502D01*
X103123Y100497D01*
X103104Y100493D01*
X103082Y100490D01*
X103057Y100488D01*
X103032Y100486D01*
X103021D01*
X103012Y100488D01*
X103003D01*
X102992Y100489D01*
X102967Y100493D01*
X102939Y100500D01*
X102908Y100510D01*
X102881Y100524D01*
X102856Y100542D01*
X102853Y100545D01*
X102846Y100551D01*
X102836Y100564D01*
X102825Y100581D01*
X102814Y100601D01*
X102804Y100625D01*
X102797Y100654D01*
X102796Y100668D01*
X102795Y100685D01*
Y100687D01*
Y100693D01*
X102796Y100703D01*
X102797Y100715D01*
X102800Y100730D01*
X102804Y100746D01*
X102810Y100762D01*
X102817Y100778D01*
X102818Y100779D01*
X102821Y100784D01*
X102827Y100793D01*
X102834Y100802D01*
X102842Y100814D01*
X102853Y100825D01*
X102864Y100836D01*
X102878Y100845D01*
X102879Y100847D01*
X102885Y100850D01*
X102892Y100855D01*
X102903Y100861D01*
X102915Y100866D01*
X102931Y100873D01*
X102946Y100879D01*
X102964Y100884D01*
X102965D01*
X102971Y100886D01*
X102979Y100888D01*
X102990Y100890D01*
X103004Y100893D01*
X103022Y100895D01*
X103043Y100900D01*
X103068Y100902D01*
X103069D01*
X103075Y100904D01*
X103082D01*
X103091Y100905D01*
X103103Y100906D01*
X103116Y100909D01*
X103132Y100911D01*
X103148Y100913D01*
X103182Y100920D01*
X103218Y100927D01*
X103250Y100936D01*
X103265Y100940D01*
X103279Y100944D01*
Y100945D01*
Y100948D01*
X103280Y100956D01*
Y100966D01*
Y100972D01*
Y100974D01*
Y100976D01*
Y100977D01*
Y100986D01*
X103279Y100999D01*
X103276Y101015D01*
X103272Y101031D01*
X103265Y101048D01*
X103257Y101063D01*
X103245Y101076D01*
X103244Y101077D01*
X103237Y101083D01*
X103226Y101088D01*
X103212Y101096D01*
X103193Y101103D01*
X103171Y101110D01*
X103143Y101115D01*
X103111Y101116D01*
X103097D01*
X103083Y101115D01*
X103064Y101112D01*
X103044Y101109D01*
X103024Y101103D01*
X103004Y101096D01*
X102987Y101087D01*
X102986Y101085D01*
X102981Y101081D01*
X102974Y101074D01*
X102965Y101063D01*
X102957Y101049D01*
X102947Y101031D01*
X102939Y101009D01*
X102931Y100984D01*
X102815Y100999D01*
Y101001D01*
X102817Y101002D01*
Y101006D01*
X102818Y101012D01*
X102822Y101024D01*
X102828Y101042D01*
X102835Y101060D01*
X102843Y101080D01*
X102854Y101099D01*
X102867Y101117D01*
X102868Y101119D01*
X102874Y101124D01*
X102882Y101133D01*
X102893Y101144D01*
X102908Y101155D01*
X102926Y101166D01*
X102947Y101178D01*
X102971Y101188D01*
X102972D01*
X102974Y101189D01*
X102978Y101191D01*
X102983Y101192D01*
X102997Y101196D01*
X103017Y101201D01*
X103039Y101205D01*
X103066Y101209D01*
X103096Y101212D01*
X103129Y101213D01*
X103144D01*
X103159Y101212D01*
D02*
G37*
G36*
X97297D02*
X97312Y101209D01*
X97331Y101203D01*
X97350Y101196D01*
X97372Y101187D01*
X97396Y101174D01*
X97353Y101066D01*
X97351Y101067D01*
X97346Y101070D01*
X97337Y101074D01*
X97326Y101078D01*
X97314Y101083D01*
X97299Y101087D01*
X97283Y101090D01*
X97268Y101091D01*
X97261D01*
X97254Y101090D01*
X97245Y101088D01*
X97235Y101085D01*
X97222Y101081D01*
X97210Y101076D01*
X97199Y101067D01*
X97197Y101066D01*
X97193Y101063D01*
X97189Y101058D01*
X97182Y101051D01*
X97175Y101041D01*
X97168Y101030D01*
X97161Y101017D01*
X97156Y101002D01*
X97154Y100999D01*
X97153Y100991D01*
X97150Y100979D01*
X97146Y100962D01*
X97142Y100941D01*
X97139Y100918D01*
X97138Y100893D01*
X97136Y100865D01*
Y100502D01*
X97018D01*
Y101198D01*
X97125D01*
Y101092D01*
X97127Y101094D01*
X97132Y101103D01*
X97139Y101116D01*
X97150Y101131D01*
X97161Y101146D01*
X97174Y101163D01*
X97186Y101177D01*
X97199Y101188D01*
X97200Y101189D01*
X97204Y101192D01*
X97213Y101196D01*
X97221Y101201D01*
X97232Y101205D01*
X97246Y101209D01*
X97260Y101212D01*
X97275Y101213D01*
X97285D01*
X97297Y101212D01*
D02*
G37*
G36*
X99383Y102771D02*
X98999D01*
X98948Y102512D01*
X98949Y102513D01*
X98952Y102514D01*
X98956Y102517D01*
X98963Y102521D01*
X98971Y102525D01*
X98981Y102531D01*
X99003Y102542D01*
X99031Y102553D01*
X99061Y102563D01*
X99095Y102570D01*
X99111Y102573D01*
X99142D01*
X99150Y102571D01*
X99161Y102570D01*
X99174Y102568D01*
X99188Y102566D01*
X99203Y102562D01*
X99236Y102552D01*
X99254Y102545D01*
X99272Y102535D01*
X99290Y102525D01*
X99308Y102514D01*
X99325Y102501D01*
X99341Y102485D01*
X99343Y102484D01*
X99346Y102481D01*
X99350Y102477D01*
X99355Y102470D01*
X99362Y102460D01*
X99369Y102451D01*
X99378Y102438D01*
X99386Y102424D01*
X99393Y102409D01*
X99401Y102392D01*
X99408Y102373D01*
X99415Y102354D01*
X99421Y102333D01*
X99425Y102309D01*
X99427Y102286D01*
X99429Y102261D01*
Y102259D01*
Y102255D01*
Y102248D01*
X99427Y102238D01*
X99426Y102227D01*
X99425Y102215D01*
X99422Y102200D01*
X99419Y102184D01*
X99411Y102148D01*
X99397Y102111D01*
X99389Y102091D01*
X99378Y102073D01*
X99366Y102054D01*
X99353Y102036D01*
X99351Y102035D01*
X99348Y102030D01*
X99343Y102025D01*
X99336Y102018D01*
X99326Y102010D01*
X99315Y101998D01*
X99301Y101989D01*
X99286Y101978D01*
X99269Y101967D01*
X99250Y101957D01*
X99229Y101947D01*
X99207Y101937D01*
X99183Y101931D01*
X99157Y101925D01*
X99129Y101921D01*
X99100Y101919D01*
X99088D01*
X99078Y101921D01*
X99067Y101922D01*
X99054Y101924D01*
X99039Y101925D01*
X99024Y101929D01*
X98989Y101937D01*
X98955Y101950D01*
X98936Y101958D01*
X98918Y101968D01*
X98902Y101979D01*
X98885Y101992D01*
X98884Y101993D01*
X98881Y101994D01*
X98878Y102000D01*
X98873Y102005D01*
X98866Y102012D01*
X98859Y102021D01*
X98851Y102032D01*
X98844Y102044D01*
X98835Y102057D01*
X98827Y102072D01*
X98812Y102105D01*
X98799Y102144D01*
X98795Y102165D01*
X98792Y102187D01*
X98916Y102197D01*
Y102195D01*
Y102193D01*
X98917Y102188D01*
X98918Y102182D01*
X98923Y102166D01*
X98928Y102145D01*
X98936Y102125D01*
X98948Y102101D01*
X98961Y102080D01*
X98978Y102061D01*
X98981Y102060D01*
X98986Y102054D01*
X98998Y102047D01*
X99013Y102039D01*
X99029Y102030D01*
X99050Y102023D01*
X99074Y102018D01*
X99100Y102017D01*
X99108D01*
X99114Y102018D01*
X99131Y102019D01*
X99150Y102025D01*
X99174Y102032D01*
X99197Y102043D01*
X99222Y102060D01*
X99233Y102069D01*
X99244Y102080D01*
X99246Y102082D01*
X99247Y102083D01*
X99250Y102087D01*
X99254Y102091D01*
X99264Y102107D01*
X99275Y102126D01*
X99285Y102150D01*
X99294Y102179D01*
X99301Y102213D01*
X99304Y102231D01*
Y102251D01*
Y102252D01*
Y102255D01*
Y102261D01*
X99303Y102268D01*
Y102276D01*
X99301Y102286D01*
X99297Y102308D01*
X99290Y102334D01*
X99280Y102360D01*
X99267Y102385D01*
X99247Y102409D01*
Y102410D01*
X99244Y102412D01*
X99237Y102419D01*
X99225Y102428D01*
X99208Y102439D01*
X99186Y102449D01*
X99161Y102459D01*
X99132Y102466D01*
X99115Y102469D01*
X99089D01*
X99078Y102467D01*
X99064Y102466D01*
X99047Y102462D01*
X99031Y102458D01*
X99013Y102451D01*
X98995Y102442D01*
X98993Y102441D01*
X98988Y102438D01*
X98979Y102431D01*
X98968Y102424D01*
X98957Y102415D01*
X98946Y102402D01*
X98934Y102390D01*
X98924Y102374D01*
X98813Y102390D01*
X98906Y102883D01*
X99383D01*
Y102771D01*
D02*
G37*
G36*
X114629Y101212D02*
X114640Y101210D01*
X114654Y101207D01*
X114669Y101205D01*
X114687Y101201D01*
X114703Y101196D01*
X114723Y101189D01*
X114741Y101182D01*
X114760Y101173D01*
X114780Y101162D01*
X114799Y101149D01*
X114817Y101134D01*
X114834Y101117D01*
X114835Y101116D01*
X114838Y101113D01*
X114842Y101108D01*
X114848Y101099D01*
X114855Y101090D01*
X114862Y101078D01*
X114870Y101065D01*
X114878Y101048D01*
X114887Y101030D01*
X114895Y101010D01*
X114902Y100988D01*
X114909Y100965D01*
X114914Y100938D01*
X114918Y100911D01*
X114921Y100882D01*
X114923Y100850D01*
Y100848D01*
Y100843D01*
Y100833D01*
X114921Y100819D01*
X114401D01*
Y100818D01*
Y100814D01*
X114403Y100808D01*
Y100800D01*
X114404Y100790D01*
X114407Y100779D01*
X114411Y100754D01*
X114419Y100726D01*
X114430Y100696D01*
X114446Y100668D01*
X114465Y100643D01*
X114466D01*
X114468Y100640D01*
X114476Y100633D01*
X114489Y100624D01*
X114505Y100614D01*
X114527Y100603D01*
X114552Y100593D01*
X114580Y100586D01*
X114595Y100585D01*
X114612Y100583D01*
X114623D01*
X114636Y100585D01*
X114651Y100588D01*
X114667Y100592D01*
X114687Y100597D01*
X114705Y100606D01*
X114723Y100617D01*
X114724Y100618D01*
X114731Y100624D01*
X114740Y100632D01*
X114749Y100643D01*
X114760Y100658D01*
X114773Y100678D01*
X114785Y100700D01*
X114796Y100726D01*
X114918Y100711D01*
Y100710D01*
X114917Y100707D01*
X114916Y100701D01*
X114913Y100693D01*
X114909Y100685D01*
X114905Y100674D01*
X114893Y100650D01*
X114880Y100624D01*
X114860Y100596D01*
X114838Y100569D01*
X114810Y100545D01*
X114809D01*
X114806Y100542D01*
X114802Y100539D01*
X114796Y100535D01*
X114788Y100531D01*
X114780Y100526D01*
X114769Y100521D01*
X114756Y100515D01*
X114742Y100510D01*
X114728Y100504D01*
X114694Y100496D01*
X114655Y100489D01*
X114612Y100486D01*
X114597D01*
X114587Y100488D01*
X114575Y100489D01*
X114559Y100492D01*
X114543Y100495D01*
X114525Y100497D01*
X114486Y100508D01*
X114465Y100517D01*
X114446Y100525D01*
X114425Y100536D01*
X114405Y100549D01*
X114387Y100563D01*
X114369Y100579D01*
X114368Y100581D01*
X114365Y100583D01*
X114361Y100589D01*
X114355Y100597D01*
X114348Y100607D01*
X114342Y100618D01*
X114333Y100632D01*
X114325Y100647D01*
X114317Y100665D01*
X114308Y100685D01*
X114301Y100707D01*
X114294Y100730D01*
X114289Y100755D01*
X114285Y100783D01*
X114282Y100812D01*
X114280Y100843D01*
Y100844D01*
Y100851D01*
Y100859D01*
X114282Y100872D01*
X114283Y100887D01*
X114285Y100904D01*
X114287Y100923D01*
X114292Y100943D01*
X114303Y100987D01*
X114310Y101009D01*
X114318Y101033D01*
X114329Y101055D01*
X114342Y101076D01*
X114355Y101096D01*
X114371Y101116D01*
X114372Y101117D01*
X114375Y101120D01*
X114380Y101124D01*
X114387Y101131D01*
X114396Y101138D01*
X114407Y101146D01*
X114419Y101156D01*
X114434Y101164D01*
X114450Y101174D01*
X114468Y101182D01*
X114487Y101191D01*
X114508Y101198D01*
X114530Y101205D01*
X114554Y101209D01*
X114579Y101212D01*
X114605Y101213D01*
X114619D01*
X114629Y101212D01*
D02*
G37*
G36*
X102368Y102771D02*
X101983D01*
X101932Y102512D01*
X101933Y102513D01*
X101936Y102514D01*
X101940Y102517D01*
X101947Y102521D01*
X101956Y102525D01*
X101965Y102531D01*
X101988Y102542D01*
X102015Y102553D01*
X102046Y102563D01*
X102079Y102570D01*
X102096Y102573D01*
X102126D01*
X102135Y102571D01*
X102146Y102570D01*
X102158Y102568D01*
X102172Y102566D01*
X102187Y102562D01*
X102221Y102552D01*
X102239Y102545D01*
X102257Y102535D01*
X102275Y102525D01*
X102293Y102514D01*
X102309Y102501D01*
X102326Y102485D01*
X102327Y102484D01*
X102330Y102481D01*
X102334Y102477D01*
X102340Y102470D01*
X102347Y102460D01*
X102354Y102451D01*
X102362Y102438D01*
X102370Y102424D01*
X102377Y102409D01*
X102386Y102392D01*
X102393Y102373D01*
X102399Y102354D01*
X102405Y102333D01*
X102409Y102309D01*
X102412Y102286D01*
X102413Y102261D01*
Y102259D01*
Y102255D01*
Y102248D01*
X102412Y102238D01*
X102411Y102227D01*
X102409Y102215D01*
X102406Y102200D01*
X102404Y102184D01*
X102395Y102148D01*
X102381Y102111D01*
X102373Y102091D01*
X102362Y102073D01*
X102351Y102054D01*
X102337Y102036D01*
X102336Y102035D01*
X102333Y102030D01*
X102327Y102025D01*
X102320Y102018D01*
X102311Y102010D01*
X102300Y101998D01*
X102286Y101989D01*
X102270Y101978D01*
X102254Y101967D01*
X102234Y101957D01*
X102214Y101947D01*
X102191Y101937D01*
X102168Y101931D01*
X102141Y101925D01*
X102114Y101921D01*
X102085Y101919D01*
X102072D01*
X102062Y101921D01*
X102051Y101922D01*
X102039Y101924D01*
X102024Y101925D01*
X102008Y101929D01*
X101974Y101937D01*
X101939Y101950D01*
X101921Y101958D01*
X101903Y101968D01*
X101886Y101979D01*
X101870Y101992D01*
X101868Y101993D01*
X101866Y101994D01*
X101863Y102000D01*
X101857Y102005D01*
X101850Y102012D01*
X101843Y102021D01*
X101835Y102032D01*
X101828Y102044D01*
X101820Y102057D01*
X101811Y102072D01*
X101796Y102105D01*
X101784Y102144D01*
X101780Y102165D01*
X101777Y102187D01*
X101900Y102197D01*
Y102195D01*
Y102193D01*
X101902Y102188D01*
X101903Y102182D01*
X101907Y102166D01*
X101913Y102145D01*
X101921Y102125D01*
X101932Y102101D01*
X101946Y102080D01*
X101963Y102061D01*
X101965Y102060D01*
X101971Y102054D01*
X101982Y102047D01*
X101997Y102039D01*
X102014Y102030D01*
X102035Y102023D01*
X102058Y102018D01*
X102085Y102017D01*
X102093D01*
X102098Y102018D01*
X102115Y102019D01*
X102135Y102025D01*
X102158Y102032D01*
X102182Y102043D01*
X102207Y102060D01*
X102218Y102069D01*
X102229Y102080D01*
X102230Y102082D01*
X102232Y102083D01*
X102234Y102087D01*
X102239Y102091D01*
X102248Y102107D01*
X102259Y102126D01*
X102269Y102150D01*
X102279Y102179D01*
X102286Y102213D01*
X102288Y102231D01*
Y102251D01*
Y102252D01*
Y102255D01*
Y102261D01*
X102287Y102268D01*
Y102276D01*
X102286Y102286D01*
X102282Y102308D01*
X102275Y102334D01*
X102265Y102360D01*
X102251Y102385D01*
X102232Y102409D01*
Y102410D01*
X102229Y102412D01*
X102222Y102419D01*
X102209Y102428D01*
X102193Y102439D01*
X102171Y102449D01*
X102146Y102459D01*
X102117Y102466D01*
X102100Y102469D01*
X102074D01*
X102062Y102467D01*
X102049Y102466D01*
X102032Y102462D01*
X102015Y102458D01*
X101997Y102451D01*
X101979Y102442D01*
X101978Y102441D01*
X101972Y102438D01*
X101964Y102431D01*
X101953Y102424D01*
X101942Y102415D01*
X101931Y102402D01*
X101918Y102390D01*
X101908Y102374D01*
X101798Y102390D01*
X101890Y102883D01*
X102368D01*
Y102771D01*
D02*
G37*
G36*
X106622Y101936D02*
X106504D01*
Y102686D01*
X106503Y102685D01*
X106496Y102679D01*
X106488Y102671D01*
X106474Y102661D01*
X106459Y102649D01*
X106439Y102635D01*
X106417Y102620D01*
X106392Y102605D01*
X106391D01*
X106389Y102603D01*
X106381Y102598D01*
X106367Y102591D01*
X106351Y102582D01*
X106331Y102573D01*
X106310Y102563D01*
X106290Y102553D01*
X106269Y102545D01*
Y102659D01*
X106270D01*
X106273Y102661D01*
X106278Y102663D01*
X106285Y102667D01*
X106294Y102671D01*
X106303Y102677D01*
X106327Y102691D01*
X106355Y102706D01*
X106382Y102725D01*
X106412Y102747D01*
X106441Y102771D01*
X106442Y102772D01*
X106443Y102774D01*
X106448Y102778D01*
X106453Y102782D01*
X106466Y102796D01*
X106482Y102813D01*
X106499Y102832D01*
X106517Y102854D01*
X106532Y102876D01*
X106546Y102900D01*
X106622D01*
Y101936D01*
D02*
G37*
G36*
X100626Y102899D02*
X100637Y102897D01*
X100651Y102896D01*
X100666Y102893D01*
X100681Y102890D01*
X100717Y102881D01*
X100753Y102867D01*
X100771Y102858D01*
X100789Y102849D01*
X100806Y102836D01*
X100821Y102822D01*
X100823Y102821D01*
X100825Y102819D01*
X100828Y102814D01*
X100834Y102808D01*
X100841Y102801D01*
X100848Y102792D01*
X100854Y102782D01*
X100863Y102770D01*
X100877Y102743D01*
X100891Y102710D01*
X100896Y102693D01*
X100899Y102674D01*
X100902Y102654D01*
X100903Y102634D01*
Y102631D01*
Y102624D01*
X100902Y102613D01*
X100900Y102598D01*
X100897Y102581D01*
X100892Y102562D01*
X100886Y102541D01*
X100878Y102520D01*
X100877Y102517D01*
X100874Y102510D01*
X100868Y102499D01*
X100860Y102484D01*
X100849Y102467D01*
X100835Y102446D01*
X100818Y102426D01*
X100799Y102402D01*
X100796Y102399D01*
X100789Y102391D01*
X100782Y102384D01*
X100775Y102377D01*
X100767Y102369D01*
X100756Y102358D01*
X100745Y102347D01*
X100731Y102334D01*
X100717Y102320D01*
X100701Y102305D01*
X100683Y102290D01*
X100663Y102272D01*
X100641Y102254D01*
X100619Y102234D01*
X100617Y102233D01*
X100615Y102230D01*
X100609Y102226D01*
X100602Y102220D01*
X100594Y102212D01*
X100584Y102204D01*
X100562Y102186D01*
X100538Y102165D01*
X100516Y102144D01*
X100497Y102126D01*
X100488Y102119D01*
X100481Y102112D01*
X100480Y102111D01*
X100476Y102107D01*
X100470Y102101D01*
X100463Y102093D01*
X100456Y102083D01*
X100448Y102073D01*
X100432Y102050D01*
X100904D01*
Y101936D01*
X100268D01*
Y101937D01*
Y101943D01*
Y101951D01*
X100269Y101962D01*
X100271Y101975D01*
X100273Y101989D01*
X100276Y102003D01*
X100282Y102018D01*
Y102019D01*
X100283Y102021D01*
X100286Y102029D01*
X100291Y102041D01*
X100300Y102058D01*
X100311Y102078D01*
X100325Y102100D01*
X100340Y102122D01*
X100359Y102145D01*
Y102147D01*
X100362Y102148D01*
X100369Y102157D01*
X100382Y102169D01*
X100400Y102187D01*
X100420Y102208D01*
X100447Y102233D01*
X100479Y102261D01*
X100513Y102290D01*
X100515Y102291D01*
X100520Y102295D01*
X100529Y102302D01*
X100538Y102311D01*
X100551Y102322D01*
X100566Y102334D01*
X100581Y102348D01*
X100599Y102363D01*
X100634Y102397D01*
X100669Y102430D01*
X100685Y102446D01*
X100701Y102463D01*
X100714Y102478D01*
X100726Y102494D01*
Y102495D01*
X100728Y102496D01*
X100731Y102501D01*
X100734Y102506D01*
X100744Y102521D01*
X100755Y102539D01*
X100764Y102562D01*
X100774Y102585D01*
X100780Y102611D01*
X100782Y102636D01*
Y102638D01*
Y102639D01*
X100781Y102648D01*
X100780Y102661D01*
X100775Y102677D01*
X100770Y102696D01*
X100760Y102715D01*
X100748Y102735D01*
X100731Y102754D01*
X100728Y102757D01*
X100721Y102763D01*
X100712Y102770D01*
X100696Y102779D01*
X100677Y102788D01*
X100655Y102796D01*
X100628Y102801D01*
X100599Y102803D01*
X100591D01*
X100585Y102801D01*
X100569Y102800D01*
X100549Y102796D01*
X100529Y102790D01*
X100505Y102781D01*
X100483Y102768D01*
X100462Y102752D01*
X100459Y102749D01*
X100454Y102742D01*
X100445Y102731D01*
X100437Y102714D01*
X100427Y102695D01*
X100419Y102670D01*
X100413Y102642D01*
X100411Y102610D01*
X100290Y102623D01*
Y102624D01*
X100291Y102628D01*
Y102635D01*
X100293Y102645D01*
X100296Y102656D01*
X100298Y102668D01*
X100303Y102684D01*
X100307Y102699D01*
X100318Y102732D01*
X100334Y102765D01*
X100344Y102782D01*
X100357Y102799D01*
X100369Y102814D01*
X100383Y102828D01*
X100384Y102829D01*
X100387Y102831D01*
X100391Y102835D01*
X100398Y102839D01*
X100407Y102844D01*
X100416Y102850D01*
X100427Y102857D01*
X100441Y102864D01*
X100456Y102871D01*
X100473Y102878D01*
X100491Y102883D01*
X100511Y102889D01*
X100531Y102893D01*
X100554Y102897D01*
X100577Y102899D01*
X100602Y102900D01*
X100616D01*
X100626Y102899D01*
D02*
G37*
G36*
X102967Y101936D02*
X102849D01*
Y102686D01*
X102847Y102685D01*
X102840Y102679D01*
X102832Y102671D01*
X102818Y102661D01*
X102803Y102649D01*
X102784Y102635D01*
X102761Y102620D01*
X102736Y102605D01*
X102735D01*
X102734Y102603D01*
X102725Y102598D01*
X102711Y102591D01*
X102695Y102582D01*
X102675Y102573D01*
X102655Y102563D01*
X102634Y102553D01*
X102613Y102545D01*
Y102659D01*
X102614D01*
X102617Y102661D01*
X102623Y102663D01*
X102630Y102667D01*
X102638Y102671D01*
X102648Y102677D01*
X102671Y102691D01*
X102699Y102706D01*
X102727Y102725D01*
X102756Y102747D01*
X102785Y102771D01*
X102786Y102772D01*
X102788Y102774D01*
X102792Y102778D01*
X102797Y102782D01*
X102810Y102796D01*
X102827Y102813D01*
X102843Y102832D01*
X102861Y102854D01*
X102877Y102876D01*
X102890Y102900D01*
X102967D01*
Y101936D01*
D02*
G37*
G36*
X105205D02*
X105087D01*
Y102686D01*
X105086Y102685D01*
X105079Y102679D01*
X105070Y102671D01*
X105057Y102661D01*
X105041Y102649D01*
X105022Y102635D01*
X105000Y102620D01*
X104975Y102605D01*
X104973D01*
X104972Y102603D01*
X104964Y102598D01*
X104950Y102591D01*
X104933Y102582D01*
X104914Y102573D01*
X104893Y102563D01*
X104872Y102553D01*
X104851Y102545D01*
Y102659D01*
X104853D01*
X104856Y102661D01*
X104861Y102663D01*
X104868Y102667D01*
X104876Y102671D01*
X104886Y102677D01*
X104910Y102691D01*
X104937Y102706D01*
X104965Y102725D01*
X104994Y102747D01*
X105023Y102771D01*
X105025Y102772D01*
X105026Y102774D01*
X105030Y102778D01*
X105036Y102782D01*
X105048Y102796D01*
X105065Y102813D01*
X105082Y102832D01*
X105100Y102854D01*
X105115Y102876D01*
X105129Y102900D01*
X105205D01*
Y101936D01*
D02*
G37*
G36*
X105679Y101464D02*
X105697Y101461D01*
X105718Y101457D01*
X105740Y101452D01*
X105764Y101445D01*
X105786Y101433D01*
X105787D01*
X105789Y101432D01*
X105796Y101428D01*
X105807Y101421D01*
X105821Y101411D01*
X105836Y101397D01*
X105853Y101382D01*
X105868Y101364D01*
X105883Y101343D01*
X105885Y101341D01*
X105890Y101334D01*
X105896Y101321D01*
X105905Y101303D01*
X105914Y101282D01*
X105925Y101259D01*
X105934Y101231D01*
X105943Y101201D01*
Y101199D01*
X105944Y101196D01*
X105946Y101192D01*
X105947Y101185D01*
X105948Y101177D01*
X105950Y101167D01*
X105953Y101155D01*
X105954Y101141D01*
X105957Y101126D01*
X105958Y101109D01*
X105959Y101090D01*
X105962Y101070D01*
X105964Y101048D01*
Y101026D01*
X105965Y101001D01*
Y100974D01*
Y100973D01*
Y100968D01*
Y100958D01*
Y100947D01*
X105964Y100931D01*
Y100915D01*
X105962Y100897D01*
X105961Y100877D01*
X105957Y100833D01*
X105950Y100787D01*
X105941Y100743D01*
X105936Y100722D01*
X105929Y100701D01*
Y100700D01*
X105928Y100697D01*
X105925Y100692D01*
X105922Y100685D01*
X105919Y100675D01*
X105914Y100665D01*
X105903Y100642D01*
X105889Y100617D01*
X105871Y100589D01*
X105850Y100564D01*
X105825Y100540D01*
X105824D01*
X105822Y100538D01*
X105818Y100535D01*
X105812Y100532D01*
X105806Y100528D01*
X105799Y100522D01*
X105778Y100513D01*
X105753Y100503D01*
X105724Y100493D01*
X105689Y100488D01*
X105652Y100485D01*
X105638D01*
X105628Y100486D01*
X105617Y100488D01*
X105603Y100490D01*
X105588Y100493D01*
X105571Y100497D01*
X105554Y100503D01*
X105536Y100508D01*
X105518Y100517D01*
X105500Y100526D01*
X105482Y100538D01*
X105464Y100551D01*
X105448Y100567D01*
X105432Y100583D01*
X105431Y100585D01*
X105428Y100589D01*
X105424Y100596D01*
X105417Y100607D01*
X105410Y100619D01*
X105403Y100636D01*
X105394Y100655D01*
X105385Y100678D01*
X105377Y100703D01*
X105369Y100732D01*
X105360Y100764D01*
X105353Y100800D01*
X105346Y100839D01*
X105342Y100880D01*
X105340Y100926D01*
X105338Y100974D01*
Y100976D01*
Y100981D01*
Y100991D01*
Y101002D01*
X105340Y101017D01*
Y101034D01*
X105341Y101052D01*
X105342Y101073D01*
X105346Y101116D01*
X105353Y101162D01*
X105362Y101207D01*
X105367Y101228D01*
X105373Y101249D01*
Y101250D01*
X105374Y101253D01*
X105377Y101259D01*
X105380Y101266D01*
X105383Y101275D01*
X105388Y101285D01*
X105399Y101309D01*
X105413Y101334D01*
X105431Y101360D01*
X105452Y101386D01*
X105477Y101409D01*
X105478D01*
X105480Y101411D01*
X105484Y101414D01*
X105489Y101417D01*
X105496Y101422D01*
X105505Y101427D01*
X105525Y101438D01*
X105550Y101447D01*
X105579Y101457D01*
X105614Y101463D01*
X105652Y101465D01*
X105664D01*
X105679Y101464D01*
D02*
G37*
G36*
X111241Y101212D02*
X111250Y101210D01*
X111263Y101207D01*
X111277Y101205D01*
X111292Y101201D01*
X111307Y101195D01*
X111324Y101188D01*
X111340Y101180D01*
X111358Y101170D01*
X111375Y101159D01*
X111392Y101145D01*
X111408Y101130D01*
X111424Y101112D01*
Y101198D01*
X111532D01*
Y100596D01*
Y100594D01*
Y100589D01*
Y100581D01*
Y100569D01*
X111530Y100557D01*
Y100542D01*
X111529Y100525D01*
X111528Y100507D01*
X111523Y100470D01*
X111518Y100431D01*
X111514Y100413D01*
X111510Y100396D01*
X111504Y100381D01*
X111498Y100367D01*
Y100366D01*
X111497Y100364D01*
X111492Y100356D01*
X111485Y100343D01*
X111474Y100328D01*
X111458Y100312D01*
X111440Y100294D01*
X111418Y100275D01*
X111393Y100260D01*
X111392D01*
X111390Y100259D01*
X111386Y100256D01*
X111381Y100255D01*
X111374Y100251D01*
X111365Y100248D01*
X111345Y100241D01*
X111320Y100232D01*
X111289Y100227D01*
X111254Y100221D01*
X111217Y100220D01*
X111204D01*
X111196Y100221D01*
X111185D01*
X111174Y100223D01*
X111160Y100224D01*
X111145Y100227D01*
X111113Y100234D01*
X111080Y100244D01*
X111046Y100257D01*
X111016Y100277D01*
X111014Y100278D01*
X111013Y100280D01*
X111003Y100288D01*
X110992Y100300D01*
X110978Y100318D01*
X110965Y100342D01*
X110952Y100371D01*
X110948Y100388D01*
X110945Y100406D01*
X110942Y100424D01*
Y100445D01*
X111057Y100429D01*
Y100427D01*
X111059Y100421D01*
X111062Y100411D01*
X111064Y100399D01*
X111070Y100386D01*
X111077Y100374D01*
X111085Y100361D01*
X111096Y100352D01*
X111099Y100350D01*
X111105Y100346D01*
X111114Y100341D01*
X111128Y100335D01*
X111145Y100328D01*
X111166Y100323D01*
X111191Y100318D01*
X111217Y100317D01*
X111231D01*
X111245Y100318D01*
X111264Y100321D01*
X111284Y100325D01*
X111304Y100331D01*
X111325Y100339D01*
X111343Y100350D01*
X111345Y100352D01*
X111350Y100356D01*
X111358Y100364D01*
X111368Y100374D01*
X111378Y100388D01*
X111388Y100403D01*
X111397Y100421D01*
X111404Y100442D01*
Y100443D01*
X111406Y100449D01*
X111407Y100460D01*
X111408Y100474D01*
X111410Y100483D01*
Y100495D01*
X111411Y100507D01*
Y100521D01*
Y100536D01*
X111413Y100554D01*
Y100572D01*
Y100593D01*
X111411Y100592D01*
X111408Y100589D01*
X111404Y100585D01*
X111399Y100579D01*
X111392Y100572D01*
X111382Y100564D01*
X111371Y100556D01*
X111360Y100547D01*
X111331Y100531D01*
X111299Y100515D01*
X111281Y100510D01*
X111261Y100506D01*
X111241Y100503D01*
X111220Y100502D01*
X111213D01*
X111206Y100503D01*
X111196D01*
X111184Y100504D01*
X111170Y100507D01*
X111155Y100510D01*
X111138Y100514D01*
X111120Y100520D01*
X111102Y100526D01*
X111084Y100535D01*
X111064Y100545D01*
X111046Y100557D01*
X111028Y100571D01*
X111012Y100586D01*
X110996Y100604D01*
X110995Y100606D01*
X110994Y100608D01*
X110990Y100615D01*
X110984Y100622D01*
X110978Y100633D01*
X110971Y100644D01*
X110965Y100658D01*
X110958Y100675D01*
X110951Y100692D01*
X110944Y100711D01*
X110937Y100730D01*
X110931Y100753D01*
X110922Y100800D01*
X110920Y100826D01*
X110919Y100852D01*
Y100854D01*
Y100857D01*
Y100862D01*
Y100869D01*
X110920Y100879D01*
Y100888D01*
X110923Y100913D01*
X110927Y100941D01*
X110934Y100972D01*
X110942Y101004D01*
X110955Y101035D01*
Y101037D01*
X110956Y101040D01*
X110959Y101044D01*
X110962Y101049D01*
X110970Y101065D01*
X110981Y101084D01*
X110996Y101105D01*
X111014Y101126D01*
X111035Y101148D01*
X111059Y101166D01*
X111060D01*
X111062Y101167D01*
X111066Y101170D01*
X111071Y101173D01*
X111085Y101181D01*
X111105Y101189D01*
X111128Y101198D01*
X111156Y101206D01*
X111186Y101212D01*
X111220Y101213D01*
X111232D01*
X111241Y101212D01*
D02*
G37*
G36*
X95999Y102911D02*
X96012Y102910D01*
X96027Y102908D01*
X96042Y102907D01*
X96060Y102903D01*
X96098Y102894D01*
X96139Y102882D01*
X96160Y102874D01*
X96179Y102864D01*
X96199Y102851D01*
X96218Y102839D01*
X96220Y102838D01*
X96222Y102836D01*
X96228Y102832D01*
X96235Y102825D01*
X96242Y102818D01*
X96252Y102808D01*
X96261Y102797D01*
X96272Y102786D01*
X96283Y102772D01*
X96295Y102756D01*
X96307Y102739D01*
X96318Y102721D01*
X96328Y102700D01*
X96339Y102679D01*
X96347Y102657D01*
X96356Y102632D01*
X96231Y102603D01*
Y102605D01*
X96229Y102607D01*
X96227Y102613D01*
X96224Y102620D01*
X96221Y102628D01*
X96217Y102639D01*
X96206Y102661D01*
X96192Y102686D01*
X96175Y102711D01*
X96154Y102735D01*
X96132Y102756D01*
X96130Y102758D01*
X96121Y102764D01*
X96107Y102771D01*
X96089Y102781D01*
X96066Y102789D01*
X96039Y102797D01*
X96007Y102803D01*
X95973Y102804D01*
X95962D01*
X95955Y102803D01*
X95945D01*
X95934Y102801D01*
X95908Y102797D01*
X95879Y102792D01*
X95848Y102782D01*
X95816Y102768D01*
X95787Y102750D01*
X95786D01*
X95784Y102747D01*
X95774Y102740D01*
X95762Y102729D01*
X95747Y102713D01*
X95729Y102692D01*
X95712Y102668D01*
X95697Y102639D01*
X95683Y102607D01*
Y102606D01*
X95682Y102603D01*
X95680Y102599D01*
X95679Y102592D01*
X95676Y102584D01*
X95673Y102574D01*
X95669Y102550D01*
X95664Y102523D01*
X95658Y102492D01*
X95655Y102459D01*
X95654Y102423D01*
Y102421D01*
Y102417D01*
Y102410D01*
Y102402D01*
X95655Y102392D01*
Y102380D01*
X95657Y102366D01*
X95658Y102351D01*
X95662Y102317D01*
X95669Y102281D01*
X95677Y102245D01*
X95689Y102209D01*
Y102208D01*
X95690Y102205D01*
X95693Y102201D01*
X95695Y102194D01*
X95704Y102177D01*
X95716Y102158D01*
X95732Y102136D01*
X95751Y102112D01*
X95773Y102091D01*
X95799Y102072D01*
X95801D01*
X95804Y102071D01*
X95808Y102068D01*
X95813Y102065D01*
X95820Y102062D01*
X95829Y102058D01*
X95848Y102050D01*
X95873Y102041D01*
X95901Y102035D01*
X95931Y102029D01*
X95963Y102028D01*
X95973D01*
X95981Y102029D01*
X95991D01*
X96001Y102030D01*
X96026Y102036D01*
X96055Y102043D01*
X96084Y102054D01*
X96114Y102069D01*
X96130Y102078D01*
X96143Y102089D01*
X96145Y102090D01*
X96146Y102091D01*
X96150Y102096D01*
X96156Y102100D01*
X96161Y102107D01*
X96168Y102115D01*
X96177Y102123D01*
X96184Y102134D01*
X96192Y102147D01*
X96202Y102161D01*
X96210Y102175D01*
X96218Y102191D01*
X96225Y102209D01*
X96232Y102229D01*
X96239Y102249D01*
X96245Y102272D01*
X96372Y102240D01*
Y102238D01*
X96371Y102233D01*
X96368Y102225D01*
X96364Y102213D01*
X96360Y102201D01*
X96354Y102186D01*
X96347Y102169D01*
X96339Y102151D01*
X96320Y102112D01*
X96295Y102073D01*
X96279Y102054D01*
X96264Y102035D01*
X96247Y102018D01*
X96228Y102001D01*
X96227Y102000D01*
X96224Y101997D01*
X96217Y101994D01*
X96210Y101989D01*
X96199Y101982D01*
X96188Y101975D01*
X96173Y101968D01*
X96157Y101961D01*
X96139Y101953D01*
X96120Y101946D01*
X96099Y101939D01*
X96077Y101932D01*
X96053Y101926D01*
X96028Y101924D01*
X96002Y101921D01*
X95974Y101919D01*
X95959D01*
X95948Y101921D01*
X95935D01*
X95920Y101922D01*
X95903Y101925D01*
X95884Y101928D01*
X95844Y101935D01*
X95802Y101946D01*
X95761Y101961D01*
X95741Y101971D01*
X95722Y101982D01*
X95720Y101983D01*
X95718Y101985D01*
X95712Y101989D01*
X95707Y101994D01*
X95698Y102000D01*
X95689Y102008D01*
X95677Y102018D01*
X95666Y102029D01*
X95655Y102041D01*
X95643Y102054D01*
X95618Y102086D01*
X95594Y102123D01*
X95573Y102165D01*
Y102166D01*
X95571Y102170D01*
X95569Y102177D01*
X95565Y102186D01*
X95562Y102197D01*
X95558Y102211D01*
X95553Y102226D01*
X95548Y102243D01*
X95544Y102261D01*
X95539Y102281D01*
X95532Y102324D01*
X95526Y102373D01*
X95523Y102423D01*
Y102424D01*
Y102430D01*
Y102438D01*
X95525Y102448D01*
Y102462D01*
X95526Y102476D01*
X95528Y102494D01*
X95530Y102512D01*
X95537Y102552D01*
X95547Y102596D01*
X95561Y102641D01*
X95580Y102684D01*
X95582Y102685D01*
X95583Y102689D01*
X95586Y102695D01*
X95591Y102702D01*
X95597Y102711D01*
X95604Y102722D01*
X95622Y102747D01*
X95646Y102775D01*
X95673Y102803D01*
X95705Y102831D01*
X95743Y102854D01*
X95744Y102856D01*
X95748Y102857D01*
X95754Y102860D01*
X95761Y102864D01*
X95772Y102868D01*
X95783Y102872D01*
X95797Y102878D01*
X95812Y102883D01*
X95829Y102889D01*
X95847Y102894D01*
X95885Y102903D01*
X95930Y102910D01*
X95976Y102912D01*
X95989D01*
X95999Y102911D01*
D02*
G37*
G36*
X105842Y101936D02*
X105729D01*
X105467Y102632D01*
X105592D01*
X105742Y102215D01*
Y102213D01*
X105743Y102212D01*
X105744Y102208D01*
X105746Y102204D01*
X105750Y102190D01*
X105756Y102172D01*
X105763Y102151D01*
X105771Y102127D01*
X105778Y102101D01*
X105786Y102075D01*
X105787Y102078D01*
X105789Y102084D01*
X105793Y102096D01*
X105797Y102112D01*
X105804Y102130D01*
X105811Y102154D01*
X105821Y102179D01*
X105830Y102207D01*
X105984Y102632D01*
X106106D01*
X105842Y101936D01*
D02*
G37*
G36*
X103860Y102771D02*
X103476D01*
X103424Y102512D01*
X103426Y102513D01*
X103428Y102514D01*
X103433Y102517D01*
X103440Y102521D01*
X103448Y102525D01*
X103458Y102531D01*
X103480Y102542D01*
X103508Y102553D01*
X103538Y102563D01*
X103571Y102570D01*
X103588Y102573D01*
X103618D01*
X103627Y102571D01*
X103638Y102570D01*
X103650Y102568D01*
X103664Y102566D01*
X103679Y102562D01*
X103713Y102552D01*
X103731Y102545D01*
X103749Y102535D01*
X103767Y102525D01*
X103785Y102514D01*
X103802Y102501D01*
X103818Y102485D01*
X103820Y102484D01*
X103822Y102481D01*
X103826Y102477D01*
X103832Y102470D01*
X103839Y102460D01*
X103846Y102451D01*
X103854Y102438D01*
X103863Y102424D01*
X103869Y102409D01*
X103878Y102392D01*
X103885Y102373D01*
X103892Y102354D01*
X103897Y102333D01*
X103901Y102309D01*
X103904Y102286D01*
X103906Y102261D01*
Y102259D01*
Y102255D01*
Y102248D01*
X103904Y102238D01*
X103903Y102227D01*
X103901Y102215D01*
X103899Y102200D01*
X103896Y102184D01*
X103888Y102148D01*
X103874Y102111D01*
X103865Y102091D01*
X103854Y102073D01*
X103843Y102054D01*
X103829Y102036D01*
X103828Y102035D01*
X103825Y102030D01*
X103820Y102025D01*
X103813Y102018D01*
X103803Y102010D01*
X103792Y101998D01*
X103778Y101989D01*
X103763Y101978D01*
X103746Y101967D01*
X103727Y101957D01*
X103706Y101947D01*
X103684Y101937D01*
X103660Y101931D01*
X103634Y101925D01*
X103606Y101921D01*
X103577Y101919D01*
X103564D01*
X103555Y101921D01*
X103544Y101922D01*
X103531Y101924D01*
X103516Y101925D01*
X103501Y101929D01*
X103466Y101937D01*
X103431Y101950D01*
X103413Y101958D01*
X103395Y101968D01*
X103379Y101979D01*
X103362Y101992D01*
X103361Y101993D01*
X103358Y101994D01*
X103355Y102000D01*
X103349Y102005D01*
X103342Y102012D01*
X103336Y102021D01*
X103327Y102032D01*
X103320Y102044D01*
X103312Y102057D01*
X103304Y102072D01*
X103288Y102105D01*
X103276Y102144D01*
X103272Y102165D01*
X103269Y102187D01*
X103392Y102197D01*
Y102195D01*
Y102193D01*
X103394Y102188D01*
X103395Y102182D01*
X103399Y102166D01*
X103405Y102145D01*
X103413Y102125D01*
X103424Y102101D01*
X103438Y102080D01*
X103455Y102061D01*
X103458Y102060D01*
X103463Y102054D01*
X103474Y102047D01*
X103489Y102039D01*
X103506Y102030D01*
X103527Y102023D01*
X103551Y102018D01*
X103577Y102017D01*
X103585D01*
X103591Y102018D01*
X103607Y102019D01*
X103627Y102025D01*
X103650Y102032D01*
X103674Y102043D01*
X103699Y102060D01*
X103710Y102069D01*
X103721Y102080D01*
X103722Y102082D01*
X103724Y102083D01*
X103727Y102087D01*
X103731Y102091D01*
X103741Y102107D01*
X103752Y102126D01*
X103761Y102150D01*
X103771Y102179D01*
X103778Y102213D01*
X103781Y102231D01*
Y102251D01*
Y102252D01*
Y102255D01*
Y102261D01*
X103779Y102268D01*
Y102276D01*
X103778Y102286D01*
X103774Y102308D01*
X103767Y102334D01*
X103757Y102360D01*
X103743Y102385D01*
X103724Y102409D01*
Y102410D01*
X103721Y102412D01*
X103714Y102419D01*
X103702Y102428D01*
X103685Y102439D01*
X103663Y102449D01*
X103638Y102459D01*
X103609Y102466D01*
X103592Y102469D01*
X103566D01*
X103555Y102467D01*
X103541Y102466D01*
X103524Y102462D01*
X103508Y102458D01*
X103489Y102451D01*
X103471Y102442D01*
X103470Y102441D01*
X103465Y102438D01*
X103456Y102431D01*
X103445Y102424D01*
X103434Y102415D01*
X103423Y102402D01*
X103410Y102390D01*
X103401Y102374D01*
X103290Y102390D01*
X103383Y102883D01*
X103860D01*
Y102771D01*
D02*
G37*
G36*
X94458Y102241D02*
Y102240D01*
Y102236D01*
Y102230D01*
Y102222D01*
X94457Y102211D01*
Y102200D01*
X94454Y102173D01*
X94451Y102143D01*
X94446Y102111D01*
X94438Y102082D01*
X94428Y102054D01*
Y102053D01*
X94426Y102051D01*
X94422Y102043D01*
X94415Y102032D01*
X94406Y102017D01*
X94392Y102001D01*
X94377Y101985D01*
X94357Y101968D01*
X94335Y101954D01*
X94332Y101953D01*
X94324Y101949D01*
X94311Y101943D01*
X94293Y101937D01*
X94271Y101931D01*
X94246Y101925D01*
X94218Y101921D01*
X94188Y101919D01*
X94175D01*
X94167Y101921D01*
X94156Y101922D01*
X94145Y101924D01*
X94116Y101929D01*
X94085Y101937D01*
X94053Y101950D01*
X94037Y101958D01*
X94022Y101968D01*
X94008Y101979D01*
X93994Y101992D01*
X93992Y101993D01*
X93991Y101994D01*
X93988Y102000D01*
X93984Y102005D01*
X93979Y102012D01*
X93973Y102022D01*
X93967Y102033D01*
X93961Y102046D01*
X93955Y102060D01*
X93949Y102076D01*
X93944Y102093D01*
X93938Y102112D01*
X93936Y102133D01*
X93931Y102157D01*
X93930Y102180D01*
Y102207D01*
X94045Y102223D01*
Y102222D01*
Y102219D01*
Y102213D01*
X94046Y102205D01*
X94048Y102197D01*
Y102187D01*
X94052Y102164D01*
X94056Y102139D01*
X94065Y102114D01*
X94073Y102091D01*
X94078Y102082D01*
X94085Y102073D01*
X94087Y102072D01*
X94092Y102068D01*
X94101Y102061D01*
X94112Y102054D01*
X94127Y102046D01*
X94144Y102040D01*
X94164Y102035D01*
X94187Y102033D01*
X94195D01*
X94203Y102035D01*
X94216Y102036D01*
X94228Y102039D01*
X94242Y102041D01*
X94256Y102047D01*
X94270Y102054D01*
X94271Y102055D01*
X94275Y102058D01*
X94281Y102064D01*
X94289Y102069D01*
X94296Y102079D01*
X94304Y102089D01*
X94311Y102100D01*
X94317Y102114D01*
Y102115D01*
X94320Y102121D01*
X94321Y102130D01*
X94324Y102143D01*
X94327Y102159D01*
X94328Y102180D01*
X94331Y102205D01*
Y102234D01*
Y102896D01*
X94458D01*
Y102241D01*
D02*
G37*
G36*
X107172Y101464D02*
X107190Y101461D01*
X107210Y101457D01*
X107233Y101452D01*
X107256Y101445D01*
X107278Y101433D01*
X107280D01*
X107281Y101432D01*
X107288Y101428D01*
X107299Y101421D01*
X107313Y101411D01*
X107328Y101397D01*
X107345Y101382D01*
X107360Y101364D01*
X107375Y101343D01*
X107377Y101341D01*
X107382Y101334D01*
X107388Y101321D01*
X107398Y101303D01*
X107406Y101282D01*
X107417Y101259D01*
X107427Y101231D01*
X107435Y101201D01*
Y101199D01*
X107436Y101196D01*
X107438Y101192D01*
X107439Y101185D01*
X107441Y101177D01*
X107442Y101167D01*
X107445Y101155D01*
X107446Y101141D01*
X107449Y101126D01*
X107450Y101109D01*
X107452Y101090D01*
X107454Y101070D01*
X107456Y101048D01*
Y101026D01*
X107457Y101001D01*
Y100974D01*
Y100973D01*
Y100968D01*
Y100958D01*
Y100947D01*
X107456Y100931D01*
Y100915D01*
X107454Y100897D01*
X107453Y100877D01*
X107449Y100833D01*
X107442Y100787D01*
X107434Y100743D01*
X107428Y100722D01*
X107421Y100701D01*
Y100700D01*
X107420Y100697D01*
X107417Y100692D01*
X107414Y100685D01*
X107411Y100675D01*
X107406Y100665D01*
X107395Y100642D01*
X107381Y100617D01*
X107363Y100589D01*
X107342Y100564D01*
X107317Y100540D01*
X107316D01*
X107314Y100538D01*
X107310Y100535D01*
X107305Y100532D01*
X107298Y100528D01*
X107291Y100522D01*
X107270Y100513D01*
X107245Y100503D01*
X107216Y100493D01*
X107181Y100488D01*
X107144Y100485D01*
X107130D01*
X107120Y100486D01*
X107109Y100488D01*
X107095Y100490D01*
X107080Y100493D01*
X107063Y100497D01*
X107047Y100503D01*
X107029Y100508D01*
X107011Y100517D01*
X106993Y100526D01*
X106975Y100538D01*
X106957Y100551D01*
X106940Y100567D01*
X106925Y100583D01*
X106923Y100585D01*
X106921Y100589D01*
X106916Y100596D01*
X106909Y100607D01*
X106902Y100619D01*
X106896Y100636D01*
X106886Y100655D01*
X106878Y100678D01*
X106869Y100703D01*
X106861Y100732D01*
X106853Y100764D01*
X106846Y100800D01*
X106839Y100839D01*
X106835Y100880D01*
X106832Y100926D01*
X106830Y100974D01*
Y100976D01*
Y100981D01*
Y100991D01*
Y101002D01*
X106832Y101017D01*
Y101034D01*
X106833Y101052D01*
X106835Y101073D01*
X106839Y101116D01*
X106846Y101162D01*
X106854Y101207D01*
X106860Y101228D01*
X106865Y101249D01*
Y101250D01*
X106866Y101253D01*
X106869Y101259D01*
X106872Y101266D01*
X106875Y101275D01*
X106880Y101285D01*
X106891Y101309D01*
X106905Y101334D01*
X106923Y101360D01*
X106944Y101386D01*
X106969Y101409D01*
X106970D01*
X106972Y101411D01*
X106976Y101414D01*
X106982Y101417D01*
X106988Y101422D01*
X106997Y101427D01*
X107018Y101438D01*
X107043Y101447D01*
X107072Y101457D01*
X107106Y101463D01*
X107144Y101465D01*
X107156D01*
X107172Y101464D01*
D02*
G37*
G36*
X97584Y101327D02*
X97466D01*
Y101461D01*
X97584D01*
Y101327D01*
D02*
G37*
G36*
X101685D02*
X101567D01*
Y101461D01*
X101685D01*
Y101327D01*
D02*
G37*
G36*
X110784D02*
X110666D01*
Y101461D01*
X110784D01*
Y101327D01*
D02*
G37*
G36*
X118907Y100502D02*
X118797D01*
Y100589D01*
X118796Y100588D01*
X118795Y100585D01*
X118790Y100579D01*
X118785Y100572D01*
X118778Y100565D01*
X118770Y100557D01*
X118760Y100547D01*
X118747Y100538D01*
X118735Y100528D01*
X118721Y100518D01*
X118705Y100510D01*
X118686Y100503D01*
X118668Y100496D01*
X118648Y100490D01*
X118625Y100488D01*
X118602Y100486D01*
X118594D01*
X118588Y100488D01*
X118571Y100489D01*
X118552Y100492D01*
X118528Y100497D01*
X118502Y100506D01*
X118476Y100517D01*
X118449Y100532D01*
X118448D01*
X118447Y100535D01*
X118438Y100540D01*
X118426Y100551D01*
X118410Y100565D01*
X118392Y100583D01*
X118374Y100606D01*
X118356Y100631D01*
X118341Y100660D01*
Y100661D01*
X118340Y100664D01*
X118338Y100668D01*
X118336Y100674D01*
X118333Y100682D01*
X118329Y100692D01*
X118326Y100701D01*
X118323Y100714D01*
X118316Y100741D01*
X118309Y100773D01*
X118305Y100809D01*
X118304Y100848D01*
Y100850D01*
Y100852D01*
Y100858D01*
Y100866D01*
X118305Y100875D01*
Y100886D01*
X118308Y100911D01*
X118312Y100940D01*
X118319Y100972D01*
X118327Y101005D01*
X118338Y101037D01*
Y101038D01*
X118340Y101041D01*
X118343Y101045D01*
X118345Y101051D01*
X118354Y101066D01*
X118365Y101085D01*
X118379Y101106D01*
X118397Y101127D01*
X118417Y101149D01*
X118442Y101167D01*
X118444D01*
X118445Y101169D01*
X118449Y101171D01*
X118455Y101174D01*
X118469Y101181D01*
X118488Y101191D01*
X118510Y101199D01*
X118537Y101206D01*
X118566Y101212D01*
X118596Y101213D01*
X118607D01*
X118619Y101212D01*
X118634Y101210D01*
X118652Y101206D01*
X118671Y101202D01*
X118691Y101195D01*
X118709Y101185D01*
X118711Y101184D01*
X118717Y101181D01*
X118725Y101174D01*
X118736Y101167D01*
X118750Y101158D01*
X118763Y101145D01*
X118777Y101133D01*
X118789Y101117D01*
Y101461D01*
X118907D01*
Y100502D01*
D02*
G37*
G36*
X110497Y101212D02*
X110512Y101209D01*
X110530Y101203D01*
X110550Y101196D01*
X110572Y101187D01*
X110596Y101174D01*
X110553Y101066D01*
X110551Y101067D01*
X110546Y101070D01*
X110537Y101074D01*
X110526Y101078D01*
X110514Y101083D01*
X110499Y101087D01*
X110483Y101090D01*
X110468Y101091D01*
X110461D01*
X110454Y101090D01*
X110444Y101088D01*
X110435Y101085D01*
X110422Y101081D01*
X110410Y101076D01*
X110399Y101067D01*
X110397Y101066D01*
X110393Y101063D01*
X110389Y101058D01*
X110382Y101051D01*
X110375Y101041D01*
X110368Y101030D01*
X110361Y101017D01*
X110356Y101002D01*
X110354Y100999D01*
X110353Y100991D01*
X110350Y100979D01*
X110346Y100962D01*
X110342Y100941D01*
X110339Y100918D01*
X110338Y100893D01*
X110336Y100865D01*
Y100502D01*
X110218D01*
Y101198D01*
X110325D01*
Y101092D01*
X110327Y101094D01*
X110332Y101103D01*
X110339Y101116D01*
X110350Y101131D01*
X110361Y101146D01*
X110374Y101163D01*
X110386Y101177D01*
X110399Y101188D01*
X110400Y101189D01*
X110404Y101192D01*
X110413Y101196D01*
X110421Y101201D01*
X110432Y101205D01*
X110446Y101209D01*
X110460Y101212D01*
X110475Y101213D01*
X110485D01*
X110497Y101212D01*
D02*
G37*
G36*
X114152D02*
X114167Y101209D01*
X114185Y101203D01*
X114204Y101196D01*
X114226Y101187D01*
X114250Y101174D01*
X114207Y101066D01*
X114206Y101067D01*
X114200Y101070D01*
X114192Y101074D01*
X114181Y101078D01*
X114168Y101083D01*
X114153Y101087D01*
X114138Y101090D01*
X114122Y101091D01*
X114115D01*
X114109Y101090D01*
X114099Y101088D01*
X114089Y101085D01*
X114077Y101081D01*
X114064Y101076D01*
X114053Y101067D01*
X114052Y101066D01*
X114048Y101063D01*
X114043Y101058D01*
X114036Y101051D01*
X114029Y101041D01*
X114023Y101030D01*
X114016Y101017D01*
X114010Y101002D01*
X114009Y100999D01*
X114007Y100991D01*
X114005Y100979D01*
X114000Y100962D01*
X113996Y100941D01*
X113993Y100918D01*
X113992Y100893D01*
X113991Y100865D01*
Y100502D01*
X113873D01*
Y101198D01*
X113980D01*
Y101092D01*
X113981Y101094D01*
X113986Y101103D01*
X113993Y101116D01*
X114005Y101131D01*
X114016Y101146D01*
X114028Y101163D01*
X114041Y101177D01*
X114053Y101188D01*
X114054Y101189D01*
X114059Y101192D01*
X114067Y101196D01*
X114075Y101201D01*
X114086Y101205D01*
X114100Y101209D01*
X114114Y101212D01*
X114129Y101213D01*
X114139D01*
X114152Y101212D01*
D02*
G37*
G36*
X116762D02*
X116777Y101209D01*
X116795Y101203D01*
X116814Y101196D01*
X116836Y101187D01*
X116860Y101174D01*
X116817Y101066D01*
X116816Y101067D01*
X116810Y101070D01*
X116802Y101074D01*
X116791Y101078D01*
X116778Y101083D01*
X116763Y101087D01*
X116748Y101090D01*
X116732Y101091D01*
X116725D01*
X116719Y101090D01*
X116709Y101088D01*
X116699Y101085D01*
X116687Y101081D01*
X116674Y101076D01*
X116663Y101067D01*
X116662Y101066D01*
X116658Y101063D01*
X116653Y101058D01*
X116646Y101051D01*
X116640Y101041D01*
X116633Y101030D01*
X116626Y101017D01*
X116620Y101002D01*
X116619Y100999D01*
X116617Y100991D01*
X116615Y100979D01*
X116610Y100962D01*
X116606Y100941D01*
X116603Y100918D01*
X116602Y100893D01*
X116601Y100865D01*
Y100502D01*
X116483D01*
Y101198D01*
X116590D01*
Y101092D01*
X116591Y101094D01*
X116597Y101103D01*
X116603Y101116D01*
X116615Y101131D01*
X116626Y101146D01*
X116638Y101163D01*
X116651Y101177D01*
X116663Y101188D01*
X116664Y101189D01*
X116669Y101192D01*
X116677Y101196D01*
X116685Y101201D01*
X116696Y101205D01*
X116710Y101209D01*
X116724Y101212D01*
X116739Y101213D01*
X116749D01*
X116762Y101212D01*
D02*
G37*
G36*
X97217Y102782D02*
X96901D01*
Y101936D01*
X96773D01*
Y102782D01*
X96457D01*
Y102896D01*
X97217D01*
Y102782D01*
D02*
G37*
G36*
X97641Y102899D02*
X97652Y102897D01*
X97666Y102896D01*
X97681Y102893D01*
X97697Y102890D01*
X97733Y102881D01*
X97769Y102867D01*
X97787Y102858D01*
X97805Y102849D01*
X97821Y102836D01*
X97837Y102822D01*
X97838Y102821D01*
X97841Y102819D01*
X97844Y102814D01*
X97849Y102808D01*
X97856Y102801D01*
X97863Y102792D01*
X97870Y102782D01*
X97878Y102770D01*
X97892Y102743D01*
X97906Y102710D01*
X97912Y102693D01*
X97914Y102674D01*
X97917Y102654D01*
X97919Y102634D01*
Y102631D01*
Y102624D01*
X97917Y102613D01*
X97916Y102598D01*
X97913Y102581D01*
X97907Y102562D01*
X97902Y102541D01*
X97894Y102520D01*
X97892Y102517D01*
X97889Y102510D01*
X97884Y102499D01*
X97876Y102484D01*
X97864Y102467D01*
X97851Y102446D01*
X97834Y102426D01*
X97815Y102402D01*
X97812Y102399D01*
X97805Y102391D01*
X97798Y102384D01*
X97791Y102377D01*
X97783Y102369D01*
X97772Y102358D01*
X97760Y102347D01*
X97747Y102334D01*
X97733Y102320D01*
X97716Y102305D01*
X97698Y102290D01*
X97679Y102272D01*
X97656Y102254D01*
X97634Y102234D01*
X97633Y102233D01*
X97630Y102230D01*
X97625Y102226D01*
X97618Y102220D01*
X97609Y102212D01*
X97600Y102204D01*
X97577Y102186D01*
X97554Y102165D01*
X97532Y102144D01*
X97512Y102126D01*
X97504Y102119D01*
X97497Y102112D01*
X97496Y102111D01*
X97491Y102107D01*
X97486Y102101D01*
X97479Y102093D01*
X97472Y102083D01*
X97464Y102073D01*
X97447Y102050D01*
X97920D01*
Y101936D01*
X97283D01*
Y101937D01*
Y101943D01*
Y101951D01*
X97285Y101962D01*
X97286Y101975D01*
X97289Y101989D01*
X97292Y102003D01*
X97297Y102018D01*
Y102019D01*
X97299Y102021D01*
X97301Y102029D01*
X97307Y102041D01*
X97315Y102058D01*
X97326Y102078D01*
X97340Y102100D01*
X97355Y102122D01*
X97375Y102145D01*
Y102147D01*
X97378Y102148D01*
X97385Y102157D01*
X97397Y102169D01*
X97415Y102187D01*
X97436Y102208D01*
X97462Y102233D01*
X97494Y102261D01*
X97529Y102290D01*
X97530Y102291D01*
X97536Y102295D01*
X97544Y102302D01*
X97554Y102311D01*
X97566Y102322D01*
X97582Y102334D01*
X97597Y102348D01*
X97615Y102363D01*
X97649Y102397D01*
X97684Y102430D01*
X97701Y102446D01*
X97716Y102463D01*
X97730Y102478D01*
X97741Y102494D01*
Y102495D01*
X97744Y102496D01*
X97747Y102501D01*
X97749Y102506D01*
X97759Y102521D01*
X97770Y102539D01*
X97780Y102562D01*
X97790Y102585D01*
X97795Y102611D01*
X97798Y102636D01*
Y102638D01*
Y102639D01*
X97797Y102648D01*
X97795Y102661D01*
X97791Y102677D01*
X97785Y102696D01*
X97776Y102715D01*
X97763Y102735D01*
X97747Y102754D01*
X97744Y102757D01*
X97737Y102763D01*
X97727Y102770D01*
X97712Y102779D01*
X97692Y102788D01*
X97670Y102796D01*
X97644Y102801D01*
X97615Y102803D01*
X97607D01*
X97601Y102801D01*
X97584Y102800D01*
X97565Y102796D01*
X97544Y102790D01*
X97521Y102781D01*
X97498Y102768D01*
X97478Y102752D01*
X97475Y102749D01*
X97469Y102742D01*
X97461Y102731D01*
X97453Y102714D01*
X97443Y102695D01*
X97435Y102670D01*
X97429Y102642D01*
X97426Y102610D01*
X97306Y102623D01*
Y102624D01*
X97307Y102628D01*
Y102635D01*
X97308Y102645D01*
X97311Y102656D01*
X97314Y102668D01*
X97318Y102684D01*
X97322Y102699D01*
X97333Y102732D01*
X97350Y102765D01*
X97360Y102782D01*
X97372Y102799D01*
X97385Y102814D01*
X97398Y102828D01*
X97400Y102829D01*
X97403Y102831D01*
X97407Y102835D01*
X97414Y102839D01*
X97422Y102844D01*
X97432Y102850D01*
X97443Y102857D01*
X97457Y102864D01*
X97472Y102871D01*
X97489Y102878D01*
X97507Y102883D01*
X97526Y102889D01*
X97547Y102893D01*
X97569Y102897D01*
X97593Y102899D01*
X97618Y102900D01*
X97631D01*
X97641Y102899D01*
D02*
G37*
G36*
X98541Y102274D02*
X98672D01*
Y102166D01*
X98541D01*
Y101936D01*
X98423D01*
Y102166D01*
X98006D01*
Y102274D01*
X98446Y102896D01*
X98541D01*
Y102274D01*
D02*
G37*
G36*
X95048Y102894D02*
X95059D01*
X95084Y102892D01*
X95112Y102889D01*
X95141Y102883D01*
X95170Y102876D01*
X95196Y102867D01*
X95198D01*
X95199Y102865D01*
X95207Y102861D01*
X95220Y102854D01*
X95234Y102844D01*
X95250Y102832D01*
X95268Y102817D01*
X95285Y102797D01*
X95300Y102776D01*
X95302Y102774D01*
X95306Y102765D01*
X95313Y102754D01*
X95320Y102738D01*
X95327Y102718D01*
X95333Y102697D01*
X95338Y102674D01*
X95339Y102650D01*
Y102648D01*
Y102641D01*
X95338Y102628D01*
X95335Y102613D01*
X95331Y102595D01*
X95324Y102575D01*
X95315Y102556D01*
X95304Y102535D01*
X95303Y102532D01*
X95299Y102527D01*
X95290Y102516D01*
X95279Y102505D01*
X95266Y102491D01*
X95249Y102476D01*
X95228Y102462D01*
X95205Y102448D01*
X95206D01*
X95209Y102446D01*
X95213Y102445D01*
X95218Y102442D01*
X95235Y102437D01*
X95254Y102427D01*
X95275Y102415D01*
X95299Y102399D01*
X95320Y102381D01*
X95339Y102359D01*
X95340Y102356D01*
X95346Y102348D01*
X95354Y102335D01*
X95363Y102319D01*
X95371Y102297D01*
X95379Y102273D01*
X95385Y102245D01*
X95386Y102215D01*
Y102213D01*
Y102212D01*
Y102204D01*
X95385Y102190D01*
X95382Y102173D01*
X95379Y102154D01*
X95374Y102133D01*
X95367Y102111D01*
X95357Y102089D01*
X95356Y102086D01*
X95352Y102079D01*
X95346Y102069D01*
X95338Y102055D01*
X95327Y102041D01*
X95315Y102026D01*
X95302Y102011D01*
X95286Y101998D01*
X95285Y101997D01*
X95279Y101993D01*
X95270Y101987D01*
X95257Y101982D01*
X95242Y101974D01*
X95224Y101965D01*
X95205Y101958D01*
X95181Y101951D01*
X95178D01*
X95170Y101949D01*
X95156Y101947D01*
X95138Y101944D01*
X95116Y101942D01*
X95089Y101939D01*
X95060Y101937D01*
X95027Y101936D01*
X94661D01*
Y102896D01*
X95038D01*
X95048Y102894D01*
D02*
G37*
G36*
X100243Y101670D02*
X99462D01*
Y101754D01*
X100243D01*
Y101670D01*
D02*
G37*
G36*
X104720D02*
X103939D01*
Y101754D01*
X104720D01*
Y101670D01*
D02*
G37*
G36*
X101372Y102899D02*
X101390Y102896D01*
X101411Y102892D01*
X101433Y102886D01*
X101456Y102879D01*
X101479Y102868D01*
X101480D01*
X101481Y102867D01*
X101488Y102862D01*
X101499Y102856D01*
X101513Y102846D01*
X101529Y102832D01*
X101545Y102817D01*
X101560Y102799D01*
X101576Y102778D01*
X101577Y102775D01*
X101583Y102768D01*
X101588Y102756D01*
X101598Y102738D01*
X101606Y102717D01*
X101617Y102693D01*
X101627Y102666D01*
X101635Y102635D01*
Y102634D01*
X101637Y102631D01*
X101638Y102627D01*
X101639Y102620D01*
X101641Y102611D01*
X101642Y102602D01*
X101645Y102589D01*
X101646Y102575D01*
X101649Y102560D01*
X101651Y102544D01*
X101652Y102524D01*
X101655Y102505D01*
X101656Y102482D01*
Y102460D01*
X101657Y102435D01*
Y102409D01*
Y102408D01*
Y102402D01*
Y102392D01*
Y102381D01*
X101656Y102366D01*
Y102349D01*
X101655Y102331D01*
X101653Y102312D01*
X101649Y102268D01*
X101642Y102222D01*
X101634Y102177D01*
X101628Y102157D01*
X101621Y102136D01*
Y102134D01*
X101620Y102132D01*
X101617Y102126D01*
X101614Y102119D01*
X101612Y102109D01*
X101606Y102100D01*
X101595Y102076D01*
X101581Y102051D01*
X101563Y102023D01*
X101542Y101998D01*
X101517Y101975D01*
X101516D01*
X101515Y101972D01*
X101510Y101969D01*
X101505Y101967D01*
X101498Y101962D01*
X101491Y101957D01*
X101470Y101947D01*
X101445Y101937D01*
X101416Y101928D01*
X101381Y101922D01*
X101344Y101919D01*
X101330D01*
X101320Y101921D01*
X101309Y101922D01*
X101296Y101925D01*
X101280Y101928D01*
X101264Y101932D01*
X101247Y101937D01*
X101229Y101943D01*
X101211Y101951D01*
X101193Y101961D01*
X101175Y101972D01*
X101157Y101986D01*
X101140Y102001D01*
X101125Y102018D01*
X101124Y102019D01*
X101121Y102023D01*
X101117Y102030D01*
X101110Y102041D01*
X101103Y102054D01*
X101096Y102071D01*
X101086Y102090D01*
X101078Y102112D01*
X101069Y102137D01*
X101061Y102166D01*
X101053Y102198D01*
X101046Y102234D01*
X101039Y102273D01*
X101035Y102315D01*
X101032Y102360D01*
X101031Y102409D01*
Y102410D01*
Y102416D01*
Y102426D01*
Y102437D01*
X101032Y102452D01*
Y102469D01*
X101033Y102487D01*
X101035Y102507D01*
X101039Y102550D01*
X101046Y102596D01*
X101054Y102642D01*
X101060Y102663D01*
X101065Y102684D01*
Y102685D01*
X101067Y102688D01*
X101069Y102693D01*
X101072Y102700D01*
X101075Y102710D01*
X101081Y102720D01*
X101092Y102743D01*
X101106Y102768D01*
X101124Y102795D01*
X101144Y102821D01*
X101169Y102843D01*
X101171D01*
X101172Y102846D01*
X101176Y102849D01*
X101182Y102851D01*
X101189Y102857D01*
X101197Y102861D01*
X101218Y102872D01*
X101243Y102882D01*
X101272Y102892D01*
X101307Y102897D01*
X101344Y102900D01*
X101357D01*
X101372Y102899D01*
D02*
G37*
%LPC*%
G36*
X95722Y101361D02*
Y101360D01*
X95720Y101357D01*
Y101352D01*
X95718Y101346D01*
X95716Y101336D01*
X95713Y101327D01*
X95708Y101303D01*
X95701Y101275D01*
X95691Y101245D01*
X95682Y101212D01*
X95669Y101177D01*
X95565Y100897D01*
X95890D01*
X95790Y101160D01*
Y101162D01*
X95788Y101166D01*
X95786Y101173D01*
X95783Y101181D01*
X95779Y101191D01*
X95774Y101203D01*
X95770Y101217D01*
X95765Y101231D01*
X95754Y101263D01*
X95743Y101296D01*
X95732Y101329D01*
X95722Y101361D01*
D02*
G37*
G36*
X94424Y101396D02*
X94414D01*
X94406Y101395D01*
X94396D01*
X94386Y101393D01*
X94374Y101392D01*
X94360Y101389D01*
X94328Y101384D01*
X94295Y101374D01*
X94259Y101360D01*
X94221Y101342D01*
X94220D01*
X94217Y101339D01*
X94212Y101336D01*
X94205Y101332D01*
X94196Y101327D01*
X94187Y101320D01*
X94166Y101303D01*
X94141Y101281D01*
X94114Y101255D01*
X94089Y101223D01*
X94067Y101188D01*
Y101187D01*
X94065Y101184D01*
X94062Y101178D01*
X94059Y101171D01*
X94055Y101162D01*
X94049Y101152D01*
X94045Y101139D01*
X94040Y101126D01*
X94030Y101095D01*
X94020Y101060D01*
X94015Y101022D01*
X94012Y100983D01*
Y100981D01*
Y100979D01*
Y100972D01*
X94013Y100965D01*
Y100955D01*
X94015Y100944D01*
X94016Y100931D01*
X94019Y100918D01*
X94026Y100886D01*
X94034Y100851D01*
X94048Y100815D01*
X94066Y100778D01*
Y100776D01*
X94069Y100773D01*
X94071Y100768D01*
X94076Y100761D01*
X94081Y100753D01*
X94088Y100744D01*
X94105Y100722D01*
X94127Y100697D01*
X94153Y100672D01*
X94184Y100647D01*
X94218Y100625D01*
X94220D01*
X94223Y100622D01*
X94228Y100619D01*
X94235Y100617D01*
X94245Y100612D01*
X94256Y100608D01*
X94267Y100603D01*
X94281Y100599D01*
X94311Y100588D01*
X94346Y100579D01*
X94385Y100574D01*
X94424Y100571D01*
X94435D01*
X94442Y100572D01*
X94451D01*
X94463Y100574D01*
X94475Y100575D01*
X94489Y100578D01*
X94521Y100585D01*
X94555Y100593D01*
X94592Y100607D01*
X94629Y100625D01*
X94630D01*
X94633Y100628D01*
X94639Y100631D01*
X94646Y100635D01*
X94654Y100640D01*
X94664Y100647D01*
X94684Y100664D01*
X94709Y100686D01*
X94734Y100712D01*
X94759Y100743D01*
X94782Y100778D01*
Y100779D01*
X94784Y100782D01*
X94787Y100787D01*
X94790Y100794D01*
X94794Y100804D01*
X94800Y100815D01*
X94804Y100826D01*
X94809Y100840D01*
X94819Y100870D01*
X94829Y100905D01*
X94834Y100944D01*
X94837Y100983D01*
Y100984D01*
Y100987D01*
Y100994D01*
X94836Y101001D01*
Y101010D01*
X94834Y101022D01*
X94833Y101034D01*
X94830Y101048D01*
X94823Y101080D01*
X94813Y101115D01*
X94800Y101151D01*
X94782Y101188D01*
Y101189D01*
X94779Y101192D01*
X94776Y101198D01*
X94772Y101205D01*
X94766Y101213D01*
X94759Y101223D01*
X94741Y101245D01*
X94719Y101270D01*
X94693Y101295D01*
X94662Y101320D01*
X94626Y101342D01*
X94625D01*
X94622Y101345D01*
X94616Y101348D01*
X94610Y101350D01*
X94600Y101354D01*
X94590Y101359D01*
X94578Y101364D01*
X94564Y101370D01*
X94533Y101379D01*
X94499Y101388D01*
X94463Y101393D01*
X94424Y101396D01*
D02*
G37*
%LPD*%
G36*
X94460Y101259D02*
X94481Y101256D01*
X94503Y101250D01*
X94526Y101243D01*
X94551Y101232D01*
X94573Y101219D01*
X94576Y101217D01*
X94583Y101212D01*
X94593Y101202D01*
X94605Y101189D01*
X94619Y101173D01*
X94632Y101153D01*
X94644Y101131D01*
X94654Y101106D01*
X94576Y101085D01*
X94575Y101088D01*
X94572Y101094D01*
X94568Y101102D01*
X94561Y101113D01*
X94553Y101126D01*
X94543Y101138D01*
X94531Y101149D01*
X94517Y101160D01*
X94515Y101162D01*
X94510Y101164D01*
X94503Y101169D01*
X94492Y101174D01*
X94479Y101180D01*
X94464Y101184D01*
X94446Y101187D01*
X94428Y101188D01*
X94421D01*
X94415Y101187D01*
X94402Y101185D01*
X94383Y101181D01*
X94364Y101176D01*
X94343Y101166D01*
X94322Y101152D01*
X94303Y101134D01*
X94302Y101131D01*
X94296Y101124D01*
X94288Y101112D01*
X94279Y101094D01*
X94270Y101073D01*
X94263Y101045D01*
X94257Y101015D01*
X94255Y100979D01*
Y100977D01*
Y100974D01*
Y100969D01*
X94256Y100962D01*
Y100954D01*
X94257Y100944D01*
X94260Y100922D01*
X94266Y100898D01*
X94274Y100873D01*
X94285Y100848D01*
X94300Y100827D01*
X94303Y100825D01*
X94309Y100819D01*
X94318Y100811D01*
X94332Y100802D01*
X94350Y100793D01*
X94370Y100784D01*
X94393Y100779D01*
X94420Y100776D01*
X94429D01*
X94440Y100778D01*
X94456Y100780D01*
X94471Y100784D01*
X94489Y100790D01*
X94507Y100798D01*
X94524Y100809D01*
X94525Y100811D01*
X94531Y100816D01*
X94539Y100823D01*
X94547Y100834D01*
X94558Y100847D01*
X94568Y100864D01*
X94576Y100882D01*
X94583Y100902D01*
X94664Y100879D01*
Y100877D01*
X94662Y100875D01*
X94661Y100870D01*
X94659Y100865D01*
X94654Y100851D01*
X94646Y100832D01*
X94635Y100811D01*
X94619Y100789D01*
X94601Y100768D01*
X94579Y100748D01*
X94578D01*
X94576Y100747D01*
X94568Y100741D01*
X94554Y100733D01*
X94536Y100725D01*
X94514Y100715D01*
X94488Y100708D01*
X94457Y100703D01*
X94425Y100700D01*
X94414D01*
X94406Y100701D01*
X94396Y100703D01*
X94385Y100704D01*
X94359Y100710D01*
X94328Y100718D01*
X94296Y100730D01*
X94281Y100739D01*
X94266Y100750D01*
X94250Y100761D01*
X94236Y100773D01*
X94235Y100775D01*
X94234Y100778D01*
X94230Y100782D01*
X94225Y100787D01*
X94220Y100794D01*
X94214Y100804D01*
X94207Y100815D01*
X94202Y100827D01*
X94195Y100841D01*
X94188Y100857D01*
X94182Y100875D01*
X94177Y100893D01*
X94173Y100913D01*
X94169Y100934D01*
X94167Y100958D01*
X94166Y100981D01*
Y100983D01*
Y100986D01*
Y100990D01*
Y100995D01*
X94167Y101012D01*
X94170Y101033D01*
X94174Y101056D01*
X94180Y101081D01*
X94187Y101106D01*
X94198Y101131D01*
Y101133D01*
X94199Y101134D01*
X94203Y101142D01*
X94212Y101153D01*
X94221Y101167D01*
X94235Y101184D01*
X94250Y101199D01*
X94270Y101214D01*
X94291Y101228D01*
X94292D01*
X94293Y101230D01*
X94302Y101234D01*
X94314Y101239D01*
X94331Y101245D01*
X94352Y101250D01*
X94375Y101256D01*
X94402Y101260D01*
X94429Y101262D01*
X94445D01*
X94460Y101259D01*
D02*
G37*
%LPC*%
G36*
X99328Y100851D02*
X99326D01*
X99325Y100850D01*
X99321Y100848D01*
X99315Y100847D01*
X99308Y100844D01*
X99300Y100841D01*
X99290Y100839D01*
X99279Y100836D01*
X99267Y100832D01*
X99251Y100829D01*
X99236Y100825D01*
X99218Y100821D01*
X99199Y100816D01*
X99179Y100812D01*
X99157Y100809D01*
X99133Y100805D01*
X99131D01*
X99122Y100804D01*
X99108Y100801D01*
X99093Y100798D01*
X99077Y100796D01*
X99060Y100791D01*
X99045Y100787D01*
X99031Y100782D01*
X99029D01*
X99025Y100779D01*
X99020Y100776D01*
X99014Y100772D01*
X98998Y100761D01*
X98984Y100744D01*
Y100743D01*
X98981Y100740D01*
X98979Y100735D01*
X98977Y100728D01*
X98974Y100719D01*
X98971Y100711D01*
X98970Y100700D01*
X98968Y100689D01*
Y100687D01*
Y100680D01*
X98970Y100672D01*
X98973Y100661D01*
X98977Y100649D01*
X98984Y100636D01*
X98992Y100622D01*
X99003Y100610D01*
X99004Y100608D01*
X99010Y100606D01*
X99018Y100600D01*
X99029Y100594D01*
X99045Y100589D01*
X99063Y100583D01*
X99084Y100581D01*
X99108Y100579D01*
X99120D01*
X99133Y100581D01*
X99149Y100583D01*
X99168Y100586D01*
X99188Y100592D01*
X99208Y100599D01*
X99229Y100608D01*
X99232Y100610D01*
X99237Y100614D01*
X99247Y100621D01*
X99258Y100631D01*
X99271Y100642D01*
X99285Y100655D01*
X99296Y100672D01*
X99307Y100690D01*
X99308Y100692D01*
X99310Y100697D01*
X99312Y100707D01*
X99316Y100719D01*
X99321Y100736D01*
X99323Y100755D01*
X99325Y100779D01*
X99326Y100807D01*
X99328Y100851D01*
D02*
G37*
G36*
X116024Y101116D02*
X116015D01*
X116010Y101115D01*
X115995Y101113D01*
X115977Y101109D01*
X115954Y101102D01*
X115931Y101092D01*
X115909Y101078D01*
X115886Y101060D01*
X115884Y101058D01*
X115878Y101051D01*
X115868Y101038D01*
X115859Y101022D01*
X115848Y101002D01*
X115838Y100977D01*
X115830Y100948D01*
X115825Y100916D01*
X116215D01*
Y100918D01*
Y100920D01*
X116214Y100925D01*
Y100930D01*
X116211Y100947D01*
X116207Y100965D01*
X116200Y100987D01*
X116193Y101008D01*
X116182Y101029D01*
X116169Y101047D01*
Y101048D01*
X116167Y101049D01*
X116160Y101058D01*
X116147Y101069D01*
X116131Y101081D01*
X116110Y101094D01*
X116085Y101105D01*
X116056Y101113D01*
X116040Y101115D01*
X116024Y101116D01*
D02*
G37*
G36*
X117888D02*
X117879D01*
X117874Y101115D01*
X117859Y101113D01*
X117841Y101109D01*
X117818Y101102D01*
X117795Y101092D01*
X117773Y101078D01*
X117750Y101060D01*
X117748Y101058D01*
X117742Y101051D01*
X117732Y101038D01*
X117723Y101022D01*
X117712Y101002D01*
X117702Y100977D01*
X117693Y100948D01*
X117689Y100916D01*
X118079D01*
Y100918D01*
Y100920D01*
X118078Y100925D01*
Y100930D01*
X118075Y100947D01*
X118071Y100965D01*
X118064Y100987D01*
X118057Y101008D01*
X118046Y101029D01*
X118033Y101047D01*
Y101048D01*
X118031Y101049D01*
X118024Y101058D01*
X118011Y101069D01*
X117994Y101081D01*
X117974Y101094D01*
X117949Y101105D01*
X117920Y101113D01*
X117904Y101115D01*
X117888Y101116D01*
D02*
G37*
G36*
X108698Y101361D02*
Y101360D01*
X108697Y101357D01*
Y101352D01*
X108694Y101346D01*
X108693Y101336D01*
X108690Y101327D01*
X108685Y101303D01*
X108678Y101275D01*
X108668Y101245D01*
X108658Y101212D01*
X108646Y101177D01*
X108542Y100897D01*
X108866D01*
X108766Y101160D01*
Y101162D01*
X108765Y101166D01*
X108762Y101173D01*
X108759Y101181D01*
X108755Y101191D01*
X108751Y101203D01*
X108747Y101217D01*
X108741Y101231D01*
X108730Y101263D01*
X108719Y101296D01*
X108708Y101329D01*
X108698Y101361D01*
D02*
G37*
G36*
X103280Y100851D02*
X103279D01*
X103277Y100850D01*
X103273Y100848D01*
X103268Y100847D01*
X103261Y100844D01*
X103252Y100841D01*
X103243Y100839D01*
X103232Y100836D01*
X103219Y100832D01*
X103204Y100829D01*
X103189Y100825D01*
X103171Y100821D01*
X103151Y100816D01*
X103132Y100812D01*
X103109Y100809D01*
X103086Y100805D01*
X103083D01*
X103075Y100804D01*
X103061Y100801D01*
X103046Y100798D01*
X103029Y100796D01*
X103012Y100791D01*
X102997Y100787D01*
X102983Y100782D01*
X102982D01*
X102978Y100779D01*
X102972Y100776D01*
X102967Y100772D01*
X102950Y100761D01*
X102936Y100744D01*
Y100743D01*
X102933Y100740D01*
X102932Y100735D01*
X102929Y100728D01*
X102926Y100719D01*
X102924Y100711D01*
X102922Y100700D01*
X102921Y100689D01*
Y100687D01*
Y100680D01*
X102922Y100672D01*
X102925Y100661D01*
X102929Y100649D01*
X102936Y100636D01*
X102944Y100622D01*
X102956Y100610D01*
X102957Y100608D01*
X102962Y100606D01*
X102971Y100600D01*
X102982Y100594D01*
X102997Y100589D01*
X103015Y100583D01*
X103036Y100581D01*
X103061Y100579D01*
X103072D01*
X103086Y100581D01*
X103101Y100583D01*
X103121Y100586D01*
X103140Y100592D01*
X103161Y100599D01*
X103182Y100608D01*
X103184Y100610D01*
X103190Y100614D01*
X103200Y100621D01*
X103211Y100631D01*
X103223Y100642D01*
X103237Y100655D01*
X103248Y100672D01*
X103259Y100690D01*
X103261Y100692D01*
X103262Y100697D01*
X103265Y100707D01*
X103269Y100719D01*
X103273Y100736D01*
X103276Y100755D01*
X103277Y100779D01*
X103279Y100807D01*
X103280Y100851D01*
D02*
G37*
G36*
X114606Y101116D02*
X114598D01*
X114593Y101115D01*
X114577Y101113D01*
X114559Y101109D01*
X114537Y101102D01*
X114513Y101092D01*
X114491Y101078D01*
X114469Y101060D01*
X114466Y101058D01*
X114461Y101051D01*
X114451Y101038D01*
X114441Y101022D01*
X114430Y101002D01*
X114421Y100977D01*
X114412Y100948D01*
X114408Y100916D01*
X114798D01*
Y100918D01*
Y100920D01*
X114796Y100925D01*
Y100930D01*
X114794Y100947D01*
X114789Y100965D01*
X114783Y100987D01*
X114776Y101008D01*
X114765Y101029D01*
X114752Y101047D01*
Y101048D01*
X114749Y101049D01*
X114742Y101058D01*
X114730Y101069D01*
X114713Y101081D01*
X114692Y101094D01*
X114667Y101105D01*
X114638Y101113D01*
X114623Y101115D01*
X114606Y101116D01*
D02*
G37*
G36*
X105650Y101368D02*
X105642D01*
X105636Y101367D01*
X105621Y101364D01*
X105603Y101360D01*
X105582Y101352D01*
X105560Y101339D01*
X105549Y101331D01*
X105538Y101323D01*
X105528Y101311D01*
X105518Y101299D01*
Y101298D01*
X105516Y101295D01*
X105513Y101289D01*
X105509Y101282D01*
X105505Y101271D01*
X105499Y101259D01*
X105495Y101243D01*
X105489Y101225D01*
X105484Y101205D01*
X105478Y101181D01*
X105473Y101155D01*
X105469Y101126D01*
X105464Y101092D01*
X105462Y101056D01*
X105460Y101017D01*
X105459Y100974D01*
Y100972D01*
Y100965D01*
Y100952D01*
X105460Y100936D01*
Y100918D01*
X105462Y100895D01*
X105463Y100872D01*
X105466Y100847D01*
X105473Y100793D01*
X105477Y100766D01*
X105482Y100741D01*
X105488Y100718D01*
X105496Y100696D01*
X105505Y100676D01*
X105514Y100660D01*
Y100658D01*
X105517Y100657D01*
X105524Y100647D01*
X105536Y100635D01*
X105552Y100621D01*
X105573Y100607D01*
X105596Y100594D01*
X105622Y100585D01*
X105636Y100583D01*
X105652Y100582D01*
X105660D01*
X105665Y100583D01*
X105679Y100586D01*
X105699Y100592D01*
X105720Y100601D01*
X105743Y100615D01*
X105754Y100624D01*
X105765Y100635D01*
X105776Y100646D01*
X105787Y100660D01*
Y100661D01*
X105790Y100664D01*
X105793Y100668D01*
X105796Y100675D01*
X105801Y100685D01*
X105806Y100697D01*
X105811Y100711D01*
X105817Y100728D01*
X105821Y100748D01*
X105826Y100771D01*
X105832Y100797D01*
X105836Y100825D01*
X105839Y100858D01*
X105842Y100893D01*
X105844Y100931D01*
Y100974D01*
Y100976D01*
Y100977D01*
Y100984D01*
Y100997D01*
X105843Y101013D01*
Y101031D01*
X105842Y101053D01*
X105840Y101077D01*
X105837Y101103D01*
X105830Y101156D01*
X105826Y101182D01*
X105821Y101207D01*
X105815Y101231D01*
X105807Y101253D01*
X105799Y101273D01*
X105789Y101289D01*
Y101291D01*
X105786Y101292D01*
X105783Y101296D01*
X105779Y101302D01*
X105767Y101314D01*
X105751Y101329D01*
X105731Y101343D01*
X105707Y101356D01*
X105695Y101361D01*
X105681Y101366D01*
X105665Y101367D01*
X105650Y101368D01*
D02*
G37*
G36*
X111243Y101116D02*
X111221D01*
X111216Y101115D01*
X111200Y101113D01*
X111182Y101108D01*
X111160Y101101D01*
X111138Y101088D01*
X111116Y101073D01*
X111105Y101062D01*
X111094Y101051D01*
Y101049D01*
X111091Y101048D01*
X111088Y101044D01*
X111085Y101038D01*
X111081Y101033D01*
X111077Y101024D01*
X111071Y101015D01*
X111067Y101004D01*
X111062Y100991D01*
X111056Y100976D01*
X111052Y100961D01*
X111048Y100944D01*
X111045Y100925D01*
X111042Y100905D01*
X111039Y100884D01*
Y100861D01*
Y100859D01*
Y100855D01*
Y100848D01*
X111041Y100839D01*
Y100827D01*
X111042Y100814D01*
X111046Y100784D01*
X111053Y100751D01*
X111062Y100719D01*
X111076Y100687D01*
X111084Y100674D01*
X111094Y100661D01*
X111096Y100658D01*
X111103Y100651D01*
X111114Y100642D01*
X111131Y100631D01*
X111150Y100618D01*
X111174Y100608D01*
X111200Y100601D01*
X111214Y100600D01*
X111229Y100599D01*
X111238D01*
X111243Y100600D01*
X111259Y100601D01*
X111278Y100607D01*
X111299Y100614D01*
X111322Y100625D01*
X111345Y100640D01*
X111356Y100650D01*
X111367Y100661D01*
Y100662D01*
X111370Y100664D01*
X111372Y100668D01*
X111375Y100674D01*
X111379Y100679D01*
X111385Y100687D01*
X111389Y100697D01*
X111394Y100710D01*
X111400Y100722D01*
X111404Y100736D01*
X111410Y100753D01*
X111414Y100771D01*
X111417Y100789D01*
X111419Y100809D01*
X111422Y100833D01*
Y100857D01*
Y100858D01*
Y100862D01*
Y100869D01*
X111421Y100877D01*
Y100888D01*
X111419Y100901D01*
X111415Y100929D01*
X111408Y100961D01*
X111399Y100992D01*
X111385Y101024D01*
X111375Y101038D01*
X111365Y101051D01*
Y101052D01*
X111363Y101053D01*
X111356Y101060D01*
X111343Y101072D01*
X111327Y101084D01*
X111307Y101095D01*
X111284Y101106D01*
X111257Y101113D01*
X111243Y101116D01*
D02*
G37*
G36*
X107142Y101368D02*
X107134D01*
X107129Y101367D01*
X107113Y101364D01*
X107095Y101360D01*
X107074Y101352D01*
X107052Y101339D01*
X107041Y101331D01*
X107030Y101323D01*
X107020Y101311D01*
X107011Y101299D01*
Y101298D01*
X107008Y101295D01*
X107005Y101289D01*
X107001Y101282D01*
X106997Y101271D01*
X106991Y101259D01*
X106987Y101243D01*
X106982Y101225D01*
X106976Y101205D01*
X106970Y101181D01*
X106965Y101155D01*
X106961Y101126D01*
X106957Y101092D01*
X106954Y101056D01*
X106952Y101017D01*
X106951Y100974D01*
Y100972D01*
Y100965D01*
Y100952D01*
X106952Y100936D01*
Y100918D01*
X106954Y100895D01*
X106955Y100872D01*
X106958Y100847D01*
X106965Y100793D01*
X106969Y100766D01*
X106975Y100741D01*
X106980Y100718D01*
X106988Y100696D01*
X106997Y100676D01*
X107007Y100660D01*
Y100658D01*
X107009Y100657D01*
X107016Y100647D01*
X107029Y100635D01*
X107044Y100621D01*
X107065Y100607D01*
X107088Y100594D01*
X107115Y100585D01*
X107129Y100583D01*
X107144Y100582D01*
X107152D01*
X107158Y100583D01*
X107172Y100586D01*
X107191Y100592D01*
X107212Y100601D01*
X107235Y100615D01*
X107246Y100624D01*
X107258Y100635D01*
X107269Y100646D01*
X107280Y100660D01*
Y100661D01*
X107283Y100664D01*
X107285Y100668D01*
X107288Y100675D01*
X107294Y100685D01*
X107298Y100697D01*
X107303Y100711D01*
X107309Y100728D01*
X107313Y100748D01*
X107319Y100771D01*
X107324Y100797D01*
X107328Y100825D01*
X107331Y100858D01*
X107334Y100893D01*
X107337Y100931D01*
Y100974D01*
Y100976D01*
Y100977D01*
Y100984D01*
Y100997D01*
X107335Y101013D01*
Y101031D01*
X107334Y101053D01*
X107332Y101077D01*
X107330Y101103D01*
X107323Y101156D01*
X107319Y101182D01*
X107313Y101207D01*
X107307Y101231D01*
X107299Y101253D01*
X107291Y101273D01*
X107281Y101289D01*
Y101291D01*
X107278Y101292D01*
X107276Y101296D01*
X107271Y101302D01*
X107259Y101314D01*
X107244Y101329D01*
X107223Y101343D01*
X107199Y101356D01*
X107187Y101361D01*
X107173Y101366D01*
X107158Y101367D01*
X107142Y101368D01*
D02*
G37*
G36*
X118609Y101116D02*
X118602D01*
X118596Y101115D01*
X118581Y101113D01*
X118563Y101108D01*
X118542Y101101D01*
X118520Y101088D01*
X118498Y101073D01*
X118487Y101062D01*
X118477Y101051D01*
Y101049D01*
X118474Y101048D01*
X118473Y101044D01*
X118469Y101038D01*
X118465Y101031D01*
X118460Y101023D01*
X118456Y101013D01*
X118451Y101002D01*
X118445Y100988D01*
X118441Y100973D01*
X118437Y100956D01*
X118433Y100938D01*
X118430Y100919D01*
X118427Y100897D01*
X118424Y100873D01*
Y100848D01*
Y100847D01*
Y100843D01*
Y100836D01*
X118426Y100826D01*
Y100815D01*
X118427Y100802D01*
X118431Y100773D01*
X118438Y100741D01*
X118448Y100708D01*
X118462Y100676D01*
X118470Y100662D01*
X118480Y100649D01*
X118481D01*
X118483Y100646D01*
X118490Y100639D01*
X118502Y100628D01*
X118517Y100617D01*
X118537Y100604D01*
X118560Y100593D01*
X118585Y100586D01*
X118599Y100585D01*
X118613Y100583D01*
X118620D01*
X118625Y100585D01*
X118641Y100586D01*
X118659Y100592D01*
X118680Y100599D01*
X118702Y100610D01*
X118724Y100625D01*
X118735Y100635D01*
X118745Y100646D01*
Y100647D01*
X118747Y100649D01*
X118750Y100653D01*
X118753Y100658D01*
X118757Y100665D01*
X118763Y100672D01*
X118767Y100683D01*
X118772Y100694D01*
X118778Y100707D01*
X118782Y100721D01*
X118788Y100737D01*
X118792Y100754D01*
X118795Y100773D01*
X118797Y100793D01*
X118800Y100815D01*
Y100839D01*
Y100840D01*
Y100845D01*
Y100852D01*
X118799Y100862D01*
Y100873D01*
X118797Y100887D01*
X118796Y100902D01*
X118793Y100919D01*
X118786Y100952D01*
X118777Y100987D01*
X118763Y101020D01*
X118754Y101034D01*
X118745Y101048D01*
Y101049D01*
X118742Y101051D01*
X118735Y101059D01*
X118723Y101070D01*
X118707Y101083D01*
X118688Y101095D01*
X118664Y101105D01*
X118638Y101113D01*
X118624Y101115D01*
X118609Y101116D01*
D02*
G37*
G36*
X98423Y102704D02*
X98121Y102274D01*
X98423D01*
Y102704D01*
D02*
G37*
G36*
X95016Y102782D02*
X94788D01*
Y102494D01*
X95024D01*
X95042Y102495D01*
X95062Y102496D01*
X95081Y102498D01*
X95100Y102501D01*
X95116Y102503D01*
X95119Y102505D01*
X95124Y102506D01*
X95132Y102510D01*
X95143Y102516D01*
X95155Y102521D01*
X95167Y102530D01*
X95180Y102541D01*
X95189Y102552D01*
X95191Y102553D01*
X95193Y102557D01*
X95198Y102566D01*
X95202Y102575D01*
X95206Y102587D01*
X95210Y102600D01*
X95213Y102617D01*
X95214Y102635D01*
Y102638D01*
Y102643D01*
X95213Y102652D01*
X95211Y102663D01*
X95209Y102677D01*
X95205Y102691D01*
X95199Y102704D01*
X95191Y102718D01*
X95189Y102720D01*
X95186Y102724D01*
X95181Y102731D01*
X95174Y102738D01*
X95164Y102746D01*
X95153Y102754D01*
X95139Y102763D01*
X95124Y102768D01*
X95123D01*
X95116Y102771D01*
X95106Y102772D01*
X95091Y102775D01*
X95070Y102778D01*
X95046Y102779D01*
X95016Y102782D01*
D02*
G37*
G36*
X95041Y102380D02*
X94788D01*
Y102050D01*
X95062D01*
X95091Y102051D01*
X95103Y102053D01*
X95114Y102054D01*
X95116D01*
X95121Y102055D01*
X95130Y102057D01*
X95139Y102060D01*
X95163Y102068D01*
X95186Y102079D01*
X95188Y102080D01*
X95192Y102083D01*
X95198Y102087D01*
X95205Y102093D01*
X95211Y102101D01*
X95221Y102109D01*
X95228Y102121D01*
X95236Y102133D01*
X95238Y102134D01*
X95239Y102139D01*
X95242Y102147D01*
X95246Y102157D01*
X95250Y102168D01*
X95253Y102182D01*
X95254Y102198D01*
X95256Y102215D01*
Y102218D01*
Y102223D01*
X95254Y102234D01*
X95252Y102247D01*
X95249Y102261D01*
X95243Y102276D01*
X95236Y102291D01*
X95227Y102306D01*
X95225Y102308D01*
X95221Y102313D01*
X95216Y102320D01*
X95207Y102329D01*
X95196Y102338D01*
X95182Y102348D01*
X95167Y102356D01*
X95149Y102363D01*
X95146Y102365D01*
X95141Y102366D01*
X95128Y102369D01*
X95113Y102372D01*
X95094Y102374D01*
X95070Y102377D01*
X95041Y102380D01*
D02*
G37*
G36*
X101343Y102803D02*
X101334D01*
X101329Y102801D01*
X101314Y102799D01*
X101296Y102795D01*
X101275Y102786D01*
X101253Y102774D01*
X101241Y102765D01*
X101230Y102757D01*
X101221Y102746D01*
X101211Y102734D01*
Y102732D01*
X101208Y102729D01*
X101205Y102724D01*
X101201Y102717D01*
X101197Y102706D01*
X101191Y102693D01*
X101187Y102678D01*
X101182Y102660D01*
X101176Y102639D01*
X101171Y102616D01*
X101165Y102589D01*
X101161Y102560D01*
X101157Y102527D01*
X101154Y102491D01*
X101153Y102452D01*
X101151Y102409D01*
Y102406D01*
Y102399D01*
Y102387D01*
X101153Y102370D01*
Y102352D01*
X101154Y102330D01*
X101155Y102306D01*
X101158Y102281D01*
X101165Y102227D01*
X101169Y102201D01*
X101175Y102176D01*
X101180Y102152D01*
X101189Y102130D01*
X101197Y102111D01*
X101207Y102094D01*
Y102093D01*
X101210Y102091D01*
X101216Y102082D01*
X101229Y102069D01*
X101244Y102055D01*
X101265Y102041D01*
X101289Y102029D01*
X101315Y102019D01*
X101329Y102018D01*
X101344Y102017D01*
X101352D01*
X101358Y102018D01*
X101372Y102021D01*
X101391Y102026D01*
X101412Y102036D01*
X101436Y102050D01*
X101447Y102058D01*
X101458Y102069D01*
X101469Y102080D01*
X101480Y102094D01*
Y102096D01*
X101483Y102098D01*
X101485Y102103D01*
X101488Y102109D01*
X101494Y102119D01*
X101498Y102132D01*
X101504Y102145D01*
X101509Y102162D01*
X101513Y102183D01*
X101519Y102205D01*
X101524Y102231D01*
X101529Y102259D01*
X101531Y102293D01*
X101534Y102327D01*
X101537Y102366D01*
Y102409D01*
Y102410D01*
Y102412D01*
Y102419D01*
Y102431D01*
X101535Y102448D01*
Y102466D01*
X101534Y102488D01*
X101533Y102512D01*
X101530Y102538D01*
X101523Y102591D01*
X101519Y102617D01*
X101513Y102642D01*
X101508Y102666D01*
X101499Y102688D01*
X101491Y102707D01*
X101481Y102724D01*
Y102725D01*
X101479Y102727D01*
X101476Y102731D01*
X101472Y102736D01*
X101459Y102749D01*
X101444Y102764D01*
X101423Y102778D01*
X101400Y102790D01*
X101387Y102796D01*
X101373Y102800D01*
X101358Y102801D01*
X101343Y102803D01*
D02*
G37*
%LPD*%
D78*
X58962Y42735D02*
G03*
X58962Y42735I-82J0D01*
G01*
X69030Y44260D02*
Y48360D01*
Y53560D02*
Y57660D01*
X56630Y44260D02*
Y48360D01*
Y53560D02*
Y57660D01*
D85*
X25075Y17050D02*
G03*
X25075Y17050I-125J0D01*
G01*
X20765Y25290D02*
G03*
X20765Y25290I-125J0D01*
G01*
X85205Y17530D02*
G03*
X85205Y17530I-125J0D01*
G01*
X80875Y26040D02*
G03*
X80875Y26040I-125J0D01*
G01*
D86*
X40495Y9625D02*
G03*
X40495Y9625I-7500J0D01*
G01*
X25550Y29615D02*
G03*
X25550Y29615I-285J0D01*
G01*
X100495Y9625D02*
G03*
X100495Y9625I-7500J0D01*
G01*
X85420Y30540D02*
G03*
X85420Y30540I-285J0D01*
G01*
X30550Y17125D02*
Y18900D01*
X35575Y17125D02*
X35580Y17120D01*
X30550Y16725D02*
Y17125D01*
X35575Y16675D02*
Y17125D01*
X30550Y18900D02*
X35575D01*
Y17125D02*
Y18900D01*
X95575Y17125D02*
Y18900D01*
X90550D02*
X95575D01*
Y16675D02*
Y17125D01*
X90550Y16725D02*
Y17125D01*
X95575D02*
X95580Y17120D01*
X90550Y17125D02*
Y18900D01*
D87*
X18628Y15490D02*
G03*
X17993Y15490I-317J0D01*
G01*
X79007Y15820D02*
G03*
X78372Y15820I-317J0D01*
G01*
X24690Y30140D02*
X29165D01*
Y25840D02*
Y30140D01*
X24690Y25840D02*
X29165D01*
X24690D02*
Y30140D01*
X32770Y26760D02*
X34330D01*
Y30200D01*
X32770D02*
X34330D01*
X32770Y26760D02*
Y30200D01*
Y29800D02*
X34330D01*
X20235Y15490D02*
Y20400D01*
X16360D02*
X20235D01*
X16360Y15490D02*
Y20400D01*
Y15490D02*
X17993D01*
X18628D02*
X20235D01*
X80615Y15820D02*
Y20730D01*
X76740D02*
X80615D01*
X76740Y15820D02*
Y20730D01*
Y15820D02*
X78372D01*
X79007D02*
X80615D01*
X84560Y31065D02*
X89035D01*
Y26765D02*
Y31065D01*
X84560Y26765D02*
X89035D01*
X84560D02*
Y31065D01*
X93240Y27150D02*
X94800D01*
Y30590D01*
X93240D02*
X94800D01*
X93240Y27150D02*
Y30590D01*
Y30190D02*
X94800D01*
X24406Y21803D02*
X24240Y21970D01*
X23907D01*
X23740Y21803D01*
Y21137D01*
X23907Y20970D01*
X24240D01*
X24406Y21137D01*
X24740Y21803D02*
X24906Y21970D01*
X25240D01*
X25406Y21803D01*
Y21636D01*
X25240Y21470D01*
X25073D01*
X25240D01*
X25406Y21303D01*
Y21137D01*
X25240Y20970D01*
X24906D01*
X24740Y21137D01*
X25739Y20970D02*
X26073D01*
X25906D01*
Y21970D01*
X25739Y21803D01*
X24196Y14763D02*
X24030Y14930D01*
X23697D01*
X23530Y14763D01*
Y14097D01*
X23697Y13930D01*
X24030D01*
X24196Y14097D01*
X24530Y14763D02*
X24696Y14930D01*
X25030D01*
X25196Y14763D01*
Y14596D01*
X25030Y14430D01*
X24863D01*
X25030D01*
X25196Y14263D01*
Y14097D01*
X25030Y13930D01*
X24696D01*
X24530Y14097D01*
X26029Y13930D02*
Y14930D01*
X25529Y14430D01*
X26196D01*
X28080Y18900D02*
Y17900D01*
X28580D01*
X28746Y18067D01*
Y18733D01*
X28580Y18900D01*
X28080D01*
X29580Y17900D02*
Y18900D01*
X29080Y18400D01*
X29746D01*
X32260Y20190D02*
Y21190D01*
X32760D01*
X32926Y21023D01*
Y20690D01*
X32760Y20523D01*
X32260D01*
X33926Y20190D02*
X33260D01*
X33926Y20856D01*
Y21023D01*
X33760Y21190D01*
X33426D01*
X33260Y21023D01*
X26950Y11950D02*
X27950D01*
Y12616D01*
Y13450D02*
X26950D01*
X27450Y12950D01*
Y13616D01*
X25520Y11880D02*
X26520D01*
Y12546D01*
X25520Y13546D02*
Y12880D01*
X26020D01*
X25854Y13213D01*
Y13380D01*
X26020Y13546D01*
X26353D01*
X26520Y13380D01*
Y13046D01*
X26353Y12880D01*
X26787Y20696D02*
X26620Y20530D01*
Y20197D01*
X26787Y20030D01*
X27453D01*
X27620Y20197D01*
Y20530D01*
X27453Y20696D01*
X26787Y21030D02*
X26620Y21196D01*
Y21530D01*
X26787Y21696D01*
X26954D01*
X27120Y21530D01*
Y21363D01*
Y21530D01*
X27287Y21696D01*
X27453D01*
X27620Y21530D01*
Y21196D01*
X27453Y21030D01*
X26787Y22029D02*
X26620Y22196D01*
Y22529D01*
X26787Y22696D01*
X26954D01*
X27120Y22529D01*
Y22363D01*
Y22529D01*
X27287Y22696D01*
X27453D01*
X27620Y22529D01*
Y22196D01*
X27453Y22029D01*
X24036Y24537D02*
Y25203D01*
X23870Y25370D01*
X23537D01*
X23370Y25203D01*
Y24537D01*
X23537Y24370D01*
X23870D01*
X23703Y24703D02*
X24036Y24370D01*
X23870D02*
X24036Y24537D01*
X24370Y25370D02*
X25036D01*
Y25203D01*
X24370Y24537D01*
Y24370D01*
X16676Y21503D02*
X16510Y21670D01*
X16177D01*
X16010Y21503D01*
Y20837D01*
X16177Y20670D01*
X16510D01*
X16676Y20837D01*
X17010Y21503D02*
X17176Y21670D01*
X17510D01*
X17676Y21503D01*
Y21336D01*
X17510Y21170D01*
X17343D01*
X17510D01*
X17676Y21003D01*
Y20837D01*
X17510Y20670D01*
X17176D01*
X17010Y20837D01*
X18676Y20670D02*
X18009D01*
X18676Y21336D01*
Y21503D01*
X18509Y21670D01*
X18176D01*
X18009Y21503D01*
X23140Y22870D02*
Y23870D01*
X23640D01*
X23806Y23703D01*
Y23370D01*
X23640Y23203D01*
X23140D01*
X23473D02*
X23806Y22870D01*
X24806D02*
X24140D01*
X24806Y23536D01*
Y23703D01*
X24640Y23870D01*
X24306D01*
X24140Y23703D01*
X25139D02*
X25306Y23870D01*
X25639D01*
X25806Y23703D01*
Y23536D01*
X25639Y23370D01*
X25806Y23203D01*
Y23037D01*
X25639Y22870D01*
X25306D01*
X25139Y23037D01*
Y23203D01*
X25306Y23370D01*
X25139Y23536D01*
Y23703D01*
X25306Y23370D02*
X25639D01*
X18090Y23350D02*
X17090D01*
Y23850D01*
X17257Y24016D01*
X17590D01*
X17757Y23850D01*
Y23350D01*
Y23683D02*
X18090Y24016D01*
Y25016D02*
Y24350D01*
X17424Y25016D01*
X17257D01*
X17090Y24850D01*
Y24516D01*
X17257Y24350D01*
X17090Y25349D02*
Y26016D01*
X17257D01*
X17923Y25349D01*
X18090D01*
X19820Y30340D02*
Y31340D01*
X20320D01*
X20486Y31173D01*
Y30840D01*
X20320Y30673D01*
X19820D01*
X20153D02*
X20486Y30340D01*
X21486D02*
X20820D01*
X21486Y31006D01*
Y31173D01*
X21320Y31340D01*
X20986D01*
X20820Y31173D01*
X22486Y31340D02*
X21819D01*
Y30840D01*
X22153Y31006D01*
X22319D01*
X22486Y30840D01*
Y30507D01*
X22319Y30340D01*
X21986D01*
X21819Y30507D01*
X24500Y31600D02*
Y30767D01*
X24667Y30600D01*
X25000D01*
X25166Y30767D01*
Y31600D01*
X25500D02*
X26166D01*
Y31433D01*
X25500Y30767D01*
Y30600D01*
X31447Y30966D02*
X31280Y30800D01*
Y30467D01*
X31447Y30300D01*
X32113D01*
X32280Y30467D01*
Y30800D01*
X32113Y30966D01*
X32280Y31966D02*
Y31300D01*
X31614Y31966D01*
X31447D01*
X31280Y31800D01*
Y31466D01*
X31447Y31300D01*
Y32299D02*
X31280Y32466D01*
Y32799D01*
X31447Y32966D01*
X31614D01*
X31780Y32799D01*
X31947Y32966D01*
X32113D01*
X32280Y32799D01*
Y32466D01*
X32113Y32299D01*
X31947D01*
X31780Y32466D01*
X31614Y32299D01*
X31447D01*
X31780Y32466D02*
Y32799D01*
X33060Y32400D02*
X34060D01*
Y32900D01*
X33893Y33066D01*
X33227D01*
X33060Y32900D01*
Y32400D01*
X33227Y33400D02*
X33060Y33566D01*
Y33900D01*
X33227Y34066D01*
X33394D01*
X33560Y33900D01*
Y33733D01*
Y33900D01*
X33727Y34066D01*
X33893D01*
X34060Y33900D01*
Y33566D01*
X33893Y33400D01*
X61506Y61100D02*
X60840D01*
Y60100D01*
X61506D01*
X60840Y60600D02*
X61173D01*
X61840Y60100D02*
Y61100D01*
X62506Y60100D01*
Y61100D01*
X63506Y60933D02*
X63339Y61100D01*
X63006D01*
X62839Y60933D01*
Y60267D01*
X63006Y60100D01*
X63339D01*
X63506Y60267D01*
X63839Y60100D02*
X64172D01*
X64006D01*
Y61100D01*
X63839Y60933D01*
X15020Y14910D02*
Y14077D01*
X15187Y13910D01*
X15520D01*
X15686Y14077D01*
Y14910D01*
X16020Y14743D02*
X16186Y14910D01*
X16520D01*
X16686Y14743D01*
Y14576D01*
X16520Y14410D01*
X16686Y14243D01*
Y14077D01*
X16520Y13910D01*
X16186D01*
X16020Y14077D01*
Y14243D01*
X16186Y14410D01*
X16020Y14576D01*
Y14743D01*
X16186Y14410D02*
X16520D01*
X92670Y20080D02*
Y21080D01*
X93170D01*
X93336Y20913D01*
Y20580D01*
X93170Y20413D01*
X92670D01*
X93670Y20080D02*
X94003D01*
X93836D01*
Y21080D01*
X93670Y20913D01*
X86770Y21080D02*
Y20080D01*
X87270D01*
X87436Y20247D01*
Y20913D01*
X87270Y21080D01*
X86770D01*
X88436Y20080D02*
X87770D01*
X88436Y20746D01*
Y20913D01*
X88270Y21080D01*
X87936D01*
X87770Y20913D01*
X88307Y17786D02*
X88140Y17620D01*
Y17287D01*
X88307Y17120D01*
X88973D01*
X89140Y17287D01*
Y17620D01*
X88973Y17786D01*
X89140Y18786D02*
Y18120D01*
X88474Y18786D01*
X88307D01*
X88140Y18620D01*
Y18286D01*
X88307Y18120D01*
X88140Y19786D02*
X88307Y19453D01*
X88640Y19119D01*
X88973D01*
X89140Y19286D01*
Y19619D01*
X88973Y19786D01*
X88807D01*
X88640Y19619D01*
Y19119D01*
X75660Y22140D02*
Y21307D01*
X75827Y21140D01*
X76160D01*
X76326Y21307D01*
Y22140D01*
X77326D02*
X76660D01*
Y21640D01*
X76993Y21806D01*
X77160D01*
X77326Y21640D01*
Y21307D01*
X77160Y21140D01*
X76826D01*
X76660Y21307D01*
X79800Y22200D02*
X78800D01*
Y22700D01*
X78967Y22866D01*
X79300D01*
X79467Y22700D01*
Y22200D01*
Y22533D02*
X79800Y22866D01*
Y23866D02*
Y23200D01*
X79134Y23866D01*
X78967D01*
X78800Y23700D01*
Y23366D01*
X78967Y23200D01*
X79800Y24199D02*
Y24533D01*
Y24366D01*
X78800D01*
X78967Y24199D01*
X81906Y28717D02*
Y29383D01*
X81740Y29550D01*
X81407D01*
X81240Y29383D01*
Y28717D01*
X81407Y28550D01*
X81740D01*
X81573Y28883D02*
X81906Y28550D01*
X81740D02*
X81906Y28717D01*
X82740Y28550D02*
Y29550D01*
X82240Y29050D01*
X82906D01*
X79850Y31250D02*
Y32250D01*
X80350D01*
X80516Y32083D01*
Y31750D01*
X80350Y31583D01*
X79850D01*
X80183D02*
X80516Y31250D01*
X80850D02*
X81183D01*
X81016D01*
Y32250D01*
X80850Y32083D01*
X81683Y31417D02*
X81849Y31250D01*
X82183D01*
X82349Y31417D01*
Y32083D01*
X82183Y32250D01*
X81849D01*
X81683Y32083D01*
Y31916D01*
X81849Y31750D01*
X82349D01*
X80061Y25364D02*
Y26363D01*
X80561D01*
X80727Y26197D01*
Y25864D01*
X80561Y25697D01*
X80061D01*
X80394D02*
X80727Y25364D01*
X81727D02*
X81061D01*
X81727Y26030D01*
Y26197D01*
X81561Y26363D01*
X81227D01*
X81061Y26197D01*
X82727Y25364D02*
X82060D01*
X82727Y26030D01*
Y26197D01*
X82560Y26363D01*
X82227D01*
X82060Y26197D01*
X95887Y75867D02*
Y74868D01*
X96387D01*
X96553Y75034D01*
Y75201D01*
X96387Y75367D01*
X95887D01*
X96387D01*
X96553Y75534D01*
Y75701D01*
X96387Y75867D01*
X95887D01*
X96887D02*
X97553D01*
X97220D01*
Y74868D01*
X97886D02*
Y75867D01*
X98553Y74868D01*
Y75867D01*
X98886Y74701D02*
X99552D01*
X99886Y75867D02*
Y74868D01*
X100386D01*
X100552Y75034D01*
Y75701D01*
X100386Y75867D01*
X99886D01*
X100885Y74868D02*
Y75867D01*
X101552Y74868D01*
Y75867D01*
X14624Y93840D02*
Y92841D01*
X15123D01*
X15290Y93007D01*
Y93174D01*
X15123Y93341D01*
X14624D01*
X15123D01*
X15290Y93507D01*
Y93674D01*
X15123Y93840D01*
X14624D01*
X15623D02*
X16290D01*
X15957D01*
Y92841D01*
X16623D02*
Y93840D01*
X17289Y92841D01*
Y93840D01*
X17623Y92674D02*
X18289D01*
X19122Y93840D02*
X18789D01*
X18622Y93674D01*
Y93007D01*
X18789Y92841D01*
X19122D01*
X19289Y93007D01*
Y93674D01*
X19122Y93840D01*
X19622D02*
Y92841D01*
Y93174D01*
X20288Y93840D01*
X19789Y93341D01*
X20288Y92841D01*
X18684Y75882D02*
Y74883D01*
X19183D01*
X19350Y75049D01*
Y75216D01*
X19183Y75382D01*
X18684D01*
X19183D01*
X19350Y75549D01*
Y75716D01*
X19183Y75882D01*
X18684D01*
X19683D02*
X20350D01*
X20017D01*
Y74883D01*
X20683D02*
Y75882D01*
X21349Y74883D01*
Y75882D01*
X21683Y74716D02*
X22349D01*
X23182Y75882D02*
X22849D01*
X22682Y75716D01*
Y75049D01*
X22849Y74883D01*
X23182D01*
X23349Y75049D01*
Y75716D01*
X23182Y75882D01*
X23682Y74883D02*
Y75882D01*
X24348Y74883D01*
Y75882D01*
X24682Y74883D02*
X25348Y75549D01*
X26181Y75882D02*
X25848D01*
X25681Y75716D01*
Y75049D01*
X25848Y74883D01*
X26181D01*
X26348Y75049D01*
Y75716D01*
X26181Y75882D01*
X27347D02*
X26681D01*
Y75382D01*
X27014D01*
X26681D01*
Y74883D01*
X28347Y75882D02*
X27681D01*
Y75382D01*
X28014D01*
X27681D01*
Y74883D01*
X99913Y93847D02*
Y92848D01*
X100413D01*
X100579Y93014D01*
Y93181D01*
X100413Y93348D01*
X99913D01*
X100413D01*
X100579Y93514D01*
Y93681D01*
X100413Y93847D01*
X99913D01*
X100912D02*
X101579D01*
X101246D01*
Y92848D01*
X101912D02*
Y93847D01*
X102579Y92848D01*
Y93847D01*
X102912Y92681D02*
X103578D01*
X103912Y93847D02*
Y93014D01*
X104078Y92848D01*
X104411D01*
X104578Y93014D01*
Y93847D01*
X104911Y92848D02*
Y93847D01*
X105411D01*
X105578Y93681D01*
Y93348D01*
X105411Y93181D01*
X104911D01*
X91377Y31626D02*
X91210Y31460D01*
Y31127D01*
X91377Y30960D01*
X92043D01*
X92210Y31127D01*
Y31460D01*
X92043Y31626D01*
X92210Y32626D02*
Y31960D01*
X91544Y32626D01*
X91377D01*
X91210Y32460D01*
Y32126D01*
X91377Y31960D01*
X92210Y32959D02*
Y33293D01*
Y33126D01*
X91210D01*
X91377Y32959D01*
X85436Y22353D02*
X85270Y22520D01*
X84937D01*
X84770Y22353D01*
Y21687D01*
X84937Y21520D01*
X85270D01*
X85436Y21687D01*
X86436Y21520D02*
X85770D01*
X86436Y22186D01*
Y22353D01*
X86270Y22520D01*
X85936D01*
X85770Y22353D01*
X87269Y21520D02*
Y22520D01*
X86769Y22020D01*
X87436D01*
X81506Y23073D02*
X81340Y23240D01*
X81007D01*
X80840Y23073D01*
Y22407D01*
X81007Y22240D01*
X81340D01*
X81506Y22407D01*
X82506Y22240D02*
X81840D01*
X82506Y22906D01*
Y23073D01*
X82340Y23240D01*
X82006D01*
X81840Y23073D01*
X83506Y23240D02*
X82839D01*
Y22740D01*
X83173Y22906D01*
X83339D01*
X83506Y22740D01*
Y22407D01*
X83339Y22240D01*
X83006D01*
X82839Y22407D01*
X83936Y15103D02*
X83770Y15270D01*
X83437D01*
X83270Y15103D01*
Y14437D01*
X83437Y14270D01*
X83770D01*
X83936Y14437D01*
X84936Y14270D02*
X84270D01*
X84936Y14936D01*
Y15103D01*
X84770Y15270D01*
X84436D01*
X84270Y15103D01*
X85269Y15270D02*
X85936D01*
Y15103D01*
X85269Y14437D01*
Y14270D01*
X93480Y31450D02*
X94480D01*
Y31950D01*
X94313Y32116D01*
X93647D01*
X93480Y31950D01*
Y31450D01*
X94480Y32450D02*
Y32783D01*
Y32616D01*
X93480D01*
X93647Y32450D01*
X87400Y12260D02*
X88400D01*
Y12926D01*
Y13926D02*
Y13260D01*
X87734Y13926D01*
X87567D01*
X87400Y13760D01*
Y13426D01*
X87567Y13260D01*
X86020Y12220D02*
X87020D01*
Y12886D01*
X86187Y13220D02*
X86020Y13386D01*
Y13720D01*
X86187Y13886D01*
X86354D01*
X86520Y13720D01*
Y13553D01*
Y13720D01*
X86687Y13886D01*
X86853D01*
X87020Y13720D01*
Y13386D01*
X86853Y13220D01*
X81090Y26816D02*
X81923D01*
X82090Y26982D01*
Y27315D01*
X81923Y27482D01*
X81090D01*
X82090Y28315D02*
X81090D01*
X81590Y27815D01*
Y28482D01*
D88*
X93150Y99570D02*
Y104620D01*
Y99570D02*
X120840D01*
X93150Y104620D02*
X120840D01*
Y99570D02*
Y104620D01*
X120860Y99500D02*
Y104550D01*
X93170D02*
X120860D01*
X93170Y99500D02*
X120860D01*
X93170D02*
Y104550D01*
X23920Y16650D02*
X24825D01*
X23925Y19250D02*
X24825D01*
X23920Y16650D02*
Y17145D01*
X23925Y18755D02*
Y19250D01*
X22900Y19730D02*
X43100D01*
Y-470D02*
Y19730D01*
X22900Y-470D02*
X43100D01*
X22900D02*
Y19730D01*
X29235Y15090D02*
Y15465D01*
Y14715D02*
Y15090D01*
X27985Y14715D02*
Y15090D01*
Y15465D01*
X26545Y14715D02*
Y15090D01*
Y15465D01*
X27795Y15090D02*
Y15465D01*
Y14715D02*
Y15090D01*
X22345Y26315D02*
X22840D01*
X20240Y26320D02*
X20735D01*
X22840Y25415D02*
Y26315D01*
X20240Y25415D02*
Y26320D01*
X21300Y23680D02*
X21700D01*
X21300Y22880D02*
X21700D01*
X18790Y25100D02*
Y25500D01*
X19590Y25100D02*
Y25500D01*
X20870Y28850D02*
X21270D01*
X20870Y29650D02*
X21270D01*
X82900Y-470D02*
Y19730D01*
Y-470D02*
X103100D01*
Y19730D01*
X82900D02*
X103100D01*
X84050Y17130D02*
X84955D01*
X84055Y19730D02*
X84955D01*
X84050Y17130D02*
Y17625D01*
X84055Y19235D02*
Y19730D01*
X78910Y25880D02*
Y26280D01*
X79710Y25880D02*
Y26280D01*
X82455Y27065D02*
X82950D01*
X80350Y27070D02*
X80845D01*
X82950Y26165D02*
Y27065D01*
X80350Y26165D02*
Y27070D01*
X80870Y29840D02*
X81270D01*
X80870Y30640D02*
X81270D01*
X81370Y24360D02*
X81770D01*
X81370Y23560D02*
X81770D01*
X98792Y73580D02*
X104431D01*
X98792Y67580D02*
Y73580D01*
X104431Y67580D02*
Y73580D01*
X98792Y67580D02*
X104431D01*
X17542Y91550D02*
X23181D01*
X17542Y85550D02*
Y91550D01*
X23181Y85550D02*
Y91550D01*
X17542Y85550D02*
X23181D01*
X21592Y73580D02*
X27231D01*
X21592Y67580D02*
Y73580D01*
X27231Y67580D02*
Y73580D01*
X21592Y67580D02*
X27231D01*
X102832Y91550D02*
X108471D01*
X102832Y85550D02*
Y91550D01*
X108471Y85550D02*
Y91550D01*
X102832Y85550D02*
X108471D01*
X86625Y15185D02*
Y15560D01*
Y15935D01*
X87875Y15560D02*
Y15935D01*
Y15185D02*
Y15560D01*
X89235D02*
Y15935D01*
Y15185D02*
Y15560D01*
X87985Y15185D02*
Y15560D01*
Y15935D01*
M02*
