G04 Layer_Color=16711935*
%FSLAX43Y43*%
%MOMM*%
G71*
G01*
G75*
%ADD89R,1.203X1.203*%
%ADD90R,1.153X1.103*%
%ADD91R,1.153X1.103*%
%ADD93R,1.203X1.203*%
%ADD96R,1.103X1.203*%
%ADD97R,1.203X1.103*%
%ADD98O,1.603X1.103*%
%ADD99R,1.603X1.103*%
%ADD101O,1.953X0.853*%
%ADD102R,1.953X0.853*%
%ADD104C,3.203*%
%ADD105C,5.003*%
%ADD106O,2.003X2.703*%
%ADD107R,4.203X3.203*%
%ADD108O,4.203X3.203*%
%ADD109O,3.203X4.203*%
%ADD110R,3.203X4.203*%
%ADD111O,1.803X2.203*%
%ADD112R,2.203X2.203*%
%ADD113O,2.603X1.903*%
%ADD114R,2.603X1.903*%
%ADD115C,2.703*%
%ADD116C,1.203*%
%ADD117R,2.003X1.503*%
%ADD118R,2.003X1.903*%
%ADD119R,1.503X2.003*%
%ADD120R,1.403X0.853*%
%ADD121R,0.703X0.903*%
%ADD122R,4.703X4.903*%
%ADD123R,1.219X1.016*%
%ADD124R,1.543X2.003*%
%ADD125R,1.803X1.503*%
%ADD126R,1.703X1.503*%
%ADD127R,2.403X1.603*%
%ADD128R,1.016X1.219*%
%ADD129O,3.203X1.303*%
%ADD130R,3.203X1.303*%
%ADD131O,1.678X0.503*%
%ADD132O,1.403X0.503*%
%ADD133O,0.503X1.403*%
%ADD134O,0.503X1.678*%
%ADD135R,0.503X1.678*%
%ADD136R,1.453X1.003*%
%ADD137R,2.003X4.303*%
%ADD138R,0.965X0.965*%
%ADD139R,1.303X1.453*%
%ADD140R,1.753X1.353*%
G36*
X49780Y56832D02*
X49170Y57441D01*
X48560Y56832D01*
Y57797D01*
X49780D01*
Y56832D01*
D02*
G37*
G36*
X51080Y56781D02*
Y56527D01*
X49860D01*
Y56781D01*
X50470Y57390D01*
X51080Y56781D01*
D02*
G37*
G36*
X49309Y61460D02*
X49918Y60850D01*
X48953D01*
Y61460D01*
Y62070D01*
X49918D01*
X49309Y61460D01*
D02*
G37*
G36*
X51080Y56832D02*
X50470Y57441D01*
X49860Y56832D01*
Y57797D01*
X51080D01*
Y56832D01*
D02*
G37*
G36*
X49780Y56781D02*
Y56527D01*
X48560D01*
Y56781D01*
X49170Y57390D01*
X49780Y56781D01*
D02*
G37*
G36*
X29190Y15401D02*
Y15147D01*
X27970D01*
Y15401D01*
X28580Y16010D01*
X29190Y15401D01*
D02*
G37*
G36*
X89250Y15361D02*
Y15107D01*
X88030D01*
Y15361D01*
X88640Y15970D01*
X89250Y15361D01*
D02*
G37*
G36*
X29190Y15452D02*
X28580Y16061D01*
X27970Y15452D01*
Y16417D01*
X29190D01*
Y15452D01*
D02*
G37*
G36*
X89250Y15412D02*
X88640Y16021D01*
X88030Y15412D01*
Y16377D01*
X89250D01*
Y15412D01*
D02*
G37*
G36*
X35673Y67410D02*
X35419D01*
X34810Y68020D01*
X35419Y68630D01*
X35673D01*
Y67410D01*
D02*
G37*
G36*
X34759Y68020D02*
X35368Y67410D01*
X34403D01*
Y68020D01*
Y68630D01*
X35368D01*
X34759Y68020D01*
D02*
G37*
G36*
X35737Y69450D02*
Y68840D01*
X34772D01*
X35381Y69450D01*
X34772Y70060D01*
X35737D01*
Y69450D01*
D02*
G37*
G36*
X35330D02*
X34721Y68840D01*
X34467D01*
Y70060D01*
X34721D01*
X35330Y69450D01*
D02*
G37*
G36*
X50297Y62770D02*
Y62160D01*
X49332D01*
X49941Y62770D01*
X49332Y63380D01*
X50297D01*
Y62770D01*
D02*
G37*
G36*
X31397Y61703D02*
X30178D01*
Y62668D01*
X30787Y62059D01*
X31397Y62668D01*
Y61703D01*
D02*
G37*
G36*
X50223Y60850D02*
X49969D01*
X49360Y61460D01*
X49969Y62070D01*
X50223D01*
Y60850D01*
D02*
G37*
G36*
X49890Y62770D02*
X49281Y62160D01*
X49027D01*
Y63380D01*
X49281D01*
X49890Y62770D01*
D02*
G37*
G36*
X31397Y62719D02*
X30787Y62110D01*
X30178Y62719D01*
Y62973D01*
X31397D01*
Y62719D01*
D02*
G37*
D89*
X65270Y39550D02*
D03*
X63670D02*
D03*
X90280Y21120D02*
D03*
X91880D02*
D03*
X34537Y52120D02*
D03*
X32937D02*
D03*
X43630Y52240D02*
D03*
X45230D02*
D03*
X23570Y71090D02*
D03*
X25170D02*
D03*
X19740Y89040D02*
D03*
X21340D02*
D03*
X33760Y92120D02*
D03*
X35360D02*
D03*
X33960Y96510D02*
D03*
X35560D02*
D03*
X33960Y103280D02*
D03*
X35560D02*
D03*
X106500Y89130D02*
D03*
X104900D02*
D03*
X100800Y71230D02*
D03*
X102400D02*
D03*
X44737Y66860D02*
D03*
X43137D02*
D03*
X39937Y52140D02*
D03*
X38337D02*
D03*
X65280Y40830D02*
D03*
X63680D02*
D03*
X30520Y21130D02*
D03*
X32120D02*
D03*
D90*
X78850Y99340D02*
D03*
X81200Y100290D02*
D03*
D91*
X81200Y98390D02*
D03*
D93*
X87210Y14760D02*
D03*
Y16360D02*
D03*
X29360Y61540D02*
D03*
Y63140D02*
D03*
X31670Y56470D02*
D03*
Y54870D02*
D03*
X37897Y49140D02*
D03*
Y47540D02*
D03*
X46557Y47710D02*
D03*
Y49310D02*
D03*
X46857Y54370D02*
D03*
Y55970D02*
D03*
X59090Y67830D02*
D03*
Y66230D02*
D03*
X32197Y64770D02*
D03*
Y63170D02*
D03*
X69000Y56310D02*
D03*
Y57910D02*
D03*
X81390Y56380D02*
D03*
Y57980D02*
D03*
X81330Y46610D02*
D03*
Y48210D02*
D03*
X25580Y18590D02*
D03*
Y20190D02*
D03*
D96*
X50540Y59130D02*
D03*
X48840D02*
D03*
X23520Y69820D02*
D03*
X25220D02*
D03*
X19700Y87640D02*
D03*
X21400D02*
D03*
X35510Y90840D02*
D03*
X33810D02*
D03*
X81200Y101640D02*
D03*
X79500D02*
D03*
X106550Y87830D02*
D03*
X104850D02*
D03*
X100770Y69930D02*
D03*
X102470D02*
D03*
X37840Y50690D02*
D03*
X36140D02*
D03*
D97*
X59410Y39440D02*
D03*
Y41140D02*
D03*
X80010Y58040D02*
D03*
Y56340D02*
D03*
X81330Y49550D02*
D03*
Y51250D02*
D03*
X87210Y18480D02*
D03*
Y20180D02*
D03*
X88630Y19380D02*
D03*
Y17680D02*
D03*
X67690Y56260D02*
D03*
Y57960D02*
D03*
X57710Y63820D02*
D03*
Y62120D02*
D03*
X59090Y64760D02*
D03*
Y63060D02*
D03*
X55430Y71950D02*
D03*
Y70250D02*
D03*
X82650Y100170D02*
D03*
Y98470D02*
D03*
X62250Y39440D02*
D03*
Y41140D02*
D03*
X60820Y39430D02*
D03*
Y41130D02*
D03*
X57990Y39430D02*
D03*
Y41130D02*
D03*
X33360Y38370D02*
D03*
Y40070D02*
D03*
X28570Y19380D02*
D03*
Y17680D02*
D03*
X27090Y18530D02*
D03*
Y20230D02*
D03*
X44730Y70150D02*
D03*
Y68450D02*
D03*
D98*
X41400Y40140D02*
D03*
X34900D02*
D03*
Y42690D02*
D03*
D99*
X41400D02*
D03*
D101*
X90480Y15965D02*
D03*
Y17235D02*
D03*
Y18505D02*
D03*
Y19775D02*
D03*
X96080Y15965D02*
D03*
Y17235D02*
D03*
Y18505D02*
D03*
X30510Y16005D02*
D03*
Y17275D02*
D03*
Y18545D02*
D03*
Y19815D02*
D03*
X36110Y16005D02*
D03*
Y17275D02*
D03*
Y18545D02*
D03*
X60908Y63964D02*
D03*
Y65234D02*
D03*
Y66504D02*
D03*
Y67774D02*
D03*
X66508Y63964D02*
D03*
Y65234D02*
D03*
Y66504D02*
D03*
D102*
X96080Y19775D02*
D03*
X36110Y19815D02*
D03*
X66508Y67774D02*
D03*
D104*
X29880Y11400D02*
D03*
Y7800D02*
D03*
X32995Y9625D02*
D03*
X33000Y6000D02*
D03*
X36120Y7800D02*
D03*
Y11400D02*
D03*
X96120D02*
D03*
Y7800D02*
D03*
X93000Y6000D02*
D03*
X92995Y9625D02*
D03*
X89880Y7800D02*
D03*
Y11400D02*
D03*
D105*
X57230Y50960D02*
D03*
X68430D02*
D03*
D106*
X65330Y57960D02*
D03*
X60330D02*
D03*
X62830Y43460D02*
D03*
X65330D02*
D03*
X60330D02*
D03*
D107*
X118300Y38030D02*
D03*
D108*
Y34070D02*
D03*
Y30110D02*
D03*
Y26150D02*
D03*
D109*
X36690Y108320D02*
D03*
D110*
X32730D02*
D03*
X119115Y6630D02*
D03*
X114040D02*
D03*
X116565D02*
D03*
X119107Y13140D02*
D03*
X114033D02*
D03*
X116558D02*
D03*
D111*
X70310Y108320D02*
D03*
X72810D02*
D03*
X75310D02*
D03*
X65310D02*
D03*
X67810D02*
D03*
X62810D02*
D03*
X60310D02*
D03*
X62810Y99340D02*
D03*
X60310D02*
D03*
X57810D02*
D03*
X67810D02*
D03*
X65310D02*
D03*
X70310D02*
D03*
X72810D02*
D03*
D112*
X57810Y108320D02*
D03*
X75310Y99340D02*
D03*
D113*
X118320Y45390D02*
D03*
D114*
Y42850D02*
D03*
D115*
X63000Y8650D02*
D03*
X7700Y51050D02*
D03*
Y108350D02*
D03*
X118300Y51050D02*
D03*
Y108350D02*
D03*
D116*
X99330Y28890D02*
D03*
X99280Y31820D02*
D03*
X101300Y28870D02*
D03*
X101280Y26030D02*
D03*
X99320Y26000D02*
D03*
X101290Y23480D02*
D03*
X99440Y23490D02*
D03*
X101240Y31800D02*
D03*
X107030Y31840D02*
D03*
X105200D02*
D03*
X106990Y28870D02*
D03*
X105210D02*
D03*
X107030Y26010D02*
D03*
X105100Y26000D02*
D03*
X103270Y25980D02*
D03*
X107030Y23480D02*
D03*
X105020Y23490D02*
D03*
X103220Y23480D02*
D03*
X103200Y28900D02*
D03*
X103260Y31810D02*
D03*
X99450Y21090D02*
D03*
X99390Y18180D02*
D03*
X101400Y18150D02*
D03*
X103180D02*
D03*
X101390Y21120D02*
D03*
X103220D02*
D03*
X42870Y28610D02*
D03*
X42810Y25700D02*
D03*
X42830Y20280D02*
D03*
X44630Y20290D02*
D03*
X42880Y22780D02*
D03*
X44710Y22800D02*
D03*
X46640Y22810D02*
D03*
X44820Y25670D02*
D03*
X46600D02*
D03*
X44810Y28640D02*
D03*
X46640D02*
D03*
X40750D02*
D03*
X38920D02*
D03*
X40710Y25670D02*
D03*
X38930D02*
D03*
X40750Y22810D02*
D03*
X38820Y22800D02*
D03*
X40750Y20280D02*
D03*
X38740Y20290D02*
D03*
X46640Y20280D02*
D03*
X46740Y15310D02*
D03*
X38840Y15320D02*
D03*
X40850Y15310D02*
D03*
X38920Y17830D02*
D03*
X40850Y17840D02*
D03*
X46740D02*
D03*
X44810Y17830D02*
D03*
X42980Y17810D02*
D03*
X44730Y15320D02*
D03*
X42930Y15310D02*
D03*
X46630Y30830D02*
D03*
X40740D02*
D03*
D117*
X95340Y59910D02*
D03*
Y57010D02*
D03*
X98580Y58080D02*
D03*
Y55180D02*
D03*
X98620Y48960D02*
D03*
Y51860D02*
D03*
X95350Y50340D02*
D03*
Y47440D02*
D03*
X119040Y19940D02*
D03*
Y17040D02*
D03*
X116370Y19900D02*
D03*
Y17000D02*
D03*
X49620Y32160D02*
D03*
X45300Y42250D02*
D03*
Y39350D02*
D03*
X28030Y108290D02*
D03*
Y105390D02*
D03*
D118*
X92760Y51450D02*
D03*
Y46350D02*
D03*
X92760Y48900D02*
D03*
X83510D02*
D03*
X83510Y46350D02*
D03*
Y51450D02*
D03*
X92770Y61000D02*
D03*
Y55900D02*
D03*
X92770Y58450D02*
D03*
X83520D02*
D03*
X83520Y55900D02*
D03*
Y61000D02*
D03*
D119*
X109880Y31840D02*
D03*
X112780D02*
D03*
D120*
X109850Y30005D02*
D03*
Y28735D02*
D03*
Y27465D02*
D03*
Y26195D02*
D03*
X96800D02*
D03*
Y27465D02*
D03*
Y28735D02*
D03*
Y30005D02*
D03*
X36240Y26145D02*
D03*
Y27415D02*
D03*
Y28685D02*
D03*
Y29955D02*
D03*
X49330D02*
D03*
Y28685D02*
D03*
Y27415D02*
D03*
Y26145D02*
D03*
D121*
X103850Y26100D02*
D03*
Y27435D02*
D03*
Y28765D02*
D03*
Y30100D02*
D03*
X102800D02*
D03*
Y28765D02*
D03*
Y27435D02*
D03*
Y26100D02*
D03*
X42240Y30050D02*
D03*
Y28715D02*
D03*
Y27385D02*
D03*
Y26050D02*
D03*
X43330D02*
D03*
Y27385D02*
D03*
Y28715D02*
D03*
Y30050D02*
D03*
D122*
X106350Y28100D02*
D03*
X100300D02*
D03*
X39740Y28050D02*
D03*
X45830D02*
D03*
D123*
X88640Y14853D02*
D03*
Y16567D02*
D03*
X30787Y63227D02*
D03*
Y61513D02*
D03*
X49170Y56273D02*
D03*
Y57987D02*
D03*
X50470Y56273D02*
D03*
Y57987D02*
D03*
X28580Y14893D02*
D03*
Y16607D02*
D03*
D124*
X45070Y37540D02*
D03*
X47930D02*
D03*
D125*
X49620Y35060D02*
D03*
D126*
X31740Y38320D02*
D03*
Y40020D02*
D03*
X43110Y40550D02*
D03*
Y42250D02*
D03*
D127*
X44637Y49790D02*
D03*
X39837D02*
D03*
Y47290D02*
D03*
X44637D02*
D03*
D128*
X50477Y61460D02*
D03*
X48763D02*
D03*
X48773Y62770D02*
D03*
X50487D02*
D03*
X35927Y68020D02*
D03*
X34213D02*
D03*
X34213Y69450D02*
D03*
X35927D02*
D03*
D129*
X47272Y75295D02*
D03*
X52822Y75345D02*
D03*
X47272Y72745D02*
D03*
X52822Y72795D02*
D03*
Y70245D02*
D03*
D130*
X47272Y70195D02*
D03*
D131*
X45275Y55820D02*
D03*
Y56320D02*
D03*
Y56820D02*
D03*
Y57320D02*
D03*
Y57820D02*
D03*
Y58320D02*
D03*
Y58820D02*
D03*
Y59320D02*
D03*
Y59820D02*
D03*
Y60320D02*
D03*
Y60820D02*
D03*
Y61320D02*
D03*
Y61820D02*
D03*
Y62320D02*
D03*
Y62820D02*
D03*
X33799D02*
D03*
Y62320D02*
D03*
Y61820D02*
D03*
Y61320D02*
D03*
Y60820D02*
D03*
Y60320D02*
D03*
Y59820D02*
D03*
Y59320D02*
D03*
Y58820D02*
D03*
Y58320D02*
D03*
Y57820D02*
D03*
Y57320D02*
D03*
Y56820D02*
D03*
Y56320D02*
D03*
Y55820D02*
D03*
D132*
X45275Y63320D02*
D03*
X33799D02*
D03*
D133*
X43287Y65308D02*
D03*
X35787D02*
D03*
D134*
X42787D02*
D03*
X42287D02*
D03*
X41787D02*
D03*
X41287D02*
D03*
X40787D02*
D03*
X40287D02*
D03*
X39787D02*
D03*
X39287D02*
D03*
X38787D02*
D03*
X38287D02*
D03*
X37787D02*
D03*
X37287D02*
D03*
X36787D02*
D03*
X36287D02*
D03*
X35787Y53832D02*
D03*
X36287D02*
D03*
X36787D02*
D03*
X37287D02*
D03*
X37787D02*
D03*
X38287D02*
D03*
X38787D02*
D03*
X39287D02*
D03*
X39787D02*
D03*
X40287D02*
D03*
X40787D02*
D03*
X41287D02*
D03*
X41787D02*
D03*
X42287D02*
D03*
X42787D02*
D03*
D135*
X43287D02*
D03*
D136*
X33660Y95180D02*
D03*
Y93380D02*
D03*
D137*
X27350Y92287D02*
D03*
Y100812D02*
D03*
D138*
X37058Y52130D02*
D03*
X35661D02*
D03*
D139*
X37110Y90845D02*
D03*
Y93195D02*
D03*
D140*
X33635Y101695D02*
D03*
Y98045D02*
D03*
X35885D02*
D03*
Y101695D02*
D03*
M02*
