G04 Layer_Color=8388736*
%FSLAX43Y43*%
%MOMM*%
G71*
G01*
G75*
%ADD89R,1.203X1.203*%
%ADD90R,1.153X1.103*%
%ADD91R,1.153X1.103*%
%ADD92R,1.003X0.953*%
%ADD93R,1.203X1.203*%
%ADD94R,1.103X1.153*%
%ADD95R,1.103X1.153*%
%ADD96R,1.103X1.203*%
%ADD97R,1.203X1.103*%
%ADD98O,1.603X1.103*%
%ADD99R,1.603X1.103*%
%ADD100R,1.903X1.103*%
%ADD101O,1.953X0.853*%
%ADD102R,1.953X0.853*%
%ADD103R,2.503X2.003*%
%ADD104C,3.203*%
%ADD105C,5.003*%
%ADD106O,2.003X2.703*%
%ADD107R,4.203X3.203*%
%ADD108O,4.203X3.203*%
%ADD109O,3.203X4.203*%
%ADD110R,3.203X4.203*%
%ADD111O,1.803X2.203*%
%ADD112R,2.203X2.203*%
%ADD113O,2.603X1.903*%
%ADD114R,2.603X1.903*%
%ADD115C,2.703*%
%ADD116C,1.203*%
D89*
X24090Y20180D02*
D03*
X25690D02*
D03*
X25690Y15750D02*
D03*
X24090D02*
D03*
X19710Y21020D02*
D03*
X21310D02*
D03*
X85610Y16160D02*
D03*
X84010D02*
D03*
X83100Y21470D02*
D03*
X81500D02*
D03*
X84250Y20700D02*
D03*
X85850D02*
D03*
D90*
X25700Y17000D02*
D03*
X23350Y17950D02*
D03*
X85830Y17480D02*
D03*
X83480Y18430D02*
D03*
D91*
X25700Y18900D02*
D03*
X85830Y19380D02*
D03*
D92*
X28610Y14365D02*
D03*
Y15815D02*
D03*
X27170D02*
D03*
Y14365D02*
D03*
X87250Y16285D02*
D03*
Y14835D02*
D03*
X88610D02*
D03*
Y16285D02*
D03*
D93*
X27170Y17160D02*
D03*
Y18760D02*
D03*
X31790Y29320D02*
D03*
Y27720D02*
D03*
X87260Y17640D02*
D03*
Y19240D02*
D03*
X91710Y29660D02*
D03*
Y28060D02*
D03*
D94*
X21540Y26890D02*
D03*
X20590Y24540D02*
D03*
X81650Y27640D02*
D03*
X80700Y25290D02*
D03*
D95*
X22490Y24540D02*
D03*
X82600Y25290D02*
D03*
D96*
X20650Y23280D02*
D03*
X22350D02*
D03*
X21920Y29250D02*
D03*
X20220D02*
D03*
X81920Y30240D02*
D03*
X80220D02*
D03*
X80720Y23960D02*
D03*
X82420D02*
D03*
D97*
X19190Y24450D02*
D03*
Y26150D02*
D03*
X79310Y25230D02*
D03*
Y26930D02*
D03*
D98*
X23640Y26715D02*
D03*
X30140D02*
D03*
Y29265D02*
D03*
X83510Y27640D02*
D03*
X90010D02*
D03*
Y30190D02*
D03*
D99*
X23640Y29265D02*
D03*
X83510Y30190D02*
D03*
D100*
X33550Y26660D02*
D03*
Y30300D02*
D03*
X94020Y27050D02*
D03*
Y30690D02*
D03*
D101*
X15510Y19825D02*
D03*
Y18555D02*
D03*
Y17285D02*
D03*
Y16015D02*
D03*
X21110Y19825D02*
D03*
Y18555D02*
D03*
Y17285D02*
D03*
X75890Y20155D02*
D03*
Y18885D02*
D03*
Y17615D02*
D03*
Y16345D02*
D03*
X81490Y20155D02*
D03*
Y18885D02*
D03*
Y17615D02*
D03*
D102*
X21110Y16015D02*
D03*
X81490Y16345D02*
D03*
D103*
X105925Y72830D02*
D03*
X97275D02*
D03*
Y68330D02*
D03*
X105925D02*
D03*
X24675Y90800D02*
D03*
X16025D02*
D03*
Y86300D02*
D03*
X24675D02*
D03*
X28725Y72830D02*
D03*
X20075D02*
D03*
Y68330D02*
D03*
X28725D02*
D03*
X109965Y90800D02*
D03*
X101315D02*
D03*
Y86300D02*
D03*
X109965D02*
D03*
D104*
X29880Y11400D02*
D03*
Y7800D02*
D03*
X32995Y9625D02*
D03*
X33000Y6000D02*
D03*
X36120Y7800D02*
D03*
Y11400D02*
D03*
X96120D02*
D03*
Y7800D02*
D03*
X93000Y6000D02*
D03*
X92995Y9625D02*
D03*
X89880Y7800D02*
D03*
Y11400D02*
D03*
D105*
X57230Y50960D02*
D03*
X68430D02*
D03*
D106*
X65330Y57960D02*
D03*
X60330D02*
D03*
X62830Y43460D02*
D03*
X65330D02*
D03*
X60330D02*
D03*
D107*
X118300Y38030D02*
D03*
D108*
Y34070D02*
D03*
Y30110D02*
D03*
Y26150D02*
D03*
D109*
X36690Y108320D02*
D03*
D110*
X32730D02*
D03*
X119115Y6630D02*
D03*
X114040D02*
D03*
X116565D02*
D03*
X119107Y13140D02*
D03*
X114033D02*
D03*
X116558D02*
D03*
D111*
X70310Y108320D02*
D03*
X72810D02*
D03*
X75310D02*
D03*
X65310D02*
D03*
X67810D02*
D03*
X62810D02*
D03*
X60310D02*
D03*
X62810Y99340D02*
D03*
X60310D02*
D03*
X57810D02*
D03*
X67810D02*
D03*
X65310D02*
D03*
X70310D02*
D03*
X72810D02*
D03*
D112*
X57810Y108320D02*
D03*
X75310Y99340D02*
D03*
D113*
X118320Y45390D02*
D03*
D114*
Y42850D02*
D03*
D115*
X63000Y8650D02*
D03*
X7700Y51050D02*
D03*
Y108350D02*
D03*
X118300Y51050D02*
D03*
Y108350D02*
D03*
D116*
X99330Y28890D02*
D03*
X99280Y31820D02*
D03*
X101300Y28870D02*
D03*
X101280Y26030D02*
D03*
X99320Y26000D02*
D03*
X101290Y23480D02*
D03*
X99440Y23490D02*
D03*
X101240Y31800D02*
D03*
X107030Y31840D02*
D03*
X105200D02*
D03*
X106990Y28870D02*
D03*
X105210D02*
D03*
X107030Y26010D02*
D03*
X105100Y26000D02*
D03*
X103270Y25980D02*
D03*
X107030Y23480D02*
D03*
X105020Y23490D02*
D03*
X103220Y23480D02*
D03*
X103200Y28900D02*
D03*
X103260Y31810D02*
D03*
X99450Y21090D02*
D03*
X99390Y18180D02*
D03*
X101400Y18150D02*
D03*
X103180D02*
D03*
X101390Y21120D02*
D03*
X103220D02*
D03*
X42870Y28610D02*
D03*
X42810Y25700D02*
D03*
X42830Y20280D02*
D03*
X44630Y20290D02*
D03*
X42880Y22780D02*
D03*
X44710Y22800D02*
D03*
X46640Y22810D02*
D03*
X44820Y25670D02*
D03*
X46600D02*
D03*
X44810Y28640D02*
D03*
X46640D02*
D03*
X40750D02*
D03*
X38920D02*
D03*
X40710Y25670D02*
D03*
X38930D02*
D03*
X40750Y22810D02*
D03*
X38820Y22800D02*
D03*
X40750Y20280D02*
D03*
X38740Y20290D02*
D03*
X46640Y20280D02*
D03*
X46740Y15310D02*
D03*
X38840Y15320D02*
D03*
X40850Y15310D02*
D03*
X38920Y17830D02*
D03*
X40850Y17840D02*
D03*
X46740D02*
D03*
X44810Y17830D02*
D03*
X42980Y17810D02*
D03*
X44730Y15320D02*
D03*
X42930Y15310D02*
D03*
X46630Y30830D02*
D03*
X40740D02*
D03*
M02*
